<!DOCTYPE svg PUBLIC "-//W3C//DTD SVG 1.1//EN" "http://www.w3.org/Graphics/SVG/1.1/DTD/svg11.dtd">
<!-- Uploaded to: SVG Repo, www.svgrepo.com, Transformed by: SVG Repo Mixer Tools -->
<svg height="64px" width="64px" version="1.1" id="Layer_1" xmlns="http://www.w3.org/2000/svg" xmlns:xlink="http://www.w3.org/1999/xlink" viewBox="0 0 512 512" xml:space="preserve" fill="#000000">
<g id="SVGRepo_bgCarrier" stroke-width="0"/>
<g id="SVGRepo_tracerCarrier" stroke-linecap="round" stroke-linejoin="round"/>
<g id="SVGRepo_iconCarrier"> <path style="fill:#736056;" d="M100.174,456.242C44.935,456.242,0,411.302,0,356.068s44.935-100.174,100.174-100.174 s100.174,44.94,100.174,100.174S155.413,456.242,100.174,456.242z M100.174,289.286c-36.826,0-66.783,29.956-66.783,66.783 s29.956,66.783,66.783,66.783s66.783-29.956,66.783-66.783S137,289.286,100.174,289.286z"/> <path style="fill:#75e538;" d="M237.055,338.747c-5.859,0-11.543-3.092-14.598-8.576l-102-183.022 c-4.489-8.054-1.598-18.217,6.457-22.706c8.065-4.494,18.228-1.598,22.717,6.457l102,183.022c4.489,8.054,1.598,18.217-6.457,22.706 C242.598,338.062,239.804,338.747,237.055,338.747z"/> <path style="fill:#736056;" d="M411.826,456.242c-55.239,0-100.174-44.94-100.174-100.174s44.935-100.174,100.174-100.174 S512,300.835,512,356.068S467.065,456.242,411.826,456.242z M411.826,289.286c-36.826,0-66.783,29.956-66.783,66.783 s29.956,66.783,66.783,66.783s66.783-29.956,66.783-66.783S448.652,289.286,411.826,289.286z"/> <path style="fill:#75e538;" d="M418.735,371.306c-8.569,3.784-18.365,0-22.15-8.348l-77.913-171.409l-62.553,13.357l-72.125,15.471 l-57.21,118.984h90.268c9.239,0,16.696,7.457,16.696,16.696s-7.456,16.696-16.696,16.696h-116.87c-5.788,0-11.13-2.894-14.136-7.791 c-3.117-4.897-3.452-11.019-0.89-16.139l72.348-150.261c2.227-4.675,6.456-8.014,11.463-9.126l87.152-18.7l68.674-14.691 c7.681-1.558,15.472,2.337,18.7,9.461l83.478,183.652C430.867,357.504,427.083,367.41,418.735,371.306z"/> <path style="fill:#9cda2b;" d="M418.735,371.306c-8.569,3.784-18.365,0-22.15-8.348l-77.913-171.409l-62.553,13.357v-34.17 l68.674-14.691c7.681-1.558,15.472,2.337,18.7,9.461l83.478,183.652C430.867,357.504,427.083,367.41,418.735,371.306z"/> <path style="fill:#736056;" d="M172.522,155.72h-66.99c-27.5,0-49.88-22.376-49.88-49.875c0-9.223,7.479-16.696,16.696-16.696 s16.696,7.473,16.696,16.696c0,9.087,7.402,16.484,16.489,16.484h66.99c9.217,0,16.696,7.473,16.696,16.696 S181.739,155.72,172.522,155.72z"/> <g> <path style="fill:#665247;" d="M166.957,356.068c0,36.826-29.956,66.783-66.783,66.783v33.391 c55.239,0,100.174-44.94,100.174-100.174s-44.935-100.174-100.174-100.174v33.391C137,289.286,166.957,319.242,166.957,356.068z"/> <path style="fill:#665247;" d="M512,356.068c0-55.234-44.935-100.174-100.174-100.174v33.391c36.826,0,66.783,29.956,66.783,66.783 s-29.956,66.783-66.783,66.783v33.391C467.065,456.242,512,411.302,512,356.068z"/> </g> <path style="fill:#9cda2b;" d="M257.174,315.383c-3.086,8.685,1.446,18.234,10.131,21.32c1.848,0.658,3.739,0.973,5.598,0.973 c6.87,0,13.293-4.266,15.728-11.108c0.533-1.489,53.261-149.56,75.044-194.788l-30.087-14.49 C311.032,164.117,259.359,309.226,257.174,315.383z"/> <path style="fill:#DBE1E5;" d="M256.119,300.405h-0.111c-30.72,0-55.652,24.932-55.652,55.652s24.932,55.652,55.652,55.652h0.111 c30.72-0.111,55.541-24.932,55.541-55.652S286.84,300.516,256.119,300.405z"/> <path style="fill:#C9D3D9;" d="M311.66,356.057c0,30.72-24.821,55.541-55.541,55.652V300.405 C286.84,300.516,311.66,325.337,311.66,356.057z"/> <path style="fill:#665247;" d="M378.717,122.329h2.707c27.5,0,49.88-22.376,49.88-49.875c0-9.223-7.479-16.696-16.696-16.696 c-9.217,0-16.696,7.473-16.696,16.696c0,9.087-7.402,16.484-16.489,16.484h-2.707c-19.12,0-36.837,11.13-45.131,28.354l30.087,14.49 C366.435,126.041,372.348,122.329,378.717,122.329z"/> </g>
</svg>