<!DOCTYPE svg PUBLIC "-//W3C//DTD SVG 1.1//EN" "http://www.w3.org/Graphics/SVG/1.1/DTD/svg11.dtd">
<!-- Uploaded to: SVG Repo, www.svgrepo.com, Transformed by: SVG Repo Mixer Tools -->
<svg height="64px" width="64px" version="1.1" id="Layer_1" xmlns="http://www.w3.org/2000/svg" xmlns:xlink="http://www.w3.org/1999/xlink" viewBox="0 0 512.001 512.001" xml:space="preserve" fill="#000000">
<g id="SVGRepo_bgCarrier" stroke-width="0"/>
<g id="SVGRepo_tracerCarrier" stroke-linecap="round" stroke-linejoin="round"/>
<g id="SVGRepo_iconCarrier"> <g> <g> <path style="fill:#38454F;" d="M423.724,123.587c-4.882,0-8.828-3.955-8.828-8.828v-8.828c0-4.873,3.946-8.828,8.828-8.828 c4.882,0,8.828,3.955,8.828,8.828v8.828C432.552,119.632,428.606,123.587,423.724,123.587"/> <path style="fill:#38454F;" d="M459.034,150.069h-8.828c-4.882,0-8.828-3.955-8.828-8.828c0-4.873,3.946-8.828,8.828-8.828h8.828 c4.882,0,8.828,3.955,8.828,8.828C467.862,146.115,463.916,150.069,459.034,150.069"/> <path style="fill:#38454F;" d="M397.241,150.069h-8.828c-4.882,0-8.828-3.955-8.828-8.828c0-4.873,3.946-8.828,8.828-8.828h8.828 c4.882,0,8.828,3.955,8.828,8.828C406.069,146.115,402.123,150.069,397.241,150.069"/> <path style="fill:#38454F;" d="M442.448,131.345c-2.26,0-4.52-0.865-6.241-2.578c-3.452-3.452-3.452-9.039,0-12.491l6.241-6.25 c3.452-3.443,9.031-3.443,12.482,0c3.452,3.452,3.452,9.039,0,12.491l-6.241,6.241 C446.968,130.48,444.708,131.345,442.448,131.345"/> <path style="fill:#38454F;" d="M405,131.345c-2.26,0-4.52-0.865-6.241-2.586l-6.241-6.241c-3.452-3.452-3.452-9.039,0-12.491 c3.452-3.443,9.031-3.443,12.482,0l6.241,6.25c3.452,3.452,3.452,9.039,0,12.491C409.52,130.48,407.26,131.345,405,131.345"/> <path style="fill:#38454F;" d="M448.585,150.069c0.989-2.772,1.624-5.711,1.624-8.828c0-14.627-11.855-26.483-26.483-26.483 c-14.627,0-26.483,11.855-26.483,26.483c0,3.116,0.636,6.056,1.615,8.828H448.585z"/> </g> <path style="fill:#283238;" d="M0,185.38h512c0-19.5-15.81-35.31-35.31-35.31H363.308c-6.162,0-11.705-3.752-13.992-9.472 l-9.949-31.197c-2.331-7.327-9.137-12.297-16.825-12.297H189.458c-7.689,0-14.495,4.97-16.825,12.297l-9.949,31.197 c-2.286,5.72-7.83,9.472-13.992,9.472H35.31C15.81,150.069,0,165.88,0,185.38"/> <polygon style="fill:#38454F;" points="0,379.587 512,379.587 512,185.38 0,185.38 "/> <path style="fill:#283238;" d="M476.69,414.897H35.31c-19.5,0-35.31-15.81-35.31-35.31h512 C512,399.087,496.19,414.897,476.69,414.897"/> <path style="fill:#38454F;" d="M132.414,150.069H44.138c0-19.5,15.81-35.31,35.31-35.31h17.655 C116.604,114.759,132.414,130.569,132.414,150.069"/> <path style="fill:#ECBA16;" d="M273.655,150.069h-35.31c-14.566,0-26.483-11.917-26.483-26.483s11.917-26.483,26.483-26.483h35.31 c14.566,0,26.483,11.917,26.483,26.483S288.221,150.069,273.655,150.069"/> <g> <path style="fill:#283238;" d="M464.207,379.587h21.31c0-2.26-0.865-4.52-2.586-6.241L353.977,244.392 c-3.452-3.452-9.039-3.452-12.482,0c-3.452,3.452-3.452,9.031,0,12.482L464.207,379.587z"/> <path style="fill:#283238;" d="M411.241,379.587h21.31c0-2.26-0.865-4.52-2.586-6.241l-73.516-73.516 c-3.452-3.452-9.031-3.452-12.482,0c-3.452,3.443-3.452,9.031,0,12.482L411.241,379.587z"/> <path style="fill:#283238;" d="M358.276,379.587h21.31c0-2.26-0.865-4.52-2.586-6.241l-37.87-37.87 c-3.452-3.443-9.031-3.443-12.482,0c-3.452,3.452-3.452,9.039,0,12.482L358.276,379.587z"/> <path style="fill:#283238;" d="M185.354,347.962c3.452-3.452,3.452-9.031,0-12.482s-9.031-3.452-12.482,0l-37.87,37.862 c-1.721,1.73-2.586,3.99-2.586,6.25h21.31L185.354,347.962z"/> <path style="fill:#283238;" d="M168.035,312.311c3.452-3.452,3.452-9.031,0-12.482c-3.452-3.452-9.031-3.452-12.482,0 l-73.516,73.516c-1.73,1.721-2.586,3.981-2.586,6.241h21.31L168.035,312.311z"/> <path style="fill:#283238;" d="M170.508,256.875c3.452-3.452,3.452-9.031,0-12.482c-3.452-3.452-9.031-3.452-12.482,0 L29.073,373.346c-1.73,1.721-2.586,3.981-2.586,6.241h21.31L170.508,256.875z"/> <path style="fill:#283238;" d="M453.862,185.38h-21.31c0,2.26,0.865,4.52,2.586,6.241l70.621,70.621 c1.721,1.721,3.981,2.586,6.241,2.586v-21.31L453.862,185.38z"/> <path style="fill:#283238;" d="M400.897,185.38h-21.31c0,2.26,0.865,4.52,2.586,6.241L505.76,315.207 c1.721,1.721,3.981,2.586,6.241,2.586v-21.31L400.897,185.38z"/> <path style="fill:#283238;" d="M347.931,185.38h-21.31c0,2.26,0.865,4.52,2.586,6.241L505.76,368.173 c1.721,1.721,3.981,2.586,6.241,2.586v-21.31L347.931,185.38z"/> <path style="fill:#283238;" d="M0,264.828c2.26,0,4.52-0.865,6.241-2.586l70.621-70.621c1.721-1.721,2.586-3.981,2.586-6.241 h-21.31L0,243.518V264.828z"/> <path style="fill:#283238;" d="M0,317.794c2.26,0,4.52-0.865,6.241-2.586l123.586-123.586c1.721-1.721,2.586-3.981,2.586-6.241 h-21.31L0,296.484V317.794z"/> <path style="fill:#283238;" d="M0,370.759c2.26,0,4.52-0.865,6.241-2.586l176.552-176.552c1.721-1.721,2.586-3.981,2.586-6.241 h-21.31L0,349.449V370.759z"/> </g> <path style="fill:#434C6D;" d="M256,379.587c-53.539,0-97.103-43.555-97.103-97.103S202.461,185.38,256,185.38 s97.103,43.555,97.103,97.103S309.539,379.587,256,379.587"/> <path style="fill:#7383BF;" d="M256,194.207c-48.675,0-88.276,39.601-88.276,88.276s39.601,88.276,88.276,88.276 s88.276-39.601,88.276-88.276S304.675,194.207,256,194.207 M256,388.414c-58.412,0-105.931-47.519-105.931-105.931 S197.588,176.552,256,176.552s105.931,47.519,105.931,105.931S314.412,388.414,256,388.414"/> <path style="fill:#FFFFFF;" d="M317.793,282.483c0,34.127-27.666,61.793-61.793,61.793s-61.793-27.666-61.793-61.793 S221.873,220.69,256,220.69S317.793,248.356,317.793,282.483"/> <path style="fill:#434C6D;" d="M229.517,291.311c-4.882,0-8.828-3.955-8.828-8.828c0-19.474,15.837-35.31,35.31-35.31 c4.882,0,8.828,3.955,8.828,8.828c0,4.873-3.946,8.828-8.828,8.828c-9.737,0-17.655,7.918-17.655,17.655 C238.345,287.356,234.399,291.311,229.517,291.311"/> </g> </g>
</svg>