<!DOCTYPE svg PUBLIC "-//W3C//DTD SVG 1.1//EN" "http://www.w3.org/Graphics/SVG/1.1/DTD/svg11.dtd">
<!-- Uploaded to: SVG Repo, www.svgrepo.com, Transformed by: SVG Repo Mixer Tools -->
<svg version="1.1" id="Layer_1" xmlns="http://www.w3.org/2000/svg" xmlns:xlink="http://www.w3.org/1999/xlink" viewBox="0 0 512 512" xml:space="preserve" width="64px" height="64px" fill="#000000">
<g id="SVGRepo_bgCarrier" stroke-width="0"/>
<g id="SVGRepo_tracerCarrier" stroke-linecap="round" stroke-linejoin="round"/>
<g id="SVGRepo_iconCarrier"> <path style="fill:#ACAAB1;" d="M117.812,149.963H10.045C4.497,149.963,0,145.466,0,139.918v-1.871 c0-5.547,4.497-10.045,10.045-10.045h107.768V149.963z"/> <path style="opacity:0.44;fill:#3E3B43;enable-background:new ;" d="M1.1,133.492c-0.699,1.368-1.1,2.913-1.1,4.554v1.871 c0,5.547,4.497,10.045,10.045,10.045h107.768v-10.98H10.045C6.139,138.982,2.762,136.748,1.1,133.492z"/> <path style="fill:#FF5023;" d="M375.711,81.256h-79.848V49.46c0-1.651,1.473-2.911,3.104-2.657l36.82,7.836l36.82-7.836 c1.631-0.255,3.104,1.006,3.104,2.657v31.795H375.711z"/> <rect x="295.863" y="65.985" style="opacity:0.54;fill:#891C00;enable-background:new ;" width="79.851" height="16.276"/> <path style="fill:#ACAAB1;" d="M145.468,187.174h48.16V90.791h-48.16c-2.852,0-5.164,2.311-5.164,5.164v86.056 C140.304,184.862,142.615,187.174,145.468,187.174z"/> <path style="fill:#3E3B43;" d="M111.986,166.738h28.318v-55.511h-28.318c-2.553,0-4.623,2.07-4.623,4.623v46.266 C107.363,164.668,109.432,166.738,111.986,166.738z"/> <path style="fill:#FF9811;" d="M470.456,224.647H184.787V76.991h285.669c22.944,0,41.544,18.6,41.544,41.544v64.568 C512,206.048,493.4,224.647,470.456,224.647z"/> <path style="opacity:0.31;fill:#AA6100;enable-background:new ;" d="M483.427,79.295c1.087,3.711,1.681,7.633,1.681,11.696 v64.568c0,22.944-18.6,41.544-41.544,41.544h-259.45v27.545h285.669c22.944,0,41.544-18.6,41.544-41.544v-64.568 C511.327,100.372,499.667,84.942,483.427,79.295z"/> <g> <path style="fill:#3E3B43;" d="M255.769,322.597h-40.467c-2.816,0-5.002-2.456-4.676-5.253l10.809-92.696h39.04v93.241 C260.476,320.489,258.369,322.597,255.769,322.597z"/> <path style="fill:#3E3B43;" d="M415.078,322.597h-56.656c-2.885,0-5.222-2.339-5.222-5.222v-92.726h67.101v92.726 C420.301,320.258,417.962,322.597,415.078,322.597z"/> </g> <path style="opacity:0.38;enable-background:new ;" d="M401.89,371.572h-30.279c-2.776,0-5.027-2.251-5.027-5.027v-43.947h40.334 v43.947C406.917,369.32,404.666,371.572,401.89,371.572z"/> <g> <path style="fill:#AA6100;" d="M411.34,115.261c0,7.037,6.443,12.741,14.39,12.741H512v-9.467c0-5.677-1.142-11.086-3.204-16.016 H425.73C417.783,102.519,411.34,108.223,411.34,115.261z"/> <path style="fill:#AA6100;" d="M411.34,169.934c0,7.037,6.443,12.741,14.39,12.741H512v-25.483h-86.27 C417.783,157.193,411.34,162.898,411.34,169.934z"/> <path style="fill:#AA6100;" d="M282.454,119.063h-61.018c-4.328,0-7.837-3.508-7.837-7.837s3.509-7.837,7.837-7.837h61.018 c4.328,0,7.837,3.508,7.837,7.837S286.782,119.063,282.454,119.063z"/> <path style="fill:#AA6100;" d="M282.454,146.82h-61.018c-4.328,0-7.837-3.508-7.837-7.837c0-4.329,3.509-7.837,7.837-7.837h61.018 c4.328,0,7.837,3.508,7.837,7.837C290.29,143.312,286.782,146.82,282.454,146.82z"/> <path style="fill:#AA6100;" d="M282.454,174.574h-61.018c-4.328,0-7.837-3.508-7.837-7.837c0-4.329,3.509-7.837,7.837-7.837h61.018 c4.328,0,7.837,3.508,7.837,7.837C290.29,171.067,286.782,174.574,282.454,174.574z"/> </g> <rect x="378.943" y="371.575" style="fill:#3E3B43;" width="14.158" height="93.654"/> <rect x="353.196" y="224.652" style="opacity:0.38;enable-background:new ;" width="67.103" height="16.886"/> <rect x="169.336" y="90.79" style="opacity:0.54;fill:#3E3B43;enable-background:new ;" width="15.453" height="96.381"/> <g style="opacity:0.38;"> <polygon points="260.476,224.647 221.436,224.647 219.466,241.534 260.476,241.534 "/> </g> </g>
</svg>