<svg viewBox="0 0 2000 1000" xmlns="http://www.w3.org/2000/svg"><path fill="#fff" d="M0 0h2000v1000H0z"/><rect x="1848" y="655" width="6" height="13" fill="#f6f5f5" rx="0" transform="matrix(.17916 1.01632 -.95877 .14283 1961.6 -886.849)"/><rect x="1373" y="50" width="7" height="7" fill="#f2f6f7" rx="0" transform="matrix(.93028 .22509 -.41324 .97496 117.224 -356.563)"/><rect x="1103" y="441" width="6" height="10" fill="#f6f7f8" rx="0" transform="matrix(1.05026 .17581 .26846 .99708 2.798 -17.975)"/><rect x="235" y="456" width="5" height="8" fill="#f6f5f5" rx="0" transform="matrix(-.78524 .4232 -.679 -.90755 845.407 789.411)"/><rect x="809" y="886" width="7" height="11" fill="#f8f9f9" rx="0" transform="matrix(-.64279 .6411 -.76604 -.7917 2017.694 1234.334)"/><rect x="941" y="477" width="7" height="11" fill="#f2f6f7" rx="0" transform="matrix(.9357 .4565 -.3542 .89591 313.093 -480.206)"/><rect x="778" y="709" width="6" height="13" fill="#f6f7f8" rx="0" transform="matrix(-.43078 .81013 -.9214 -.5886 1883.007 544.859)"/><rect x="537" y="545" width="6" height="13" fill="#f8f9f9" rx="0" transform="matrix(1.09355 .6792 -.21433 .78133 267.313 -101.482)"/><rect x="1146" y="580" width="6" height="16" fill="#f6f5f5" rx="0" transform="matrix(-.64154 .69988 -.7645 -.72474 2322.923 351.071)"/><rect x="221" y="786" width="9" height="24" fill="#f8f9f9" rx="0" transform="matrix(-.06988 1.00046 -1.00076 .01746 998.459 550.587)"/><rect x="1287" y="941" width="9" height="16" fill="#f6f7f8" rx="0" transform="matrix(-.85592 .51574 -.51446 -.85834 2931.325 1029.799)"/><rect x="606" y="665" width="6" height="6" fill="#f6f7f8" rx="0" transform="matrix(.54462 .69848 -.8677 .7233 772.062 -304.552)"/><rect x="1440" y="27" width="9" height="24" fill="#f6f7f8" rx="0" transform="matrix(-1.00754 .2598 -.08882 -.96962 2910.997 -424.855)"/><rect x="1427" y="111" width="7" height="15" fill="#f2f6f7" rx="0" transform="matrix(-.98004 .2758 -.20792 -.96185 2839.388 -112.106)"/><rect x="310" y="247" width="9" height="23" fill="#f2f6f7" rx="0" transform="matrix(-.42539 .8191 -.91179 -.59511 694.748 204.541)"/><rect x="645" y="351" width="8" height="10" fill="#f6f5f5" rx="0" transform="matrix(-.83596 .39169 -.58367 -.92275 1455.736 475.679)"/><rect x="1566" y="688" width="9" height="19" fill="#f8f9f9" rx="0" transform="matrix(.9563 .4098 -.29237 .9204 272.553 -395.227)"/><rect x="1795" y="762" width="8" height="13" fill="#f8f9f9" rx="0" transform="matrix(-.35584 .93395 -.91229 -.41582 2957.958 -209.735)"/><rect x="1370" y="343" width="5" height="11" fill="#f8f9f9" rx="0" transform="matrix(.77796 .50008 -.65222 .86616 480.643 -663.667)"/><rect x="1766" y="805" width="7" height="20" fill="#f6f5f5" rx="0" transform="matrix(1.01688 .2777 -.05464 .96848 123.167 -248.448)"/><rect x="955" y="973" width="9" height="22" fill="#f6f5f5" rx="0" transform="matrix(-.86458 .21525 -.57833 -1.01265 2510.525 2031.02)"/><rect x="1120" y="698" width="9" height="26" fill="#f8f9f9" rx="0" transform="matrix(-.2277 .84497 -1.0356 -.54873 2328.56 289.05)"/><rect x="1943" y="843" width="6" height="6" fill="#f8f9f9" rx="0" transform="matrix(-.64317 .59141 -.73732 -.8768 3715.372 1106.949)"/><rect x="15" y="967" width="5" height="13" fill="#f6f5f5" rx="0" transform="matrix(.1771 .93415 -.99895 .37742 901.892 587.586)"/><rect x="1768" y="390" width="7" height="11" fill="#f6f7f8" rx="0" transform="matrix(.2086 1.01872 -.98163 0 1803.13 -1064.812)"/><rect x="883" y="388" width="8" height="11" fill="#f6f5f5" rx="0" transform="matrix(-.44066 .83918 -.90547 -.54497 1691.588 -167.383)"/><rect x="1728" y="515" width="5" height="8" fill="#f6f5f5" rx="0" transform="matrix(.81288 .8158 -.59069 .63738 647.54 -759.871)"/><rect x="1980" y="125" width="7" height="12" fill="#f6f5f5" rx="0" transform="matrix(-.55086 .75045 -.83654 -.6757 3143.342 -1547.76)"/><rect x="1071" y="674" width="9" height="25" fill="#f6f7f8" rx="0" transform="matrix(-.78774 .47206 -.63687 -.88781 2429.871 901.324)"/><rect x="1931" y="33" width="9" height="21" fill="#f2f6f7" rx="0" transform="matrix(-.3071 1 -.94585 -.17633 2560.637 -2225.61)"/><rect x="192" y="404" width="9" height="17" fill="#f6f7f8" rx="0" transform="matrix(1.04469 .40858 .01366 .96256 43.609 -4.769)"/><rect x="996" y="290" width="6" height="8" fill="#f6f5f5" rx="0" transform="matrix(.74175 .50623 -.69063 .87682 451.547 -627.738)"/><rect x="718" y="565" width="8" height="21" fill="#f6f7f8" rx="0" transform="matrix(-.12273 1.00168 -1.00906 .08764 1338.815 -274.034)"/><rect x="1585" y="506" width="6" height="13" fill="#f6f7f8" rx="0" transform="matrix(-.17518 1.00046 -.99649 -.01746 2320.761 -1122.73)"/><rect x="504" y="640" width="9" height="12" fill="#f6f5f5" rx="0" transform="matrix(-.91725 .50069 -.40854 -.86721 1206.379 924.972)"/><rect x="440" y="683" width="7" height="13" fill="#f6f7f8" rx="0" transform="matrix(.97438 .47012 -.2946 .88416 380.6 -151.867)"/><rect x="1063" y="284" width="5" height="11" fill="#f6f5f5" rx="0" transform="matrix(-.99624 -.07257 -.46666 -1.03777 2410.448 972.781)"/><rect x="23" y="604" width="9" height="14" fill="#f6f5f5" rx="0" transform="matrix(.99985 0 .07005 1.00015 10.617 -.573)"/><rect x="22" y="871" width="6" height="10" fill="#f2f6f7" rx="0" transform="matrix(-.6336 .7264 -.76477 -.70149 896.229 1468.827)"/><rect x="1316" y="265" width="8" height="14" fill="#f8f9f9" rx="0" transform="matrix(-1.0342 -.32682 -.12317 -1.00586 2795.004 1431.512)"/><rect x="1570" y="223" width="7" height="11" fill="#f6f7f8" rx="0" transform="matrix(-.6948 .55413 -.6927 -.8868 2775.444 40.273)"/><rect x="1429" y="329" width="7" height="15" fill="#f6f5f5" rx="0" transform="matrix(.79854 .78143 -.63307 .63279 562.033 -1146.388)"/><rect x="291" y="32" width="8" height="12" fill="#f8f9f9" rx="0" transform="matrix(-1.03516 -.12508 -.4355 -1.01865 651.398 181.712)"/><rect x="407" y="49" width="9" height="20" fill="#f8f9f9" rx="0" transform="matrix(-.48481 .78038 -.87462 -.65482 662.602 -143.506)"/><rect x="118" y="402" width="7" height="12" fill="#f2f6f7" rx="0" transform="matrix(.96953 .66099 -.39757 .76038 255.804 32.375)"/><rect x="165" y="196" width="8" height="17" fill="#f2f6f7" rx="0" transform="matrix(-.61228 .83526 -.78424 -.5634 442.482 157.804)"/><rect x="1009" y="842" width="5" height="7" fill="#f6f7f8" rx="0" transform="matrix(.38876 .87039 -.91532 .52298 1415.465 -655.437)"/><rect x="1272" y="60" width="8" height="10" fill="#f8f9f9" rx="0" transform="matrix(-.52091 .73044 -.866 -.70537 2012.172 -596.195)"/><rect x="1440" y="73" width="8" height="10" fill="#f2f6f7" rx="0" transform="matrix(.42513 1.05002 -.97464 -.05503 992.805 -964.754)"/><rect x="1904" y="616" width="6" height="16" fill="#f6f5f5" rx="0" transform="matrix(.20863 .95338 -.98111 .30977 2104.225 -1520.741)"/><rect x="240" y="84" width="6" height="16" fill="#f6f7f8" rx="0" transform="matrix(.16626 .99315 -1.02731 -.12194 324.247 -146.603)"/><rect x="226" y="707" width="8" height="9" fill="#f8f9f9" rx="0" transform="matrix(-.73504 .60218 -.6852 -.79912 936.893 1149.605)"/><rect x="1636" y="988" width="8" height="14" fill="#f2f6f7" rx="0" transform="matrix(-.27564 .98538 -.96126 -.19154 3048.5 -573.92)"/><rect x="1024" y="878" width="5" height="14" fill="#f6f7f8" rx="0" transform="matrix(.79783 .73135 -.62334 .682 899.346 -469.303)"/><rect x="401" y="681" width="8" height="13" fill="#f6f7f8" rx="0" transform="matrix(-.96025 .17535 -.2569 -.99449 931.504 1357.11)"/><rect x="1704" y="444" width="6" height="11" fill="#f6f7f8" rx="0" transform="matrix(.44273 .82954 -.90686 .55953 1317.912 -1277.65)"/><rect x="1695" y="44" width="9" height="25" fill="#f8f9f9" rx="0" transform="matrix(.75885 1.03819 -.81571 .2018 615.913 -1134.12)"/><rect x="827" y="909" width="5" height="6" fill="#f8f9f9" rx="0" transform="matrix(.81965 .54464 -.57393 .83867 641.172 -304.646)"/><rect x="186" y="864" width="7" height="12" fill="#f8f9f9" rx="0" transform="matrix(-.85707 .20063 -.57511 -1.03214 933.762 1791.518)"/><rect x="1068" y="466" width="5" height="12" fill="#f6f7f8" rx="0" transform="matrix(-.8765 .30006 -.46573 -.98146 2203.507 861.177)"/><rect x="1472" y="574" width="6" height="14" fill="#f6f5f5" rx="0" transform="matrix(.99634 .45427 -.24592 .89155 290.154 -658.543)"/><rect x="1353" y="278" width="7" height="15" fill="#f2f6f7" rx="0" transform="matrix(-.90386 .31287 -.41445 -.96291 2719.835 -78.844)"/><rect x="537" y="928" width="9" height="11" fill="#f8f9f9" rx="0" transform="matrix(.15734 .9657 -1.08362 -.29525 1795.898 762.286)"/><rect x="1061" y="748" width="8" height="22" fill="#f8f9f9" rx="0" transform="matrix(-.85743 .37552 -.54075 -.92945 2559.266 990.049)"/><rect x="1671" y="668" width="7" height="20" fill="#f6f7f8" rx="0" transform="matrix(-.98363 .12217 -.1745 -.99497 3508.771 1030.929)"/><rect x="55" y="527" width="8" height="16" fill="#f6f5f5" rx="0" transform="matrix(.19154 .96126 -.98538 .27564 528.07 330.82)"/><rect x="431" y="196" width="5" height="12" fill="#f2f6f7" rx="0" transform="matrix(.1232 .99817 -1.01045 -.0698 618.596 -201.47)"/><rect x="1130" y="79" width="9" height="18" fill="#f2f6f7" rx="0" transform="matrix(.99342 .55 -.28848 .84691 72.045 -451.05)"/><rect x="1535" y="245" width="8" height="14" fill="#f8f9f9" rx="0" transform="matrix(.45815 .82028 -.8983 .57436 1045.28 -1235.8)"/><rect x="601" y="468" width="9" height="26" fill="#f8f9f9" rx="0" transform="matrix(.5864 .88322 -.80718 .48957 628.809 -204.174)"/><rect x="726" y="137" width="6" height="17" fill="#f6f7f8" rx="0" transform="matrix(-.69259 .83179 -.71727 -.58242 1338.556 -504.674)"/><rect x="1363" y="428" width="8" height="9" fill="#f8f9f9" rx="0" transform="matrix(-.98466 .17367 -.17363 -.98496 2795.252 597.22)"/><rect x="1643" y="638" width="8" height="14" fill="#f2f6f7" rx="0" transform="matrix(-.25867 .93486 -.97038 -.35886 2787.412 -749.568)"/><rect x="1708" y="40" width="8" height="23" fill="#f2f6f7" rx="0" transform="matrix(-.5619 .58242 -.9145 -.83179 2809.161 -600.902)"/><rect x="62" y="794" width="6" height="14" fill="#f6f7f8" rx="0" transform="matrix(-.90763 .09164 -.53794 -1.04746 670.429 1655.18)"/><rect x="258" y="297" width="9" height="23" fill="#f6f7f8" rx="0" transform="matrix(-.8624 .50191 -.49868 -.86933 667.701 421.972)"/><rect x="352" y="211" width="6" height="8" fill="#f6f7f8" rx="0" transform="matrix(.5566 .76412 -.82485 .66424 340.294 -255.299)"/><rect x="1693" y="678" width="8" height="21" fill="#f8f9f9" rx="0" transform="matrix(1.01226 .1046 .0701 .99513 36.016 -114.878)"/><rect x="1668" y="589" width="9" height="23" fill="#f8f9f9" rx="0" transform="matrix(-.9971 -.08801 -.03478 -1.00598 3346.437 1586.849)"/><rect x="1628" y="310" width="7" height="18" fill="#f8f9f9" rx="0" transform="matrix(.96349 .40674 -.29457 .91355 192.707 -636.012)"/><rect x="1897" y="868" width="7" height="9" fill="#f6f7f8" rx="0" transform="matrix(1.02092 .17535 .0872 .99449 24.074 -61.353)"/><rect x="754" y="95" width="9" height="25" fill="#f6f7f8" rx="0" transform="matrix(-.9015 .20842 -.5568 -.98054 1548.177 107.861)"/><rect x="458" y="59" width="6" height="8" fill="#f8f9f9" rx="0" transform="matrix(-.0523 .99634 -.99726 -.12233 546.13 -348.272)"/><rect x="1168" y="72" width="6" height="16" fill="#f2f6f7" rx="0" transform="matrix(.22008 .98395 -.9655 .22716 956.15 -925.8)"/><rect x="1399" y="73" width="6" height="9" fill="#f2f6f7" rx="0" transform="matrix(-.8541 .39946 -.49124 -.94107 2604.668 -111.606)"/><rect x="1327" y="912" width="5" height="6" fill="#f2f6f7" rx="0" transform="matrix(.4424 .83018 -.90616 .55996 1496.498 -770.758)"/><rect x="370" y="736" width="8" height="22" fill="#f2f6f7" rx="0" transform="matrix(.31208 1.01624 -.9622 .07106 1019.006 386.543)"/><rect x="1866" y="908" width="5" height="7" fill="#f6f5f5" rx="0" transform="matrix(-.96366 .4574 -.29497 -.8977 3902.229 645.677)"/><rect x="575" y="801" width="8" height="11" fill="#f6f5f5" rx="0" transform="matrix(-.89085 .58814 -.47411 -.80951 1394.533 1098.616)"/><rect x="920" y="18" width="7" height="16" fill="#f6f5f5" rx="0" transform="matrix(-.33206 1.01108 -.97164 -.05299 1270.184 -1052.62)"/><rect x="1460" y="799" width="7" height="9" fill="#f8f9f9" rx="0" transform="matrix(.37122 .80017 -.9597 .62516 1624.367 -1127.914)"/><rect x="1595" y="226" width="5" height="8" fill="#f8f9f9" rx="0" transform="matrix(1.00845 .69476 -.35791 .74504 193.616 -740.721)"/><rect x="1654" y="525" width="8" height="23" fill="#f6f5f5" rx="0" transform="matrix(-.93924 .53652 -.36075 -.85862 3399.237 -155.01)"/><rect x="1386" y="744" width="5" height="9" fill="#f8f9f9" rx="0" transform="matrix(-.95685 .21112 -.23502 -.99324 2753.399 1443.63)"/><rect x="1794" y="177" width="9" height="18" fill="#f2f6f7" rx="0" transform="matrix(.92552 .34286 -.37384 .94199 205.594 -731.598)"/><rect x="126" y="591" width="9" height="22" fill="#f6f7f8" rx="0" transform="matrix(.12598 .97496 -1.05476 -.22509 946.11 614.827)"/><rect x="518" y="178" width="5" height="12" fill="#f6f7f8" rx="0" transform="matrix(-.9815 .10454 -.22695 -.99467 1097.713 303.52)"/><rect x="1109" y="928" width="7" height="11" fill="#f6f7f8" rx="0" transform="matrix(-.58269 .44697 -.98771 -.95853 3085.282 1714.098)"/><rect x="535" y="950" width="6" height="11" fill="#f8f9f9" rx="0" transform="matrix(-.5811 .70149 -.82381 -.7264 1923.67 1196.574)"/><rect x="1705" y="907" width="8" height="12" fill="#f6f7f8" rx="0" transform="matrix(.0521 1.01112 -.9954 -.12415 2507.011 -369.465)"/><rect x="1571" y="865" width="6" height="10" fill="#f8f9f9" rx="0" transform="matrix(-.67905 .45604 -.80054 -.93501 3525 1416.998)"/><rect x="861" y="39" width="6" height="8" fill="#f8f9f9" rx="0" transform="matrix(-1.01963 .15703 .06958 -.99146 1746.551 -125.633)"/><rect x="852" y="371" width="6" height="8" fill="#f8f9f9" rx="0" transform="matrix(1.0086 .86826 -.49674 .56385 363.62 -349.706)"/><rect x="714" y="861" width="9" height="19" fill="#f6f5f5" rx="0" transform="matrix(.975 -.1409 .15934 1.00261 12.687 -14.83)"/><rect x="1485" y="833" width="5" height="7" fill="#f6f7f8" rx="0" transform="matrix(.22283 1.03046 -.96655 .01799 1922.393 -340.475)"/><rect x="1191" y="903" width="5" height="12" fill="#f6f7f8" rx="0" transform="matrix(.18625 .99127 -.9726 .19268 1703.973 -281.5)"/><rect x="921" y="195" width="8" height="23" fill="#f2f6f7" rx="0" transform="matrix(.08749 1 -1.02509 -.28675 1097.025 -394.048)"/><rect x="1533" y="172" width="6" height="8" fill="#f2f6f7" rx="0" transform="matrix(-.98163 .3639 -.1908 -.94798 3077.362 -486.938)"/><rect x="471" y="98" width="5" height="5" fill="#f2f6f7" rx="0" transform="matrix(.0671 .99146 -.99798 .15703 517 -343.313)"/><rect x="1934" y="100" width="7" height="16" fill="#f6f7f8" rx="0" transform="matrix(-1.02888 -.12678 -.49193 -1.03255 4199.694 1020.721)"/><rect x="862" y="409" width="7" height="10" fill="#f2f6f7" rx="0" transform="matrix(.67064 .83526 -.74488 .5634 602.522 -435.895)"/><rect x="1906" y="524" width="7" height="15" fill="#f8f9f9" rx="0" transform="matrix(.78195 .8656 -.68544 .5201 921.72 -1129.417)"/><rect x="447" y="276" width="8" height="21" fill="#f2f6f7" rx="0" transform="matrix(.30573 1 -1.01602 -.0524 699.024 -125.85)"/><rect x="526" y="515" width="6" height="11" fill="#f8f9f9" rx="0" transform="matrix(-.56229 .76616 -.8334 -.64289 1306.577 459.056)"/><rect x="1306" y="624" width="5" height="12" fill="#f2f6f7" rx="0" transform="matrix(.98453 -.10614 .05424 1.00986 35.095 -98.053)"/><rect x="993" y="642" width="7" height="11" fill="#f6f5f5" rx="0" transform="matrix(.98416 .44166 -.24634 .90554 242.646 -256.602)"/><rect x="223" y="897" width="5" height="5" fill="#f6f5f5" rx="0" transform="matrix(.3635 1.03967 -.94915 .0363 1047.823 697.06)"/><rect x="303" y="351" width="9" height="12" fill="#f6f5f5" rx="0" transform="matrix(-.7523 .52468 -.65389 -.87321 764.997 567.17)"/><rect x="195" y="210" width="7" height="7" fill="#f6f5f5" rx="0" transform="matrix(.24798 .90099 -.98894 .43944 332.36 -73.048)"/><rect x="368" y="154" width="8" height="21" fill="#f8f9f9" rx="0" transform="matrix(.5973 .9974 -.908 .15797 365.446 -180.236)"/><rect x="1727" y="933" width="6" height="11" fill="#f8f9f9" rx="0" transform="matrix(-.61178 .9204 -.8141 -.4098 3476.089 -481.63)"/><rect x="1425" y="264" width="7" height="18" fill="#f2f6f7" rx="0" transform="matrix(.93826 .37552 -.34068 .92945 199.392 -617.062)"/><rect x="1083" y="349" width="7" height="7" fill="#f6f5f5" rx="0" transform="matrix(.16794 .89395 -1.02933 .47532 1235.06 -958.417)"/><rect x="1667" y="419" width="9" height="10" fill="#f2f6f7" rx="0" transform="matrix(-.66216 .85012 -.76254 -.53121 3074.75 -888.622)"/><rect x="1040" y="165" width="9" height="9" fill="#f6f7f8" rx="0" transform="matrix(-1.00925 -.26925 -.05254 -1.00485 2123.946 920.559)"/><rect x="1118" y="468" width="9" height="20" fill="#f6f5f5" rx="0" transform="matrix(.40875 1.03255 -.9183 .12678 1116.579 -419.761)"/><rect x="405" y="83" width="7" height="7" fill="#f6f5f5" rx="0" transform="matrix(-.79544 .49756 -.57479 -.89763 764.153 55.2)"/><rect x="1542" y="372" width="7" height="11" fill="#f2f6f7" rx="0" transform="matrix(1.03186 .27631 -.0206 .9636 52.93 -305.228)"/><rect x="670" y="215" width="6" height="7" fill="#f6f5f5" rx="0" transform="matrix(.67552 .92107 -.79896 .39097 460.093 -510.306)"/><rect x="661" y="904" width="5" height="5" fill="#f8f9f9" rx="0" transform="matrix(.19 .98402 -.9793 .19127 1358.532 126.606)"/><rect x="1619" y="506" width="9" height="10" fill="#f8f9f9" rx="0" transform="matrix(-1.0023 -.05262 -.12255 -1.00413 3361.038 1280.183)"/><rect x="386" y="328" width="6" height="10" fill="#f8f9f9" rx="0" transform="matrix(-.13802 .97624 -.97136 -.37474 734.551 196.962)"/><rect x="769" y="901" width="9" height="18" fill="#f2f6f7" rx="0" transform="matrix(-1.00983 .13917 0 -.99027 1426.71 1703.494)"/><rect x="987" y="252" width="6" height="13" fill="#f8f9f9" rx="0" transform="matrix(.69326 1.05504 -.89935 .07378 708.025 -464.18)"/><rect x="1564" y="59" width="6" height="14" fill="#f6f5f5" rx="0" transform="matrix(.84574 .6111 -.51406 .81096 219.3 -1221.42)"/><rect x="91" y="560" width="7" height="9" fill="#f8f9f9" rx="0" transform="matrix(-.55064 .90686 -.84594 -.42288 523.95 720.815)"/><rect x="1773" y="267" width="7" height="20" fill="#f8f9f9" rx="0" transform="matrix(.42314 .92945 -.90495 .37552 1294.223 -1602.409)"/><rect x="1582" y="825" width="8" height="23" fill="#f8f9f9" rx="0" transform="matrix(.95983 .58073 -.3512 .82936 471.81 -527.096)"/><rect x="1479" y="485" width="7" height="9" fill="#f6f5f5" rx="0" transform="matrix(-1.00139 -.05262 -.10496 -1.00413 3052.255 1214.854)"/><rect x="1692" y="533" width="6" height="10" fill="#f8f9f9" rx="0" transform="matrix(.52645 .93773 -.84294 .39804 1225.88 -936.132)"/><rect x="706" y="258" width="5" height="11" fill="#f6f7f8" rx="0" transform="matrix(-.63855 .87475 -.78923 -.48488 1329.097 -240.863)"/><rect x="1118" y="436" width="8" height="13" fill="#f8f9f9" rx="0" transform="matrix(-.75097 .8656 -.70405 -.5201 2236.104 -456.236)"/><rect x="506" y="792" width="7" height="17" fill="#f6f7f8" rx="0" transform="matrix(.27999 1 -.93536 .23087 970.185 223.817)"/><rect x="170" y="391" width="7" height="19" fill="#f2f6f7" rx="0" transform="matrix(-.97614 .29255 -.2254 -.95689 419.36 726.917)"/><rect x="226" y="56" width="5" height="9" fill="#f6f5f5" rx="0" transform="matrix(.95062 .24374 -.29 .97758 31.097 -82.394)"/><rect x="933" y="287" width="6" height="7" fill="#f6f5f5" rx="0" transform="matrix(.94016 .98263 -.67549 .35765 450.8 -446.973)"/><rect x="870" y="444" width="5" height="11" fill="#f8f9f9" rx="0" transform="matrix(-.2139 .8268 -1.0483 -.62304 1663.144 241.954)"/><rect x="1383" y="83" width="7" height="18" fill="#f8f9f9" rx="0" transform="matrix(.90585 .40698 -.42251 .9141 162.045 -507.964)"/><rect x="499" y="87" width="8" height="8" fill="#f8f9f9" rx="0" transform="matrix(-.34882 .84818 -.96103 -.53 784.893 -296.183)"/><rect x="1896" y="750" width="8" height="23" fill="#f8f9f9" rx="0" transform="matrix(.1765 .98395 -1.05706 -.22716 2645.212 -667.986)"/><rect x="1833" y="620" width="9" height="23" fill="#f6f7f8" rx="0" transform="matrix(.9204 .65482 -.43024 .78038 487.08 -707.367)"/><rect x="726" y="605" width="7" height="16" fill="#f6f5f5" rx="0" transform="matrix(.02906 .95295 -1.06293 -.44437 1494.504 427.25)"/><rect x="478" y="154" width="7" height="8" fill="#f2f6f7" rx="0" transform="matrix(.94534 .45461 -.34435 .89223 93.54 -176.634)"/><rect x="649" y="108" width="6" height="10" fill="#f2f6f7" rx="0" transform="matrix(.54485 .81928 -.83908 .57366 385.056 -474.612)"/><rect x="190" y="154" width="7" height="10" fill="#f6f7f8" rx="0" transform="matrix(.36368 1.00552 -1.1057 -.30742 375.33 76.184)"/><rect x="602" y="199" width="6" height="14" fill="#f6f7f8" rx="0" transform="matrix(.32368 1.02451 -1.0508 -.23653 718.579 -168.53)"/><rect x="1334" y="793" width="7" height="15" fill="#f2f6f7" rx="0" transform="matrix(.65256 .76038 -.74788 .66099 1141.509 -909.848)"/><rect x="200" y="204" width="7" height="15" fill="#f2f6f7" rx="0" transform="matrix(.15758 .99708 -.97514 .17581 402.868 -60.822)"/><rect x="1544" y="59" width="6" height="16" fill="#f6f5f5" rx="0" transform="matrix(-.20938 .93198 -.98411 -.3956 1947.737 -1103.246)"/><rect x="1626" y="442" width="9" height="12" fill="#f8f9f9" rx="0" transform="matrix(.98055 .15838 -.12278 1 0 0)"/><rect x="1105" y="465" width="5" height="7" fill="#f2f6f7" rx="0" transform="matrix(-.92676 .14553 -.27709 -1.03552 2150.273 1131.059)"/><rect x="436" y="978" width="6" height="15" fill="#f2f6f7" rx="0" transform="matrix(.44353 1.0536 -.91033 .09218 1181.11 583.29)"/><rect x="442" y="331" width="5" height="6" fill="#f6f5f5" rx="0" transform="matrix(-.46877 .86721 -.88247 -.50069 974.797 92.457)"/><rect x="729" y="883" width="6" height="17" fill="#f6f5f5" rx="0" transform="matrix(.30886 .94027 -.95111 .34223 1289.708 -76.31)"/><rect x="1656" y="944" width="8" height="9" fill="#f6f5f5" rx="0" transform="matrix(-.89354 .20842 -.59423 -.98054 4052.812 1648.64)"/><rect x="781" y="536" width="9" height="25" fill="#f6f7f8" rx="0" transform="matrix(.3746 .95996 -.92718 .29349 999.807 -297.803)"/><rect x="1828" y="226" width="7" height="18" fill="#f2f6f7" rx="0" transform="matrix(.79606 .7211 -.61803 .69635 541.479 -1377.402)"/><rect x="534" y="779" width="9" height="24" fill="#f6f5f5" rx="0" transform="matrix(-.70895 .52298 -.7322 -.87039 1576.96 1292.804)"/><rect x="1369" y="982" width="6" height="12" fill="#f8f9f9" rx="0" transform="matrix(.75566 .78683 -.659 .63716 1236.742 -938.358)"/><rect x="721" y="187" width="5" height="6" fill="#f6f7f8" rx="0" transform="matrix(.97426 .5381 -.29927 .86113 103.267 -235.353)"/><rect x="488" y="897" width="9" height="10" fill="#f2f6f7" rx="0" transform="matrix(.5721 .69508 -.84626 .71978 818.051 -106.766)"/><rect x="784" y="692" width="8" height="19" fill="#f2f6f7" rx="0" transform="matrix(.56215 .93715 -.85128 .35974 1135.59 -358.268)"/><rect x="1187" y="199" width="5" height="11" fill="#f8f9f9" rx="0" transform="matrix(-.02876 .90977 -1.08577 -.42423 1552 -686.848)"/><rect x="671" y="32" width="6" height="6" fill="#f2f6f7" rx="0" transform="matrix(-.6156 .65646 -.81516 -.75517 1127.768 -357.486)"/><rect x="707" y="114" width="9" height="26" fill="#f8f9f9" rx="0" transform="matrix(.5607 .6846 -.85942 .73415 411.453 -515.58)"/><rect x="735" y="359" width="6" height="8" fill="#f6f7f8" rx="0" transform="matrix(-.98953 .05262 -.12137 -1.00413 1496.942 766.23)"/><rect x="452" y="574" width="6" height="10" fill="#f6f5f5" rx="0" transform="matrix(-.96446 .07044 -.40372 -1.00737 1252.56 1194.16)"/><rect x="1543" y="448" width="6" height="17" fill="#f8f9f9" rx="0" transform="matrix(-.4207 .83179 -.90765 -.58242 2674.065 -836.17)"/><rect x="1537" y="741" width="8" height="22" fill="#f6f7f8" rx="0" transform="matrix(-.92986 .0367 -.62359 -1.05082 3778.512 1986.371)"/><rect x="76" y="63" width="7" height="17" fill="#f2f6f7" rx="0" transform="matrix(.15292 1.01732 -.97496 .05332 129.445 2.264)"/><rect x="175" y="332" width="8" height="20" fill="#f8f9f9" rx="0" transform="matrix(.99402 -.08801 .00039 1.00598 17.544 -11.45)"/><rect x="1521" y="807" width="8" height="9" fill="#f8f9f9" rx="0" transform="matrix(.44612 .98558 -.87824 .30132 1474.024 -555.808)"/><rect x="185" y="714" width="5" height="13" fill="#f2f6f7" rx="0" transform="matrix(-.36983 1.01527 -.9785 -.01772 840.64 509.844)"/><rect x="1428" y="287" width="6" height="11" fill="#f8f9f9" rx="0" transform="matrix(1.02026 .1046 .14618 .99513 -2.204 -198.218)"/><rect x="1299" y="122" width="6" height="16" fill="#f6f5f5" rx="0" transform="matrix(-.7791 .37281 -.65271 -.9712 2427.617 144.2)"/><rect x="1978" y="425" width="9" height="18" fill="#f6f7f8" rx="0" transform="matrix(.0756 .94149 -1.0316 .38039 2268.486 -1947.154)"/><rect x="15" y="902" width="6" height="16" fill="#f2f6f7" rx="0" transform="matrix(-.86966 .4073 -.50193 -.9148 538.154 1736.08)"/><rect x="87" y="293" width="5" height="11" fill="#f6f7f8" rx="0" transform="matrix(-.53313 .89934 -.8519 -.43864 349.116 352.068)"/><rect x="1530" y="734" width="7" height="14" fill="#f6f5f5" rx="0" transform="matrix(.64393 .97267 -.86755 .24251 1480.956 -823.051)"/><rect x="525" y="979" width="7" height="10" fill="#f6f5f5" rx="0" transform="matrix(-.97605 -.0363 -.40659 -1.03967 1624.276 2177.764)"/><rect x="898" y="853" width="7" height="10" fill="#f6f5f5" rx="0" transform="matrix(.1051 1 -.98523 .14054 1728.938 -290.782)"/><rect x="492" y="975" width="9" height="13" fill="#f6f5f5" rx="0" transform="matrix(-.99443 .2758 -.15777 -.96185 1060.731 1771.278)"/><rect x="684" y="124" width="6" height="11" fill="#f8f9f9" rx="0" transform="matrix(-.14046 1.0043 -1.01049 .10556 910.888 -670.672)"/><rect x="597" y="156" width="6" height="17" fill="#f6f5f5" rx="0" transform="matrix(.35845 .79783 -.97335 .62334 534.045 -511.77)"/><rect x="432" y="227" width="5" height="14" fill="#f6f7f8" rx="0" transform="matrix(.7732 .7283 -.62638 .70332 234.54 -178.207)"/><rect x="254" y="181" width="6" height="13" fill="#f2f6f7" rx="0" transform="matrix(.80812 .63172 -.58502 .78011 182.195 -143.61)"/><rect x="1043" y="148" width="9" height="22" fill="#f6f5f5" rx="0" transform="matrix(-.6566 .67614 -.72365 -.77781 1798.754 -164.417)"/><rect x="553" y="472" width="9" height="11" fill="#f8f9f9" rx="0" transform="matrix(.28929 1.00617 -.94804 .15936 818.209 -51.17)"/><rect x="935" y="485" width="7" height="13" fill="#f2f6f7" rx="0" transform="matrix(.32217 1.0124 -1.03304 -.14228 1316.16 -189.213)"/><rect x="1122" y="387" width="7" height="18" fill="#f6f5f5" rx="0" transform="matrix(-.51464 .66954 -.922 -.7436 2202.926 -23.797)"/><rect x="991" y="210" width="8" height="21" fill="#f6f5f5" rx="0" transform="matrix(1.01594 .25886 -.07158 .96607 41.866 -232.715)"/><rect x="1357" y="236" width="6" height="9" fill="#f6f7f8" rx="0" transform="matrix(-1.00455 .48845 -.23504 -.88119 2771.067 -378.854)"/><rect x="1635" y="729" width="8" height="15" fill="#f6f5f5" rx="0" transform="matrix(.94525 .39457 -.30753 .92955 265.569 -364.47)"/><rect x="1779" y="757" width="5" height="14" fill="#f8f9f9" rx="0" transform="matrix(-.07988 .9204 -1.05091 -.4098 2953.586 -343.882)"/><rect x="1573" y="98" width="6" height="13" fill="#f6f5f5" rx="0" transform="matrix(-.9318 .09023 -.43225 -1.03134 3135.773 492.36)"/><rect x="560" y="34" width="8" height="21" fill="#f6f5f5" rx="0" transform="matrix(.249 1.00293 -1.03652 -.15885 502.925 -414.633)"/><rect x="1060" y="130" width="7" height="10" fill="#f6f7f8" rx="0" transform="matrix(.08773 1.0081 -1.01062 -.21428 1127.603 -643.018)"/><rect x="1468" y="118" width="7" height="20" fill="#f2f6f7" rx="0" transform="matrix(-.69055 .73854 -.71007 -.6887 2525.505 -663.804)"/><rect x="1539" y="605" width="7" height="19" fill="#f6f7f8" rx="0" transform="matrix(.75772 .73854 -.64744 .6887 870.737 -1164.69)"/><rect x="827" y="582" width="5" height="10" fill="#f6f5f5" rx="0" transform="matrix(.95903 .37512 -.29213 .92846 281.856 -312.639)"/><rect x="66" y="209" width="5" height="8" fill="#f2f6f7" rx="0" transform="matrix(-.95877 .14283 -.17916 -1.01632 131.991 435.506)"/><rect x="1298" y="103" width="8" height="21" fill="#f2f6f7" rx="0" transform="matrix(.27631 .97815 -.9636 .20791 1059.55 -1183.646)"/><rect x="746" y="421" width="7" height="14" fill="#f6f5f5" rx="0" transform="matrix(.9217 .73942 -.43072 .73942 277.475 -213.517)"/><rect x="1345" y="256" width="8" height="12" fill="#f6f7f8" rx="0" transform="matrix(-.95062 .59003 -.38641 -.8121 2709.821 -439.201)"/><rect x="1876" y="19" width="6" height="9" fill="#f6f7f8" rx="0" transform="matrix(-.26156 1.01185 -.97916 -.03533 2412.657 -2174.537)"/><rect x="1475" y="463" width="9" height="15" fill="#f8f9f9" rx="0" transform="matrix(.95146 .7862 -.47358 .6597 452.492 -661.492)"/><rect x="792" y="457" width="6" height="16" fill="#f6f5f5" rx="0" transform="matrix(-.4225 .71592 -.9743 -.71592 1720.362 354.662)"/><rect x="163" y="880" width="6" height="13" fill="#f6f7f8" rx="0" transform="matrix(.45266 .99146 -.93692 .15703 1112.954 597.232)"/><rect x="859" y="350" width="9" height="20" fill="#f6f7f8" rx="0" transform="matrix(.01239 .95529 -1.05232 -.42532 1319.336 -47.776)"/><rect x="1008" y="742" width="9" height="13" fill="#f6f7f8" rx="0" transform="matrix(.9693 .60218 -.37433 .79912 506.717 -423.995)"/><rect x="975" y="75" width="5" height="5" fill="#f2f6f7" rx="0" transform="matrix(.66624 .76884 -.72152 .66834 339.8 -535.826)"/><rect x="1208" y="707" width="7" height="16" fill="#f6f5f5" rx="0" transform="matrix(-.43947 .9657 -.90115 -.29525 2378.74 -414.114)"/><rect x="1859" y="679" width="5" height="9" fill="#f2f6f7" rx="0" transform="matrix(-.27354 .90547 -.95277 -.50191 2980.629 -160.194)"/><rect x="1742" y="747" width="6" height="16" fill="#f2f6f7" rx="0" transform="matrix(.76193 .81928 -.68708 .57366 1101.136 -1077.295)"/><rect x="922" y="698" width="6" height="16" fill="#f2f6f7" rx="0" transform="matrix(1.04101 .37466 -.09246 .92733 234.413 -279.11)"/><rect x="1059" y="717" width="6" height="12" fill="#f8f9f9" rx="0" transform="matrix(.98616 .25945 -.1739 .96828 154.354 -178.344)"/><rect x="1040" y="171" width="8" height="10" fill="#f6f7f8" rx="0" transform="matrix(-.9678 .03582 -.20507 -1.02568 2068.622 560.152)"/><rect x="1569" y="551" width="5" height="14" fill="#f6f5f5" rx="0" transform="matrix(.96258 .35924 -.27604 .93586 224.5 -418.87)"/><rect x="291" y="478" width="7" height="10" fill="#f2f6f7" rx="0" transform="matrix(-.58431 .74724 -.81214 -.67282 954.93 556.955)"/><rect x="1928" y="686" width="5" height="13" fill="#f8f9f9" rx="0" transform="matrix(.97802 .47996 -.24412 .90267 249.99 -448.823)"/><rect x="1395" y="22" width="8" height="18" fill="#f6f5f5" rx="0" transform="matrix(-.14015 .86933 -1.06939 -.50191 1678.069 -1047.242)"/><rect x="1139" y="200" width="7" height="16" fill="#f6f5f5" rx="0" transform="matrix(-.08708 .9461 -1.027 -.32577 1503.806 -845.051)"/><rect x="1241" y="804" width="5" height="14" fill="#f8f9f9" rx="0" transform="matrix(-.80932 .33553 -.6299 -.97446 2858.805 1494.092)"/><rect x="173" y="156" width="9" height="9" fill="#f6f7f8" rx="0" transform="matrix(.24715 1.01484 -1.007 -.08879 322.66 29.119)"/><rect x="1421" y="744" width="7" height="10" fill="#f8f9f9" rx="0" transform="matrix(-.03847 .95814 -1.02892 -.3678 2363.252 -11.517)"/><rect x="169" y="405" width="5" height="9" fill="#f2f6f7" rx="0" transform="matrix(.87869 .26281 -.5257 .98083 196.22 -67.46)"/><rect x="415" y="97" width="7" height="10" fill="#f6f5f5" rx="0" transform="rotate(159 418.5 102)"/><rect x="57" y="73" width="9" height="9" fill="#f2f6f7" rx="0" transform="matrix(.92313 .15838 -.48534 1 30.394 -19.481)"/><rect x="1760" y="782" width="8" height="14" fill="#f2f6f7" rx="0" transform="matrix(.32 1.00367 -1.00193 -.01752 2225.245 -813.316)"/><rect x="1166" y="317" width="5" height="12" fill="#f6f7f8" rx="0" transform="matrix(.07374 .95469 -1.0235 .3102 1377.955 -994.979)"/><rect x="1194" y="10" width="8" height="18" fill="#f8f9f9" rx="0" transform="matrix(-.82013 .23184 -.761 -1.0042 2292.1 59.033)"/><rect x="1131" y="251" width="7" height="20" fill="#f6f5f5" rx="0" transform="matrix(-.56748 .70149 -.8379 -.7264 2031.965 -504.686)"/><rect x="1985" y="19" width="6" height="13" fill="#f8f9f9" rx="0" transform="matrix(.66061 .94454 -.79181 .38162 745.47 -1475.544)"/><rect x="1041" y="265" width="7" height="17" fill="#f6f5f5" rx="0" transform="matrix(-.5073 .6491 -.93602 -.77357 1935.157 -46.123)"/><rect x="84" y="350" width="9" height="26" fill="#f8f9f9" rx="0" transform="matrix(-.94604 .16122 -.2295 -1.01793 194.547 740.304)"/><rect x="913" y="174" width="5" height="10" fill="#f2f6f7" rx="0" transform="matrix(.34023 .94149 -.92469 .38039 772.01 -912.448)"/><rect x="1194" y="939" width="7" height="12" fill="#f6f7f8" rx="0" transform="matrix(.84865 .7576 -.58225 .65857 1020.793 -689.329)"/><rect x="128" y="578" width="8" height="10" fill="#f6f7f8" rx="0" transform="matrix(-.23358 .80846 -1.04776 -.65468 894.36 895.812)"/><rect x="385" y="283" width="6" height="8" fill="#f8f9f9" rx="0" transform="matrix(1.01017 -.08781 -.15814 1.00368 12.048 -14.625)"/><rect x="1016" y="661" width="6" height="6" fill="#f6f7f8" rx="0" transform="matrix(.33103 .98402 -.95189 .19127 1439.727 -536.983)"/><rect x="1317" y="383" width="6" height="6" fill="#f2f6f7" rx="0" transform="matrix(-.60182 .75655 -.79864 -.65766 2422.67 -266.489)"/><rect x="1622" y="508" width="8" height="20" fill="#f6f7f8" rx="0" transform="matrix(1.0621 .2777 .10307 .96848 37.929 -235.577)"/><rect x="1578" y="51" width="5" height="12" fill="#f6f5f5" rx="0" transform="matrix(-.22366 1.00692 -.96962 -.10583 1982.507 -1778.73)"/><rect x="1316" y="657" width="6" height="8" fill="#f6f7f8" rx="0" transform="matrix(.96524 .1051 -.3307 1 200.297 -277.265)"/><rect x="1498" y="614" width="8" height="22" fill="#f6f5f5" rx="0" transform="rotate(80.934 1281.642 1058.872) skewX(-23.147)"/><rect x="367" y="368" width="7" height="15" fill="#f8f9f9" rx="0" transform="matrix(.92952 .61576 -.4343 .78813 270.38 -142.113)"/><rect x="824" y="183" width="7" height="11" fill="#f8f9f9" rx="0" transform="matrix(-.91837 .50491 -.38987 -.87454 1662.203 -180.764)"/><rect x="487" y="798" width="7" height="14" fill="#f6f7f8" rx="0" transform="matrix(-.94439 .30944 -.32511 -.95236 1186.427 1445.576)"/><rect x="1131" y="840" width="8" height="17" fill="#f6f7f8" rx="0" transform="matrix(.7123 .89155 -.7587 .45427 1233.119 -588.49)"/><rect x="661" y="462" width="6" height="9" fill="#f2f6f7" rx="0" transform="matrix(-.771 .62171 -.62163 -.79575 1397.196 518.222)"/><rect x="774" y="187" width="9" height="22" fill="#f6f7f8" rx="0" transform="matrix(.1384 1.00921 -.98604 .03524 855.252 -485.239)"/><rect x="1116" y="264" width="9" height="21" fill="#f6f7f8" rx="0" transform="matrix(.53514 .68575 -.88438 .73538 736 -813.52)"/><rect x="248" y="70" width="7" height="12" fill="#f6f7f8" rx="0" transform="matrix(-.02456 .94276 -1.0513 -.36189 361.243 -98.253)"/><rect x="1361" y="667" width="6" height="16" fill="#f6f7f8" rx="0" transform="matrix(-.7696 .62334 -.61923 -.79783 2706.488 579.344)"/><rect x="774" y="301" width="6" height="13" fill="#f2f6f7" rx="0" transform="matrix(-.44352 .81018 -.86213 -.67983 1326.281 154.576)"/><rect x="73" y="540" width="6" height="13" fill="#f2f6f7" rx="0" transform="matrix(.11968 .96291 -1.0774 -.31287 815.863 656.339)"/><rect x="919" y="440" width="5" height="7" fill="#f6f5f5" rx="0" transform="matrix(.47058 .8151 -.88496 .5922 874.57 -683.394)"/><rect x="1782" y="989" width="5" height="7" fill="#f6f7f8" rx="0" transform="matrix(-.00254 1.01865 -.98138 -.12508 2615.425 -289.167)"/><rect x="1388" y="162" width="9" height="17" fill="#f6f7f8" rx="0" transform="matrix(.6164 .83937 -.7756 .56616 654.844 -1315.406)"/><rect x="1957" y="104" width="8" height="12" fill="#f8f9f9" rx="0" transform="matrix(-.55712 .80303 -.82545 -.60513 3127.752 -1192.077)"/><rect x="501" y="924" width="8" height="16" fill="#f6f5f5" rx="0" transform="matrix(.4969 .94522 -.86722 .36284 1322.803 36.519)"/><rect x="981" y="851" width="9" height="14" fill="#f6f5f5" rx="0" transform="matrix(.86485 .53121 -.49843 .85012 643.783 -463.826)"/><rect x="839" y="740" width="6" height="14" fill="#f6f5f5" rx="0" transform="matrix(-.56886 .84497 -.81405 -.54873 1985.388 342.052)"/><rect x="1249" y="404" width="8" height="14" fill="#f8f9f9" rx="0" transform="matrix(.46375 1.03819 -.87307 .2018 1001.34 -541.35)"/><rect x="1158" y="236" width="8" height="14" fill="#f6f7f8" rx="0" transform="matrix(-.50556 .8268 -.8285 -.62304 1862.986 -254.994)"/><rect x="1775" y="226" width="7" height="11" fill="#f2f6f7" rx="0" transform="matrix(.96131 .3092 -.27548 .95164 144.42 -600.832)"/><rect x="1951" y="942" width="9" height="13" fill="#f6f7f8" rx="0" transform="matrix(.68893 .54873 -.76154 .84497 1231.069 -1166.098)"/><rect x="1719" y="264" width="7" height="8" fill="#f6f5f5" rx="0" transform="matrix(.72914 .83526 -.70542 .5634 697.568 -1110.234)"/><rect x="565" y="157" width="8" height="9" fill="#f6f7f8" rx="0" transform="matrix(.93542 .40648 -.25645 .9576 32.535 -61.28)"/><rect x="1344" y="970" width="9" height="18" fill="#f6f7f8" rx="0" transform="matrix(-.88624 .16122 -.6071 -1.01793 3417.496 2094.358)"/><rect x="1235" y="196" width="9" height="15" fill="#f8f9f9" rx="0" transform="matrix(.63811 .64633 -.78673 .77026 602.253 -884.65)"/><rect x="360" y="554" width="9" height="12" fill="#f8f9f9" rx="0" transform="matrix(-.22892 .92107 -.98853 -.39097 1082.009 455.943)"/><rect x="1889" y="327" width="6" height="11" fill="#f6f7f8" rx="0" transform="matrix(.57832 1.04505 -.97708 -.0365 1401.194 -1054.167)"/><rect x="589" y="729" width="7" height="15" fill="#f2f6f7" rx="0" transform="matrix(-.891 .18158 -.45399 -1.0298 1454.785 1568.51)"/><rect x="1807" y="844" width="9" height="19" fill="#f6f7f8" rx="0" transform="matrix(-.41332 .85638 -.90943 -.53513 3496.908 -495.695)"/><rect x="1783" y="619" width="7" height="13" fill="#f6f7f8" rx="0" transform="matrix(.49746 .84497 -.86042 .54873 1464.388 -1446.622)"/><rect x="636" y="838" width="9" height="10" fill="#f6f7f8" rx="0" transform="matrix(-.33805 .89254 -.92523 -.5153 1566.873 865.428)"/><rect x="811" y="662" width="5" height="6" fill="#f2f6f7" rx="0" transform="matrix(.93696 .19375 -.34097 .99677 287.13 -298.912)"/><rect x="1434" y="545" width="5" height="7" fill="#f6f5f5" rx="0" transform="matrix(-.36554 .8388 -.9548 -.54472 2606.148 -382.728)"/><rect x="738" y="546" width="6" height="9" fill="#f6f7f8" rx="0" transform="matrix(-.05826 .94487 -1.03714 -.3439 1477.262 117.554)"/><rect x="1346" y="818" width="9" height="25" fill="#f6f5f5" rx="0" transform="matrix(.98769 0 .02209 1.01247 107.004 -224.25)"/><rect x="1335" y="839" width="6" height="8" fill="#f8f9f9" rx="0" transform="matrix(1.01817 .2087 -.0013 .98188 94.67 -146.917)"/><rect x="699" y="711" width="9" height="24" fill="#f2f6f7" rx="0" transform="matrix(.82428 .51788 -.55913 .86189 401.642 -190.53)"/><rect x="707" y="103" width="7" height="14" fill="#f6f7f8" rx="0" transform="matrix(-.51708 .73541 -.86044 -.71018 1177.092 -183.368)"/><rect x="1556" y="534" width="6" height="15" fill="#f6f7f8" rx="0" transform="matrix(.81318 .9479 -.72642 .38298 918.493 -812.278)"/><rect x="225" y="676" width="5" height="10" fill="#f6f7f8" rx="0" transform="matrix(.06922 .98538 -1.0283 -.19154 1035.61 607.168)"/><rect x="1726" y="302" width="8" height="21" fill="#f2f6f7" rx="0" transform="matrix(-.66485 .50275 -.83748 -.8708 3283.658 -103.31)"/><rect x="802" y="435" width="8" height="21" fill="#f6f5f5" rx="0" transform="matrix(.65546 .7671 -.75363 .64367 641.642 -501.775)"/><rect x="1732" y="714" width="7" height="13" fill="#f6f5f5" rx="0" transform="matrix(.9018 .54176 -.40265 .867 384.339 -475.498)"/><rect x="1827" y="537" width="7" height="10" fill="#f8f9f9" rx="0" transform="matrix(-.60687 .6165 -.84528 -.7891 3553.116 -254.76)"/><rect x="149" y="828" width="9" height="25" fill="#f6f5f5" rx="0" transform="matrix(.38646 1.03552 -.91139 .14553 829.212 606.158)"/><rect x="110" y="360" width="9" height="21" fill="#f6f5f5" rx="0" transform="matrix(1.02532 .84598 -.43712 .61464 267.71 80.916)"/><rect x="1251" y="613" width="6" height="15" fill="#f2f6f7" rx="0" transform="matrix(-.60893 .5568 -.8583 -.8574 2706.574 720.831)"/><rect x="1719" y="916" width="9" height="23" fill="#f6f7f8" rx="0" transform="matrix(-.84848 .37604 -.55925 -.93073 3927.277 991.86)"/><rect x="251" y="539" width="9" height="25" fill="#f6f7f8" rx="0" transform="matrix(-.90212 .35842 -.4399 -.93372 767.472 979.33)"/><rect x="1548" y="134" width="8" height="10" fill="#f2f6f7" rx="0" transform="matrix(-.98924 -.01778 -.4276 -1.01856 3256.612 609.851)"/><rect x="810" y="377" width="8" height="10" fill="#f6f5f5" rx="0" transform="matrix(-.49777 .64047 -.92423 -.81977 1658.732 407.217)"/><rect x="1871" y="915" width="5" height="10" fill="#f6f5f5" rx="0" transform="matrix(.99863 -.03503 -.05234 1.0032 50.717 -101.228)"/><rect x="1461" y="667" width="7" height="14" fill="#f6f7f8" rx="0" transform="matrix(-.46302 .71406 -.93743 -.71406 2945.438 315.36)"/><rect x="626" y="638" width="8" height="8" fill="#f2f6f7" rx="0" transform="matrix(.14092 1.00874 -1.02387 -.23289 1283.762 324.814)"/><rect x="16" y="308" width="5" height="10" fill="#f8f9f9" rx="0" transform="matrix(.17714 .99756 -1.01794 -.08728 400.575 322.832)"/><rect x="1326" y="209" width="7" height="19" fill="#f8f9f9" rx="0" transform="matrix(-.39367 .96126 -.92742 -.27564 2028.69 -999.27)"/><rect x="663" y="587" width="9" height="21" fill="#f2f6f7" rx="0" transform="matrix(.85896 .42789 -.49503 .9176 424.313 -342.105)"/><rect x="326" y="168" width="8" height="9" fill="#f2f6f7" rx="0" transform="matrix(-.92395 .35974 -.37284 -.93715 685.137 244.316)"/><rect x="404" y="308" width="7" height="7" fill="#f6f7f8" rx="0" transform="matrix(.99447 .12217 -.08623 .99497 58.861 -76.711)"/><rect x="1837" y="626" width="8" height="20" fill="#f6f5f5" rx="0" transform="matrix(.14409 .98784 -1.03513 -.15646 2425.668 -1050.969)"/><rect x="1303" y="796" width="5" height="5" fill="#f6f7f8" rx="0" transform="matrix(-.1396 .99878 -.9939 -.05234 2227.134 -486.4)"/><rect x="482" y="890" width="5" height="14" fill="#f6f7f8" rx="0" transform="matrix(.87573 .53 -.48533 .84818 557.68 -129.057)"/><rect x="1025" y="518" width="7" height="19" fill="#f2f6f7" rx="0" transform="matrix(-.85335 .4232 -.53293 -.90755 2227.953 624.875)"/><rect x="433" y="885" width="6" height="14" fill="#f6f7f8" rx="0" transform="matrix(.98008 .13994 -.1723 .99572 221.541 -103.024)"/><rect x="1234" y="750" width="9" height="19" fill="#f6f7f8" rx="0" transform="matrix(.85008 .60264 -.53127 .79973 617.958 -529.36)"/><rect x="1473" y="888" width="7" height="17" fill="#f8f9f9" rx="0" transform="matrix(.97154 .22664 -.20405 .98169 325.464 -499.509)"/><rect x="1494" y="669" width="6" height="15" fill="#f8f9f9" rx="0" transform="matrix(-.03439 .99087 -1.00438 -.13926 2315.674 -764.903)"/><rect x="1539" y="127" width="8" height="22" fill="#f8f9f9" rx="0" transform="matrix(1.0148 .20791 -.03544 .97815 6.375 -317.792)"/><rect x="1290" y="253" width="9" height="9" fill="#f6f5f5" rx="0" transform="matrix(-.7982 .3746 -.69386 -.92718 2595.099 11.322)"/><rect x="1736" y="985" width="9" height="15" fill="#f2f6f7" rx="0" transform="matrix(.75133 .64524 -.6544 .76897 961.973 -741.475)"/><rect x="763" y="638" width="6" height="7" fill="#f6f7f8" rx="0" transform="matrix(-.20705 .90852 -1.00414 -.42365 1748.505 163.78)"/><rect x="614" y="203" width="9" height="16" fill="#f8f9f9" rx="0" transform="matrix(-.5571 .57631 -.90923 -.85442 1225.907 189.043)"/><rect x="383" y="337" width="5" height="14" fill="#f6f7f8" rx="0" transform="matrix(.98842 .0698 -.19186 .99817 41.546 -39.74)"/><rect x="594" y="478" width="6" height="11" fill="#f6f7f8" rx="0" transform="matrix(.9228 .19319 -.42897 .99386 219.474 -206.921)"/><rect x="914" y="797" width="9" height="22" fill="#f6f7f8" rx="0" transform="matrix(-.22277 .80648 -1.07208 -.60773 2293.832 687.376)"/><rect x="124" y="580" width="9" height="9" fill="#f6f5f5" rx="0" transform="matrix(.29722 .98526 -.94085 .24565 769.945 291.65)"/><rect x="401" y="754" width="8" height="20" fill="#f6f5f5" rx="0" transform="matrix(.39747 1.00861 -1.02624 -.08824 1297.148 487.075)"/><rect x="1963" y="915" width="8" height="19" fill="#f6f5f5" rx="0" transform="matrix(-1.0097 -.1409 -.08756 -1.00261 4120.465 2440.123)"/><rect x="1943" y="17" width="9" height="13" fill="#f2f6f7" rx="0" transform="matrix(.01746 1 -1.00245 -.14054 1942.252 -1646.994)"/><rect x="1325" y="754" width="7" height="14" fill="#f6f7f8" rx="0" transform="matrix(1.03838 .34223 -.0691 .94027 233.783 -455.585)"/><rect x="1767" y="814" width="9" height="13" fill="#f2f6f7" rx="0" transform="matrix(-.35812 .80463 -.97294 -.60633 3387.238 110.103)"/><rect x="464" y="503" width="5" height="5" fill="#f8f9f9" rx="0" transform="matrix(.88342 .49085 -.44353 .88552 362.487 -245)"/><rect x="1074" y="302" width="8" height="11" fill="#f6f5f5" rx="0" transform="matrix(-.11429 .90128 -1.04086 -.54154 1602.031 -147.29)"/><rect x="1692" y="898" width="5" height="11" fill="#f6f5f5" rx="0" transform="matrix(.95249 .4565 -.32126 .89591 551.635 -857.582)"/><rect x="339" y="795" width="9" height="14" fill="#f2f6f7" rx="0" transform="matrix(.41592 1.03275 -.9392 .07222 1032.088 481.371)"/><rect x="748" y="423" width="6" height="8" fill="#f6f5f5" rx="0" transform="matrix(.6651 .9363 -.79932 .37829 686.727 -332.141)"/><rect x="761" y="935" width="6" height="15" fill="#f6f5f5" rx="0" transform="matrix(-.70698 .67747 -.6909 -.7524 2114.984 1013.05)"/><rect x="51" y="300" width="9" height="10" fill="#f6f7f8" rx="0" transform="matrix(-.9827 .08824 -.10017 -1.00861 96.491 616.52)"/><rect x="1734" y="214" width="9" height="9" fill="#f6f5f5" rx="0" transform="matrix(-.96223 .10454 -.41034 -.99467 3562.126 223.74)"/><rect x="168" y="248" width="7" height="19" fill="#f2f6f7" rx="0" transform="matrix(.77448 .69252 -.61348 .74264 253.309 -82.736)"/><rect x="1837" y="349" width="5" height="12" fill="#f6f7f8" rx="0" transform="matrix(.99863 .24645 -.05234 .98846 21.1 -91.684)"/><rect x="1056" y="365" width="7" height="17" fill="#f6f5f5" rx="0" transform="matrix(.978 .30906 -.2256 .9512 144.878 -327.72)"/><rect x="481" y="845" width="6" height="9" fill="#f8f9f9" rx="0" transform="matrix(-.965 .37552 -.27448 -.92945 1028.481 1491.158)"/><rect x="1694" y="984" width="6" height="17" fill="#f6f5f5" rx="0" transform="matrix(.68673 .90656 -.69044 .54471 1078.93 -502.234)"/><rect x="911" y="840" width="5" height="14" fill="#f8f9f9" rx="0" transform="matrix(-.79279 .45965 -.61964 -.90211 2404.372 1046.516)"/><rect x="433" y="427" width="8" height="22" fill="#f6f7f8" rx="0" transform="matrix(-.55569 .7756 -.82306 -.6508 1013.753 453.33)"/><rect x="1694" y="897" width="9" height="16" fill="#f6f7f8" rx="0" transform="matrix(-.98917 .10531 -.08413 -1.002 3298.246 1841.476)"/><rect x="791" y="138" width="7" height="8" fill="#f8f9f9" rx="0" transform="matrix(-.98286 .08737 -.21157 -.99863 1622.231 158.834)"/><rect x="1368" y="616" width="6" height="10" fill="#f2f6f7" rx="0" transform="matrix(-.08788 .99772 -1.00843 .06977 2033.814 -814.125)"/><rect x="256" y="509" width="9" height="10" fill="#f6f5f5" rx="0" transform="matrix(-.55194 .81648 -.80886 -.61526 729.854 672.922)"/><rect x="968" y="954" width="6" height="6" fill="#f6f7f8" rx="0" transform="matrix(-.67605 .61905 -.75006 -.79235 2419.315 1216.236)"/><rect x="41" y="458" width="9" height="23" fill="#f6f7f8" rx="0" transform="matrix(.94162 .49363 -.25487 .92839 79.95 25.946)"/><rect x="641" y="360" width="7" height="7" fill="#f8f9f9" rx="0" transform="matrix(-.98319 -.01784 -.28024 -1.02218 1423.819 883.556)"/><rect x="1496" y="777" width="8" height="23" fill="#f6f5f5" rx="0" transform="matrix(.82294 .91091 -.6785 .46413 1035.95 -625.002)"/><rect x="1372" y="758" width="6" height="12" fill="#f8f9f9" rx="0" transform="matrix(-.94429 .19375 -.30327 -.99677 3054.65 1016.673)"/><rect x="1906" y="200" width="8" height="17" fill="#f6f5f5" rx="0" transform="matrix(-.40253 .9573 -.906 -.32963 2861.16 -1853.739)"/><rect x="586" y="17" width="5" height="6" fill="#f8f9f9" rx="0" transform="skewX(-5)"/><rect x="74" y="128" width="6" height="12" fill="#f2f6f7" rx="0" transform="matrix(-.08914 .93372 -1.03676 -.35842 263.347 108.788)"/><rect x="1636" y="722" width="7" height="8" fill="#f6f7f8" rx="0" transform="matrix(-.87393 .34333 -.51157 -.94328 3599.809 704.501)"/><rect x="348" y="919" width="8" height="8" fill="#f8f9f9" rx="0" transform="matrix(-.95522 .12278 -.3647 -1 1143.498 1846)"/><rect x="293" y="797" width="8" height="12" fill="#f2f6f7" rx="0" transform="matrix(.67537 .84072 -.75087 .54597 771.434 135.662)"/><rect x="608" y="248" width="5" height="6" fill="#f8f9f9" rx="0" transform="matrix(.80987 .7264 -.59455 .70149 315.813 -454.346)"/><rect x="1455" y="558" width="5" height="6" fill="#f6f7f8" rx="0" transform="matrix(.46798 .98402 -.92527 .19127 1435.403 -878.602)"/><rect x="467" y="38" width="5" height="7" fill="#f6f5f5" rx="0" transform="matrix(.01725 1.0114 -.994 -.30922 499.108 -258.862)"/><rect x="790" y="269" width="7" height="20" fill="#f6f7f8" rx="0" transform="matrix(.01664 1.00844 -.9925 -.05285 1029.897 -394.936)"/><rect x="443" y="985" width="8" height="19" fill="#f8f9f9" rx="0" transform="matrix(-.38067 .98721 -.94583 -.17407 1422.412 695.074)"/><rect x="1756" y="81" width="9" height="21" fill="#f6f7f8" rx="0" transform="matrix(-.78521 .34044 -.65692 -.98872 3247.008 120.855)"/><rect x="567" y="839" width="9" height="23" fill="#f8f9f9" rx="0" transform="matrix(-.89356 .12678 -.6102 -1.03255 1816.76 1820.1)"/><rect x="1750" y="149" width="6" height="15" fill="#f8f9f9" rx="0" transform="matrix(-.87998 .32601 -.5117 -.94682 3391.795 -358.698)"/><rect x="640" y="458" width="6" height="12" fill="#f8f9f9" rx="0" transform="matrix(.98645 .51535 -.2987 .85769 273.924 -287.793)"/><rect x="1781" y="729" width="6" height="14" fill="#f6f7f8" rx="0" transform="matrix(1.01073 .20804 -.05167 .97874 149.836 -417.795)"/><rect x="1331" y="518" width="6" height="14" fill="#f6f7f8" rx="0" transform="matrix(1.00475 .38039 -.14208 .94149 121.418 -241.495)"/><rect x="366" y="656" width="8" height="9" fill="#f6f5f5" rx="0" transform="matrix(.4956 .96962 -.89854 .2598 889.859 162.51)"/><rect x="1565" y="876" width="6" height="13" fill="#f8f9f9" rx="0" transform="matrix(-.2619 .91578 -.97536 -.40773 2926.22 -83.97)"/><rect x="461" y="815" width="6" height="8" fill="#f8f9f9" rx="0" transform="matrix(.87954 .55304 -.45381 .8516 625.092 -216.894)"/><rect x="539" y="843" width="6" height="6" fill="#f6f5f5" rx="0" transform="matrix(.13986 .96607 -.99764 .25886 1189.971 112.855)"/><rect x="1966" y="717" width="7" height="15" fill="#f8f9f9" rx="0" transform="matrix(.17327 .98616 -.98348 .17389 2297.402 -1240.504)"/><rect x="823" y="184" width="5" height="7" fill="#f2f6f7" rx="0" transform="matrix(-.8988 .45406 -.43835 -.89114 1642.603 -5.828)"/><rect x="105" y="724" width="7" height="17" fill="#f8f9f9" rx="0" transform="matrix(-.20878 .94913 -.9817 -.32681 876.165 878.402)"/><rect x="671" y="800" width="5" height="11" fill="#f6f5f5" rx="0" transform="matrix(-.75369 .60411 -.65514 -.80169 1693.734 1103.311)"/><rect x="1269" y="542" width="9" height="9" fill="#f6f7f8" rx="0" transform="matrix(.40596 .87253 -.91171 .50375 1261.569 -996.334)"/><rect x="1294" y="378" width="5" height="5" fill="#f8f9f9" rx="0" transform="matrix(.97207 .2255 -.22407 .97675 141.733 -374.174)"/><rect x="459" y="394" width="7" height="10" fill="#f8f9f9" rx="0" transform="matrix(-.8884 .22842 -.52978 -.9894 1152.306 769.677)"/><rect x="1073" y="686" width="6" height="7" fill="#f6f7f8" rx="0" transform="matrix(.35837 1.03634 -.93358 .09067 1334.1 -179.58)"/><rect x="1003" y="730" width="7" height="12" fill="#f2f6f7" rx="0" transform="matrix(.71795 .86044 -.7308 .517 1032.292 -598.608)"/><rect x="1133" y="207" width="9" height="26" fill="#f6f7f8" rx="0" transform="matrix(.53292 1.02451 -.85304 .23653 729.262 -627.824)"/><rect x="81" y="76" width="5" height="9" fill="#f8f9f9" rx="0" transform="matrix(.25986 .98188 -.96321 .2087 149.627 -25.593)"/><rect x="1658" y="51" width="9" height="12" fill="#f8f9f9" rx="0" transform="matrix(.08706 .99146 -.99482 .15703 1572.92 -1745.705)"/><rect x="532" y="413" width="7" height="19" fill="#f2f6f7" rx="0" transform="matrix(.891 .76079 -.45399 .73469 250.177 -110.92)"/><rect x="166" y="623" width="9" height="25" fill="#f2f6f7" rx="0" transform="matrix(.95484 .40773 -.308 .91578 313.384 -27.916)"/><rect x="1554" y="648" width="7" height="13" fill="#f2f6f7" rx="0" transform="matrix(1.0256 .3908 -.14275 .92065 233.43 -583.905)"/><rect x="1470" y="564" width="8" height="20" fill="#f6f7f8" rx="0" transform="matrix(.3798 1.00786 -1.03884 -.12375 1781.407 -580.644)"/><rect x="370" y="982" width="9" height="26" fill="#f6f7f8" rx="0" transform="matrix(1.1314 .68982 -.14812 .79355 439.572 68.763)"/><rect x="1403" y="76" width="6" height="16" fill="#f8f9f9" rx="0" transform="matrix(.57571 1.0346 -.90605 .10874 767.351 -976.619)"/><rect x="32" y="528" width="9" height="13" fill="#f6f5f5" rx="0" transform="matrix(.6958 .84329 -.73397 .54764 555.578 207.17)"/><rect x="1142" y="894" width="7" height="15" fill="#f6f7f8" rx="0" transform="matrix(.99797 .55953 -.30764 .82954 531.936 -447.277)"/><rect x="1867" y="450" width="9" height="12" fill="#f8f9f9" rx="0" transform="matrix(-.46082 .7735 -.8631 -.7213 3050.562 -18.276)"/><rect x="1745" y="491" width="5" height="5" fill="#f2f6f7" rx="0" transform="matrix(-.58827 .83982 -.8087 -.54539 3113.1 -613.357)"/><rect x="1031" y="797" width="5" height="11" fill="#f8f9f9" rx="0" transform="matrix(-.62049 .8573 -.79363 -.51512 2196.34 347.903)"/><rect x="1959" y="220" width="6" height="15" fill="#f2f6f7" rx="0" transform="matrix(-.23335 .88958 -1.00006 -.473 2713.167 -1169.343)"/><rect x="1559" y="507" width="7" height="19" fill="#f2f6f7" rx="0" transform="matrix(.31356 .98616 -.95875 .17389 1652.236 -1196.073)"/><rect x="183" y="729" width="5" height="13" fill="#f8f9f9" rx="0" transform="matrix(.91265 .24251 -.46307 .97267 242.356 -37.853)"/><rect x="625" y="233" width="9" height="12" fill="#f2f6f7" rx="0" transform="matrix(.57797 .98083 -.86468 .26281 527.764 -330.245)"/><rect x="1646" y="923" width="7" height="13" fill="#f6f5f5" rx="0" transform="matrix(1.00298 .17431 -.0487 .98857 207.246 -421.215)"/><rect x="1229" y="582" width="7" height="19" fill="#f2f6f7" rx="0" transform="matrix(-.78386 .32147 -.69824 -.98938 2744.414 1133.922)"/><rect x="763" y="767" width="6" height="9" fill="#f2f6f7" rx="0" transform="matrix(.62845 .89155 -.80143 .45427 1074.852 -288.643)"/><rect x="365" y="893" width="6" height="7" fill="#f6f5f5" rx="0" transform="matrix(-.88244 .31205 -.4887 -.9604 1180.555 1694.385)"/><rect x="414" y="220" width="8" height="22" fill="#f8f9f9" rx="0" transform="matrix(.24989 1.02158 -1.04583 -.27373 621.243 11.14)"/><rect x="1273" y="596" width="5" height="11" fill="#f2f6f7" rx="0" transform="matrix(.20843 .94675 -.98038 .34459 1591.59 -969.96)"/><rect x="970" y="198" width="8" height="17" fill="#f6f5f5" rx="0" transform="matrix(.93924 .53652 -.36075 .85862 146.272 -339.114)"/><rect x="1379" y="817" width="9" height="22" fill="#f6f7f8" rx="0" transform="matrix(-.44149 .96848 -.90595 -.2777 2709.934 -451.824)"/><rect x="953" y="137" width="8" height="15" fill="#f6f7f8" rx="0" transform="matrix(-.27313 .93715 -.96223 -.35974 1368.14 -784.094)"/><rect x="1282" y="24" width="8" height="17" fill="#f6f7f8" rx="0" transform="matrix(-.65159 .79393 -.75048 -.62028 2139.566 -1126.234)"/><rect x="160" y="140" width="7" height="11" fill="#f2f6f7" rx="0" transform="matrix(-.81832 .39172 -.52742 -.96955 353.488 272.51)"/><rect x="1428" y="891" width="9" height="19" fill="#f2f6f7" rx="0" transform="matrix(.48214 .86044 -.8725 .517 1401.568 -672.318)"/><rect x="380" y="836" width="6" height="10" fill="#f6f5f5" rx="0" transform="matrix(-1.01297 -.25046 -.0701 -1.00452 879.374 1884.354)"/><rect x="280" y="325" width="9" height="24" fill="#f6f5f5" rx="0" transform="matrix(.88876 .50696 -.36918 .91458 81.302 -28.464)"/><rect x="1547" y="637" width="8" height="19" fill="#f6f5f5" rx="0" transform="matrix(.42499 .92327 -.88493 .43053 1296.797 -762.346)"/><rect x="905" y="988" width="6" height="17" fill="#f2f6f7" rx="0" transform="matrix(1.00276 .19319 -.01755 .99386 34.886 -25.486)"/><rect x="356" y="897" width="5" height="8" fill="#f6f5f5" rx="0" transform="matrix(.59933 .92402 -.82782 .39222 1020.544 247.71)"/><rect x="1692" y="74" width="9" height="12" fill="#f8f9f9" rx="0" transform="matrix(.94922 .43965 -.23892 .94283 55.696 -254.828)"/><rect x="1725" y="202" width="8" height="8" fill="#f6f5f5" rx="0" transform="matrix(-.42512 .76038 -.94559 -.66099 2732.576 -760.235)"/><rect x="61" y="432" width="6" height="16" fill="#f6f5f5" rx="0" transform="matrix(.92935 .75975 -.47944 .68408 287.318 103.985)"/><rect x="319" y="426" width="7" height="16" fill="#f2f6f7" rx="0" transform="matrix(.24478 .91858 -.97965 .40898 640.75 -73.633)"/><rect x="1354" y="741" width="9" height="13" fill="#f6f7f8" rx="0" transform="matrix(.9909 .01767 .17492 1.01231 64.92 -248.372)"/><rect x="1394" y="457" width="9" height="14" fill="#f6f5f5" rx="0" transform="matrix(1.00322 -.07083 -.2289 1.01295 75.015 -153.544)"/><rect x="1808" y="448" width="9" height="12" fill="#f6f7f8" rx="0" transform="matrix(.05165 .9894 -1.02264 -.22842 2264.462 -915.994)"/><rect x="1196" y="765" width="9" height="22" fill="#f8f9f9" rx="0" transform="matrix(.26667 .99954 -.99114 .0349 1837.75 -471.992)"/><rect x="407" y="926" width="8" height="11" fill="#f2f6f7" rx="0" transform="matrix(-.85103 .30906 -.61638 -.9512 1621.912 1697.693)"/><rect x="139" y="695" width="9" height="15" fill="#f6f5f5" rx="0" transform="matrix(1.00089 .14022 -.01006 .9977 177.702 -36.129)"/><rect x="1658" y="390" width="8" height="17" fill="#f2f6f7" rx="0" transform="matrix(-.61524 .51274 -.84037 -.92502 3121.446 487.21)"/><rect x="1799" y="192" width="5" height="7" fill="#f8f9f9" rx="0" transform="matrix(.52568 .83937 -.8368 .56616 1007.05 -1712.642)"/><rect x="1140" y="551" width="5" height="9" fill="#f2f6f7" rx="0" transform="matrix(.75124 .77026 -.66789 .64633 763.782 -803.644)"/><rect x="1680" y="875" width="7" height="11" fill="#f6f7f8" rx="0" transform="matrix(.55751 .92029 -.82664 .42914 1452.236 -749.816)"/><rect x="961" y="585" width="7" height="17" fill="#f2f6f7" rx="0" transform="matrix(.93287 .32601 -.35808 .94682 286.74 -333.424)"/><rect x="396" y="263" width="9" height="18" fill="#f6f7f8" rx="0" transform="matrix(1.02712 .68165 -.32628 .75705 165.114 -129.072)"/><rect x="636" y="714" width="5" height="13" fill="#f8f9f9" rx="0" transform="matrix(-.39702 .81013 -.94592 -.5886 1770.539 593.852)"/><rect x="1750" y="825" width="5" height="11" fill="#f6f5f5" rx="0" transform="matrix(-.96464 -.07378 -.2404 -1.05504 3617.654 2439.44)"/><rect x="1729" y="267" width="7" height="12" fill="#f2f6f7" rx="0" transform="matrix(-.54452 .78139 -.78949 -.70357 2744.01 -325.76)"/><rect x="1735" y="412" width="8" height="21" fill="#f6f7f8" rx="0" transform="matrix(.8734 .6625 -.5047 .76213 468.358 -807.197)"/><rect x="1191" y="172" width="9" height="19" fill="#f6f7f8" rx="0" transform="matrix(-.41808 .9363 -.89912 -.37829 1859.69 -1037.199)"/><rect x="641" y="418" width="6" height="17" fill="#f2f6f7" rx="0" transform="matrix(-.5634 .86113 -.80921 -.5381 1390.383 -12.126)"/><rect x="516" y="633" width="6" height="10" fill="#f6f5f5" rx="0" transform="matrix(.88922 .54873 -.45312 .84497 334.339 -122.155)"/><rect x="130" y="663" width="6" height="17" fill="#f6f5f5" rx="0" transform="matrix(-.93011 .45427 -.3759 -.89155 474.17 1205.114)"/><rect x="1988" y="93" width="5" height="11" fill="#f8f9f9" rx="0" transform="matrix(-.92246 .24565 -.37098 -.98526 3786.008 -644.404)"/><rect x="152" y="89" width="8" height="10" fill="#f6f7f8" rx="0" transform="matrix(.37056 .90374 -.92577 .44079 165.749 -72.022)"/><rect x="75" y="238" width="7" height="19" fill="#f6f5f5" rx="0" transform="matrix(.102 1.03852 -.97907 -.16448 298.504 232.193)"/><rect x="1091" y="580" width="8" height="14" fill="#f2f6f7" rx="0" transform="matrix(-.84438 .35974 -.58013 -.93715 2519.731 647.393)"/><rect x="344" y="319" width="7" height="10" fill="#f6f5f5" rx="0" transform="matrix(1.04934 .33553 .06718 .97446 26.126 -21.683)"/><rect x="1053" y="275" width="8" height="16" fill="#f8f9f9" rx="0" transform="matrix(1.0004 .43053 -.17736 .92327 83.925 -227.894)"/><rect x="706" y="544" width="8" height="8" fill="#f2f6f7" rx="0" transform="matrix(-.54425 .67945 -.86732 -.7546 1642.465 604.306)"/><rect x="1319" y="681" width="9" height="14" fill="#f2f6f7" rx="0" transform="matrix(.69386 .92718 -.7982 .3746 1191.23 -796.857)"/><rect x="1253" y="980" width="5" height="8" fill="#f6f7f8" rx="0" transform="matrix(-.97902 .10478 -.22869 -.99695 2883.896 1745.65)"/><rect x="1947" y="476" width="6" height="8" fill="#f8f9f9" rx="0" transform="matrix(-.70027 .69988 -.70367 -.72474 3687.107 -776.31)"/><rect x="733" y="920" width="8" height="18" fill="#f2f6f7" rx="0" transform="matrix(-.84821 .26205 -.65057 -.97797 2227.241 1761.133)"/><rect x="187" y="730" width="9" height="19" fill="#f6f5f5" rx="0" transform="matrix(-.5317 .79912 -.85071 -.60218 961.527 1038.469)"/><rect x="1273" y="415" width="5" height="5" fill="#f8f9f9" rx="0" transform="matrix(.84944 .27989 -.61048 .9761 412.953 -571.922)"/><rect x="1723" y="442" width="9" height="19" fill="#f8f9f9" rx="0" transform="matrix(-.75554 .37928 -.76657 -.93874 3573.096 493.751)"/><rect x="80" y="644" width="7" height="14" fill="#f8f9f9" rx="0" transform="matrix(-.52364 .6757 -.89837 -.75045 828.92 1094.855)"/><rect x="1335" y="447" width="9" height="23" fill="#f6f7f8" rx="0" transform="matrix(.08749 1 -.98926 .12278 1701.608 -1101.767)"/><rect x="432" y="517" width="8" height="19" fill="#f2f6f7" rx="0" transform="matrix(.56037 .78813 -.83102 .61576 582.482 -133.71)"/><rect x="12" y="71" width="8" height="13" fill="#f8f9f9" rx="0" transform="matrix(-.37553 .95073 -.92252 -.32736 80.963 89.34)"/><rect x="1593" y="975" width="8" height="13" fill="#f6f7f8" rx="0" transform="matrix(.5159 1.00737 -.95661 .07044 2080.724 -471.961)"/><rect x="283" y="175" width="5" height="5" fill="#f6f5f5" rx="0" transform="matrix(.7962 .7982 -.5607 .69386 133.582 -75.24)"/><rect x="18" y="106" width="8" height="10" fill="#f2f6f7" rx="0" transform="matrix(-.88019 .53284 -.46815 -.85272 97.124 191.617)"/><rect x="513" y="444" width="7" height="20" fill="#f6f7f8" rx="0" transform="matrix(-.60223 .61526 -.82614 -.81648 1251.946 616.684)"/><rect x="1560" y="366" width="6" height="12" fill="#f8f9f9" rx="0" transform="matrix(.92345 .35974 -.37414 .93715 205.352 -402.142)"/><rect x="474" y="501" width="9" height="20" fill="#f2f6f7" rx="0" transform="matrix(.14924 1.01845 -.96883 .0891 816.05 79.848)"/><rect x="1462" y="195" width="6" height="17" fill="#f8f9f9" rx="0" transform="matrix(-.10332 .89099 -1.06508 -.49388 1945.827 -716.527)"/><rect x="591" y="291" width="8" height="20" fill="#f6f7f8" rx="0" transform="matrix(-.12605 .85563 -1.07714 -.62165 1092.554 183.891)"/><rect x="1321" y="675" width="7" height="13" fill="#f6f5f5" rx="0" transform="matrix(-.73364 .6355 -.66758 -.78478 2847.449 188.457)"/><rect x="1733" y="970" width="9" height="10" fill="#f6f5f5" rx="0" transform="matrix(-.78516 .39222 -.69986 -.92402 4065.062 1346.443)"/><rect x="61" y="786" width="9" height="23" fill="#f2f6f7" rx="0" transform="matrix(.69835 .7627 -.68234 .68673 435.22 214.997)"/><rect x="638" y="885" width="7" height="14" fill="#f6f7f8" rx="0" transform="matrix(1.02217 .20804 .0021 .97874 200.717 -136.898)"/><rect x="579" y="49" width="6" height="11" fill="#f8f9f9" rx="0" transform="matrix(-1.02206 .32681 -.0916 -.94913 1181.262 -134.895)"/><rect x="434" y="492" width="8" height="13" fill="#f6f5f5" rx="0" transform="matrix(.8286 .54497 -.55902 .83918 326.814 -143.234)"/><rect x="1790" y="530" width="6" height="6" fill="#f6f5f5" rx="0" transform="matrix(-.5601 .73415 -.83982 -.6846 3338.667 -575.3)"/><rect x="780" y="734" width="8" height="17" fill="#f6f5f5" rx="0" transform="matrix(-.4711 .93715 -.88623 -.35974 1787.834 206.29)"/><rect x="1506" y="12" width="7" height="15" fill="#f8f9f9" rx="0" transform="matrix(-.0507 .84598 -1.14523 -.61464 1764.638 -784.024)"/><rect x="669" y="858" width="7" height="12" fill="#f2f6f7" rx="0" transform="matrix(.7873 1.00552 -.7538 .30742 1024.421 140.688)"/><rect x="710" y="789" width="7" height="13" fill="#f8f9f9" rx="0" transform="matrix(-.71808 .67076 -.69333 -.74496 1747.87 959.418)"/><rect x="1766" y="880" width="8" height="8" fill="#f6f5f5" rx="0" transform="matrix(.9624 .15653 -.31216 .98829 241.532 -328.516)"/><rect x="164" y="351" width="9" height="17" fill="#f8f9f9" rx="0" transform="matrix(-.84515 .48666 -.53013 -.87796 549.94 578.383)"/><rect x="651" y="700" width="9" height="12" fill="#f8f9f9" rx="0" transform="matrix(1.01597 .06985 .21317 .99893 9.955 -10.682)"/><rect x="1736" y="724" width="5" height="12" fill="#f6f7f8" rx="0" transform="matrix(-.12278 1 -1.02165 .17633 2645.772 -1443.763)"/><rect x="1265" y="619" width="5" height="8" fill="#f8f9f9" rx="0" transform="matrix(1.0494 .44697 .01316 .95853 59.263 -104.263)"/><rect x="1494" y="589" width="5" height="9" fill="#f6f5f5" rx="0" transform="matrix(-.90586 .1099 -.47986 -1.0457 3212.419 1535.89)"/><rect x="735" y="545" width="9" height="11" fill="#f6f5f5" rx="0" transform="matrix(-.77702 .67076 -.62787 -.74496 1585.805 516.28)"/><rect x="1802" y="612" width="6" height="8" fill="#f8f9f9" rx="0" transform="matrix(.05241 .99087 -1.01658 -.13926 2444.16 -1023.709)"/><rect x="1605" y="392" width="7" height="12" fill="#f6f5f5" rx="0" transform="matrix(-.91615 .12617 -.4645 -1.02756 3339.521 1035.023)"/><rect x="1768" y="874" width="7" height="9" fill="#f8f9f9" rx="0" transform="matrix(.9852 -.01767 .1511 1.01231 64.924 -260.09)"/><rect x="1627" y="359" width="7" height="12" fill="#f8f9f9" rx="0" transform="matrix(-.31528 .87582 -.96702 -.48547 2560.839 -800.375)"/><rect x="1330" y="307" width="9" height="13" fill="#f2f6f7" rx="0" transform="matrix(-.23945 .9576 -.94264 -.40648 1864.082 -454.326)"/><rect x="1124" y="897" width="5" height="8" fill="#f8f9f9" rx="0" transform="matrix(.64092 .75655 -.76464 .65766 1007.733 -465.036)"/><rect x="89" y="640" width="5" height="13" fill="#f8f9f9" rx="0" transform="matrix(-.2868 .70606 -1.10876 -.75715 1065.604 1095.913)"/><rect x="205" y="461" width="8" height="20" fill="#f6f7f8" rx="0" transform="matrix(.42679 1.03255 -.91608 .12678 569.814 255.414)"/><rect x="521" y="722" width="8" height="19" fill="#f2f6f7" rx="0" transform="matrix(.90423 .60932 -.44123 .8086 401.493 -96.723)"/><rect x="1363" y="556" width="9" height="25" fill="#f2f6f7" rx="0" transform="matrix(-.31373 .99315 -.96837 -.12194 2264.574 -768.063)"/><rect x="153" y="874" width="5" height="6" fill="#f2f6f7" rx="0" transform="matrix(-.60902 .60932 -.83298 -.8086 1107.442 1516.014)"/><rect x="459" y="278" width="9" height="23" fill="#f2f6f7" rx="0" transform="matrix(.09045 .95481 -1.01618 .32877 692.178 -313.374)"/><rect x="625" y="66" width="7" height="12" fill="#f8f9f9" rx="0" transform="matrix(-.76104 .79575 -.66208 -.62171 1155.341 -471.699)"/><rect x="1155" y="614" width="5" height="8" fill="#f2f6f7" rx="0" transform="matrix(.31282 1.03046 -.96498 .01799 1439.28 -297.272)"/><rect x="1438" y="403" width="6" height="12" fill="#f6f7f8" rx="0" transform="matrix(1.07332 .58242 -.1841 .83179 159.79 -516.389)"/><rect x="1601" y="925" width="6" height="8" fill="#f2f6f7" rx="0" transform="matrix(1.06186 .23087 .26795 1 0 0)"/><rect x="1881" y="295" width="9" height="23" fill="#f2f6f7" rx="0" transform="matrix(.79614 .7304 -.54467 .75636 422.14 -689.87)"/><rect x="455" y="950" width="8" height="12" fill="#f6f5f5" rx="0" transform="matrix(.51113 1.01168 -.8891 .19665 1168.026 418.083)"/><rect x="143" y="358" width="7" height="18" fill="#f6f7f8" rx="0" transform="matrix(-1.02312 .31205 -.05573 -.9604 274.305 653.163)"/><rect x="1236" y="960" width="9" height="19" fill="#f6f7f8" rx="0" transform="matrix(-.60796 .90554 -.80779 -.44166 2720.681 122.051)"/><rect x="1724" y="205" width="9" height="17" fill="#f6f5f5" rx="0" transform="matrix(1.08084 .71916 -.27127 .74472 112.216 -725.42)"/><rect x="379" y="937" width="8" height="20" fill="#f8f9f9" rx="0" transform="matrix(-.7129 .90475 -.74203 -.461 1250.762 969.508)"/><rect x="1138" y="273" width="6" height="16" fill="#f8f9f9" rx="0" transform="matrix(-.8115 .4068 -.63555 -.91368 2315.473 53.672)"/><rect x="1938" y="404" width="9" height="25" fill="#f8f9f9" rx="0" transform="matrix(.51255 .82228 -.85724 .57577 1211.025 -1250.641)"/><rect x="575" y="508" width="8" height="21" fill="#f2f6f7" rx="0" transform="matrix(.97571 .13951 -.22524 .99269 122.505 -117.473)"/><rect x="82" y="750" width="5" height="12" fill="#f6f5f5" rx="0" transform="matrix(.38355 .83018 -.94586 .55996 648.12 258.092)"/><rect x="758" y="578" width="6" height="9" fill="#f6f5f5" rx="0" transform="matrix(.13948 .97125 -.99223 .26024 1224.058 -388.195)"/><rect x="1266" y="127" width="7" height="17" fill="#f6f7f8" rx="0" transform="matrix(-.48152 .88781 -.87034 -.47206 1998.9 -1061.042)"/><rect x="762" y="898" width="5" height="14" fill="#f6f7f8" rx="0" transform="matrix(.9854 .17407 -.15627 .98721 102.352 -68.047)"/><rect x="1977" y="641" width="9" height="17" fill="#f6f5f5" rx="0" transform="matrix(-.01488 1.01231 -.9881 .01767 2693.963 -1681.71)"/><rect x="1557" y="959" width="5" height="10" fill="#f8f9f9" rx="0" transform="matrix(.83867 .73826 -.54464 .71293 776.625 -514.545)"/><rect x="1744" y="325" width="7" height="17" fill="#f6f5f5" rx="0" transform="matrix(-.78948 .55304 -.5925 -.8516 3257.275 -40.796)"/><rect x="825" y="737" width="8" height="11" fill="#f6f5f5" rx="0" transform="matrix(-.9655 .22716 -.22008 -.98395 1672.09 1401.271)"/><rect x="251" y="482" width="5" height="9" fill="#f8f9f9" rx="0" transform="matrix(-.56632 .56659 -.8929 -.87247 920.023 840.016)"/><rect x="972" y="774" width="8" height="14" fill="#f8f9f9" rx="0" transform="matrix(-.43151 .7885 -.93111 -.61604 2324.49 458.475)"/><rect x="226" y="275" width="6" height="12" fill="#f2f6f7" rx="0" transform="matrix(.11135 .9939 -1.0198 -.12204 567.199 75.686)"/><rect x="310" y="75" width="6" height="16" fill="#f8f9f9" rx="0" transform="matrix(1.08547 .56131 -.11006 .86435 22.535 -86.392)"/><rect x="1967" y="41" width="8" height="23" fill="#f6f5f5" rx="0" transform="matrix(.86485 .53121 -.49843 .85012 283.58 -1176.978)"/><rect x="1041" y="560" width="5" height="7" fill="#f8f9f9" rx="0" transform="matrix(.49003 1.0267 -1.01687 -.08982 1372.793 -197.063)"/><rect x="1382" y="728" width="6" height="13" fill="#f2f6f7" rx="0" transform="matrix(-.8138 .62028 -.57055 -.79393 2970.645 288.49)"/><rect x="1097" y="922" width="9" height="10" fill="#f6f7f8" rx="0" transform="matrix(.99574 .03498 -.06954 1.00183 98.837 -117.258)"/><rect x="540" y="378" width="5" height="5" fill="#f8f9f9" rx="0" transform="matrix(-.92908 .20906 -.4124 -.98354 1249.428 698.34)"/><rect x="1386" y="800" width="8" height="13" fill="#f6f7f8" rx="0" transform="matrix(-.5554 .61803 -.8536 -.85065 2916.362 1085.121)"/><rect x="1778" y="870" width="5" height="12" fill="#f2f6f7" rx="0" transform="matrix(-.63721 .91 -.78812 -.44384 3563.905 -637.454)"/><rect x="547" y="605" width="7" height="20" fill="#f8f9f9" rx="0" transform="matrix(.99433 -.10531 .03506 1.002 10.249 -10.842)"/><rect x="92" y="951" width="9" height="20" fill="#f2f6f7" rx="0" transform="matrix(.97262 .19375 -.15754 .99677 16.587 1.422)"/><rect x="848" y="24" width="5" height="10" fill="#f6f5f5" rx="0" transform="matrix(.08766 .97974 -1.00044 .22619 807.07 -900.217)"/><rect x="656" y="594" width="5" height="9" fill="#f8f9f9" rx="0" transform="matrix(-.78104 .50375 -.63228 -.87253 1574.963 869.84)"/><rect x="1334" y="706" width="5" height="12" fill="#f6f7f8" rx="0" transform="matrix(.71068 .9204 -.77006 .4098 1121.187 -645.792)"/><rect x="1986" y="77" width="7" height="15" fill="#f6f7f8" rx="0" transform="matrix(-.2934 .92775 -.95934 -.37483 2662.35 -1660.108)"/><rect x="903" y="592" width="9" height="18" fill="#f6f5f5" rx="0" transform="matrix(-.74314 .80017 -.66913 -.62516 1984.051 90.552)"/><rect x="217" y="897" width="5" height="9" fill="#f6f5f5" rx="0" transform="matrix(.98904 .10453 -.15665 .99452 96.378 -18.005)"/><rect x="993" y="15" width="6" height="15" fill="#f2f6f7" rx="0" transform="matrix(.813 .78813 -.63364 .61576 201.885 -793.718)"/><rect x="1936" y="296" width="5" height="6" fill="#f6f5f5" rx="0" transform="matrix(-.60007 .52654 -.90049 -.87632 3548.267 -47.647)"/><rect x="1857" y="279" width="5" height="6" fill="#f6f7f8" rx="0" transform="matrix(-.89164 .2255 -.57245 -.97675 3797.09 268.154)"/><rect x="446" y="413" width="7" height="17" fill="#f8f9f9" rx="0" transform="matrix(.58932 .96291 -.84704 .31287 610.87 -72.01)"/><rect x="1954" y="489" width="7" height="18" fill="#f6f7f8" rx="0" transform="matrix(.14054 1 -.99755 .01746 2244.357 -1502.36)"/><rect x="89" y="393" width="9" height="25" fill="#f6f5f5" rx="0" transform="matrix(-.98588 .56616 -.30465 -.83937 254.308 678.12)"/><rect x="1973" y="506" width="6" height="16" fill="#f8f9f9" rx="0" transform="matrix(-.94898 .32877 -.28563 -.95481 3858.394 632.836)"/><rect x="967" y="379" width="5" height="12" fill="#f2f6f7" rx="0" transform="matrix(.977 .05285 -.27904 1.00844 107.962 -190.743)"/><rect x="1977" y="141" width="8" height="9" fill="#f6f5f5" rx="0" transform="matrix(.03544 .99027 -1.0148 -.13917 2084.108 -1795.971)"/><rect x="1097" y="503" width="6" height="15" fill="#f2f6f7" rx="0" transform="matrix(.49006 .94027 -.88516 .34223 1080.212 -660.087)"/><rect x="1186" y="681" width="5" height="9" fill="#f6f7f8" rx="0" transform="matrix(.50792 .92764 -.85187 .41301 1305.266 -909.682)"/><rect x="361" y="400" width="8" height="12" fill="#f2f6f7" rx="0" transform="matrix(.98038 .56966 -.30196 .84455 179.889 -73.866)"/><rect x="1873" y="156" width="7" height="11" fill="#f6f7f8" rx="0" transform="matrix(-.86721 .54464 -.50069 -.83867 3576.224 -725.07)"/><rect x="698" y="129" width="8" height="15" fill="#f6f5f5" rx="0" transform="matrix(-.14737 .91266 -1.02382 -.44513 981.787 -319.645)"/><rect x="197" y="496" width="9" height="19" fill="#f2f6f7" rx="0" transform="matrix(.41825 1 -.94865 .12278 690.259 266.673)"/><rect x="493" y="947" width="6" height="17" fill="#f2f6f7" rx="0" transform="matrix(-.94663 .15665 -.4069 -.98904 1638.509 1796.84)"/><rect x="410" y="501" width="9" height="13" fill="#f6f5f5" rx="0" transform="matrix(-1.02799 -.23289 -.15876 -1.00874 997.12 1227.033)"/><rect x="1366" y="66" width="8" height="11" fill="#f2f6f7" rx="0" transform="matrix(.9397 .66558 -.34202 .82193 107.076 -427.387)"/><rect x="808" y="200" width="5" height="10" fill="#f6f5f5" rx="0" transform="matrix(.73129 .61716 -.6843 .78993 316.628 -400.473)"/><rect x="1476" y="169" width="8" height="22" fill="#f2f6f7" rx="0" transform="matrix(.45582 .95073 -.89488 .32736 978.184 -1130.446)"/><rect x="469" y="62" width="9" height="11" fill="#f6f5f5" rx="0" transform="matrix(-.4387 .92107 -.89948 -.39097 741.048 -358.77)"/><rect x="1161" y="506" width="5" height="10" fill="#f2f6f7" rx="0" transform="matrix(-.27394 .95419 -.9483 -.3473 1891.54 -216.574)"/><rect x="1414" y="443" width="6" height="14" fill="#f6f7f8" rx="0" transform="matrix(1.00589 .03498 .22099 1.00183 6.23 -149.484)"/><rect x="938" y="342" width="9" height="24" fill="#f6f7f8" rx="0" transform="matrix(.58369 .83745 -.7854 .58639 572.66 -442.547)"/><rect x="1928" y="455" width="5" height="9" fill="#f6f5f5" rx="0" transform="matrix(-.9462 .31072 -.30623 -.9563 3828.235 501.978)"/><rect x="1687" y="649" width="8" height="18" fill="#f6f5f5" rx="0" transform="matrix(-.9259 .20794 -.45294 -.9783 3723.15 920.57)"/><rect x="1382" y="889" width="9" height="10" fill="#f8f9f9" rx="0" transform="matrix(-.03455 .99324 -1.01415 .21112 2295.644 -916.341)"/><rect x="189" y="470" width="7" height="19" fill="#f6f5f5" rx="0" transform="matrix(-.97886 .05285 -.24366 -1.00844 524.312 979.93)"/><rect x="1690" y="750" width="7" height="19" fill="#f8f9f9" rx="0" transform="matrix(-.60375 .5634 -.87987 -.83526 3643.432 647.713)"/><rect x="500" y="187" width="8" height="20" fill="#f6f7f8" rx="0" transform="matrix(.5878 .81928 -.809 .57366 373.694 -337.725)"/><rect x="328" y="713" width="6" height="13" fill="#f6f5f5" rx="0" transform="matrix(.68253 .69508 -.7319 .71978 619.331 -40.011)"/><rect x="1562" y="70" width="6" height="17" fill="#f8f9f9" rx="0" transform="matrix(.9628 .44079 -.29466 .90374 94.094 -517.786)"/><rect x="1126" y="656" width="6" height="7" fill="#f6f5f5" rx="0" transform="matrix(.81741 .91 -.70023 .44384 892.57 -481.78)"/><rect x="1036" y="709" width="5" height="11" fill="#f6f7f8" rx="0" transform="matrix(.62378 .96291 -.83584 .31287 1142.902 -344.546)"/><rect x="1368" y="280" width="8" height="15" fill="#f8f9f9" rx="0" transform="matrix(-.00043 .99042 -1.00973 .1392 1613.563 -1087.425)"/><rect x="485" y="200" width="8" height="21" fill="#f8f9f9" rx="0" transform="matrix(-.17615 .9406 -.99554 -.36106 803.617 -113.405)"/><rect x="592" y="844" width="9" height="22" fill="#f8f9f9" rx="0" transform="matrix(-.69325 .79393 -.71793 -.62028 1637.502 838.524)"/><rect x="1590" y="470" width="5" height="13" fill="#f8f9f9" rx="0" transform="matrix(.71119 .94454 -.77138 .38162 966.1 -899.967)"/><rect x="551" y="685" width="5" height="5" fill="#f6f7f8" rx="0" transform="matrix(-.95402 -.25298 .12657 -1.01463 843.471 1694.302)"/><rect x="1716" y="80" width="5" height="6" fill="#f2f6f7" rx="0" transform="matrix(.17405 .99127 -.97497 .19268 1480.855 -1878.017)"/><rect x="1693" y="491" width="5" height="9" fill="#f6f5f5" rx="0" transform="matrix(.42773 1.01367 -.91877 .16055 1472.015 -911.29)"/><rect x="461" y="815" width="7" height="13" fill="#f8f9f9" rx="0" transform="matrix(-.94165 .36034 -.32206 -.93872 1044.154 1474.103)"/><rect x="921" y="966" width="6" height="8" fill="#f6f7f8" rx="0" transform="matrix(.97803 .486 -.29323 .87676 564.355 -394.123)"/><rect x="1702" y="684" width="8" height="23" fill="#f6f5f5" rx="0" transform="matrix(.25811 .92764 -.96309 .41301 1942.374 -1475.114)"/><rect x="1721" y="97" width="5" height="11" fill="#f8f9f9" rx="0" transform="matrix(-.91162 .22526 -.49067 -.9757 3348.921 -276.05)"/><rect x="1079" y="831" width="7" height="9" fill="#f2f6f7" rx="0" transform="matrix(-.71004 .80303 -.71022 -.60513 2419.307 358.026)"/><rect x="523" y="159" width="6" height="16" fill="#f6f7f8" rx="0" transform="matrix(1.02334 .4073 -.15675 .9148 59.203 -227.575)"/><rect x="848" y="794" width="6" height="13" fill="#f6f7f8" rx="0" transform="matrix(.51056 1 -.8242 .34433 961.355 -33.111)"/><rect x="1718" y="550" width="6" height="13" fill="#f8f9f9" rx="0" transform="matrix(-.59296 .56952 -.84277 -.877 3305.208 590.556)"/><rect x="1105" y="527" width="5" height="7" fill="#f6f5f5" rx="0" transform="matrix(-.869 .19953 -.54125 -1.02648 2417.819 1192.667)"/><rect x="194" y="267" width="5" height="14" fill="#f2f6f7" rx="0" transform="matrix(1.05331 .80105 -.36453 .67216 178.923 -7.5)"/><rect x="580" y="842" width="9" height="23" fill="#f6f5f5" rx="0" transform="matrix(.93574 .43017 -.22294 .96618 79.607 -21.315)"/><rect x="1272" y="619" width="5" height="13" fill="#f8f9f9" rx="0" transform="matrix(1.08437 .59511 -.18785 .8191 278.795 -443.457)"/><rect x="1175" y="588" width="8" height="15" fill="#f6f7f8" rx="0" transform="matrix(-.60553 .56133 -.88375 -.8322 2632.793 532.42)"/><rect x="307" y="111" width="7" height="14" fill="#f6f5f5" rx="0" transform="matrix(.81213 .78801 -.6345 .61566 162.625 -199.325)"/><rect x="351" y="60" width="8" height="10" fill="#f2f6f7" rx="0" transform="matrix(.31462 1.00306 -.97495 .07014 321.061 -258.333)"/><rect x="714" y="22" width="8" height="8" fill="#f8f9f9" rx="0" transform="matrix(.44523 1.03996 -.91478 .1093 434.974 -504.021)"/><rect x="1795" y="662" width="9" height="25" fill="#f8f9f9" rx="0" transform="matrix(.00069 1.00737 -.99264 .07044 2497.282 -1438.675)"/><rect x="1693" y="229" width="5" height="13" fill="#f6f5f5" rx="0" transform="matrix(.57283 .94199 -.8531 .34286 987.593 -1323.82)"/><rect x="1227" y="71" width="6" height="16" fill="#f6f5f5" rx="0" transform="matrix(-.8757 .43844 -.48538 -.89893 2348.96 -367.793)"/><rect x="740" y="245" width="9" height="24" fill="#f2f6f7" rx="0" transform="matrix(-.70034 .53513 -.74794 -.85638 1502.525 183.32)"/><rect x="97" y="323" width="9" height="11" fill="#f6f5f5" rx="0" transform="matrix(.19241 .99449 -.97162 .17535 450.917 155.69)"/><rect x="299" y="772" width="5" height="8" fill="#f2f6f7" rx="0" transform="matrix(-.74623 .6111 -.64612 -.81096 940.727 1274.218)"/><rect x="1335" y="213" width="8" height="22" fill="#f6f7f8" rx="0" transform="matrix(.44335 .73854 -.94059 .6887 949.729 -1107.36)"/><rect x="1218" y="600" width="6" height="11" fill="#f2f6f7" rx="0" transform="matrix(.97411 .10454 -.29726 .99467 108.59 -145.736)"/><rect x="1783" y="184" width="6" height="7" fill="#f6f7f8" rx="0" transform="matrix(-1.00381 -.17896 -.1052 -1.01496 3620.634 1142.734)"/><rect x="1941" y="919" width="7" height="15" fill="#f6f5f5" rx="0" transform="matrix(-.10457 .99634 -.99084 -.12233 2989.163 -727.413)"/><rect x="1187" y="125" width="7" height="14" fill="#f6f5f5" rx="0" transform="matrix(-1.00047 .24494 -.07 -.9824 2391.788 -218.48)"/><rect x="838" y="900" width="7" height="18" fill="#f6f5f5" rx="0" transform="matrix(-.97536 .0535 -.0788 -1.02094 1542.075 1970.876)"/><rect x="999" y="39" width="9" height="23" fill="#f2f6f7" rx="0" transform="matrix(.3919 .95164 -.92349 .3092 661.354 -885.039)"/><rect x="795" y="201" width="7" height="17" fill="#f8f9f9" rx="0" transform="matrix(-.74664 .54672 -.67937 -.84187 1571.833 -120.543)"/><rect x="258" y="808" width="6" height="17" fill="#f2f6f7" rx="0" transform="matrix(.30254 .85442 -.98134 .5339 873.056 125.522)"/><rect x="1503" y="704" width="7" height="10" fill="#f6f7f8" rx="0" transform="matrix(-.29763 .9968 -.97717 -.0872 2531.956 -783.46)"/><rect x="1977" y="570" width="7" height="11" fill="#f6f7f8" rx="0" transform="matrix(-.27636 .97675 -.96 -.2255 2992.653 -1090.687)"/><rect x="365" y="584" width="6" height="9" fill="#f6f5f5" rx="0" transform="matrix(.08312 .96441 -1.06716 -.35102 1108.581 525.13)"/><rect x="1530" y="968" width="7" height="13" fill="#f6f7f8" rx="0" transform="matrix(-.99765 .05254 .00171 -1.00244 2905.918 2004.982)"/><rect x="1174" y="697" width="6" height="6" fill="#f8f9f9" rx="0" transform="matrix(-.01753 .9968 -1.00167 -.0872 1924.681 -371.088)"/><rect x="619" y="227" width="7" height="20" fill="#f6f5f5" rx="0" transform="matrix(-.09569 .92327 -1.03848 -.43053 984.89 -114.7)"/><rect x="230" y="831" width="8" height="9" fill="#f6f5f5" rx="0" transform="matrix(.0599 .98721 -1.02351 -.17407 1325.566 733.567)"/><rect x="1360" y="886" width="8" height="17" fill="#f6f5f5" rx="0" transform="matrix(-.99558 .17389 -.10466 -.98616 2801.222 1467.954)"/><rect x="675" y="774" width="7" height="19" fill="#f2f6f7" rx="0" transform="matrix(-.2278 1.00076 -.99128 -.03495 1504.619 96.305)"/><rect x="84" y="704" width="6" height="11" fill="#f6f7f8" rx="0" transform="matrix(1.0598 .29277 .05085 .95762 177.028 9.159)"/><rect x="1984" y="347" width="6" height="17" fill="#f6f7f8" rx="0" transform="matrix(-.94428 .13936 -.45651 -.99163 4148.743 535.241)"/><rect x="1073" y="724" width="6" height="8" fill="#f8f9f9" rx="0" transform="matrix(.2598 .9848 -.96962 .17365 1566.019 -458.069)"/><rect x="607" y="894" width="9" height="24" fill="#f2f6f7" rx="0" transform="matrix(-.67962 .60092 -.7287 -.8271 1669.214 1417.862)"/><rect x="1017" y="97" width="6" height="13" fill="#f6f5f5" rx="0" transform="matrix(-.9301 .13951 -.54972 -.99269 2085.805 135.265)"/><rect x="1142" y="329" width="8" height="15" fill="#f2f6f7" rx="0" transform="matrix(.5876 .67169 -.8362 .74598 720.79 -784.538)"/><rect x="859" y="846" width="7" height="17" fill="#f6f5f5" rx="0" transform="matrix(.28286 1.0224 -1.00284 -.08945 1623.535 248.238)"/><rect x="212" y="957" width="5" height="10" fill="#f6f7f8" rx="0" transform="matrix(.76628 .48845 -.66488 .88119 607.886 -16.813)"/><rect x="1029" y="715" width="8" height="9" fill="#f6f5f5" rx="0" transform="matrix(-.57202 .94328 -.85193 -.34333 2137.216 -98.263)"/><rect x="433" y="95" width="6" height="13" fill="#f8f9f9" rx="0" transform="matrix(.3216 .92558 -.9439 .39288 365.608 -296.103)"/><rect x="1454" y="583" width="9" height="14" fill="#f6f5f5" rx="0" transform="matrix(.96793 .15653 -.27727 .98829 163.2 -272.322)"/><rect x="328" y="257" width="8" height="15" fill="#f8f9f9" rx="0" transform="matrix(.69739 .96441 -.78307 .35102 361.624 -71.88)"/><rect x="1796" y="340" width="6" height="12" fill="#f6f5f5" rx="0" transform="matrix(-.95106 .14132 -.30902 -1.00554 3616.87 756.896)"/><rect x="39" y="468" width="8" height="16" fill="#f2f6f7" rx="0" transform="matrix(-1.00983 .13917 0 -.99027 19.525 941.383)"/><rect x="433" y="804" width="6" height="6" fill="#f6f5f5" rx="0" transform="matrix(.94351 .43944 -.34113 .90099 436.842 -142.183)"/><rect x="1864" y="574" width="5" height="14" fill="#f6f5f5" rx="0" transform="matrix(-.7654 .47532 -.66433 -.89395 3742.388 508.82)"/><rect x="1964" y="687" width="9" height="9" fill="#f2f6f7" rx="0" transform="matrix(-.15345 .9951 -.98061 -.1576 3003.896 -1400.08)"/><rect x="1518" y="700" width="5" height="5" fill="#f6f5f5" rx="0" transform="matrix(.75566 1.01073 -.7727 .28982 1146.927 -543.875)"/><rect x="922" y="550" width="7" height="7" fill="#f6f7f8" rx="0" transform="matrix(.99075 .44166 -.23284 .90554 288.895 -470.115)"/><rect x="1542" y="765" width="6" height="6" fill="#f2f6f7" rx="0" transform="matrix(-.08842 .83082 -1.137 -.62607 2948.308 408.225)"/><rect x="315" y="978" width="6" height="17" fill="#f8f9f9" rx="0" transform="matrix(-.5218 .74833 -.83241 -.72265 1229.75 1552.613)"/><rect x="1924" y="470" width="7" height="11" fill="#f8f9f9" rx="0" transform="matrix(.17697 .98169 -1.05951 -.22664 2294.406 -1072.268)"/><rect x="1602" y="10" width="7" height="20" fill="#f2f6f7" rx="0" transform="matrix(.19493 1.01463 -1.03418 -.25298 1385.014 -1113.079)"/><rect x="1891" y="147" width="5" height="14" fill="#f6f5f5" rx="0" transform="matrix(1.11665 .56966 -.09993 .84455 -25.737 -686.652)"/><rect x="492" y="900" width="8" height="14" fill="#f8f9f9" rx="0" transform="matrix(-.71018 .74047 -.68824 -.6905 1559.554 1087.451)"/><rect x="1663" y="160" width="6" height="11" fill="#f8f9f9" rx="0" transform="matrix(-.14708 .83974 -1.08002 -.63279 2240.012 -587.456)"/><rect x="1052" y="327" width="9" height="25" fill="#f2f6f7" rx="0" transform="matrix(-.30977 .92733 -.95322 -.37466 1726.146 -494.58)"/><rect x="1720" y="54" width="8" height="9" fill="#f6f7f8" rx="0" transform="matrix(-.9866 .1397 -.13798 -.99405 3414.644 26.631)"/><rect x="1931" y="757" width="7" height="7" fill="#f6f5f5" rx="0" transform="matrix(-.1214 .96651 -.98805 -.37101 2898.433 -308.72)"/><rect x="865" y="895" width="6" height="7" fill="#f8f9f9" rx="0" transform="matrix(-.32495 .93486 -.94494 -.35886 2073.713 363.986)"/><rect x="208" y="685" width="6" height="14" fill="#f6f5f5" rx="0" transform="matrix(-.99223 .4068 -.22962 -.91368 457.892 1234.752)"/><rect x="829" y="14" width="9" height="13" fill="#f2f6f7" rx="0" transform="matrix(.15838 1 -1.03079 -.19438 751.525 -647)"/><rect x="1796" y="721" width="6" height="8" fill="#f2f6f7" rx="0" transform="matrix(.0021 1.00967 -.99038 .01762 2571.219 -1357.013)"/><rect x="307" y="178" width="7" height="18" fill="#f8f9f9" rx="0" transform="matrix(-.63067 .6165 -.81483 -.7891 710.891 126.862)"/><rect x="981" y="668" width="9" height="9" fill="#f2f6f7" rx="0" transform="matrix(-.99395 -.0716 -.246 -1.0238 2209.22 1659.082)"/><rect x="856" y="505" width="6" height="9" fill="#f6f5f5" rx="0" transform="matrix(.96019 .53 -.35017 .84818 314.56 -362.922)"/><rect x="1219" y="233" width="8" height="11" fill="#f2f6f7" rx="0" transform="matrix(.40843 1.0049 -.98087 .0351 1055.77 -870.314)"/><rect x="876" y="307" width="9" height="12" fill="#f6f5f5" rx="0" transform="matrix(-.83102 .61576 -.56037 -.78813 1758.878 32.882)"/><rect x="1501" y="337" width="8" height="9" fill="#f2f6f7" rx="0" transform="matrix(.71249 .66099 -.69327 .76038 576.657 -728.162)"/><rect x="1977" y="114" width="6" height="13" fill="#f6f7f8" rx="0" transform="matrix(.24379 1.00306 -.9799 .07014 1638.355 -1665.902)"/><rect x="34" y="344" width="9" height="16" fill="#f2f6f7" rx="0" transform="matrix(-.10473 1.0069 -.9968 .03516 387.347 296.13)"/><rect x="97" y="70" width="7" height="15" fill="#f6f7f8" rx="0" transform="matrix(-.55822 .9761 -.86443 -.27989 216.254 -16.627)"/><rect x="915" y="944" width="7" height="20" fill="#f2f6f7" rx="0" transform="matrix(-.43435 .85437 -.88839 -.55483 2085.776 877.112)"/><rect x="1374" y="791" width="6" height="8" fill="#f2f6f7" rx="0" transform="matrix(.39582 .84187 -.93078 .54672 1512.916 -919.375)"/><rect x="784" y="942" width="7" height="18" fill="#f2f6f7" rx="0" transform="matrix(-.99817 .0698 -.05232 -.99817 1639.44 1817.795)"/><rect x="1080" y="667" width="8" height="8" fill="#f2f6f7" rx="0" transform="matrix(.51455 1.02568 -.957 .03582 1398.069 -214.608)"/><rect x="696" y="670" width="5" height="5" fill="#f6f5f5" rx="0" transform="matrix(-.89164 .2255 -.57245 -.97675 1913.128 1220.696)"/><rect x="1970" y="433" width="5" height="13" fill="#f8f9f9" rx="0" transform="matrix(.905 .76616 -.54582 .64289 581.266 -1319.87)"/><rect x="553" y="880" width="7" height="14" fill="#f6f5f5" rx="0" transform="matrix(1.00513 .06993 .07338 1 112.32 -77.829)"/><rect x="590" y="605" width="8" height="15" fill="#f6f7f8" rx="0" transform="matrix(.29026 .99497 -1.0407 -.12217 1284.214 137.852)"/><rect x="1493" y="649" width="9" height="12" fill="#f8f9f9" rx="0" transform="matrix(-.58916 .72474 -.81085 -.69988 2925.525 211.987)"/><rect x="978" y="319" width="5" height="13" fill="#f6f7f8" rx="0" transform="matrix(.9197 .41582 -.33917 .93395 114.09 -177.805)"/><rect x="260" y="795" width="8" height="11" fill="#f6f7f8" rx="0" transform="matrix(.9375 .8768 -.50814 .59141 564.452 186.498)"/><rect x="1058" y="943" width="9" height="10" fill="#f8f9f9" rx="0" transform="matrix(.39073 .96848 -.9205 .2777 1519.987 -213.819)"/><rect x="398" y="539" width="6" height="12" fill="#f2f6f7" rx="0" transform="matrix(-.42882 .74326 -.95931 -.66923 1264.547 618.685)"/><rect x="1768" y="956" width="9" height="22" fill="#f8f9f9" rx="0" transform="matrix(-.13773 1.00368 -.98429 -.08781 3020.83 -944.739)"/><rect x="61" y="436" width="8" height="18" fill="#f8f9f9" rx="0" transform="matrix(1.03386 .20791 .05418 .97815 92.926 -3.79)"/><rect x="1766" y="704" width="9" height="9" fill="#f6f5f5" rx="0" transform="matrix(.41068 .96725 -.92382 .25917 1782.135 -1094.856)"/><rect x="798" y="764" width="6" height="11" fill="#f2f6f7" rx="0" transform="matrix(.71025 .96573 -.80471 .31378 1078.385 -104.267)"/><rect x="464" y="379" width="9" height="19" fill="#f2f6f7" rx="0" transform="matrix(.7383 .67282 -.66632 .74724 335.464 -167.775)"/><rect x="1605" y="10" width="9" height="13" fill="#f8f9f9" rx="0" transform="matrix(-.99771 .01746 -.10477 -1.00046 3220.86 61.106)"/><rect x="226" y="704" width="9" height="24" fill="#f6f7f8" rx="0" transform="matrix(.97686 .37667 -.23703 .9323 347.522 -62.57)"/><rect x="414" y="379" width="9" height="14" fill="#f6f5f5" rx="0" transform="matrix(-.76249 .29152 -.7712 -1.01665 1138.322 800.527)"/><rect x="106" y="355" width="6" height="12" fill="#f2f6f7" rx="0" transform="matrix(.95245 .877 -.52173 .56952 277.344 93.134)"/><rect x="1617" y="396" width="5" height="12" fill="#f6f7f8" rx="0" transform="matrix(.48845 .92718 -.88119 .3746 1232.051 -1250.166)"/><rect x="1695" y="713" width="9" height="17" fill="#f8f9f9" rx="0" transform="matrix(-.93672 .57577 -.39904 -.82228 3509.03 187.572)"/><rect x="875" y="98" width="8" height="23" fill="#f8f9f9" rx="0" transform="matrix(-.91045 .27835 -.41752 -.9707 1720.982 -152.41)"/><rect x="290" y="771" width="9" height="19" fill="#f6f7f8" rx="0" transform="matrix(-.98776 -.1099 -.2994 -1.0457 895.734 1724.727)"/><rect x="983" y="405" width="7" height="18" fill="#f6f5f5" rx="0" transform="matrix(-.9313 .22581 -.39459 -.9781 2112.36 682.476)"/><rect x="135" y="935" width="5" height="8" fill="#f2f6f7" rx="0" transform="matrix(.59194 .87475 -.81506 .48488 920.397 365.816)"/><rect x="481" y="796" width="9" height="10" fill="#f2f6f7" rx="0" transform="matrix(-.77006 .43965 -.62313 -.94283 1325.663 1481.973)"/><rect x="334" y="366" width="7" height="20" fill="#f6f5f5" rx="0" transform="matrix(-.54885 .51764 -.98122 -.89658 1034.277 628.842)"/><rect x="676" y="530" width="7" height="9" fill="#f2f6f7" rx="0" transform="matrix(-.74573 .34433 -.73845 -1 1675.281 1069)"/><rect x="1109" y="616" width="8" height="14" fill="#f2f6f7" rx="0" transform="matrix(-.88597 .2758 -.53599 -.96185 2611.597 876.393)"/><rect x="1186" y="511" width="9" height="11" fill="#f2f6f7" rx="0" transform="matrix(.75963 .8573 -.71002 .51512 796.85 -749.39)"/><rect x="576" y="206" width="8" height="17" fill="#f6f5f5" rx="0" transform="matrix(-.77494 .37667 -.7368 -.9323 1266.496 256.968)"/><rect x="1647" y="339" width="7" height="13" fill="#f6f7f8" rx="0" transform="matrix(.17167 1.03777 -.97561 -.07257 1675.637 -868.986)"/><rect x="1932" y="184" width="7" height="20" fill="#f6f5f5" rx="0" transform="matrix(-.1781 .79355 -1.10534 -.68982 2715.14 -579.206)"/><rect x="1659" y="675" width="7" height="13" fill="#f6f5f5" rx="0" transform="matrix(-.80603 .3639 -.64827 -.94798 3581.289 1015.716)"/><rect x="1596" y="515" width="9" height="23" fill="#f6f7f8" rx="0" transform="matrix(.97615 .26563 -.12163 .99133 23.818 -51.069)"/><rect x="56" y="544" width="8" height="19" fill="#f6f5f5" rx="0" transform="matrix(-.08749 1 -.97819 -.24933 556.942 646.463)"/><rect x="1327" y="656" width="6" height="12" fill="#f6f5f5" rx="0" transform="matrix(-.91037 .39222 -.40486 -.92402 2754.386 868.404)"/><rect x="392" y="650" width="5" height="6" fill="#f6f7f8" rx="0" transform="matrix(.40628 .93586 -.91258 .35924 818.255 76.804)"/><rect x="655" y="160" width="5" height="6" fill="#f6f5f5" rx="0" transform="matrix(.54185 1.0042 -.87072 .23184 471.767 -371.117)"/><rect x="1844" y="395" width="8" height="14" fill="#f6f5f5" rx="0" transform="matrix(-.09823 .91266 -1.04779 -.44513 2592.228 -779.799)"/><rect x="1700" y="673" width="8" height="14" fill="#f2f6f7" rx="0" transform="matrix(.98402 .12187 -.19127 .99255 109.74 -202.597)"/><rect x="884" y="858" width="6" height="14" fill="#f8f9f9" rx="0" transform="matrix(-.88578 .17633 -.64775 -1 2545.269 1730)"/><rect x="1327" y="91" width="6" height="17" fill="#f8f9f9" rx="0" transform="matrix(-.64056 .6825 -.72833 -.78512 2186.829 -348.73)"/><rect x="1734" y="767" width="8" height="19" fill="#f8f9f9" rx="0" transform="matrix(.4881 .90768 -.853 .46249 1395.443 -822.342)"/><rect x="1610" y="184" width="7" height="14" fill="#f6f7f8" rx="0" transform="matrix(.15694 .9573 -.99056 .32963 1550.604 -1672.123)"/><rect x="1435" y="419" width="5" height="7" fill="#f2f6f7" rx="0" transform="matrix(-.08594 .89416 -1.07073 -.49564 2181.505 -347.896)"/><rect x="1939" y="94" width="6" height="12" fill="#f2f6f7" rx="0" transform="matrix(.53828 .8151 -.83577 .5922 920.569 -1303.682)"/><rect x="1888" y="374" width="9" height="24" fill="#f8f9f9" rx="0" transform="matrix(-.24118 .95262 -.9667 -.32801 2700.479 -1057.85)"/><rect x="584" y="415" width="8" height="15" fill="#f6f7f8" rx="0" transform="matrix(-.71008 .5358 -.68462 -.89171 1263.8 652.807)"/><rect x="1745" y="62" width="9" height="15" fill="#f6f7f8" rx="0" transform="matrix(-.7099 .6757 -.69152 -.75045 3008.417 -1306.369)"/><rect x="416" y="454" width="5" height="5" fill="#f6f5f5" rx="0" transform="matrix(.96017 .3558 -.1725 .97756 34.824 -18.658)"/><rect x="1277" y="519" width="8" height="20" fill="#f8f9f9" rx="0" transform="matrix(-.27494 .96157 -.9559 -.29398 2080.807 -412.62)"/><rect x="926" y="539" width="7" height="18" fill="#f6f7f8" rx="0" transform="matrix(.91637 .7264 -.42772 .7522 341.184 -255.22)"/><rect x="1222" y="406" width="5" height="14" fill="#f6f5f5" rx="0" transform="matrix(.95825 .24285 -.27452 .974 180.536 -393.758)"/><rect x="1321" y="358" width="7" height="15" fill="#f6f7f8" rx="0" transform="matrix(-.46136 .66834 -.96551 -.76884 2432.29 18.752)"/><rect x="1043" y="386" width="5" height="9" fill="#f6f5f5" rx="0" transform="matrix(.90278 .29309 -.45913 .95864 247.577 -363.378)"/><rect x="761" y="833" width="9" height="10" fill="#f2f6f7" rx="0" transform="matrix(-.94007 .08945 -.43455 -1.0224 1973.874 1803.027)"/><rect x="195" y="360" width="7" height="15" fill="#f8f9f9" rx="0" transform="matrix(-.96064 .07063 -.42127 -1.01 621.552 756.095)"/><rect x="1761" y="304" width="5" height="14" fill="#f2f6f7" rx="0" transform="matrix(-.30837 .9636 -.94934 -.27631 2609.11 -1425.708)"/><rect x="42" y="118" width="6" height="7" fill="#f6f7f8" rx="0" transform="matrix(.1911 .97354 -1.1083 -.41325 207.766 143.395)"/><rect x="1463" y="691" width="6" height="11" fill="#f2f6f7" rx="0" transform="matrix(1.16215 .55719 .06511 .8917 120.774 -265.07)"/><rect x="1948" y="921" width="6" height="12" fill="#f8f9f9" rx="0" transform="matrix(.31997 1.03255 -1.00777 -.12678 2496.362 -410.53)"/><rect x="693" y="863" width="8" height="20" fill="#f6f5f5" rx="0" transform="matrix(-1.0034 .37829 -.16 -.9363 1468.242 1328.763)"/><rect x="1021" y="24" width="7" height="14" fill="#f2f6f7" rx="0" transform="matrix(-.71867 .59102 -.70282 -.81347 1763.443 -656.965)"/><rect x="258" y="435" width="5" height="6" fill="#f2f6f7" rx="0" transform="matrix(.95737 .22619 -.27422 .97974 152.733 -77.427)"/><rect x="1987" y="206" width="7" height="11" fill="#f2f6f7" rx="0" transform="matrix(.8773 .7917 -.55269 .6411 445.21 -1113.04)"/><rect x="1282" y="121" width="7" height="12" fill="#f6f7f8" rx="0" transform="matrix(.42354 .93372 -.9084 .35842 864.237 -1096.382)"/><rect x="717" y="988" width="6" height="7" fill="#f6f7f8" rx="0" transform="matrix(-.7322 .87039 -.70895 -.52298 1874.48 756.401)"/><rect x="99" y="949" width="8" height="15" fill="#f6f7f8" rx="0" transform="matrix(.41109 1.03634 -1.0009 -.09067 1227.606 966.016)"/><rect x="280" y="354" width="8" height="21" fill="#f2f6f7" rx="0" transform="matrix(.32252 .97542 -.93878 .26136 506.31 32.128)"/><rect x="1502" y="315" width="6" height="14" fill="#f6f5f5" rx="0" transform="matrix(.88368 .65967 -.49934 .75887 385.934 -1073.345)"/><rect x="180" y="565" width="6" height="14" fill="#f6f5f5" rx="0" transform="matrix(-.60649 .51764 -.88138 -.89658 918.856 1039.148)"/><rect x="731" y="880" width="5" height="7" fill="#f6f7f8" rx="0" transform="matrix(.92041 .43556 -.32208 .93405 193.065 -78.334)"/><rect x="1673" y="53" width="8" height="8" fill="#f6f7f8" rx="0" transform="matrix(-.616 .7211 -.79192 -.69635 2744.538 -1229.854)"/><rect x="88" y="368" width="9" height="12" fill="#f6f5f5" rx="0" transform="matrix(.04827 1.002 -.99294 .10531 391.445 253.286)"/><rect x="1403" y="651" width="5" height="7" fill="#f6f7f8" rx="0" transform="matrix(1.0114 .58779 -.30922 .80902 411.712 -701.134)"/><rect x="1607" y="954" width="9" height="11" fill="#f6f7f8" rx="0" transform="matrix(.59402 .96349 -.85629 .29457 1700.815 -677.928)"/><rect x="592" y="566" width="7" height="19" fill="#f8f9f9" rx="0" transform="matrix(.9737 .44166 -.26779 .90554 323.366 -281.77)"/></svg>