<svg viewBox="0 0 2000 1000" xmlns="http://www.w3.org/2000/svg"><path fill="#fff" d="M0 0h2000v1000H0z"/><rect x="96" y="544" width="8" height="18" fill="#f8fbfc" rx="0" transform="matrix(1.08477 .53857 -.0514 .89633 143.99 34.044)"/><rect x="1826" y="26" width="7" height="17" fill="#f2faf8" rx="0" transform="matrix(1.06495 .50375 -.14054 .87253 -39.68 -692.588)"/><rect x="1142" y="172" width="7" height="9" fill="#fff3f3" rx="0" transform="matrix(-1.00098 .27669 -.12333 -.96493 2308.552 -70.356)"/><rect x="970" y="736" width="6" height="14" fill="#f8fbfc" rx="0" transform="matrix(-.00006 .99646 -1.00354 -.2118 1734.962 119.95)"/><rect x="125" y="899" width="7" height="18" fill="#fbfbfb" rx="0" transform="matrix(.9925 .14022 -.06974 .9977 15.875 -.156)"/><rect x="1627" y="823" width="9" height="11" fill="#f8fbfc" rx="0" transform="matrix(-.39963 .88222 -.88379 -.55127 2833.519 313.708)"/><rect x="692" y="226" width="6" height="10" fill="#fff3f3" rx="0" transform="matrix(.9748 .26024 -.20454 .97125 89.78 -247.275)"/><rect x="692" y="943" width="7" height="7" fill="#f2faf8" rx="0" transform="matrix(-.83261 .2989 -.62221 -.97767 2017.304 1811.81)"/><rect x="553" y="655" width="5" height="7" fill="#f2faf8" rx="0" transform="matrix(1.08002 .69994 -.27052 .7506 374.221 -96.332)"/><rect x="159" y="870" width="6" height="15" fill="#fff3f3" rx="0" transform="matrix(.78639 .89441 -.71737 .45572 919.782 346.88)"/><rect x="614" y="411" width="7" height="19" fill="#fff3f3" rx="0" transform="matrix(.39711 .98402 -.93904 .19127 832.316 -224.386)"/><rect x="1391" y="29" width="9" height="19" fill="#f2faf8" rx="0" transform="matrix(-1.0011 -.03544 -.44943 -1.0148 2896.842 373.088)"/><rect x="556" y="918" width="5" height="11" fill="#f2faf8" rx="0" transform="matrix(-.92927 .30906 -.3756 -.9512 1504.296 1619.574)"/><rect x="718" y="802" width="6" height="6" fill="#fff3f3" rx="0" transform="matrix(-.8672 .29242 -.58327 -.95645 2050.232 1376.696)"/><rect x="642" y="894" width="9" height="11" fill="#f8fbfc" rx="0" transform="matrix(1.0408 .24251 .0509 .97267 145.935 -86.989)"/><rect x="136" y="846" width="6" height="17" fill="#f2faf8" rx="0" transform="matrix(-.91317 .42288 -.40646 -.90686 568.217 1575.486)"/><rect x="974" y="77" width="6" height="6" fill="#fff3f3" rx="0" transform="matrix(-.7974 .44193 -.55277 -.94772 1753.79 22.752)"/><rect x="112" y="461" width="6" height="16" fill="#fff3f3" rx="0" transform="matrix(.61897 .98263 -.7924 .35765 424.251 223.42)"/><rect x="331" y="575" width="6" height="6" fill="#fbfbfb" rx="0" transform="matrix(-.50945 .75575 -.88034 -.65696 1096.685 722.808)"/><rect x="973" y="308" width="5" height="7" fill="#fff3f3" rx="0" transform="matrix(1.05912 .30977 .03146 .95338 41.41 -219.446)"/><rect x="58" y="505" width="7" height="16" fill="#f2faf8" rx="0" transform="matrix(-.7347 .33869 -.81882 -.98362 659.042 1014.404)"/><rect x="1657" y="376" width="9" height="26" fill="#f8fbfc" rx="0" transform="matrix(-.4056 .76884 -.94809 -.66834 2791.626 -305.473)"/><rect x="37" y="58" width="8" height="23" fill="#fbfbfb" rx="0" transform="matrix(-.23877 .96656 -.96614 -.27716 127.098 44.824)"/><rect x="30" y="487" width="8" height="11" fill="#f2faf8" rx="0" transform="matrix(-.94285 .1769 -.30579 -1.00324 190.502 987.19)"/><rect x="1963" y="467" width="6" height="7" fill="#f8fbfc" rx="0" transform="matrix(.0365 .97675 -1.01538 .2255 2331.076 -1693.363)"/><rect x="1086" y="370" width="8" height="16" fill="#f8fbfc" rx="0" transform="matrix(-.97253 .10467 -.30064 -.99589 2343.704 583.228)"/><rect x="1074" y="847" width="6" height="7" fill="#fbfbfb" rx="0" transform="matrix(.48481 .85769 -.87462 .51535 1298.724 -549.148)"/><rect x="1487" y="868" width="5" height="8" fill="#fff3f3" rx="0" transform="matrix(.2883 .98652 -.94711 .22776 1789.03 -560.104)"/><rect x="611" y="670" width="9" height="16" fill="#fbfbfb" rx="0" transform="matrix(-.7175 .486 -.76324 -.87676 1754.372 1016.351)"/><rect x="816" y="563" width="8" height="14" fill="#f8fbfc" rx="0" transform="matrix(.41588 .98223 -.93726 .19093 1129.581 -315.617)"/><rect x="60" y="636" width="9" height="22" fill="#f2faf8" rx="0" transform="matrix(-.43167 .7213 -.92348 -.7735 724.91 1123.137)"/><rect x="1134" y="151" width="8" height="10" fill="#f8fbfc" rx="0" transform="matrix(.98496 .4098 -.22801 .9204 73.364 -314.197)"/><rect x="753" y="771" width="8" height="13" fill="#f8fbfc" rx="0" transform="matrix(.0876 1.00324 -1.01222 -.1769 1542.34 302.732)"/><rect x="1311" y="154" width="9" height="22" fill="#fbfbfb" rx="0" transform="matrix(-.94421 .39222 -.32515 -.92402 2612.129 -313.598)"/><rect x="1606" y="570" width="9" height="15" fill="#f8fbfc" rx="0" transform="matrix(-.71448 .79912 -.71297 -.60218 3061.17 -305.487)"/><rect x="824" y="893" width="5" height="6" fill="#fbfbfb" rx="0" transform="matrix(-.19056 .98054 -.97935 -.20842 1811.506 330.125)"/><rect x="254" y="700" width="9" height="13" fill="#f2faf8" rx="0" transform="matrix(1.01376 .15665 .01691 .98904 72.907 -19.206)"/><rect x="697" y="634" width="6" height="12" fill="#f8fbfc" rx="0" transform="matrix(-.1877 .87944 -1.03305 -.48748 1657.28 409.954)"/><rect x="160" y="401" width="7" height="15" fill="#f2faf8" rx="0" transform="matrix(-.73917 .56782 -.66526 -.84183 540.841 688.377)"/><rect x="1720" y="338" width="9" height="16" fill="#fbfbfb" rx="0" transform="matrix(.70686 .73236 -.7063 .68293 772.261 -1243.623)"/><rect x="1128" y="860" width="6" height="15" fill="#fbfbfb" rx="0" transform="matrix(1.03209 .6111 -.26677 .81096 441.446 -327.731)"/><rect x="948" y="914" width="8" height="13" fill="#f2faf8" rx="0" transform="matrix(-.95722 .17367 -.32924 -.98496 2298.037 1678.433)"/><rect x="19" y="75" width="7" height="16" fill="#f2faf8" rx="0" transform="matrix(-.96875 -.1472 -.09918 -1.04733 44.59 180.987)"/><rect x="1238" y="65" width="9" height="19" fill="#fbfbfb" rx="0" transform="matrix(.24003 1.03552 -.93197 .14553 933.578 -843.1)"/><rect x="1097" y="127" width="5" height="8" fill="#fff3f3" rx="0" transform="matrix(-.83693 .31848 -.56415 -.98017 2107.752 183.373)"/><rect x="571" y="192" width="8" height="22" fill="#f8fbfc" rx="0" transform="matrix(-.9468 .05394 -.47385 -1.0292 1276.67 524.277)"/><rect x="669" y="749" width="8" height="17" fill="#fff3f3" rx="0" transform="matrix(.93301 .40773 -.35703 .91578 402.764 -257.663)"/><rect x="47" y="772" width="6" height="13" fill="#fbfbfb" rx="0" transform="matrix(.11677 .95853 -1.09771 -.44697 1082.437 1095.756)"/><rect x="636" y="53" width="5" height="8" fill="#f8fbfc" rx="0" transform="matrix(-.5257 .81347 -.84736 -.59102 1020.672 -495.823)"/><rect x="1286" y="232" width="5" height="10" fill="#f2faf8" rx="0" transform="matrix(-.90258 .42423 -.42161 -.90977 2562.266 -206.737)"/><rect x="1065" y="68" width="9" height="12" fill="#fff3f3" rx="0" transform="matrix(.94113 .34966 -.27419 .96069 40.906 -143.724)"/><rect x="95" y="537" width="9" height="15" fill="#f8fbfc" rx="0" transform="matrix(-.8987 .73044 -.50118 -.70537 397.11 838.353)"/><rect x="1668" y="639" width="7" height="20" fill="#fbfbfb" rx="0" transform="matrix(.781 .84455 -.65727 .56966 877.838 -807.475)"/><rect x="1749" y="689" width="9" height="21" fill="#f8fbfc" rx="0" transform="matrix(.78102 .96886 -.77838 .3148 1246.523 -878.748)"/><rect x="469" y="452" width="7" height="8" fill="#fbfbfb" rx="0" transform="matrix(-.11263 .85065 -1.09374 -.61803 1165.183 489.416)"/><rect x="1141" y="182" width="5" height="11" fill="#f8fbfc" rx="0" transform="matrix(.35638 .93715 -.93027 .35974 885.246 -851.534)"/><rect x="472" y="32" width="9" height="16" fill="#f2faf8" rx="0" transform="matrix(.7583 .461 -.68097 .90475 146.258 -299.874)"/><rect x="947" y="584" width="8" height="22" fill="#f8fbfc" rx="0" transform="matrix(.12874 1.0224 -.96683 .08945 1260.203 -210.967)"/><rect x="1081" y="897" width="6" height="12" fill="#fbfbfb" rx="0" transform="matrix(-1.00673 -.07131 -.37462 -1.01985 2775.252 2131.641)"/><rect x="112" y="374" width="6" height="10" fill="#f2faf8" rx="0" transform="matrix(1.08697 .77781 -.34076 .67614 259.52 61.966)"/><rect x="1874" y="303" width="8" height="22" fill="#fbfbfb" rx="0" transform="matrix(-.18754 .9974 -.9729 -.15797 2540.958 -1773.44)"/><rect x="1021" y="130" width="9" height="20" fill="#f2faf8" rx="0" transform="matrix(1.11913 .4584 .11307 .93986 -7.953 -148.144)"/><rect x="596" y="70" width="6" height="14" fill="#f2faf8" rx="0" transform="matrix(-.03493 1.00137 -1.00107 .07002 696.577 -580.62)"/><rect x="899" y="195" width="9" height="17" fill="#f2faf8" rx="0" transform="matrix(-.2295 .91521 -.98562 -.42677 1337.78 -663.527)"/><rect x="469" y="542" width="9" height="15" fill="#f2faf8" rx="0" transform="matrix(1.06367 .41073 -.04563 .92252 148.522 -85.363)"/><rect x="656" y="231" width="5" height="5" fill="#fbfbfb" rx="0" transform="matrix(-.90538 .15993 -.53641 -1.00975 1445.799 503.933)"/><rect x="1340" y="256" width="6" height="17" fill="#fff3f3" rx="0" transform="matrix(-.01737 1.0043 -.99755 .10556 1631.501 -1300.935)"/><rect x="1278" y="342" width="7" height="16" fill="#fff3f3" rx="0" transform="matrix(.91171 .50375 -.40596 .87253 246.372 -443.599)"/><rect x="674" y="59" width="7" height="9" fill="#fff3f3" rx="0" transform="matrix(.83409 .85563 -.56273 .62165 153.32 -322.384)"/><rect x="1588" y="92" width="7" height="12" fill="#fbfbfb" rx="0" transform="matrix(-.3273 .88958 -.9501 -.473 2215.759 -1075.999)"/><rect x="60" y="606" width="5" height="7" fill="#fff3f3" rx="0" transform="matrix(.0476 .96056 -1.06226 -.42767 806.722 830.436)"/><rect x="616" y="67" width="8" height="13" fill="#f2faf8" rx="0" transform="matrix(.6978 .84691 -.7276 .55 236.415 -579.146)"/><rect x="1924" y="708" width="9" height="18" fill="#fff3f3" rx="0" transform="matrix(-.9994 0 -.17553 -1.00061 4091.91 1501.782)"/><rect x="814" y="53" width="9" height="10" fill="#fbfbfb" rx="0" transform="matrix(.97886 .45406 -.28124 .89114 46.364 -351.047)"/><rect x="1630" y="723" width="8" height="19" fill="#fbfbfb" rx="0" transform="matrix(.08817 .97318 -1.00393 .26076 2197.436 -1249.314)"/><rect x="1315" y="567" width="6" height="12" fill="#fbfbfb" rx="0" transform="matrix(-.9563 0 -.51464 -1.0457 3080.744 1575.134)"/><rect x="588" y="532" width="5" height="11" fill="#fbfbfb" rx="0" transform="matrix(.42009 .86785 -.89986 .52146 849.378 -348.776)"/><rect x="1379" y="838" width="6" height="9" fill="#fff3f3" rx="0" transform="matrix(-.97522 .12217 -.24295 -.99497 2983.667 1608.566)"/><rect x="86" y="540" width="5" height="7" fill="#fff3f3" rx="0" transform="matrix(.37919 .96664 -.90395 .33284 467.209 295.864)"/><rect x="1245" y="875" width="5" height="13" fill="#f2faf8" rx="0" transform="matrix(-.75944 .89395 -.71482 -.47532 2704.43 -12.294)"/><rect x="271" y="637" width="8" height="22" fill="#fff3f3" rx="0" transform="matrix(.7895 .9263 -.69449 .4518 621.408 169.07)"/><rect x="1399" y="91" width="6" height="12" fill="#f2faf8" rx="0" transform="matrix(-.31922 .90656 -.91127 -.54471 1866.76 -638.41)"/><rect x="927" y="645" width="5" height="14" fill="#fff3f3" rx="0" transform="matrix(.9848 0 -.3527 1.01543 158.013 -173.954)"/><rect x="354" y="279" width="9" height="18" fill="#f2faf8" rx="0" transform="matrix(1.00337 .41084 -.07026 .96788 26.089 -21.55)"/><rect x="190" y="767" width="7" height="18" fill="#fbfbfb" rx="0" transform="matrix(.58924 .74416 -.81323 .67005 586.037 122.187)"/><rect x="1338" y="107" width="9" height="26" fill="#f8fbfc" rx="0" transform="matrix(.88616 .87796 -.58526 .54861 307.646 -764.778)"/><rect x="1099" y="524" width="9" height="17" fill="#f8fbfc" rx="0" transform="matrix(.9175 .55483 -.38952 .85437 285.42 -320.21)"/><rect x="588" y="491" width="9" height="11" fill="#fff3f3" rx="0" transform="matrix(.70851 .77357 -.69819 .6491 614.76 -367.393)"/><rect x="1549" y="929" width="9" height="19" fill="#f2faf8" rx="0" transform="matrix(-.7233 .76604 -.69848 -.64279 3234.037 351.706)"/><rect x="270" y="711" width="7" height="17" fill="#fff3f3" rx="0" transform="matrix(.87178 .67945 -.50357 .7546 424.196 38.954)"/><rect x="1467" y="699" width="5" height="12" fill="#fff3f3" rx="0" transform="matrix(.3669 1.01 -.96444 .07063 1742.07 -596.239)"/><rect x="572" y="316" width="5" height="9" fill="#f2faf8" rx="0" transform="matrix(-.97641 .12339 -.15225 -1.00492 1133.72 662.682)"/><rect x="967" y="506" width="9" height="24" fill="#fff3f3" rx="0" transform="matrix(-.4152 .79912 -.9385 -.60218 1990.714 19.657)"/><rect x="1790" y="183" width="9" height="9" fill="#fbfbfb" rx="0" transform="matrix(-1.00279 -.01748 -.22952 -1.00122 3691.764 500.636)"/><rect x="1633" y="54" width="7" height="8" fill="#fbfbfb" rx="0" transform="matrix(.78413 .83082 -.61274 .62607 379.601 -868.69)"/><rect x="795" y="933" width="9" height="19" fill="#f2faf8" rx="0" transform="matrix(-.39963 1.00986 -.94823 -.10614 1914.298 94.178)"/><rect x="599" y="283" width="9" height="19" fill="#f2faf8" rx="0" transform="matrix(-.27416 .92327 -.95526 -.43053 1034.06 -21.456)"/><rect x="288" y="515" width="7" height="16" fill="#fff3f3" rx="0" transform="matrix(-.54873 .8988 -.84497 -.43837 829.157 490.27)"/><rect x="535" y="768" width="7" height="7" fill="#fbfbfb" rx="0" transform="matrix(.22644 1.02253 -.9421 .16195 981.917 240.211)"/><rect x="63" y="957" width="6" height="7" fill="#f2faf8" rx="0" transform="matrix(-.30156 .94276 -.94496 -.36189 1178.44 1236.598)"/><rect x="1241" y="761" width="8" height="14" fill="#f8fbfc" rx="0" transform="matrix(.12068 1.0238 -.98519 -.0716 1814.519 -164.223)"/><rect x="1899" y="229" width="8" height="10" fill="#f2faf8" rx="0" transform="matrix(.82766 .48748 -.55823 .87944 459.18 -1099.476)"/><rect x="1076" y="846" width="5" height="14" fill="#fbfbfb" rx="0" transform="matrix(1.02797 .17375 .07465 .9854 139.952 -212.609)"/><rect x="1413" y="746" width="7" height="12" fill="#f2faf8" rx="0" transform="matrix(-.69722 .54597 -.75798 -.84072 3186.27 511.804)"/><rect x="1723" y="691" width="6" height="8" fill="#f8fbfc" rx="0" transform="matrix(.80016 .41301 -.62406 .92764 751.333 -966.906)"/><rect x="1677" y="179" width="5" height="8" fill="#fff3f3" rx="0" transform="matrix(-.68693 .46413 -.80638 -.91091 3085.726 -72.826)"/><rect x="686" y="122" width="9" height="24" fill="#f8fbfc" rx="0" transform="matrix(.93858 .26281 -.30219 .98083 84.41 -300.656)"/><rect x="47" y="17" width="7" height="9" fill="#fbfbfb" rx="0" transform="matrix(.9574 .65646 -.42197 .75517 18.02 -29.65)"/><rect x="704" y="561" width="9" height="22" fill="#fbfbfb" rx="0" transform="matrix(.84653 1 -.70852 .34433 702.383 -89.5)"/><rect x="1329" y="835" width="9" height="23" fill="#f8fbfc" rx="0" transform="matrix(.8447 .48748 -.52749 .87944 690.629 -688.155)"/><rect x="1567" y="297" width="8" height="23" fill="#fbfbfb" rx="0" transform="matrix(-1.03625 .22716 .08634 -.98395 3156.846 34.386)"/><rect x="1822" y="312" width="9" height="15" fill="#fff3f3" rx="0" transform="matrix(1.00273 .15665 -.0527 .98904 33.608 -186.896)"/><rect x="1456" y="886" width="5" height="13" fill="#fff3f3" rx="0" transform="matrix(.87664 .42268 -.48588 .90645 568.122 -558.444)"/><rect x="1182" y="707" width="9" height="9" fill="#fff3f3" rx="0" transform="matrix(.09966 1.02999 -.97437 -.03597 1655.646 -189.16)"/><rect x="1311" y="86" width="6" height="7" fill="#fff3f3" rx="0" transform="matrix(.3746 .86785 -.92718 .52146 904.75 -1305.645)"/><rect x="245" y="358" width="8" height="9" fill="#f8fbfc" rx="0" transform="matrix(-.67806 .35962 -.91774 -.98805 886.08 712.028)"/><rect x="1458" y="386" width="5" height="13" fill="#fbfbfb" rx="0" transform="matrix(-.25957 .98054 -.96468 -.20842 2157.502 -855.64)"/><rect x="68" y="969" width="9" height="23" fill="#fff3f3" rx="0" transform="matrix(-.1173 1.00692 -.9808 -.10583 1178.865 999.783)"/><rect x="1858" y="839" width="9" height="10" fill="#fbfbfb" rx="0" transform="matrix(-.27602 .97437 -.96258 -.22495 3144.765 -780.906)"/><rect x="352" y="672" width="7" height="13" fill="#fbfbfb" rx="0" transform="matrix(.81798 .82416 -.61906 .59879 563.32 48.337)"/><rect x="463" y="435" width="5" height="11" fill="#fbfbfb" rx="0" transform="matrix(-.66875 .7436 -.74266 -.66954 1087.998 405.543)"/><rect x="1580" y="556" width="9" height="11" fill="#f8fbfc" rx="0" transform="matrix(.29223 .95689 -.95571 .29255 1675.762 -1174.287)"/><rect x="199" y="655" width="5" height="13" fill="#fff3f3" rx="0" transform="matrix(1.09856 .6617 -.15463 .81714 263.683 53.1)"/><rect x="140" y="463" width="8" height="18" fill="#f2faf8" rx="0" transform="matrix(.61402 .87682 -.78598 .50623 417.929 129.603)"/><rect x="1593" y="345" width="7" height="16" fill="#fbfbfb" rx="0" transform="matrix(-.28801 .85272 -.99275 -.53284 2498.585 -652.476)"/><rect x="375" y="23" width="8" height="21" fill="#f2faf8" rx="0" transform="matrix(.26008 1.00598 -.9713 .08801 315.998 -297.452)"/><rect x="1789" y="45" width="7" height="18" fill="#fff3f3" rx="0" transform="matrix(-.75655 .60182 -.65766 -.79864 3187.91 -981.627)"/><rect x="1045" y="514" width="6" height="12" fill="#fbfbfb" rx="0" transform="matrix(.25922 .9783 -.96709 .20794 1314.307 -631.678)"/><rect x="1448" y="392" width="7" height="9" fill="#fbfbfb" rx="0" transform="matrix(-1.00358 -.14178 -.08756 -1.0088 2966.615 1284.424)"/><rect x="1645" y="635" width="8" height="14" fill="#f2faf8" rx="0" transform="matrix(.15665 .9783 -.98889 .20794 2004.143 -1133.494)"/><rect x="178" y="880" width="9" height="9" fill="#f2faf8" rx="0" transform="matrix(-.52107 .78478 -.85228 -.6355 1261.567 1277.733)"/><rect x="1405" y="837" width="6" height="6" fill="#f2faf8" rx="0" transform="matrix(1.00092 .19224 -.0525 .989 60.48 -88.555)"/><rect x="1541" y="558" width="6" height="6" fill="#f2faf8" rx="0" transform="matrix(-.24061 .94783 -.9722 -.32636 2532.657 -827.323)"/><rect x="1477" y="847" width="7" height="12" fill="#fbfbfb" rx="0" transform="matrix(-.98286 .1046 -.20961 -.99513 3227.046 1495.295)"/><rect x="725" y="64" width="7" height="12" fill="#fbfbfb" rx="0" transform="matrix(-.79864 .34232 -.60182 -.99418 1352.433 126.914)"/><rect x="1060" y="362" width="7" height="14" fill="#f2faf8" rx="0" transform="matrix(-.99103 .3956 -.19308 -.93198 2178.194 123.736)"/><rect x="1489" y="185" width="9" height="16" fill="#f2faf8" rx="0" transform="matrix(.92402 .46947 -.39222 .88295 206.06 -678.565)"/><rect x="480" y="425" width="6" height="13" fill="#f8fbfc" rx="0" transform="matrix(-1.07764 -.23653 -.43992 -1.02451 1395.941 1144.757)"/><rect x="897" y="123" width="8" height="18" fill="#f8fbfc" rx="0" transform="matrix(.8671 .57169 -.46369 .84756 146.95 -303.453)"/><rect x="1704" y="505" width="6" height="13" fill="#fbfbfb" rx="0" transform="matrix(-.65914 .7229 -.72417 -.7229 3064.079 10.102)"/><rect x="1915" y="681" width="7" height="8" fill="#fbfbfb" rx="0" transform="matrix(.8471 .79393 -.59773 .62028 865.11 -1027.485)"/><rect x="448" y="333" width="6" height="17" fill="#fff3f3" rx="0" transform="matrix(.72365 .77781 -.6566 .67614 293.125 -127.75)"/><rect x="108" y="695" width="8" height="8" fill="#fbfbfb" rx="0" transform="matrix(.99544 .0524 -.08707 1 73.474 -11.74)"/><rect x="1067" y="785" width="5" height="14" fill="#fff3f3" rx="0" transform="matrix(.39292 1.0489 -.9259 .07335 1402.483 -40.388)"/><rect x="270" y="135" width="7" height="7" fill="#fbfbfb" rx="0" transform="matrix(-.96253 .01807 -.20325 -1.03512 550.092 350.206)"/><rect x="1735" y="944" width="9" height="19" fill="#f8fbfc" rx="0" transform="matrix(-.96519 .29277 -.25864 -.95762 3680.103 1266.146)"/><rect x="1526" y="332" width="7" height="10" fill="#fff3f3" rx="0" transform="matrix(.98923 .43556 -.1745 .93405 87.82 -262.612)"/><rect x="1172" y="392" width="8" height="23" fill="#f2faf8" rx="0" transform="matrix(.47133 .97284 -.85637 .35409 891.735 -568.327)"/><rect x="1281" y="471" width="7" height="13" fill="#fff3f3" rx="0" transform="matrix(.2463 1.00122 -.99448 .01748 1539.061 -749.594)"/><rect x="1721" y="614" width="5" height="7" fill="#f8fbfc" rx="0" transform="matrix(.76262 .80846 -.61936 .65468 713.841 -685.949)"/><rect x="782" y="444" width="8" height="19" fill="#f8fbfc" rx="0" transform="matrix(.26765 .96823 -.95099 .29602 904.988 -317.278)"/><rect x="1619" y="979" width="5" height="5" fill="#fff3f3" rx="0" transform="matrix(-.60933 .6297 -.83559 -.77762 3669.328 780.293)"/><rect x="660" y="155" width="8" height="12" fill="#fbfbfb" rx="0" transform="matrix(-.49485 .7211 -.9089 -.69635 1178.364 -252.126)"/><rect x="1312" y="509" width="9" height="19" fill="#fff3f3" rx="0" transform="matrix(.65012 .7283 -.74523 .70332 879.594 -1013.499)"/><rect x="375" y="368" width="5" height="6" fill="#f8fbfc" rx="0" transform="matrix(-.49674 .56385 -1.0086 -.86826 1083.561 581.42)"/><rect x="1321" y="208" width="5" height="14" fill="#fff3f3" rx="0" transform="matrix(.94699 .60932 -.38449 .8086 197.453 -555.656)"/><rect x="417" y="146" width="7" height="7" fill="#fff3f3" rx="0" transform="matrix(-.993 .08717 -.12192 -.99635 859.021 269.14)"/><rect x="1905" y="288" width="8" height="21" fill="#fff3f3" rx="0" transform="matrix(.83867 .63279 -.54464 .78143 470.553 -942.102)"/><rect x="73" y="912" width="6" height="15" fill="#f8fbfc" rx="0" transform="matrix(-.83867 .61801 -.54464 -.79102 640.535 1593.226)"/><rect x="1748" y="172" width="6" height="12" fill="#f2faf8" rx="0" transform="matrix(-.0438 1.01156 -.98474 -.0885 1975.194 -1886.242)"/><rect x="1026" y="112" width="6" height="15" fill="#fff3f3" rx="0" transform="matrix(.29265 .93984 -.9575 .34207 832.674 -870.507)"/><rect x="89" y="161" width="8" height="20" fill="#fbfbfb" rx="0" transform="matrix(.78158 .92955 -.74403 .39457 200.323 30.15)"/><rect x="1042" y="236" width="7" height="16" fill="#fbfbfb" rx="0" transform="matrix(-.95926 .20804 -.29382 -.97874 2145.58 228.8)"/><rect x="1366" y="130" width="5" height="8" fill="#fff3f3" rx="0" transform="matrix(.98751 .05254 -.1917 1.00244 42.027 -191.951)"/><rect x="1385" y="156" width="6" height="10" fill="#f8fbfc" rx="0" transform="matrix(.03473 1.0088 -.99615 -.14178 1492.66 -946.592)"/><rect x="1137" y="833" width="6" height="6" fill="#fff3f3" rx="0" transform="matrix(-.7066 .48748 -.77661 -.87944 2815.448 1135.301)"/><rect x="592" y="650" width="6" height="17" fill="#fff3f3" rx="0" transform="matrix(.84056 .6019 -.54592 .79876 489.412 -215.23)"/><rect x="761" y="149" width="6" height="15" fill="#fff3f3" rx="0" transform="matrix(-.97994 .13926 -.20825 -.99087 1551.666 231.858)"/><rect x="438" y="520" width="8" height="12" fill="#fff3f3" rx="0" transform="matrix(1.00096 -.05314 -.28248 1.01404 77.19 -61.83)"/><rect x="921" y="383" width="8" height="9" fill="#f8fbfc" rx="0" transform="matrix(-.4192 .76884 -.93627 -.66834 1735.183 115.11)"/><rect x="1789" y="930" width="9" height="20" fill="#f8fbfc" rx="0" transform="matrix(-.42262 .769 -.9063 -.7171 3403.395 817.628)"/><rect x="1253" y="677" width="9" height="10" fill="#f2faf8" rx="0" transform="matrix(.3746 1.02058 -.92718 .14343 1418.772 -385.676)"/><rect x="713" y="638" width="9" height="12" fill="#f2faf8" rx="0" transform="matrix(-.87475 .46947 -.48488 -.88295 1668.641 875.772)"/><rect x="1850" y="517" width="6" height="8" fill="#f2faf8" rx="0" transform="matrix(1.0064 .22664 -.05308 .98169 55.025 -182.904)"/><rect x="263" y="612" width="9" height="13" fill="#f2faf8" rx="0" transform="matrix(.23403 .9894 -.95668 .22842 691.175 259.724)"/><rect x="612" y="470" width="5" height="6" fill="#f8fbfc" rx="0" transform="matrix(.6766 .7546 -.71598 .67945 608.266 -420.441)"/><rect x="543" y="379" width="5" height="10" fill="#fbfbfb" rx="0" transform="matrix(.54466 .8708 -.83392 .50275 620.352 -341.411)"/><rect x="39" y="699" width="5" height="12" fill="#f2faf8" rx="0" transform="matrix(-.24355 .78913 -1.06999 -.63903 1023.728 1130.084)"/><rect x="1480" y="320" width="8" height="21" fill="#fbfbfb" rx="0" transform="matrix(.65478 .7917 -.73289 .6411 667.538 -767.793)"/><rect x="72" y="148" width="6" height="17" fill="#f8fbfc" rx="0" transform="matrix(.98254 .32147 -.08675 .98938 5.557 -.943)"/><rect x="963" y="304" width="7" height="18" fill="#fff3f3" rx="0" transform="matrix(1.0118 .22716 -.01957 .98395 55.725 -350.36)"/><rect x="649" y="413" width="6" height="13" fill="#f2faf8" rx="0" transform="matrix(-.58527 .58073 -.88613 -.82936 1526.018 492.05)"/><rect x="72" y="256" width="6" height="8" fill="#f2faf8" rx="0" transform="matrix(.9022 .61905 -.4606 .79235 150.526 15.443)"/><rect x="1721" y="313" width="8" height="23" fill="#fff3f3" rx="0" transform="matrix(-.05384 .97044 -1.01703 -.24196 2210.421 -1240.89)"/><rect x="1782" y="219" width="8" height="10" fill="#fbfbfb" rx="0" transform="matrix(.54178 .867 -.81487 .54176 894.468 -1066.179)"/><rect x="411" y="328" width="5" height="7" fill="#fbfbfb" rx="0" transform="matrix(-.53649 .70766 -.85756 -.7328 941.204 362.183)"/><rect x="374" y="878" width="8" height="17" fill="#f2faf8" rx="0" transform="matrix(-.83288 .40773 -.58191 -.91578 1320.792 1570.646)"/><rect x="1501" y="521" width="5" height="8" fill="#f2faf8" rx="0" transform="matrix(-.94043 .46976 -.36007 -.88349 3015.002 335.053)"/><rect x="798" y="765" width="5" height="5" fill="#f2faf8" rx="0" transform="matrix(-.13674 .877 -1.05147 -.56952 1877.28 747.316)"/><rect x="1702" y="200" width="6" height="11" fill="#f8fbfc" rx="0" transform="matrix(-.26813 .87582 -.99316 -.48547 2423.569 -1098.653)"/><rect x="1792" y="318" width="8" height="16" fill="#f8fbfc" rx="0" transform="matrix(-.98841 .55304 -.28617 -.8516 3663.33 -706.32)"/><rect x="1374" y="580" width="9" height="24" fill="#fff3f3" rx="0" transform="matrix(.9635 .24374 -.23834 .97758 243.306 -491.981)"/><rect x="1637" y="76" width="9" height="18" fill="#f2faf8" rx="0" transform="matrix(-.91264 .26136 -.42008 -.97542 3130.76 -491.814)"/><rect x="1844" y="130" width="6" height="10" fill="#f8fbfc" rx="0" transform="matrix(-.4403 .84921 -.90243 -.53065 2794.218 -1265.06)"/><rect x="1114" y="65" width="5" height="6" fill="#f2faf8" rx="0" transform="matrix(.94552 .45845 -.32557 .89976 82.967 -348.132)"/><rect x="1033" y="758" width="6" height="17" fill="#f8fbfc" rx="0" transform="matrix(-.7604 .57631 -.60782 -.85442 2127.364 1082.656)"/><rect x="562" y="794" width="9" height="23" fill="#f2faf8" rx="0" transform="matrix(.90015 .65967 -.4804 .75887 549.74 -119.93)"/><rect x="1794" y="202" width="6" height="6" fill="#f2faf8" rx="0" transform="matrix(-.6625 .65606 -.76213 -.75471 3172.571 -819.223)"/><rect x="1044" y="303" width="9" height="24" fill="#f2faf8" rx="0" transform="matrix(.99372 -.07028 .01794 1.00506 13.962 -56.643)"/><rect x="154" y="332" width="6" height="9" fill="#f2faf8" rx="0" transform="matrix(.78844 .48547 -.63746 .87582 207.412 -42.661)"/><rect x="1842" y="752" width="5" height="13" fill="#fbfbfb" rx="0" transform="matrix(-.89527 .1093 -.63083 -1.03996 4279.611 1909.62)"/><rect x="655" y="288" width="9" height="25" fill="#f2faf8" rx="0" transform="matrix(-.51504 .87515 -.85717 -.4851 1256.746 -153.92)"/><rect x="1086" y="505" width="7" height="20" fill="#f8fbfc" rx="0" transform="matrix(.30752 1.00015 -.99985 0 1430.537 -593.683)"/><rect x="1020" y="104" width="6" height="10" fill="#f2faf8" rx="0" transform="matrix(.93201 .41301 -.3279 .92764 87.495 -595.006)"/><rect x="1289" y="121" width="8" height="9" fill="#f2faf8" rx="0" transform="matrix(.9553 .64587 -.3686 .79759 141.15 -511.2)"/><rect x="1131" y="411" width="9" height="11" fill="#f2faf8" rx="0" transform="matrix(-1.0105 -.07014 -.19377 -1.00306 2448.497 1033.265)"/><rect x="52" y="549" width="7" height="19" fill="#f2faf8" rx="0" transform="matrix(.98892 .22526 -.15584 .9757 155.867 -1.843)"/><rect x="1395" y="129" width="7" height="12" fill="#fbfbfb" rx="0" transform="matrix(-.9867 -.12415 .0187 -1.01112 2740.284 716.967)"/><rect x="1892" y="603" width="5" height="5" fill="#fff3f3" rx="0" transform="matrix(.96745 .6625 -.3965 .76213 471.199 -844.832)"/><rect x="145" y="510" width="8" height="8" fill="#f2faf8" rx="0" transform="matrix(1.01865 .10453 .12508 .99452 51.598 -12.759)"/><rect x="1532" y="989" width="6" height="17" fill="#f2faf8" rx="0" transform="matrix(-.9303 .29525 -.34415 -.9657 3458.257 1291.857)"/><rect x="1117" y="799" width="6" height="13" fill="#f8fbfc" rx="0" transform="matrix(.89018 .52654 -.41767 .87632 349.755 -252.04)"/><rect x="1911" y="28" width="9" height="26" fill="#fbfbfb" rx="0" transform="matrix(-.99989 -.05285 -.15767 -1.00844 3858.946 452.787)"/><rect x="1004" y="972" width="9" height="14" fill="#f2faf8" rx="0" transform="matrix(1.1105 .39388 .2098 .9749 57.851 -44.977)"/><rect x="573" y="843" width="7" height="8" fill="#fbfbfb" rx="0" transform="matrix(-.15814 .95762 -.99591 -.29277 1587.95 573.125)"/><rect x="385" y="460" width="9" height="13" fill="#fbfbfb" rx="0" transform="matrix(.19065 .98904 -.98088 .15665 764.325 28.603)"/><rect x="665" y="855" width="6" height="8" fill="#fff3f3" rx="0" transform="matrix(.4373 .90223 -.89508 .44005 1214.797 -180.13)"/><rect x="993" y="939" width="8" height="16" fill="#fff3f3" rx="0" transform="matrix(.4572 1.00598 -.95405 .08801 1695.638 .805)"/><rect x="125" y="586" width="5" height="5" fill="#fbfbfb" rx="0" transform="matrix(-.73622 .4851 -.73324 -.87515 800.718 1046.129)"/><rect x="1106" y="113" width="9" height="18" fill="#f2faf8" rx="0" transform="matrix(-.80817 .54597 -.58714 -.84072 2076.114 -304.077)"/><rect x="1263" y="114" width="7" height="17" fill="#f8fbfc" rx="0" transform="matrix(.77818 1.03819 -.81195 .2018 530.07 -780.997)"/><rect x="1392" y="743" width="9" height="13" fill="#f8fbfc" rx="0" transform="matrix(.53463 .90755 -.85256 .4232 1408.134 -908.27)"/><rect x="626" y="984" width="5" height="9" fill="#fff3f3" rx="0" transform="matrix(1.03094 .13936 .16008 .99163 76.982 -46.375)"/><rect x="148" y="633" width="7" height="9" fill="#f2faf8" rx="0" transform="matrix(.15716 .98805 -1.0693 -.35962 942.851 766.294)"/><rect x="1191" y="623" width="6" height="14" fill="#fff3f3" rx="0" transform="matrix(.30804 1.03852 -.91412 .16448 1259.038 -325.66)"/><rect x="796" y="968" width="7" height="8" fill="#fbfbfb" rx="0" transform="matrix(-.00002 1.00107 -.99893 -.05246 1752.537 278.547)"/><rect x="941" y="458" width="8" height="13" fill="#fff3f3" rx="0" transform="matrix(.50067 .90852 -.86722 .42365 883.956 -524.757)"/><rect x="1926" y="252" width="9" height="18" fill="#f8fbfc" rx="0" transform="matrix(.21525 .99863 -1.01265 -.05234 1849.205 -1653.195)"/><rect x="1199" y="212" width="7" height="9" fill="#fff3f3" rx="0" transform="matrix(.49995 1.0263 -.97437 0 944.662 -740.012)"/><rect x="1777" y="100" width="8" height="13" fill="#fff3f3" rx="0" transform="matrix(-.76993 .51117 -.62273 -.88537 3193.152 -331.039)"/><rect x="1386" y="794" width="5" height="13" fill="#fbfbfb" rx="0" transform="matrix(.98926 .8717 -.47992 .58797 688.055 -429.377)"/><rect x="1008" y="877" width="8" height="17" fill="#f2faf8" rx="0" transform="matrix(.91755 .42532 -.29031 .95529 129.817 -81.432)"/><rect x="1162" y="827" width="6" height="14" fill="#fff3f3" rx="0" transform="matrix(.05047 .97925 -1.03566 -.2808 2118.979 153.807)"/><rect x="1779" y="822" width="8" height="23" fill="#f8fbfc" rx="0" transform="matrix(-.43038 .79575 -.92042 -.62171 3412.382 183.45)"/><rect x="289" y="23" width="5" height="13" fill="#fff3f3" rx="0" transform="matrix(.29128 .92955 -.95215 .39457 234.28 -294.072)"/><rect x="1426" y="309" width="5" height="5" fill="#f2faf8" rx="0" transform="matrix(1.10089 .60578 -.13552 .83378 89.546 -457.415)"/><rect x="134" y="425" width="9" height="25" fill="#fbfbfb" rx="0" transform="matrix(.5572 1.02293 -.90917 .1256 550.84 275.406)"/><rect x="69" y="154" width="6" height="13" fill="#fbfbfb" rx="0" transform="matrix(-.74287 .68241 -.66875 -.7318 224.279 231.334)"/><rect x="523" y="413" width="6" height="11" fill="#f2faf8" rx="0" transform="matrix(.98207 .8086 -.49668 .60932 380.341 -178.507)"/><rect x="1258" y="481" width="9" height="24" fill="#fff3f3" rx="0" transform="matrix(.13864 .9824 -.98336 .24494 1587.62 -1067.983)"/><rect x="751" y="719" width="6" height="9" fill="#fbfbfb" rx="0" transform="matrix(1.01113 .42268 -.19747 .90645 304.547 -237.855)"/><rect x="1295" y="654" width="6" height="16" fill="#f2faf8" rx="0" transform="matrix(1.07658 .72265 -.26896 .74833 355.759 -399.201)"/><rect x="267" y="654" width="5" height="13" fill="#fff3f3" rx="0" transform="matrix(-.47229 .73135 -.92691 -.682 1198.403 913.86)"/><rect x="727" y="160" width="9" height="16" fill="#f2faf8" rx="0" transform="matrix(.98792 .20906 -.1356 .98354 47.683 -227.043)"/><rect x="70" y="319" width="7" height="17" fill="#f2faf8" rx="0" transform="matrix(1.04518 .21256 .21256 1 0 0)"/><rect x="1371" y="849" width="6" height="14" fill="#f8fbfc" rx="0" transform="matrix(.99388 .20947 -.09805 .9855 251.014 -444.104)"/><rect x="1774" y="951" width="8" height="23" fill="#fff3f3" rx="0" transform="matrix(.76108 .73826 -.61957 .71293 876.837 -625.84)"/><rect x="690" y="601" width="6" height="8" fill="#fff3f3" rx="0" transform="matrix(-.99447 -.01752 .10722 -1.00367 1199.936 1284.989)"/><rect x="911" y="730" width="8" height="20" fill="#f2faf8" rx="0" transform="matrix(.9661 .67169 -.41582 .74598 543.182 -346.569)"/><rect x="826" y="27" width="9" height="9" fill="#fbfbfb" rx="0" transform="matrix(1.02258 .30906 -.0884 .9512 -11.726 -269.637)"/><rect x="479" y="716" width="8" height="15" fill="#fff3f3" rx="0" transform="matrix(-.20801 .97044 -.9786 -.24196 1304.258 438.264)"/><rect x="1465" y="915" width="6" height="16" fill="#fff3f3" rx="0" transform="matrix(-.96707 .29398 -.23843 -.96157 2937.102 1533.258)"/><rect x="168" y="767" width="6" height="12" fill="#f8fbfc" rx="0" transform="matrix(-.75772 .486 -.69067 -.87676 1067.132 1355.67)"/><rect x="1441" y="724" width="7" height="18" fill="#fbfbfb" rx="0" transform="matrix(.43726 .7546 -.93147 .67945 1436.914 -1109.776)"/><rect x="1577" y="118" width="7" height="11" fill="#f8fbfc" rx="0" transform="matrix(.59127 .8086 -.79116 .60932 684.496 -979.401)"/><rect x="1628" y="718" width="9" height="25" fill="#fff3f3" rx="0" transform="matrix(-.37193 .8336 -.94874 -.56227 3114.337 -391.2)"/><rect x="1059" y="87" width="8" height="14" fill="#f2faf8" rx="0" transform="matrix(.25866 .95689 -.96598 .29255 869.681 -913.55)"/><rect x="1467" y="27" width="5" height="11" fill="#fbfbfb" rx="0" transform="matrix(.06584 1.03552 -.97496 -.14553 1362.287 -1035.188)"/><rect x="931" y="831" width="7" height="11" fill="#fff3f3" rx="0" transform="matrix(.85401 .42288 -.53333 .90686 512.23 -349.9)"/><rect x="1230" y="262" width="9" height="24" fill="#fbfbfb" rx="0" transform="matrix(.8883 .51117 -.41773 .88537 186.498 -337.23)"/><rect x="837" y="393" width="9" height="15" fill="#f8fbfc" rx="0" transform="matrix(-.78806 .81096 -.63927 -.6111 1743.05 -185.553)"/><rect x="73" y="479" width="6" height="6" fill="#fff3f3" rx="0" transform="matrix(.92927 .39804 -.32305 .93773 100.09 14.534)"/><rect x="1762" y="884" width="7" height="14" fill="#f8fbfc" rx="0" transform="matrix(.68597 .81013 -.73599 .5886 1278.96 -971.19)"/><rect x="1130" y="641" width="7" height="7" fill="#f2faf8" rx="0" transform="matrix(.82145 .97767 -.7717 .2989 1004.628 -415.398)"/><rect x="314" y="789" width="8" height="10" fill="#f2faf8" rx="0" transform="matrix(-.53397 .52881 -.96617 -.91593 1463.53 1462.58)"/><rect x="1074" y="909" width="5" height="6" fill="#fbfbfb" rx="0" transform="matrix(-.34387 .83082 -.9445 -.62607 2329.37 897.277)"/><rect x="1877" y="298" width="5" height="8" fill="#fbfbfb" rx="0" transform="matrix(.84022 .47532 -.5236 .89395 458.81 -1159.028)"/><rect x="1815" y="149" width="6" height="8" fill="#fbfbfb" rx="0" transform="matrix(-1.02432 -.20063 -.28534 -1.03214 3841.667 1266.365)"/><rect x="1646" y="91" width="5" height="8" fill="#f8fbfc" rx="0" transform="matrix(.31572 .98652 -.94078 .22776 1175.993 -1814.005)"/><rect x="523" y="707" width="7" height="14" fill="#fff3f3" rx="0" transform="matrix(-.7994 .55 -.58724 -.84691 1491.079 955.13)"/><rect x="685" y="11" width="8" height="20" fill="#f8fbfc" rx="0" transform="matrix(.43766 1.01793 -1.0517 -.16122 475.923 -505.178)"/><rect x="1817" y="925" width="6" height="12" fill="#fff3f3" rx="0" transform="matrix(-.96545 -.21428 .12477 -1.0081 3241.64 2713.294)"/><rect x="898" y="296" width="7" height="8" fill="#fff3f3" rx="0" transform="matrix(-.08882 .96962 -1.00754 -.2598 1316.978 -417.295)"/><rect x="1274" y="325" width="5" height="12" fill="#f8fbfc" rx="0" transform="matrix(.77524 .83745 -.65127 .58639 534.039 -660.775)"/><rect x="1268" y="989" width="6" height="16" fill="#f2faf8" rx="0" transform="matrix(-.65493 .81347 -.75346 -.59102 2869.69 418.738)"/><rect x="344" y="502" width="8" height="23" fill="#f8fbfc" rx="0" transform="matrix(.98684 .29242 -.19196 .95645 148.606 -73.324)"/><rect x="235" y="54" width="5" height="12" fill="#f8fbfc" rx="0" transform="matrix(.7275 .89633 -.67853 .53857 103.116 -112.582)"/><rect x="182" y="214" width="8" height="13" fill="#fff3f3" rx="0" transform="matrix(-.88493 .43053 -.42499 -.92327 399.052 380.158)"/><rect x="139" y="698" width="7" height="18" fill="#f8fbfc" rx="0" transform="matrix(.42597 .99467 -.96058 .10454 977.844 493.834)"/><rect x="1217" y="823" width="5" height="10" fill="#f2faf8" rx="0" transform="matrix(-.4637 .97163 -.91359 -.24225 2406.7 -220.225)"/><rect x="1906" y="253" width="6" height="6" fill="#fff3f3" rx="0" transform="matrix(1.01404 .22495 -.05314 .97437 31.952 -422.87)"/><rect x="698" y="888" width="5" height="9" fill="#f2faf8" rx="0" transform="matrix(-.57958 .63716 -.85373 -.78683 2009.475 1259.363)"/><rect x="447" y="989" width="5" height="13" fill="#fff3f3" rx="0" transform="matrix(.86958 .88552 -.64726 .49085 1008.841 180.008)"/><rect x="1382" y="485" width="5" height="14" fill="#f2faf8" rx="0" transform="matrix(.7653 .76897 -.65827 .64524 741.279 -1011.227)"/><rect x="96" y="389" width="5" height="9" fill="#f2faf8" rx="0" transform="matrix(.9512 .29237 -.30906 .9563 119.555 -11.605)"/><rect x="1424" y="553" width="9" height="17" fill="#fff3f3" rx="0" transform="matrix(.98207 .22499 -.1909 .97452 143.034 -282.15)"/><rect x="1958" y="722" width="8" height="17" fill="#f2faf8" rx="0" transform="matrix(-.55849 .54614 -.93725 -.87401 4046.523 786.615)"/><rect x="982" y="784" width="6" height="6" fill="#f8fbfc" rx="0" transform="matrix(-.67637 .57436 -.7751 -.82028 2424.241 918.43)"/><rect x="909" y="512" width="7" height="20" fill="#f2faf8" rx="0" transform="matrix(1.00596 .06977 .05253 .99772 23.678 -46.542)"/><rect x="1040" y="252" width="8" height="16" fill="#fbfbfb" rx="0" transform="matrix(-.77715 .60218 -.62932 -.79912 2018.964 -124.449)"/><rect x="1034" y="597" width="8" height="8" fill="#fbfbfb" rx="0" transform="matrix(.52992 .82954 -.84805 .55953 997.62 -632.593)"/><rect x="1003" y="881" width="5" height="6" fill="#fbfbfb" rx="0" transform="matrix(-.35083 .887 -.89957 -.57602 2002.428 847.55)"/><rect x="583" y="285" width="9" height="13" fill="#f2faf8" rx="0" transform="matrix(1.04014 .25882 .01816 .96593 54.711 -142.124)"/><rect x="1957" y="878" width="6" height="9" fill="#fff3f3" rx="0" transform="matrix(-.89985 .19583 -.47718 -1.00745 4238.177 1840.252)"/><rect x="347" y="283" width="6" height="16" fill="#fbfbfb" rx="0" transform="matrix(-.9515 -.05535 -.0894 -1.05617 636.482 738.234)"/><rect x="227" y="465" width="9" height="10" fill="#f8fbfc" rx="0" transform="matrix(-.38186 .99572 -.95063 -.13994 704.062 280.93)"/><rect x="111" y="821" width="5" height="10" fill="#f8fbfc" rx="0" transform="matrix(-1.00261 .01745 .1409 -.99985 -19.919 1649.893)"/><rect x="59" y="642" width="6" height="10" fill="#fbfbfb" rx="0" transform="matrix(-.80684 .473 -.59673 -.88958 669.432 1185.619)"/><rect x="1701" y="960" width="6" height="10" fill="#fff3f3" rx="0" transform="matrix(-.5288 .86044 -.84445 -.517 3302.892 146.799)"/><rect x="111" y="847" width="5" height="10" fill="#f2faf8" rx="0" transform="matrix(.42634 .8388 -.91531 .54472 709.7 294.674)"/><rect x="1715" y="268" width="6" height="13" fill="#fff3f3" rx="0" transform="matrix(.79598 .67614 -.5633 .77781 406.354 -672.279)"/><rect x="1943" y="104" width="7" height="20" fill="#f8fbfc" rx="0" transform="matrix(1.00792 .73538 -.41993 .68575 142.15 -1191.012)"/><rect x="1474" y="243" width="9" height="16" fill="#f8fbfc" rx="0" transform="matrix(-.69762 .68165 -.69224 -.75705 2608.01 -279.414)"/><rect x="546" y="531" width="9" height="16" fill="#fbfbfb" rx="0" transform="matrix(-.97953 .10556 -.15406 -1.0043 1118.843 1099.575)"/><rect x="562" y="63" width="8" height="13" fill="#f8fbfc" rx="0" transform="matrix(-1.04569 -.1985 -.34177 -1.02119 1239.405 415.12)"/><rect x="1683" y="779" width="6" height="13" fill="#f2faf8" rx="0" transform="matrix(-.75295 .7891 -.67901 -.6165 3403.235 -149.003)"/><rect x="417" y="270" width="9" height="11" fill="#fff3f3" rx="0" transform="matrix(-.97501 .01778 -.38751 -1.01856 1002.252 630.551)"/><rect x="1249" y="801" width="6" height="6" fill="#fbfbfb" rx="0" transform="matrix(-.65577 .76635 -.73483 -.66618 2756.203 159.374)"/><rect x="1896" y="686" width="9" height="20" fill="#f8fbfc" rx="0" transform="matrix(.18158 .99255 -1.0298 -.12187 2484.936 -1105.513)"/><rect x="1337" y="778" width="6" height="7" fill="#f2faf8" rx="0" transform="matrix(-.60375 .5634 -.87987 -.83526 3090.128 843.844)"/><rect x="132" y="824" width="8" height="13" fill="#fff3f3" rx="0" transform="matrix(-.58436 .92177 -.83682 -.39127 780.046 1022.96)"/><rect x="454" y="567" width="9" height="12" fill="#f8fbfc" rx="0" transform="matrix(.10639 .96493 -1.00583 .27669 939.443 -68.08)"/><rect x="1325" y="426" width="5" height="14" fill="#f8fbfc" rx="0" transform="matrix(.7843 .60513 -.61174 .80303 576.907 -857.55)"/><rect x="842" y="464" width="8" height="12" fill="#f2faf8" rx="0" transform="matrix(.78442 .75887 -.63587 .65967 520.324 -393.13)"/><rect x="88" y="209" width="5" height="11" fill="#fff3f3" rx="0" transform="matrix(-.24137 .97324 -.95828 -.27907 289.798 200.616)"/><rect x="281" y="450" width="9" height="12" fill="#fff3f3" rx="0" transform="matrix(.1957 1.05762 -.94552 0 592.721 252.355)"/><rect x="926" y="528" width="8" height="18" fill="#f8fbfc" rx="0" transform="matrix(.99702 .07044 .06201 1.00737 78.336 -200.17)"/><rect x="1121" y="328" width="5" height="10" fill="#fbfbfb" rx="0" transform="matrix(-1.06648 -.27214 -.30556 -1.01563 2597.487 1342.001)"/><rect x="266" y="696" width="6" height="10" fill="#fff3f3" rx="0" transform="matrix(1.00492 .27564 -.12339 .96126 196.2 -46.99)"/><rect x="111" y="494" width="9" height="12" fill="#fbfbfb" rx="0" transform="matrix(1.07395 .58866 -.165 .8407 205.27 38.325)"/><rect x="662" y="932" width="6" height="14" fill="#fff3f3" rx="0" transform="matrix(.65232 .64367 -.77619 .7671 849.03 -244.194)"/><rect x="955" y="664" width="6" height="15" fill="#fbfbfb" rx="0" transform="matrix(-.91438 .28289 -.34616 -.98655 1940.962 1284.131)"/><rect x="1120" y="318" width="8" height="13" fill="#f8fbfc" rx="0" transform="matrix(-.9014 .25167 -.35814 -1.0094 2162.482 691.473)"/><rect x="391" y="722" width="7" height="20" fill="#fff3f3" rx="0" transform="matrix(-.01832 .98146 -1.01329 -.30006 1186.591 655.537)"/><rect x="504" y="906" width="9" height="23" fill="#fbfbfb" rx="0" transform="matrix(-.53255 .69273 -.8521 -.76936 1579.495 1407.384)"/><rect x="1768" y="89" width="8" height="12" fill="#f8fbfc" rx="0" transform="matrix(.05183 1.0055 -.99452 0 1759.894 -1500.516)"/><rect x="1787" y="155" width="9" height="17" fill="#f8fbfc" rx="0" transform="matrix(-.66974 .67076 -.74702 -.74496 3120.211 -1041.648)"/><rect x="253" y="661" width="6" height="16" fill="#fbfbfb" rx="0" transform="matrix(.58792 .9056 -.7648 .52285 498.794 165.65)"/><rect x="1745" y="281" width="7" height="12" fill="#f8fbfc" rx="0" transform="matrix(.73866 .64761 -.66383 .7718 653.803 -1281.55)"/><rect x="735" y="209" width="7" height="20" fill="#fbfbfb" rx="0" transform="matrix(-.01973 1.00751 -.99255 0 926.914 -434.37)"/><rect x="1144" y="166" width="6" height="8" fill="#fbfbfb" rx="0" transform="matrix(.98125 -.05314 .09367 1.01404 -1.272 -143.678)"/><rect x="1185" y="327" width="5" height="9" fill="#f8fbfc" rx="0" transform="matrix(.991 .31378 -.13694 .96573 98.14 -570.646)"/><rect x="89" y="463" width="9" height="9" fill="#f8fbfc" rx="0" transform="matrix(-.95547 .25917 -.29254 -.96725 360.07 890.557)"/><rect x="993" y="873" width="5" height="9" fill="#fbfbfb" rx="0" transform="matrix(-.841 .47671 -.516 -.89657 2447.571 1014.137)"/><rect x="1496" y="877" width="5" height="5" fill="#f2faf8" rx="0" transform="matrix(.84108 .50491 -.52374 .87454 769.08 -856.868)"/><rect x="1618" y="941" width="9" height="25" fill="#f8fbfc" rx="0" transform="matrix(-.11126 .85658 -1.08953 -.59978 3176.538 631.64)"/><rect x="1041" y="844" width="6" height="8" fill="#fbfbfb" rx="0" transform="matrix(-.94807 .0365 -.2525 -1.04505 2166.28 2015.29)"/><rect x="1166" y="229" width="9" height="15" fill="#fbfbfb" rx="0" transform="matrix(-.40813 .87515 -.91643 -.4851 1879.483 -632.264)"/><rect x="1480" y="404" width="8" height="9" fill="#fff3f3" rx="0" transform="matrix(.8663 .67416 -.52122 .74873 452.645 -715.59)"/><rect x="844" y="881" width="8" height="14" fill="#fff3f3" rx="0" transform="matrix(.17322 1.05002 -.94328 .05503 1333.582 224.248)"/><rect x="1150" y="519" width="6" height="10" fill="#fbfbfb" rx="0" transform="matrix(-.54919 .87039 -.81892 -.52298 2254.707 -408.822)"/><rect x="1725" y="807" width="9" height="22" fill="#fbfbfb" rx="0" transform="matrix(.99787 .17407 -.08556 .98721 184.085 -411.536)"/><rect x="1981" y="886" width="8" height="9" fill="#f2faf8" rx="0" transform="matrix(.66913 .97354 -.74314 .41325 1318.546 -726.491)"/><rect x="422" y="305" width="9" height="11" fill="#fbfbfb" rx="0" transform="matrix(.72706 .8717 -.65678 .58797 288.937 -105.267)"/><rect x="1732" y="96" width="8" height="23" fill="#fbfbfb" rx="0" transform="matrix(.80476 .61905 -.58533 .79235 381.584 -869.892)"/><rect x="425" y="340" width="7" height="8" fill="#fff3f3" rx="0" transform="matrix(.21207 .99418 -1.07888 -.34232 820.324 174.982)"/><rect x="286" y="342" width="7" height="10" fill="#fff3f3" rx="0" transform="matrix(.91579 .56469 -.41318 .83718 261.402 -147.667)"/><rect x="739" y="904" width="6" height="11" fill="#fff3f3" rx="0" transform="matrix(-.31155 .87582 -.9691 -.48547 2071.628 662.294)"/><rect x="705" y="574" width="9" height="20" fill="#fbfbfb" rx="0" transform="matrix(.92131 .84162 -.51881 .61147 483.537 -166.784)"/><rect x="93" y="496" width="5" height="9" fill="#fbfbfb" rx="0" transform="matrix(-.24665 .87247 -.986 -.56659 640.212 728.14)"/><rect x="1087" y="229" width="9" height="13" fill="#f2faf8" rx="0" transform="matrix(.98535 .1746 -.139 .99023 24.23 -73.56)"/><rect x="801" y="269" width="9" height="21" fill="#fbfbfb" rx="0" transform="matrix(.82406 .97446 -.74246 .33553 486.968 -398.38)"/><rect x="945" y="235" width="8" height="18" fill="#f8fbfc" rx="0" transform="matrix(-.73243 .53065 -.71236 -.84921 1869.947 -102.11)"/><rect x="1832" y="624" width="7" height="8" fill="#fff3f3" rx="0" transform="matrix(.2999 1.00967 -.99565 -.01762 2066.52 -956.226)"/><rect x="1272" y="812" width="8" height="10" fill="#f8fbfc" rx="0" transform="matrix(-.0205 .96441 -1.02944 -.35102 2260.05 167.78)"/><rect x="794" y="543" width="7" height="12" fill="#f8fbfc" rx="0" transform="matrix(.72626 1.01006 -.79544 .27064 809.117 -161.287)"/><rect x="947" y="323" width="7" height="20" fill="#f8fbfc" rx="0" transform="matrix(1.02473 .57921 -.26302 .8272 171.8 -359.417)"/><rect x="1309" y="482" width="9" height="21" fill="#f2faf8" rx="0" transform="matrix(-.84586 .19754 -.71068 -1.01626 3000.82 1085.488)"/><rect x="637" y="739" width="6" height="7" fill="#f2faf8" rx="0" transform="matrix(.71934 .8874 -.69466 .5332 695.406 -49.858)"/><rect x="336" y="350" width="7" height="17" fill="#f2faf8" rx="0" transform="matrix(-.73286 .50623 -.70603 -.87682 877.486 554.746)"/><rect x="263" y="557" width="9" height="17" fill="#f8fbfc" rx="0" transform="matrix(-.97252 .06985 -.4083 -.99893 924.721 1125.73)"/><rect x="533" y="874" width="7" height="19" fill="#fbfbfb" rx="0" transform="matrix(.06976 .99269 -1.01717 -.13951 1527.187 511.7)"/><rect x="1824" y="987" width="8" height="9" fill="#f2faf8" rx="0" transform="matrix(1.01039 .39222 -.16924 .92402 419.003 -801.581)"/><rect x="1547" y="516" width="6" height="9" fill="#f2faf8" rx="0" transform="matrix(-.5357 .66618 -.88485 -.76635 2952.454 160.114)"/><rect x="1599" y="236" width="6" height="6" fill="#f2faf8" rx="0" transform="matrix(-1.00746 -.07044 -.21133 -1.00737 3331.697 817.755)"/><rect x="518" y="252" width="9" height="10" fill="#fbfbfb" rx="0" transform="matrix(.97172 .78038 -.46606 .65482 223.954 -217.474)"/><rect x="579" y="36" width="9" height="13" fill="#f8fbfc" rx="0" transform="matrix(1.10528 .41582 .07763 .93395 -13.816 -115.8)"/><rect x="571" y="754" width="7" height="17" fill="#f8fbfc" rx="0" transform="matrix(-.703 .54539 -.75103 -.83982 1705.104 1119.648)"/><rect x="1869" y="683" width="9" height="20" fill="#f8fbfc" rx="0" transform="matrix(-1.01418 .29349 -.09004 -.95996 3771.009 644.49)"/><rect x="1911" y="73" width="7" height="15" fill="#f2faf8" rx="0" transform="matrix(-.5235 .7945 -.83472 -.64338 2941.292 -981.854)"/><rect x="709" y="90" width="8" height="9" fill="#f2faf8" rx="0" transform="matrix(.70512 .69635 -.70588 .7211 264.324 -420.287)"/><rect x="237" y="535" width="8" height="15" fill="#f8fbfc" rx="0" transform="matrix(1.0092 .0698 .10538 .99817 18.038 -7.414)"/><rect x="1371" y="760" width="7" height="8" fill="#fff3f3" rx="0" transform="matrix(-.0351 .89395 -1.09996 -.47532 2582.095 116.107)"/><rect x="326" y="617" width="8" height="11" fill="#fbfbfb" rx="0" transform="matrix(-.31261 .811 -1.00593 -.58922 1232.335 744.738)"/><rect x="1875" y="465" width="8" height="15" fill="#f2faf8" rx="0" transform="matrix(.5156 .82028 -.85807 .57436 1309.096 -1438.66)"/><rect x="1275" y="956" width="9" height="25" fill="#fff3f3" rx="0" transform="matrix(-.84492 .4232 -.55102 -.90755 3069.461 1238.926)"/><rect x="233" y="830" width="7" height="15" fill="#f8fbfc" rx="0" transform="matrix(.71008 .84072 -.72833 .54597 898.517 164.883)"/><rect x="1315" y="500" width="9" height="24" fill="#f8fbfc" rx="0" transform="matrix(1.0275 .12187 .16274 .99255 27.216 -156.99)"/><rect x="155" y="35" width="6" height="14" fill="#f2faf8" rx="0" transform="matrix(-.90281 .14408 -.51661 -1.0252 332.697 104.63)"/><rect x="613" y="845" width="5" height="7" fill="#fbfbfb" rx="0" transform="matrix(-.43002 .73854 -.95302 -.6887 1870.562 1064.793)"/><rect x="1004" y="275" width="5" height="10" fill="#f8fbfc" rx="0" transform="matrix(-.25453 .85437 -1.00516 -.55483 1610.98 -228.924)"/><rect x="351" y="783" width="9" height="23" fill="#f2faf8" rx="0" transform="matrix(-.46511 .57267 -1.03 -.88183 1600.128 1407.04)"/><rect x="1306" y="730" width="6" height="7" fill="#f2faf8" rx="0" transform="matrix(.78542 .61801 -.6128 .79102 784.519 -770.216)"/><rect x="1014" y="645" width="8" height="15" fill="#f2faf8" rx="0" transform="matrix(-.0534 1.00598 -.98938 -.08801 1634.31 -171.094)"/><rect x="1395" y="956" width="6" height="6" fill="#fbfbfb" rx="0" transform="matrix(.6947 .75655 -.71788 .65766 1220.997 -827.115)"/><rect x="1485" y="286" width="9" height="12" fill="#f8fbfc" rx="0" transform="matrix(-1.02686 -.14132 -.23036 -1.00554 3194.084 1058.754)"/><rect x="869" y="245" width="7" height="13" fill="#fbfbfb" rx="0" transform="matrix(.60218 .81915 -.79912 .57358 556.858 -607.465)"/><rect x="1074" y="863" width="8" height="10" fill="#f8fbfc" rx="0" transform="matrix(1.06966 .26205 .1759 .97797 70.077 -92.621)"/><rect x="836" y="843" width="8" height="14" fill="#f8fbfc" rx="0" transform="matrix(.05523 .96291 -1.02057 .31287 1585.74 -357.827)"/><rect x="270" y="434" width="5" height="11" fill="#f8fbfc" rx="0" transform="matrix(.5872 1.01071 -.88586 .17822 599.486 148.667)"/><rect x="23" y="786" width="8" height="12" fill="#fff3f3" rx="0" transform="matrix(.45386 .90852 -.88905 .42365 801.92 430.05)"/><rect x="1736" y="50" width="7" height="13" fill="#fbfbfb" rx="0" transform="matrix(-.86615 .32636 -.5486 -.94783 3257.243 -579.294)"/><rect x="1961" y="127" width="5" height="8" fill="#f2faf8" rx="0" transform="matrix(-.60458 .52573 -.85495 -.9106 3357.008 -144.006)"/><rect x="919" y="922" width="7" height="11" fill="#fbfbfb" rx="0" transform="matrix(-.17727 .90987 -1.0008 -.50435 2076.744 820.453)"/><rect x="1077" y="314" width="8" height="16" fill="#fbfbfb" rx="0" transform="matrix(.87793 .55928 -.48643 .82916 320.443 -568.44)"/><rect x="548" y="684" width="9" height="22" fill="#fff3f3" rx="0" transform="matrix(.83179 .7071 -.58242 .7071 620.27 -187.116)"/><rect x="832" y="119" width="5" height="9" fill="#f2faf8" rx="0" transform="matrix(-.49976 .8851 -.86408 -.47062 1339.154 -498.644)"/><rect x="413" y="114" width="6" height="8" fill="#f8fbfc" rx="0" transform="matrix(-.24932 .96291 -.9575 -.31287 643.779 -311.54)"/><rect x="1678" y="202" width="9" height="22" fill="#f2faf8" rx="0" transform="matrix(.9978 .52298 -.2515 .87039 119.859 -555.643)"/><rect x="1411" y="538" width="7" height="10" fill="#f2faf8" rx="0" transform="matrix(1.12707 .51117 -.00416 .88537 113.018 -360.147)"/><rect x="1442" y="380" width="5" height="6" fill="#fff3f3" rx="0" transform="matrix(-.00805 1.03852 -.96164 -.16448 1689.437 -584.794)"/><rect x="1283" y="163" width="7" height="14" fill="#f2faf8" rx="0" transform="matrix(.62773 .78993 -.77549 .61716 597.132 -861.209)"/><rect x="27" y="481" width="9" height="21" fill="#f8fbfc" rx="0" transform="matrix(.46242 1.0252 -.91043 .14408 499.37 396.83)"/><rect x="748" y="583" width="8" height="12" fill="#fbfbfb" rx="0" transform="matrix(.93974 .41073 -.32398 .92252 199.739 -157.551)"/><rect x="368" y="369" width="9" height="13" fill="#fff3f3" rx="0" transform="matrix(.7865 .8271 -.63764 .60092 342.794 -79.058)"/><rect x="378" y="412" width="5" height="9" fill="#f8fbfc" rx="0" transform="matrix(1.00258 .01748 .21734 1.00122 22.21 -27.099)"/><rect x="639" y="606" width="9" height="22" fill="#fbfbfb" rx="0" transform="matrix(-.27536 .95762 -.96007 -.29277 1390.336 215.139)"/><rect x="727" y="604" width="5" height="11" fill="#f8fbfc" rx="0" transform="matrix(.28144 1.0181 -.99205 -.03555 1221.094 30.269)"/><rect x="297" y="685" width="8" height="19" fill="#f8fbfc" rx="0" transform="matrix(-.98798 .0872 -.17411 -.9968 756.248 1371.04)"/><rect x="524" y="879" width="9" height="26" fill="#fff3f3" rx="0" transform="matrix(.79178 .84497 -.66929 .54873 875.776 20.86)"/><rect x="1182" y="651" width="9" height="16" fill="#fbfbfb" rx="0" transform="matrix(.51197 .9512 -.88495 .30906 1309.587 -693.984)"/><rect x="1448" y="843" width="7" height="15" fill="#f2faf8" rx="0" transform="matrix(1.0478 .29602 .04903 .96823 98.914 -172.748)"/><rect x="103" y="965" width="7" height="12" fill="#f2faf8" rx="0" transform="matrix(.29936 1.00388 -.9325 .21338 857.84 681.482)"/><rect x="663" y="642" width="9" height="22" fill="#f8fbfc" rx="0" transform="matrix(-.07192 .96828 -1.01348 -.25945 1463.22 222.768)"/><rect x="1223" y="103" width="9" height="9" fill="#f8fbfc" rx="0" transform="matrix(-.2067 .96573 -.96833 -.31378 1562.671 -827.758)"/><rect x="1524" y="435" width="6" height="15" fill="#f2faf8" rx="0" transform="matrix(-.54923 .69723 -.84526 -.7477 2766.487 33.25)"/><rect x="899" y="315" width="9" height="14" fill="#f8fbfc" rx="0" transform="matrix(.82379 .7891 -.62367 .6165 438.538 -542.11)"/><rect x="291" y="711" width="5" height="14" fill="#fbfbfb" rx="0" transform="matrix(-.46881 .69508 -.95321 -.71978 1352.124 1041.044)"/><rect x="600" y="653" width="8" height="16" fill="#fbfbfb" rx="0" transform="matrix(.79508 .63405 -.59533 .78298 610.228 -313.677)"/><rect x="505" y="225" width="6" height="11" fill="#f8fbfc" rx="0" transform="matrix(-.50086 .8121 -.86747 -.59003 967.188 -1.604)"/><rect x="936" y="815" width="5" height="13" fill="#fbfbfb" rx="0" transform="matrix(.85537 .4073 -.53403 .9148 506.865 -361.438)"/><rect x="593" y="291" width="7" height="7" fill="#fff3f3" rx="0" transform="matrix(-.0893 .9614 -1.01454 -.27568 1002.31 -187.38)"/><rect x="783" y="147" width="8" height="13" fill="#fff3f3" rx="0" transform="matrix(.12034 .98054 -.99427 .20842 811.888 -595.142)"/><rect x="1507" y="525" width="7" height="14" fill="#f2faf8" rx="0" transform="matrix(.12058 1.0267 -.98455 -.08982 1820.414 -594.422)"/><rect x="1112" y="828" width="6" height="9" fill="#f8fbfc" rx="0" transform="matrix(-.01745 1.002 -.99985 .10531 1966.833 -509.298)"/><rect x="295" y="599" width="5" height="13" fill="#f8fbfc" rx="0" transform="matrix(.1941 .98083 -1.07155 -.26281 1077.25 525.294)"/><rect x="606" y="316" width="5" height="6" fill="#fbfbfb" rx="0" transform="matrix(-.71731 .7233 -.68985 -.69848 1211.226 165.643)"/><rect x="1350" y="232" width="6" height="15" fill="#fbfbfb" rx="0" transform="matrix(1.05799 .20842 .17942 .98054 -12.87 -182.719)"/><rect x="804" y="100" width="7" height="20" fill="#f2faf8" rx="0" transform="matrix(-.01753 .9951 -1.00214 -.1576 935.542 -577.062)"/><rect x="724" y="595" width="7" height="7" fill="#f2faf8" rx="0" transform="matrix(.94062 .70948 -.40079 .76083 339.51 -164.396)"/><rect x="144" y="817" width="7" height="15" fill="#f8fbfc" rx="0" transform="matrix(-.98334 .30906 -.20915 -.9512 393.08 1560.604)"/><rect x="722" y="507" width="9" height="13" fill="#f2faf8" rx="0" transform="matrix(-.22673 .90003 -1.0005 -.43897 1541.3 46.968)"/><rect x="437" y="978" width="5" height="9" fill="#fff3f3" rx="0" transform="matrix(.84975 .86826 -.5999 .56385 790.529 164.68)"/><rect x="1428" y="112" width="9" height="11" fill="#fbfbfb" rx="0" transform="matrix(-.0527 1.00122 -.99786 -.01748 1608.388 -1239.62)"/><rect x="960" y="759" width="8" height="17" fill="#fff3f3" rx="0" transform="matrix(1.08618 .30269 .24899 .99004 19.963 -25.841)"/><rect x="870" y="199" width="5" height="9" fill="#f2faf8" rx="0" transform="matrix(-.96683 .08945 -.12874 -1.0224 1670.856 534.947)"/><rect x="758" y="379" width="7" height="8" fill="#fff3f3" rx="0" transform="matrix(.39718 1.02058 -1.03565 -.14343 1019.97 -149.376)"/><rect x="1725" y="746" width="5" height="7" fill="#f8fbfc" rx="0" transform="matrix(.83058 .74724 -.5904 .67282 919.719 -1227.198)"/><rect x="548" y="247" width="9" height="25" fill="#fbfbfb" rx="0" transform="matrix(.80623 .63186 -.55071 .80874 188.663 -171.913)"/><rect x="491" y="458" width="7" height="14" fill="#fff3f3" rx="0" transform="matrix(.773 .79393 -.65562 .62028 548.476 -276.747)"/><rect x="913" y="18" width="8" height="15" fill="#f2faf8" rx="0" transform="matrix(-.41265 .6597 -1.02407 -.7862 1389.532 -347.687)"/><rect x="1455" y="23" width="8" height="19" fill="#f8fbfc" rx="0" transform="matrix(-.32467 .89657 -.94274 -.47671 1958.27 -1002.84)"/><rect x="113" y="68" width="7" height="10" fill="#f2faf8" rx="0" transform="matrix(-.98008 .32736 -.20836 -.95073 244.83 92.02)"/><rect x="104" y="620" width="5" height="7" fill="#f2faf8" rx="0" transform="matrix(-.71934 .70721 -.69466 -.70721 616.23 987.27)"/><rect x="1883" y="31" width="8" height="23" fill="#f8fbfc" rx="0" transform="matrix(-.70073 .43965 -.77182 -.94283 3313.73 -205.96)"/><rect x="881" y="489" width="8" height="23" fill="#fbfbfb" rx="0" transform="matrix(-.43837 .70754 -.97498 -.70754 1943.915 259.357)"/><rect x="1899" y="526" width="8" height="23" fill="#fff3f3" rx="0" transform="matrix(.55676 .84691 -.8192 .55 1326.584 -1637.244)"/><rect x="590" y="358" width="7" height="16" fill="#fff3f3" rx="0" transform="matrix(.94617 .2758 -.32607 .96185 117.459 -129.001)"/><rect x="764" y="299" width="9" height="24" fill="#fbfbfb" rx="0" transform="matrix(-.27695 .8834 -.96557 -.5308 1290.403 -11.21)"/><rect x="238" y="108" width="5" height="13" fill="#fff3f3" rx="0" transform="matrix(.9205 .2777 -.39073 .96848 63.857 -92.71)"/><rect x="617" y="604" width="6" height="12" fill="#f8fbfc" rx="0" transform="matrix(.66034 .9955 -.82759 .26674 850.232 -15.337)"/><rect x="1887" y="503" width="6" height="15" fill="#f2faf8" rx="0" transform="matrix(.29237 .9614 -.9563 .27568 1825.611 -1414.306)"/><rect x="1627" y="849" width="5" height="9" fill="#f8fbfc" rx="0" transform="matrix(-.30835 .91521 -.94886 -.42677 2922.904 -44.581)"/><rect x="1960" y="181" width="9" height="9" fill="#fff3f3" rx="0" transform="matrix(-.05523 .95295 -1.02362 -.44437 2320.492 -965.832)"/><rect x="1676" y="962" width="7" height="12" fill="#fff3f3" rx="0" transform="matrix(-.91303 .30906 -.42554 -.9512 3729.69 1399.006)"/><rect x="1305" y="395" width="8" height="8" fill="#f8fbfc" rx="0" transform="matrix(.0021 .97874 -1.02217 -.20804 1802.172 -844.88)"/><rect x="569" y="712" width="5" height="8" fill="#f2faf8" rx="0" transform="matrix(.89121 .34223 -.47343 .94027 327.992 -172.77)"/><rect x="1787" y="908" width="5" height="5" fill="#fff3f3" rx="0" transform="matrix(-.93992 .39127 -.34149 -.92177 3676.855 1143.38)"/><rect x="873" y="665" width="6" height="17" fill="#f8fbfc" rx="0" transform="matrix(.8543 .54672 -.5136 .84187 434.229 -295.788)"/><rect x="1958" y="512" width="8" height="12" fill="#fff3f3" rx="0" transform="matrix(.27737 1.0536 -.92486 .09218 1750.325 -921.333)"/><rect x="400" y="142" width="6" height="9" fill="#fbfbfb" rx="0" transform="matrix(-.94152 .37667 -.3245 -.9323 835.43 88.926)"/><rect x="1426" y="31" width="9" height="20" fill="#fbfbfb" rx="0" transform="matrix(-.89238 .60264 -.47514 -.79973 2730.097 -863.258)"/><rect x="1092" y="979" width="7" height="18" fill="#f8fbfc" rx="0" transform="matrix(.71778 1.05617 -.9092 .05535 1651.047 153.488)"/><rect x="383" y="538" width="9" height="9" fill="#fbfbfb" rx="0" transform="matrix(-.94562 .13994 -.4175 -.99572 1083.258 1069.18)"/><rect x="993" y="695" width="6" height="8" fill="#f8fbfc" rx="0" transform="matrix(-.00823 .93874 -1.06193 -.37928 1944.28 186.879)"/><rect x="1173" y="946" width="8" height="17" fill="#fbfbfb" rx="0" transform="matrix(.75471 .8868 -.65606 .55413 914.915 -258.334)"/><rect x="743" y="909" width="5" height="10" fill="#f8fbfc" rx="0" transform="matrix(-.75755 .3678 -.74544 -.95814 2202.698 1687.659)"/><rect x="909" y="891" width="9" height="15" fill="#fbfbfb" rx="0" transform="matrix(.93545 .64367 -.43876 .7671 654.352 -330.853)"/><rect x="612" y="812" width="7" height="7" fill="#fff3f3" rx="0" transform="matrix(.34736 .84912 -.9521 .55143 1127.933 -254.311)"/><rect x="1742" y="649" width="8" height="18" fill="#f8fbfc" rx="0" transform="matrix(1.01523 .12204 .07416 .9939 65.845 -300.572)"/><rect x="1483" y="429" width="6" height="6" fill="#fff3f3" rx="0" transform="matrix(-.43223 .59141 -1.05006 -.8768 2852.51 443.61)"/><rect x="554" y="367" width="5" height="5" fill="#f8fbfc" rx="0" transform="matrix(.97988 .5332 -.24465 .8874 119.704 -106.012)"/><rect x="488" y="891" width="8" height="23" fill="#f2faf8" rx="0" transform="matrix(-.98835 -.07257 -.35376 -1.03777 1444.2 2015.865)"/><rect x="1374" y="215" width="7" height="8" fill="#f2faf8" rx="0" transform="matrix(.36152 .99924 -.98182 .05237 1153.371 -1217.023)"/><rect x="1620" y="828" width="7" height="8" fill="#fff3f3" rx="0" transform="matrix(.50015 .88349 -.86595 .46976 1586.187 -1049.871)"/><rect x="1609" y="239" width="9" height="12" fill="#f2faf8" rx="0" transform="matrix(1.0876 .34842 .11806 .95728 -10.077 -238.08)"/><rect x="797" y="461" width="7" height="13" fill="#fff3f3" rx="0" transform="matrix(-1.0303 .34628 -.0571 -.9514 1604.06 508.296)"/><rect x="1758" y="978" width="9" height="18" fill="#f8fbfc" rx="0" transform="matrix(.4918 .77026 -.88558 .64633 1699.623 -1193.763)"/><rect x="432" y="76" width="5" height="6" fill="#f2faf8" rx="0" transform="matrix(-.19318 .93872 -.99112 -.36034 605.452 -254.74)"/><rect x="1507" y="958" width="9" height="23" fill="#f8fbfc" rx="0" transform="matrix(.09555 .93395 -1.11326 -.41582 2865.78 282.248)"/><rect x="224" y="913" width="5" height="7" fill="#f2faf8" rx="0" transform="matrix(1.04596 .7229 -.33735 .7229 575.378 138.365)"/><rect x="1454" y="664" width="5" height="8" fill="#f8fbfc" rx="0" transform="matrix(-.06995 1.00368 -1.00246 .08781 2210.94 -1031.347)"/><rect x="1437" y="707" width="5" height="9" fill="#fff3f3" rx="0" transform="matrix(-.7852 .54873 -.61328 -.84497 2975.136 699.548)"/><rect x="1376" y="607" width="9" height="22" fill="#fbfbfb" rx="0" transform="matrix(-.92707 .03691 -.54474 -1.05698 3189.76 1695.6)"/><rect x="261" y="765" width="6" height="15" fill="#fbfbfb" rx="0" transform="matrix(-.52468 .74314 -.87321 -.66913 1227.229 1093.213)"/><rect x="1417" y="662" width="7" height="17" fill="#f2faf8" rx="0" transform="matrix(.4226 .89893 -.90632 .43844 1403.603 -875.61)"/><rect x="1404" y="784" width="9" height="13" fill="#f2faf8" rx="0" transform="matrix(.91725 .50069 -.40854 .86721 484.808 -526.433)"/><rect x="1748" y="827" width="6" height="10" fill="#fff3f3" rx="0" transform="matrix(.24636 1.00921 -.99947 -.03524 2302.695 -659.722)"/><rect x="1338" y="498" width="8" height="9" fill="#fbfbfb" rx="0" transform="matrix(-.0777 .92177 -1.05189 -.39127 2139.113 -467.57)"/><rect x="1347" y="989" width="6" height="8" fill="#f8fbfc" rx="0" transform="matrix(.5104 .9363 -.86182 .37829 1747.084 -836.37)"/><rect x="527" y="803" width="5" height="8" fill="#fff3f3" rx="0" transform="matrix(.98596 .0351 -.26256 1.0049 127.066 -78.185)"/><rect x="1148" y="641" width="7" height="17" fill="#fbfbfb" rx="0" transform="matrix(1.09592 .59511 -.17195 .8191 287.67 -385.398)"/><rect x="20" y="323" width="9" height="12" fill="#fff3f3" rx="0" transform="matrix(.89887 .46976 -.43822 .88349 169.598 25.969)"/><rect x="517" y="745" width="9" height="21" fill="#f2faf8" rx="0" transform="matrix(-.98388 .01767 -.2267 -1.01231 1249.79 1593.684)"/><rect x="301" y="623" width="8" height="10" fill="#f2faf8" rx="0" transform="matrix(-.808 .60264 -.58712 -.79973 941.521 930.442)"/><rect x="1878" y="489" width="6" height="12" fill="#fff3f3" rx="0" transform="matrix(-.99305 .25886 -.15702 -.96607 3761.833 519.126)"/><rect x="1173" y="324" width="9" height="20" fill="#f2faf8" rx="0" transform="matrix(-.72439 .88552 -.72774 -.49085 2255.424 -731.255)"/><rect x="441" y="771" width="9" height="17" fill="#fff3f3" rx="0" transform="matrix(-.69797 .51788 -.76935 -.86189 1516.775 1267.453)"/><rect x="1046" y="229" width="5" height="11" fill="#fbfbfb" rx="0" transform="matrix(.99924 .01745 -.05237 .99985 4.89 -18.263)"/><rect x="1897" y="367" width="7" height="15" fill="#f2faf8" rx="0" transform="matrix(1.00554 .51512 -.26782 .8573 194.132 -958.71)"/></svg>