<!DOCTYPE svg PUBLIC "-//W3C//DTD SVG 1.1//EN" "http://www.w3.org/Graphics/SVG/1.1/DTD/svg11.dtd">
<!-- Uploaded to: SVG Repo, www.svgrepo.com, Transformed by: SVG Repo Mixer Tools -->
<svg fill="#000000" version="1.1" id="Capa_1" xmlns="http://www.w3.org/2000/svg" xmlns:xlink="http://www.w3.org/1999/xlink" width="64px" height="64px" viewBox="0 0 480.296 480.296" xml:space="preserve">
<g id="SVGRepo_bgCarrier" stroke-width="0"/>
<g id="SVGRepo_tracerCarrier" stroke-linecap="round" stroke-linejoin="round"/>
<g id="SVGRepo_iconCarrier"> <g> <g> <path d="M197.847,277.697c0,12.76,16.484,23.121,36.828,23.121c20.337,0,36.83-10.361,36.83-23.121 c0-12.77-7.047-25.473-36.83-25.473C205.678,252.233,197.847,264.928,197.847,277.697z"/> <path d="M201.564,187.104c5.409,0,9.796,6.137,9.796,13.709c0,7.573-4.387,13.712-9.796,13.712c-5.414,0-9.799-6.139-9.799-13.712 C191.766,193.242,196.15,187.104,201.564,187.104z"/> <path d="M96.158,73.951c-50.147,59.559-97.173,130.081,0,134.781c97.176,4.723,101.091-184.84,101.091-184.84 S146.311,14.406,96.158,73.951z"/> <path d="M365.733,73.951c-50.157-59.545-101.089-50.059-101.089-50.059s3.925,189.563,101.089,184.84 C462.902,204.039,415.886,133.51,365.733,73.951z"/> <path d="M303.041,295.25c40.706,0,74.229-30.747,78.631-70.286c-4.569,0.6-9.414,1.062-14.594,1.316 c-1.382,0.072-2.759,0.107-4.099,0.107c-104.066,0-109.148-188.438-109.312-196.458l-0.07-3.554 c-7.477-1.977-15.082-3.043-22.659-3.043c-7.038,0-14.106,0.924-21.074,2.635l-0.082,3.962 c-0.103,4.548-1.788,67.194-22.232,120.534c6.461-0.028,12.713,1.524,18.244,4.947c19.492,12.081,22.701,42.205,7.157,67.297 c-15.542,25.083-43.952,35.625-63.444,23.543c-9.269-5.753-14.816-15.603-16.447-27.023c-9.617,4.56-20.407,7.168-32.579,7.168 c-0.009,0-0.009,0-0.009,0c-1.349,0-2.728-0.035-4.105-0.107c-0.653-0.028-1.267-0.082-1.913-0.13 c4.94,38.97,38.188,69.096,78.488,69.096c6.408,0,12.615-0.779,18.57-2.217c-2.604-4.205-4.079-8.877-4.079-13.833 c0-10.837,4.621-36.054,47.413-36.054c41.25,0,47.401,22.575,47.401,36.054c0,4.382-1.162,8.531-3.226,12.344 C286.622,293.938,294.678,295.25,303.041,295.25z M267.781,214.545c-5.409,0-9.797-6.145-9.797-13.731 c0-7.565,4.388-13.709,9.797-13.709c5.408,0,9.796,6.145,9.796,13.709C277.567,208.4,273.181,214.545,267.781,214.545z"/> <path d="M455.421,323.416c-19.919-8.19-50.483-19.583-86.467-29.179c-17.604,14.333-39.988,22.925-64.28,22.925 c-10.36,0-20.614-1.577-30.49-4.677c-10.221,6.427-23.367,10.244-37.887,10.244c-13.493,0-25.765-3.337-35.64-8.956l-2.175,0.527 c-7.829,1.891-15.868,2.856-23.897,2.856c-24.052,0-46.335-8.541-63.925-22.775c-35.885,9.54-66.088,20.815-85.809,28.964 C10.975,329.077,0,346.536,0,361.551v72.498c0,15.015,11.962,24.965,26.789,22.556c43.236-7.019,131.819-19.541,213.36-19.541 s170.122,12.522,213.362,19.541c14.818,2.409,26.784-7.541,26.784-22.556v-72.498 C480.296,346.556,469.306,329.133,455.421,323.416z"/> </g> </g> </g>
</svg>