<!DOCTYPE svg PUBLIC "-//W3C//DTD SVG 1.1//EN" "http://www.w3.org/Graphics/SVG/1.1/DTD/svg11.dtd">
<!-- Uploaded to: SVG Repo, www.svgrepo.com, Transformed by: SVG Repo Mixer Tools -->
<svg fill="#000000" width="64px" height="64px" viewBox="0 0 24 24" id="bedroom-5" data-name="Line Color" xmlns="http://www.w3.org/2000/svg" class="icon line-color">
<g id="SVGRepo_bgCarrier" stroke-width="0"/>
<g id="SVGRepo_tracerCarrier" stroke-linecap="round" stroke-linejoin="round"/>
<g id="SVGRepo_iconCarrier">
<path id="secondary" d="M5,17v2m14-2v2M18,5H6A1,1,0,0,0,5,6v5H19V6A1,1,0,0,0,18,5Z" style="fill: none; stroke: #2ca9bc; stroke-linecap: round; stroke-linejoin: round; stroke-width: 2;"/>
<path id="primary" d="M5,11H19a2,2,0,0,1,2,2v4a0,0,0,0,1,0,0H3a0,0,0,0,1,0,0V13A2,2,0,0,1,5,11Z" style="fill: none; stroke: #000000; stroke-linecap: round; stroke-linejoin: round; stroke-width: 2;"/>
</g>
</svg>