<!DOCTYPE svg PUBLIC "-//W3C//DTD SVG 1.1//EN" "http://www.w3.org/Graphics/SVG/1.1/DTD/svg11.dtd">
<!-- Uploaded to: SVG Repo, www.svgrepo.com, Transformed by: SVG Repo Mixer Tools -->
<svg fill="#000000" version="1.1" id="Capa_1" xmlns="http://www.w3.org/2000/svg" xmlns:xlink="http://www.w3.org/1999/xlink" width="64px" height="64px" viewBox="0 0 365.451 365.451" xml:space="preserve">
<g id="SVGRepo_bgCarrier" stroke-width="0"/>
<g id="SVGRepo_tracerCarrier" stroke-linecap="round" stroke-linejoin="round"/>
<g id="SVGRepo_iconCarrier"> <g> <g> <path d="M354.862,100.361l-39.789-58.511c-6.24-9.182-19.828-16.372-30.931-16.372H74.314c-10.892,0-25.153,6.323-32.464,14.396 L15.12,69.383c-1.621,1.789-1.484,4.553,0.306,6.176c1.789,1.619,4.551,1.482,6.174-0.306l26.73-29.509 c5.657-6.246,17.556-11.521,25.984-11.521h209.828c8.224,0,19.079,5.744,23.704,12.544l39.787,58.511 c4.919,7.235,9.075,20.738,9.075,29.488v183.349c0,7.232-5.883,13.115-13.114,13.115H21.857c-7.232,0-13.114-5.883-13.114-13.115 V123.774c0-7.23,5.882-13.114,13.114-13.114h281.52c2.415,0,4.372-1.957,4.372-4.372c0-2.413-1.957-4.371-4.372-4.371H21.857 C9.804,101.917,0,111.723,0,123.774v194.341c0,12.053,9.804,21.857,21.857,21.857h321.737c12.053,0,21.856-9.805,21.856-21.857 V134.766C365.451,124.207,360.801,109.093,354.862,100.361z"/> <path d="M245.272,188.839c0.113-3.104,1.104-30.378,1.104-32.109c0-9.701-9.076-17.594-20.234-17.594h-74.482 c-2.415,0-4.372,1.957-4.372,4.372c0,2.415,1.957,4.371,4.372,4.371h74.482c6.337,0,11.492,3.971,11.492,8.852 c-0.002,1.232-0.658,19.687-1.102,31.95c0,25.281-17.184,46.916-41.789,52.615c-0.128,0.029-2.561,0.371-3.288,3.34 c-1.863,7.598-6.408,33.191,1.185,40.787c4.948,4.953,19.934,4.113,26.421,3.484c4.791,0.107,8.657,4.035,8.657,8.85 c0,4.881-3.97,8.85-8.85,8.85h-72.716c-4.88,0-8.85-3.969-8.85-8.85c0-4.814,3.866-8.742,8.659-8.85 c6.48,0.627,21.469,1.467,26.417-3.484c7.594-7.596,2.331-33.049,1.184-40.787c-0.32-2.166-3.205-3.322-3.288-3.34 c-24.604-5.699-41.787-27.334-41.791-52.774c0-0.001-0.362-9.925-0.67-18.727c-0.085-2.413-2.095-4.291-4.523-4.214 c-2.413,0.084-4.3,2.109-4.214,4.522c0.306,8.736,0.665,18.581,0.668,18.577c0,28.42,18.696,52.873,45.806,60.43 c2.714,14.016,3.067,27.715,0.7,30.084c-1.77,1.359-11.14,1.836-19.667,0.992l-0.43-0.021c-9.699,0-17.592,7.893-17.592,17.592 c0,9.701,7.893,17.592,17.592,17.592h72.716c9.701,0,17.593-7.893,17.593-17.592s-7.893-17.592-17.593-17.592l-0.43,0.021 c-8.521,0.838-17.9,0.365-19.617-0.945c-2.411-2.412-2.062-16.113,0.646-30.131C226.58,241.557,245.275,217.105,245.272,188.839z"/> </g> </g> </g>
</svg>