<!DOCTYPE svg PUBLIC "-//W3C//DTD SVG 1.1//EN" "http://www.w3.org/Graphics/SVG/1.1/DTD/svg11.dtd">
<!-- Uploaded to: SVG Repo, www.svgrepo.com, Transformed by: SVG Repo Mixer Tools -->
<svg width="64px" height="64px" viewBox="0 0 24 24" id="Flat_Color" data-name="Flat Color" xmlns="http://www.w3.org/2000/svg" fill="#000000">
<g id="SVGRepo_bgCarrier" stroke-width="0"/>
<g id="SVGRepo_tracerCarrier" stroke-linecap="round" stroke-linejoin="round"/>
<g id="SVGRepo_iconCarrier">
<path id="primary" d="M11,22a5,5,0,0,1-5-5V15a1,1,0,0,1,1.45-.89l2,1a1,1,0,0,1-.9,1.78L8,16.62V17a3,3,0,0,0,6,0V10a1,1,0,0,1,2,0v7A5,5,0,0,1,11,22ZM16,6V3a1,1,0,0,0-2,0V6a1,1,0,0,0,2,0Z" style="fill:#000000"/>
<circle id="secondary" cx="15" cy="8" r="3" style="fill:#2ca9bc"/>
</g>
</svg>