<!DOCTYPE svg PUBLIC "-//W3C//DTD SVG 1.1//EN" "http://www.w3.org/Graphics/SVG/1.1/DTD/svg11.dtd">
<!-- Uploaded to: SVG Repo, www.svgrepo.com, Transformed by: SVG Repo Mixer Tools -->
<svg fill="#000000" height="64px" width="64px" version="1.1" id="Layer_1" xmlns="http://www.w3.org/2000/svg" xmlns:xlink="http://www.w3.org/1999/xlink" viewBox="0 0 511.999 511.999" xml:space="preserve">
<g id="SVGRepo_bgCarrier" stroke-width="0"/>
<g id="SVGRepo_tracerCarrier" stroke-linecap="round" stroke-linejoin="round"/>
<g id="SVGRepo_iconCarrier"> <g> <g> <path d="M510.529,195.89c-3.931-12.087-14.681-19.941-27.391-19.941H330.535L283.392,30.902 c-3.928-12.09-14.787-19.88-27.393-19.88v0.011c-12.606,0-23.466,7.773-27.395,19.862l-47.142,145.051H28.862 c-12.709,0-23.461,7.855-27.391,19.941c-3.931,12.087,0.173,24.748,10.45,32.223L135.4,317.93L88.241,463.17 c-3.927,12.09,0.182,24.732,10.467,32.203c5.142,3.735,11.035,5.603,16.928,5.603c5.894,0,11.79-1.868,16.932-5.605 l123.433-89.692l123.433,89.654c10.285,7.471,23.574,7.468,33.857-0.001c10.283-7.473,14.391-20.111,10.464-32.201 l-47.155-145.183l123.48-89.839C510.357,220.638,514.459,207.975,510.529,195.89z M485.25,207.747l-130.882,95.2 c-4.415,3.211-6.261,8.897-4.575,14.088l49.982,153.888c0.534,1.648,0.096,2.998-1.305,4.016c-1.399,1.017-2.819,1.017-4.222,0 l-130.843-95.037c-4.42-3.208-10.401-3.209-14.818,0.001l-130.84,95.075c-1.398,1.017-2.82,1.019-4.224,0 c-1.401-1.017-1.839-2.369-1.305-4.016l49.985-153.937c1.687-5.191-0.16-10.878-4.575-14.088l-130.88-95.191 c-1.399-1.019-1.839-2.414-1.303-4.06c0.536-1.646,1.685-2.526,3.416-2.526H190.62c5.461,0,10.302-3.472,11.99-8.665 l49.974-153.778c0.534-1.648,1.684-2.472,3.416-2.471c1.731,0,2.88,0.841,3.415,2.486l49.974,153.759 c1.688,5.194,6.529,8.668,11.99,8.668h161.761c1.731,0,2.879,0.88,3.415,2.526C487.089,205.33,486.65,206.728,485.25,207.747z"/> </g> </g> <g> <g> <path d="M389.882,235.076c-1.689-5.191-6.529-8.706-11.987-8.706H293.9l-25.914-79.751c-1.688-5.194-6.529-8.711-11.989-8.711 s-10.302,3.517-11.99,8.711l-25.913,79.751h-83.987c-5.46,0-10.298,3.513-11.987,8.704c-1.69,5.191,0.154,10.88,4.568,14.093 l67.975,49.479l-25.943,79.908c-1.685,5.194,0.164,10.883,4.582,14.092c2.209,1.603,4.808,2.406,7.409,2.406 c2.601,0,5.2-0.803,7.408-2.406l67.873-49.303l67.88,49.293c4.417,3.208,10.4,3.208,14.817-0.003 c4.417-3.209,6.266-8.898,4.58-14.092l-25.939-79.882l67.985-49.491C389.729,245.957,391.573,240.268,389.882,235.076z M295.097,283.661c-4.411,3.212-6.255,8.896-4.57,14.086l16.79,51.709L263.4,317.563c-4.418-3.209-10.4-3.206-14.816,0.001 l-43.908,31.895l16.794-51.727c1.684-5.189-0.161-10.874-4.572-14.085l-44.05-32.066h54.407c5.461,0,10.302-3.517,11.989-8.711 l16.753-51.563l16.755,51.563c1.688,5.194,6.529,8.711,11.989,8.711h54.42L295.097,283.661z"/> </g> </g> </g>
</svg>