<!DOCTYPE svg PUBLIC "-//W3C//DTD SVG 1.1//EN" "http://www.w3.org/Graphics/SVG/1.1/DTD/svg11.dtd">
<!-- Uploaded to: SVG Repo, www.svgrepo.com, Transformed by: SVG Repo Mixer Tools -->
<svg fill="#000000" height="101px" width="101px" version="1.1" id="Layer_1" xmlns="http://www.w3.org/2000/svg" xmlns:xlink="http://www.w3.org/1999/xlink" viewBox="0 0 511.308 511.308" xml:space="preserve">
<g id="SVGRepo_bgCarrier" stroke-width="0"/>
<g id="SVGRepo_tracerCarrier" stroke-linecap="round" stroke-linejoin="round"/>
<g id="SVGRepo_iconCarrier"> <g transform="translate(1)"> <g> <g> <path d="M275.988,128.162c-1.127-0.761-2.266-1.493-3.413-2.204v-42.17c0-9.387-7.68-16.213-16.213-16.213h-1.707V24.908 c0-5.12-3.413-8.533-8.533-8.533h-51.2c-5.12,0-8.533,3.413-8.533,8.533v42.667h-0.853c-9.387,0-16.213,7.68-16.213,16.213 v41.599c-1.437,0.889-2.864,1.804-4.267,2.775c-33.28,22.187-72.533,64-72.533,136.533v15.36c0,16.478,2.63,32.956,6.736,48.857 c0.245,0.964,0.502,1.922,0.762,2.879c0.337,1.247,0.681,2.491,1.035,3.731l51.2,169.813c0.382,0.765,0.854,1.483,1.389,2.143 l1.171,3.831h5.973h119.467h5.973l0.993-3.246c0.611-0.598,1.142-1.236,1.567-1.874l52.053-170.667 c4.267-14.507,6.827-29.013,7.68-44.373c0-0.663-0.084-1.322-0.213-1.972c0.138-3.038,0.213-6.079,0.213-9.121v-15.36 C348.521,192.162,309.268,150.348,275.988,128.162z M203.454,33.442h34.133v8.533h-8.533c-5.12,0-8.533,3.413-8.533,8.533 s3.413,8.533,8.533,8.533h8.533v8.533h-34.133V33.442z M186.388,84.642h8.533h51.2h8.533v32.427 c-6.281-2.416-12.563-4.01-18.999-4.939c-16.54-2.654-33.483-1.025-49.268,4.881V84.642z M273.428,494.242H166.761 l-49.493-164.693c-0.935-2.961-1.783-5.952-2.547-8.965c-2.114-9.022-3.656-18.373-4.279-27.728 c13.653-12.8,31.573-19.627,50.347-19.627c19.627,0,39.253,7.68,53.76,23.04c0.853,0.853,0.853,1.707,1.707,1.707 c17.92,17.067,40.96,26.453,64.853,26.453c16.96,0,33.076-5.06,47.513-13.497c-0.244,1.316-0.499,2.63-0.774,3.939 c-1.357,5.208-2.714,10.103-4.072,15.531L273.428,494.242z M331.454,280.055c0,2.281-0.049,4.562-0.141,6.841 c-14.099,12.838-31.776,19.612-50.206,19.612c-19.627,0-39.253-7.68-53.76-23.04c-0.853-0.853-0.853-1.707-1.707-1.707 c-17.92-17.067-40.96-26.453-64.853-26.453c-18.644,0-36.318,5.815-51.2,16.344v-7.811c0-64.853,35.84-102.4,65.707-121.173 c27.307-18.773,63.147-18.773,91.307,0c29.013,19.627,64.853,57.173,64.853,122.027V280.055z"/> <path d="M408.254,41.975h-8.533c-5.12,0-8.533,3.413-8.533,8.533s3.413,8.533,8.533,8.533h8.533c5.12,0,8.533-3.413,8.533-8.533 S413.374,41.975,408.254,41.975z"/> <path d="M305.854,59.042c5.12,0,8.533-3.413,8.533-8.533s-3.413-8.533-8.533-8.533h-8.533c-5.12,0-8.533,3.413-8.533,8.533 s3.413,8.533,8.533,8.533H305.854z"/> <path d="M374.121,41.975h-8.533c-5.12,0-8.533,3.413-8.533,8.533s3.413,8.533,8.533,8.533h8.533c5.12,0,8.533-3.413,8.533-8.533 S379.241,41.975,374.121,41.975z"/> <path d="M339.988,41.975h-8.533c-5.12,0-8.533,3.413-8.533,8.533s3.413,8.533,8.533,8.533h8.533c5.12,0,8.533-3.413,8.533-8.533 S345.108,41.975,339.988,41.975z"/> <path d="M297.321,33.442c0.853,0,0.853,0,1.707,0l8.533-1.707c5.12-0.853,7.68-5.973,6.827-10.24 c-0.853-5.12-5.973-7.68-10.24-6.827l-8.533,1.707c-5.12,0.853-7.68,5.973-6.827,10.24 C289.641,30.882,293.054,33.442,297.321,33.442z"/> <path d="M330.601,26.615c0.853,0,0.853-0.853,1.707,0l8.533-1.707c5.12-0.853,7.68-5.973,6.827-10.24 c-0.853-5.12-5.973-7.68-10.24-6.827l-8.533,1.707c-5.12,0.853-7.68,5.973-6.827,10.24S326.334,26.615,330.601,26.615z"/> <path d="M363.881,18.935c0.853,0,1.707,0,1.707,0l8.533-1.707c5.12-0.853,7.68-5.973,6.827-10.24 c-0.853-5.12-5.973-7.68-10.24-6.827l-8.533,1.707c-5.12,0.853-7.68,5.973-6.827,10.24 C356.201,16.375,359.614,18.935,363.881,18.935z"/> <path d="M328.894,92.322l8.533,1.707c0.853,0,0.853,0,1.707,0c3.413,0,7.68-2.56,8.533-6.827s-2.56-9.387-6.827-10.24 l-8.533-1.707c-4.267-0.853-9.387,1.707-10.24,6.827C321.214,86.348,324.628,91.468,328.894,92.322z"/> <path d="M374.121,84.642l-8.533-1.707c-4.267-0.853-8.533,1.707-10.24,6.827c-0.853,4.267,2.56,9.387,6.827,10.24l8.533,1.707 c0.853,0,0.853,0,1.707,0c3.413,0,7.68-2.56,8.533-6.827C381.801,90.615,378.388,85.495,374.121,84.642z"/> <path d="M295.614,84.642l8.533,1.707c0.853,0,0.853,0,1.707,0c3.413,0,6.827-2.56,8.533-6.827 c0.853-4.267-2.56-9.387-6.827-10.24l-8.533-1.707c-4.267-0.853-9.387,2.56-10.24,6.827 C287.934,78.668,291.348,83.788,295.614,84.642z"/> </g> </g> </g> </g>
</svg>