<!DOCTYPE svg PUBLIC "-//W3C//DTD SVG 1.1//EN" "http://www.w3.org/Graphics/SVG/1.1/DTD/svg11.dtd">
<!-- Uploaded to: SVG Repo, www.svgrepo.com, Transformed by: SVG Repo Mixer Tools -->
<svg height="64px" width="64px" version="1.1" id="Layer_1" xmlns="http://www.w3.org/2000/svg" xmlns:xlink="http://www.w3.org/1999/xlink" viewBox="0 0 496.158 496.158" xml:space="preserve" fill="#000000">
<g id="SVGRepo_bgCarrier" stroke-width="0"/>
<g id="SVGRepo_tracerCarrier" stroke-linecap="round" stroke-linejoin="round"/>
<g id="SVGRepo_iconCarrier"> <path style="fill:#EA4949;" d="M0,248.085C0,111.062,111.07,0.003,248.076,0.003c137.012,0,248.082,111.059,248.082,248.082 c0,137-111.07,248.07-248.082,248.07C111.07,496.155,0,385.085,0,248.085z"/> <path style="fill:#E9EADA;" d="M315.814,258.024c0-76.203-39.18-82.252-39.18-82.252H219.5c0,0-39.157,6.452-39.157,82.252 c0,75.801,34.034,127.176,34.034,127.176c0.513,3.414,0.879,5.879,3.76,5.879h59.854c2.88,0,3.246-2.465,3.762-5.879 C281.754,385.2,315.814,334.228,315.814,258.024z"/> <path style="fill:#EACAC5;" d="M307.368,261.729c0-66.703-34.294-71.997-34.294-71.997h-50.009c0,0-34.276,5.647-34.276,71.997 s29.791,111.32,29.791,111.32c0.448,2.986,58.524,2.986,58.975,0C277.555,373.05,307.368,328.433,307.368,261.729z"/> <path style="fill:#E9EADA;" d="M264.391,147.953c0-22.578-32.659-22.578-32.659,0c0,22.579-14.716,28.224-14.716,28.224h62.093 C279.108,176.177,264.391,170.532,264.391,147.953z"/> <path style="fill:#426170;" d="M292.682,121.745c0-3.225-22.309-16.599-44.619-16.665c-22.312-0.067-44.622,13.171-44.622,16.665 c0,6.988,28.291,28.225,28.291,28.225h32.659C264.391,149.97,292.682,128.197,292.682,121.745z"/> <path style="fill:#334D5C;" d="M292.682,121.745c0-3.225-89.241-3.494-89.241,0c0,6.988,28.291,28.225,28.291,28.225h32.659 C264.391,149.97,292.682,128.197,292.682,121.745z"/> <g> <path style="fill:#EDBCB2;" d="M353.608,153.546c0-2.938-6.447-5.444-11.087-6.41c2.599-3.963,5.39-10.287,3.31-12.367 c-2.078-2.078-8.404,0.713-12.367,3.311c-0.966-4.639-3.471-11.087-6.409-11.087s-5.442,6.448-6.407,11.087 c-3.963-2.598-10.289-5.389-12.368-3.31s0.712,8.402,3.31,12.366c-4.64,0.966-11.088,3.471-11.088,6.41 c0,2.938,6.447,5.443,11.087,6.41c-2.598,3.963-5.388,10.287-3.309,12.365s8.403-0.712,12.368-3.311 c0.965,4.64,3.469,11.088,6.407,11.088s5.443-6.449,6.409-11.088c3.963,2.599,10.289,5.389,12.367,3.311 c2.08-2.078-0.711-8.402-3.31-12.365C347.161,158.989,353.608,156.484,353.608,153.546z"/> <path style="fill:#EDBCB2;" d="M395.657,124.583c0-2.295-5.033-4.246-8.653-4.999c2.027-3.093,4.208-8.03,2.585-9.652 s-6.561,0.558-9.654,2.585c-0.752-3.62-2.702-8.652-4.997-8.652c-2.293,0-4.243,5.032-4.996,8.652 c-3.093-2.027-8.03-4.207-9.653-2.584c-1.623,1.622,0.558,6.559,2.584,9.651c-3.62,0.753-8.652,2.703-8.652,4.999 c0,2.294,5.032,4.244,8.652,4.996c-2.026,3.093-4.207,8.03-2.584,9.652c1.623,1.623,6.561-0.557,9.652-2.585 c0.753,3.62,2.703,8.653,4.997,8.653c2.295,0,4.245-5.033,4.997-8.652c3.094,2.027,8.031,4.207,9.654,2.584 c1.623-1.622-0.558-6.561-2.585-9.652C390.624,128.827,395.657,126.877,395.657,124.583z"/> <path style="fill:#EDBCB2;" d="M352.856,95.428c0-1.817-3.986-3.362-6.854-3.96c1.606-2.449,3.332-6.359,2.048-7.645 c-1.285-1.285-5.196,0.441-7.646,2.047c-0.597-2.867-2.142-6.854-3.958-6.854c-1.817,0-3.362,3.986-3.959,6.854 c-2.449-1.605-6.36-3.332-7.646-2.047c-1.284,1.285,0.443,5.195,2.049,7.645c-2.869,0.598-6.854,2.143-6.854,3.96 s3.987,3.362,6.854,3.958c-1.605,2.449-3.333,6.36-2.049,7.646c1.286,1.285,5.197-0.441,7.646-2.048 c0.596,2.867,2.141,6.854,3.959,6.854c1.817,0,3.361-3.986,3.958-6.854c2.45,1.607,6.361,3.333,7.646,2.048 c1.284-1.285-0.441-5.196-2.048-7.646C348.87,98.79,352.856,97.245,352.856,95.428z"/> </g> </g>
</svg>