<svg width="31" height="35" viewBox="0 0 31 35" fill="none" xmlns="http://www.w3.org/2000/svg">
<path d="M26.6135 17.5L30.311 8.75003L20.8845 7.57715L15.1555 0L9.42645 7.57708L0 8.75003L3.69751 17.5L0 26.25L9.42652 27.4229L15.1555 35L20.8845 27.4229L30.311 26.25L26.6135 17.5ZM24.2655 12.0059L16.3159 15.8078L16.8321 9.16122L27.3637 10.4533L25.4895 14.8887L24.2655 12.0059ZM14.9525 6.86353L14.2702 15.649L8.77219 11.8786L15.157 3.40403L18.061 7.24489L14.9525 6.86353ZM13.1098 17.3411L7.09559 20.2174L2.94873 10.4507L7.727 9.85617L5.84254 12.3575L13.1098 17.3411ZM6.04547 22.9941L13.9951 19.1922L13.4789 25.8388L2.94723 24.5467L4.82149 20.1114L6.04547 22.9941ZM15.3585 28.1365L16.0408 19.3511L21.5388 23.1214L15.154 31.596L12.25 27.7552L15.3585 28.1365ZM17.2012 17.6589L23.2153 14.7826L27.3623 24.5493L22.584 25.1438L24.4684 22.6425L17.2012 17.6589Z" fill="#121A1F"/>
</svg>
