<svg width="60" height="60" viewBox="0 0 60 60" fill="none" xmlns="http://www.w3.org/2000/svg">
<path d="M38.4826 38.4822L53.9998 53.9988H48.3436L35.6548 41.3106L38.4826 38.4822Z" fill="#FA4533"/>
<path d="M29.999 18.6864L17.3138 6.00122H11.6582L27.1712 21.5124L29.999 18.6864Z" fill="#FA4533"/>
<path d="M44.1382 27.1698L53.9974 17.313V11.6574L41.311 24.342L44.1382 27.1698Z" fill="#FA4533"/>
<path d="M29.999 24.342L48.3416 6.00122H53.9978L35.6552 24.342L54.0002 42.687V48.3426L29.999 24.342Z" fill="#FA4533"/>
<path d="M24.3414 35.6544L21.5148 32.826L6 48.3408V53.997L24.3408 35.6562L24.3414 35.6544Z" fill="#FA4533"/>
<path d="M35.6528 35.652L17.3126 53.997H11.6564L29.999 35.6544L6.00195 11.6574V6.00122L35.6528 35.652Z" fill="#FA4533"/>
</svg>
