<!DOCTYPE svg PUBLIC "-//W3C//DTD SVG 1.1//EN" "http://www.w3.org/Graphics/SVG/1.1/DTD/svg11.dtd">
<!-- Uploaded to: SVG Repo, www.svgrepo.com, Transformed by: SVG Repo Mixer Tools -->
<svg fill="#000000" height="64px" width="64px" version="1.1" xmlns="http://www.w3.org/2000/svg" viewBox="0 0 237 237" xmlns:xlink="http://www.w3.org/1999/xlink" enable-background="new 0 0 237 237">
<g id="SVGRepo_bgCarrier" stroke-width="0"/>
<g id="SVGRepo_tracerCarrier" stroke-linecap="round" stroke-linejoin="round"/>
<g id="SVGRepo_iconCarrier"> <path d="m237,131.5h-16v-110h-30v110h-17v-12h9v-36.375l-18.419-60.625h-89.679l-18.902,60.625v36.375h8v12h-19v-110h-30v110h-15v30h15v54h206v-54h16v-30zm-72-41v14h-26v-14h26zm-77.182-57h63.848l10.348,38h-84.544l10.348-38zm-17.818,57h27v14h-27v-14zm25,29h47v12h-47v-12zm96,66h-146v-24h146v24z"/> </g>
</svg>