<?xml version="1.0" encoding="iso-8859-1"?>
<!-- Uploaded to: SVG Repo, www.svgrepo.com, Generator: SVG Repo Mixer Tools -->
<svg height="800px" width="800px" version="1.1" id="Layer_1" xmlns="http://www.w3.org/2000/svg" xmlns:xlink="http://www.w3.org/1999/xlink" 
	 viewBox="0 0 390.206 390.206" xml:space="preserve">
<path style="fill:#FFFFFF;" d="M368.549,128.97v185.923c0,5.947-4.849,10.861-10.861,10.861H32.517
	c-5.947,0-10.861-4.848-10.861-10.861V128.97c0-5.947,4.848-10.861,10.861-10.861h325.172
	C363.636,118.174,368.549,123.022,368.549,128.97z"/>
<path style="fill:#FFC10D;" d="M43.378,138.731v48.226h16.808c5.947,0,10.861,4.848,10.861,10.861
	c0,5.947-4.848,10.861-10.861,10.861H43.378v19.523h7.564c5.947,0,10.861,4.848,10.861,10.861c0,5.947-4.848,10.861-10.861,10.861
	h-7.564v53.657h303.515V138.731H43.378z"/>
<path style="fill:#194F82;" d="M357.689,96.453h-43.378L298.602,50.36c-1.616-4.331-5.43-7.564-10.279-7.564H176.162
	c-4.848,0-8.663,2.715-10.279,7.564l-15.709,46.093H32.517C14.61,96.453,0,111.063,0,128.97v185.923
	C0,332.8,14.61,347.41,32.517,347.41h325.172c17.907,0,32.517-14.61,32.517-32.517V128.97
	C390.206,111.127,375.596,96.453,357.689,96.453z M184.242,64.517h96.453l10.861,32H173.446L184.242,64.517z M368.549,314.893
	c0,5.948-4.849,10.861-10.861,10.861H32.517c-5.947,0-10.861-4.849-10.861-10.861V128.97c0-5.947,4.848-10.861,10.861-10.861
	h325.172c5.948,0,10.861,4.848,10.861,10.861V314.893z"/>
<g>
	<path style="fill:#56ACE0;" d="M232.469,288.84c-36.848,0-66.65-29.802-66.65-66.651s29.802-66.65,66.65-66.65
		s66.651,29.802,66.651,66.65C299.184,258.521,269.317,288.84,232.469,288.84z"/>
	<polygon style="fill:#56ACE0;" points="184.242,64.517 173.446,96.453 291.556,96.453 280.76,64.517 	"/>
</g>
<g>
	<path style="fill:#194F82;" d="M232.469,171.248c-27.669,0-50.424,22.756-50.424,50.424s22.756,50.424,50.424,50.424
		s50.424-22.756,50.424-50.424S260.137,171.248,232.469,171.248z M232.469,250.376c-15.709,0-28.703-12.994-28.703-28.703
		s12.994-28.703,28.703-28.703s28.703,12.994,28.703,28.703C261.236,237.382,248.242,250.376,232.469,250.376z"/>
	<path style="fill:#194F82;" d="M101.883,133.301c-5.947,0-10.861,4.848-10.861,10.861v155.539c0,5.947,4.848,10.861,10.861,10.861
		c5.947,0,10.861-4.848,10.861-10.861V144.162C112.743,138.214,107.83,133.301,101.883,133.301z"/>
	<path style="fill:#194F82;" d="M54.756,78.028h21.657c5.947,0,10.861-4.848,10.861-10.861s-4.848-10.861-10.861-10.861H54.756
		c-5.947,0-10.861,4.848-10.861,10.861S48.743,78.028,54.756,78.028z"/>
	<path style="fill:#194F82;" d="M345.212,133.301h-14.61c-5.947,0-10.861,4.848-10.861,10.861c0,5.947,4.848,10.861,10.861,10.861
		h14.61c5.947,0,10.861-4.848,10.861-10.861C356.073,138.214,351.16,133.301,345.212,133.301z"/>
	<path style="fill:#194F82;" d="M232.469,133.301c-48.808,0-88.372,39.564-88.372,88.372s39.564,88.372,88.372,88.372
		s88.372-39.564,88.372-88.372S281.277,133.301,232.469,133.301z M232.469,288.84c-36.848,0-66.65-29.802-66.65-66.651
		s29.802-66.65,66.65-66.65s66.715,29.802,66.715,66.65C299.184,258.521,269.382,288.84,232.469,288.84z"/>
</g>
<path style="fill:#FFFFFF;" d="M232.469,192.905c-15.709,0-28.703,12.994-28.703,28.703s12.994,28.703,28.703,28.703
	s28.703-12.994,28.703-28.703S248.242,192.905,232.469,192.905z"/>
</svg>