<svg width="48" height="48" viewBox="0 0 48 48" fill="none" xmlns="http://www.w3.org/2000/svg">
<path fill-rule="evenodd" clip-rule="evenodd" d="M38.7442 3.74127L31.2412 7.47921L28.6151 7.52497C26.4887 7.56202 25.8886 7.60151 25.461 7.73281L24.9329 7.89488L24.1473 7.11118C21.4534 4.42405 18.166 3.06562 14.3593 3.06656C12.0757 3.06712 10.1302 3.50267 8.12235 4.46288C6.29029 5.33905 5.12328 6.18146 3.74666 7.62176C1.90906 9.54424 0.769533 11.7625 0.220871 14.4849C-0.0776573 15.9666 -0.0728741 18.6444 0.231 20.057C0.806579 22.7334 1.9809 24.9539 3.84513 26.8911C6.20719 29.3458 9.08827 30.8519 12.3272 31.3255C13.4851 31.4948 16.1111 31.3949 17.1085 31.1435C17.5374 31.0355 17.9335 30.947 17.9889 30.947C18.1413 30.947 18.0246 32.0684 17.8323 32.4518C17.7429 32.63 17.2421 33.2084 16.7196 33.7372L15.7695 34.6985H12.8714C10.0926 34.6985 9.96032 34.7066 9.65523 34.8952C8.98633 35.3085 9.01334 35.0363 9.01334 41.3741C9.01334 46.9754 9.01634 47.0689 9.20673 47.3239C9.31309 47.4663 9.51661 47.6698 9.65907 47.7762C9.91643 47.9684 9.98142 47.9698 20.1575 47.9945C27.2726 48.0119 30.5477 47.9883 30.8907 47.9174C32.1351 47.6596 33.4081 46.6778 33.9483 45.559C34.0802 45.2857 34.5734 43.5217 35.0442 41.6389C35.8731 38.3237 35.8991 38.1875 35.8661 37.3235C35.8357 36.5295 35.7949 36.3543 35.4942 35.7291C34.9206 34.5362 34.1266 33.8201 32.8774 33.3693C32.2976 33.16 32.1628 33.151 29.5872 33.151H26.9016L26.8555 31.7442C26.819 30.6246 26.7672 30.2129 26.6019 29.7278C26.3039 28.8527 25.9019 28.1936 25.2346 27.4862L24.6508 26.8672L25.2223 26.1466L25.7938 25.426L26.0718 26.0059C26.236 26.3482 26.5719 26.8079 26.8916 27.1278C29.1954 29.4334 33.2386 28.4404 34.1989 25.3333C34.3551 24.8276 34.3831 24.4613 34.3831 22.9183C34.3831 21.7833 34.4179 21.0992 34.4757 21.0992C34.5267 21.0992 37.1956 22.412 40.4066 24.0164C45.9823 26.8024 46.2645 26.9318 46.6797 26.8919C47.2033 26.8416 47.6241 26.5621 47.8302 26.1281C47.9682 25.837 47.9824 24.6579 47.9824 13.461C47.9824 1.27239 47.9799 1.11013 47.7936 0.744735C47.5771 0.320531 47.0362 -0.0049146 46.5559 5.61843e-05C46.3418 0.0023071 43.9481 1.14878 38.7442 3.74127ZM45.1687 13.4883V23.2283L39.049 20.1696L32.9294 17.111L32.9048 13.4786L32.8803 9.84605L38.9541 6.80233C42.2948 5.12831 45.0597 3.75637 45.0984 3.75356C45.1371 3.75074 45.1687 8.13141 45.1687 13.4883ZM16.4458 6.04771C18.5046 6.44163 20.3994 7.42359 21.9277 8.88856L22.5558 9.49068L22.1891 9.97641C20.8944 11.6913 20.7254 14.0102 21.7412 16.1285C22.2649 17.2207 23.2239 18.1859 24.3352 18.7391C24.7667 18.9539 25.1836 19.1297 25.2616 19.1297C25.4436 19.1297 25.3789 19.5741 25.0398 20.651C24.5368 22.2482 23.5638 23.8988 22.4548 25.0365L21.8623 25.6442L21.0651 25.6482C20.1305 25.6528 19.5477 25.8693 18.9703 26.4263C18.6089 26.7748 18.1577 27.5368 18.1577 27.7983C18.1577 28.1344 15.8937 28.6023 14.2675 28.6023C11.1192 28.6023 8.37239 27.4515 6.10327 25.1818C3.96959 23.0478 2.92263 20.6646 2.80596 17.676C2.60141 12.4334 5.75466 8.00658 10.8422 6.39407C11.6167 6.14863 12.1095 6.04771 13.4214 5.86614C13.9169 5.79758 15.6968 5.90441 16.4458 6.04771ZM13.8265 8.34131C13.1407 8.55083 12.8719 8.94587 12.8118 9.83226L12.7649 10.5234L12.0918 10.6938C11.3177 10.8899 11.0352 11.023 10.5175 11.4355C8.87913 12.7408 8.56916 15.3083 9.84168 17.034C10.7568 18.2749 11.8216 18.6583 14.3593 18.6604C15.8599 18.6616 16.1261 18.7525 16.4154 19.3622C16.6106 19.7734 16.5586 20.2104 16.2711 20.5758C15.8888 21.062 15.6993 21.0992 13.6107 21.0992C11.5241 21.0992 11.2712 21.1455 10.8481 21.6043C10.5058 21.9754 10.4641 22.8091 10.7654 23.2564C11.0735 23.7135 11.5164 23.9126 12.2256 23.9127L12.8118 23.9129V24.5555C12.8118 25.0675 12.855 25.263 13.0247 25.5169C13.5883 26.3607 14.7281 26.3512 15.3655 25.4974C15.4786 25.346 15.5591 25.0281 15.5961 24.5871C15.6493 23.9524 15.6683 23.9063 15.8971 23.8576C17.437 23.5304 18.3359 22.859 18.9394 21.5851C19.2199 20.9933 19.2362 20.8988 19.2339 19.88C19.2319 18.9779 19.1963 18.7133 19.0162 18.2624C18.7819 17.6757 18.0451 16.798 17.5049 16.4623C16.7127 15.97 16.4271 15.9123 14.4957 15.8548C12.5238 15.7961 12.3426 15.7513 12.0081 15.2407C11.8132 14.9433 11.816 14.2407 12.0133 13.9395C12.3725 13.3913 12.4885 13.3656 14.8328 13.3148C16.6865 13.2746 17.0304 13.2444 17.2459 13.1029C18.0211 12.594 17.9694 11.2345 17.1566 10.7598C16.9965 10.6663 16.5918 10.5643 16.2573 10.533L15.6491 10.4762L15.6015 9.88338C15.5747 9.54949 15.4759 9.15699 15.3753 8.9847C15.0783 8.47608 14.3608 8.17802 13.8265 8.34131ZM30.0688 13.4638V16.6141L28.1696 16.5811C26.4374 16.551 26.2298 16.5295 25.809 16.3365C25.1058 16.014 24.6029 15.5489 24.249 14.8936C23.9514 14.3428 23.928 14.2382 23.928 13.4555C23.928 12.6728 23.9514 12.5682 24.249 12.0173C24.5522 11.4559 25.0417 10.9606 25.567 10.6837C26.0675 10.4198 26.7763 10.3293 28.4041 10.3216L30.0688 10.3136V13.4638ZM31.4153 19.5303C31.5645 19.6393 31.576 19.8637 31.5505 22.1498C31.5242 24.5013 31.5111 24.6656 31.3294 24.9145C31.0815 25.2543 30.4024 25.6011 29.9848 25.6011C29.5028 25.6011 28.89 25.2663 28.6421 24.8676C28.4344 24.5335 28.4266 24.4411 28.3985 21.9668L28.3696 19.411H29.8109C30.829 19.411 31.3001 19.446 31.4153 19.5303ZM21.7749 28.5521C22.4417 28.7502 23.0709 29.182 23.4466 29.6994C24.0805 30.5723 24.0621 30.3287 24.089 38.1453L24.1133 45.2028H20.9948H17.8763V40.9244V36.6461L18.8889 35.5928C20.6019 33.8108 20.8732 33.0709 20.876 30.1733L20.8776 28.4147H21.095C21.2146 28.4147 21.5206 28.4765 21.7749 28.5521ZM32.1791 36.1203C32.7772 36.4495 33.0915 36.9633 33.0799 37.593C33.0674 38.2683 31.5375 44.196 31.2837 44.5525C30.9025 45.0879 30.4898 45.1984 28.8658 45.2008L27.4283 45.2028L27.1542 44.9287L26.88 44.6546V40.6566C26.88 36.2207 26.8833 36.1948 27.4674 36.0185C27.6345 35.9682 28.6986 35.9356 29.8343 35.9462C31.551 35.9622 31.945 35.9914 32.1791 36.1203ZM15.0627 41.3575V45.2028H13.4214H11.7801V41.3575V37.5122H13.4214H15.0627V41.3575Z" fill="black"/>
</svg>
