<svg width="49" height="48" viewBox="0 0 49 48" fill="none" xmlns="http://www.w3.org/2000/svg">
<path fill-rule="evenodd" clip-rule="evenodd" d="M7.16192 0.105558C3.2013 0.856413 0.245692 4.41887 0.250005 8.43687C0.252724 11.0762 1.64165 13.7802 3.77722 15.3042C6.2065 17.0376 9.54527 17.3723 12.1953 16.1479C14.5274 15.0704 16.2493 13.0398 16.8964 10.6043L17.0956 9.8543L24.868 9.82702C30.0678 9.80874 32.9507 9.83386 33.5779 9.90277C35.4741 10.1113 37.2605 10.9463 38.5887 12.245C39.6992 13.3309 40.3335 14.354 40.7858 15.789C41.1891 17.0684 41.5721 16.9325 37.5623 16.9325H34.0935V19.742V22.5515L24.8825 22.5791L15.6714 22.6068L14.7614 22.857C12.9102 23.3661 11.3928 24.2652 10.0714 25.636C8.6521 27.1083 7.90153 28.6048 7.43062 30.9015C7.38805 31.1088 7.29693 31.1551 6.64226 31.3022C6.2351 31.3937 5.54874 31.6393 5.11702 31.8481C2.74782 32.9938 1.13389 34.9793 0.475664 37.5579C0.239223 38.4839 0.234348 40.4974 0.466196 41.4325C0.841295 42.9449 1.61324 44.3098 2.73367 45.4414C6.84814 49.5971 13.8057 48.4181 16.3383 43.1361C16.5609 42.672 16.8154 41.9865 16.904 41.6126L17.0651 40.9329H24.5696H32.0741L31.1866 41.8242L30.299 42.7155L31.3055 43.7221L32.3122 44.7286L34.8903 42.1518C36.3084 40.7344 37.4686 39.5321 37.4686 39.4798C37.4686 39.4274 36.3084 38.2251 34.8903 36.8078L32.3122 34.2309L31.3055 35.2374L30.299 36.244L31.165 37.1137C31.6413 37.5919 32.031 38.0143 32.031 38.0524C32.031 38.0904 28.6724 38.1107 24.5674 38.0975L17.1037 38.0735L16.8755 37.2766C16.0287 34.3193 13.788 32.0816 10.9135 31.3221C10.5654 31.2302 10.2807 31.1056 10.2807 31.0452C10.2807 30.7963 10.6031 29.8776 10.8904 29.3079C11.7944 27.5153 13.2921 26.265 15.2964 25.6298C15.9525 25.4217 15.9533 25.4217 25.0231 25.3929L34.0935 25.364V28.1796V30.9953H41.1718H48.25V23.9639V16.9325H46.0979H43.946L43.8866 16.581C43.6265 15.0394 42.95 13.3239 42.0907 12.0275C41.5398 11.1961 40.2654 9.85871 39.4439 9.24998C38.2088 8.33459 36.6238 7.61571 35.0595 7.26132C34.1531 7.05601 34.0229 7.05273 25.6026 7.01945L17.0648 6.98579L16.905 6.31987C16.8171 5.95359 16.5783 5.2977 16.3743 4.86241C15.2874 2.54291 13.3311 0.917633 10.7963 0.22781C9.9005 -0.0159441 8.11903 -0.0758513 7.16192 0.105558ZM9.85053 2.9166C11.5685 3.28054 13.039 4.43519 13.7908 6.01049C14.211 6.8911 14.3496 7.53208 14.3388 8.54572C14.3237 9.95518 13.8262 11.1838 12.8388 12.2504C10.6538 14.6104 7.04989 14.6871 4.76432 12.4222C2.75429 10.4304 2.53004 7.31233 4.2335 5.0426C5.52549 3.32123 7.76297 2.47438 9.85053 2.9166ZM7.34315 7.05742C7.30874 7.09173 7.28061 7.72455 7.28061 8.46369V9.80743H8.68689H10.0932V8.40116V6.99488H8.74942C8.01028 6.99488 7.37746 7.02301 7.34315 7.05742ZM45.4375 23.9639V28.1827H41.2186H36.9998V23.9639V19.7451H41.2186H45.4375V23.9639ZM39.8124 23.9639V25.3702H41.2186H42.6249V23.9639V22.5576H41.2186H39.8124V23.9639ZM10.4579 34.1486C11.3407 34.4407 11.8548 34.744 12.5361 35.3748C15.3041 37.9375 14.8276 42.4166 11.583 44.3338C8.26407 46.295 3.99556 44.3957 3.20233 40.6048C3.02955 39.7786 3.0287 39.1824 3.19943 38.3767C3.9035 35.0542 7.26955 33.0935 10.4579 34.1486ZM7.30152 39.5032L7.32749 40.886L8.71032 40.912L10.0932 40.9379V39.5292V38.1204H8.68435H7.27564L7.30152 39.5032Z" fill="black"/>
</svg>
