<svg width="49" height="48" viewBox="0 0 49 48" fill="none" xmlns="http://www.w3.org/2000/svg">
<path fill-rule="evenodd" clip-rule="evenodd" d="M23.3637 0.171422C22.3396 0.439719 21.6133 0.865117 20.7906 1.67854C19.5921 2.86358 19.0501 4.28095 19.1544 5.95725C19.2212 7.02997 19.5001 7.87917 20.0595 8.71236L20.5153 9.39144L19.9516 9.70386C17.6409 10.9846 15.9103 13.2246 15.1717 15.8911C14.9924 16.5382 14.9688 16.9073 14.9361 19.5844L14.8997 22.5587H19.1223H23.3448L23.34 27.875L23.3353 33.1913L20.7622 35.2392L18.189 37.2869L17.5001 36.6325C16.7876 35.9558 16.0025 35.3805 15.3118 35.0293C15.0928 34.918 14.9137 34.8062 14.9137 34.7809C14.9137 34.7556 15.0819 34.4884 15.2876 34.1871C16.637 32.2103 16.5874 29.6768 15.1604 27.677C14.0925 26.1804 12.1367 25.2662 10.2829 25.397C8.23995 25.5412 6.45929 26.7575 5.5728 28.6145C4.70121 30.4404 4.84885 32.4653 5.97628 34.1467C6.20317 34.4851 6.38884 34.7735 6.38884 34.7877C6.38884 34.8019 6.10424 34.9698 5.75651 35.1609C3.51616 36.3915 1.7697 38.6743 1.07226 41.2835C0.844148 42.1369 0.829253 42.3369 0.790751 45.0652L0.75 47.9458H10.6522H20.5545L20.5093 45.112C20.4615 42.1082 20.3966 41.6047 19.8839 40.2552C19.7024 39.7776 19.7011 39.7446 19.856 39.5927C20.0991 39.3547 24.6956 35.6744 24.75 35.6742C24.7758 35.6741 25.8297 36.5008 27.092 37.5112C28.3543 38.5215 29.4856 39.4263 29.606 39.5215L29.8248 39.6948L29.6232 40.2339C29.0986 41.636 29.0386 42.0979 28.9907 45.112L28.9455 47.9458H38.8478H48.75L48.7092 45.0652C48.6707 42.3395 48.6557 42.1367 48.4291 41.2946C47.7146 38.6385 46.0044 36.4219 43.6264 35.0697C43.3688 34.9232 43.1468 34.7948 43.1333 34.7845C43.1197 34.7741 43.2948 34.488 43.5224 34.1486C44.3607 32.8984 44.6712 31.4398 44.3964 30.0425C44.0966 28.517 43.2479 27.2077 42.0115 26.363C38.8721 24.2178 34.5135 25.8037 33.4348 29.4836C33.3096 29.9109 33.2542 30.3872 33.2541 31.0367C33.254 32.19 33.5577 33.2078 34.1779 34.1324C34.4025 34.4674 34.5863 34.7607 34.5863 34.7842C34.5863 34.8077 34.4071 34.918 34.1882 35.0293C33.4975 35.3806 32.7124 35.9558 31.9999 36.6326L31.3109 37.287L28.7391 35.2392L26.1672 33.1913L26.1612 27.875L26.1552 22.5587H30.3777H34.6003L34.5637 19.5844C34.5298 16.8461 34.5102 16.5506 34.3157 15.8607C33.562 13.1876 31.8538 10.9816 29.5484 9.70386L28.9847 9.39144L29.4228 8.7384C29.9845 7.90109 30.2838 7.00055 30.347 5.95725C30.4111 4.89652 30.2634 4.15785 29.7888 3.1671C29.3242 2.19696 28.3128 1.13267 27.4024 0.655744C26.163 0.00635848 24.675 -0.172101 23.3637 0.171422ZM25.8983 3.05375C26.1371 3.15933 26.5189 3.43221 26.7469 3.66014C28.4872 5.40042 27.2214 8.41315 24.75 8.41315C23.9311 8.41315 23.3765 8.17801 22.778 7.57696C22.3778 7.17499 22.2189 6.92926 22.088 6.50958C21.4937 4.60321 22.9367 2.71135 24.8962 2.82789C25.2086 2.84644 25.6594 2.94808 25.8983 3.05375ZM26.3004 11.4606C27.581 11.7459 28.6284 12.3043 29.5919 13.2155C31.075 14.6182 31.774 16.3423 31.7753 18.6008L31.776 19.7484H24.75H17.724L17.7256 18.6008C17.7275 17.3185 17.8666 16.5132 18.2406 15.6206C19.5578 12.476 22.9648 10.7176 26.3004 11.4606ZM11.8711 28.5042C13.525 29.3134 13.9435 31.4858 12.7234 32.9283C12.5843 33.0928 12.2125 33.3562 11.8972 33.5138C10.4573 34.2333 8.71069 33.601 8.0435 32.1188C7.77258 31.5168 7.78054 30.5394 8.06168 29.9126C8.7283 28.426 10.4273 27.7978 11.8711 28.5042ZM39.9835 28.455C41.7151 29.2187 42.2123 31.4657 40.9642 32.8873C40.799 33.0755 40.4067 33.3578 40.0926 33.5148C39.6151 33.7534 39.411 33.8003 38.8487 33.8003C38.2859 33.8003 38.0825 33.7535 37.6028 33.5138C37.2875 33.3562 36.9157 33.0928 36.7766 32.9283C35.9284 31.9255 35.8293 30.4121 36.5469 29.4214C37.358 28.3016 38.749 27.9105 39.9835 28.455ZM12.3459 36.8911C14.2996 37.3837 15.9496 38.6855 16.8836 40.4714C17.4105 41.4789 17.6305 42.4048 17.6969 43.8942L17.7522 45.1355H10.6524H3.55261L3.60628 43.8005C3.66568 42.3222 3.80048 41.7046 4.28836 40.6765C5.19462 38.7668 6.84253 37.4426 9.05871 36.8433C9.7909 36.6453 11.4676 36.6697 12.3459 36.8911ZM40.4821 36.8559C43.2221 37.5311 45.2521 39.6858 45.7881 42.4876C45.8615 42.8709 45.9215 43.6236 45.9215 44.1601V45.1355H38.8349H31.7481L31.8036 43.8474C31.8683 42.3437 32.068 41.5218 32.6315 40.4385C33.5311 38.7093 35.2005 37.3905 37.1157 36.8961C38.0212 36.6623 39.6191 36.6431 40.4821 36.8559Z" fill="black"/>
</svg>
