<svg width="48" height="48" viewBox="0 0 48 48" fill="none" xmlns="http://www.w3.org/2000/svg">
<path fill-rule="evenodd" clip-rule="evenodd" d="M34.6148 0.211071C34.4139 0.326302 34.1714 0.567548 34.0757 0.747192C33.9104 1.05782 33.9019 1.45865 33.9019 8.8809V16.6879L33.2221 16.6881C32.7621 16.6882 32.4369 16.7412 32.2161 16.8522C31.2124 17.3565 31.2124 18.8322 32.2161 19.3365C32.5047 19.4815 32.8619 19.5005 35.3083 19.5005C38.3971 19.5005 38.5227 19.4781 38.9396 18.854C39.3856 18.1863 39.1243 17.2158 38.4005 16.8522C38.1797 16.7412 37.8544 16.6882 37.3945 16.6881L36.7147 16.6879V13.5508V10.4136L41.8012 10.3864C46.4147 10.3617 46.9152 10.344 47.1842 10.1969C47.7689 9.87691 48.0585 9.25931 47.9197 8.62774C47.8837 8.46357 47.3442 7.67645 46.6918 6.83608C46.0518 6.01165 45.5282 5.31801 45.5282 5.29475C45.5282 5.27141 46.0108 4.57946 46.6007 3.75699C47.8366 2.03386 47.9665 1.808 47.9644 1.38626C47.9623 0.95684 47.6071 0.379839 47.2173 0.172442C46.909 0.00836111 46.5561 -0.0012962 40.9354 0.000110204L34.9801 0.00170413L34.6148 0.211071ZM23.1195 2.35181C21.9921 2.57196 20.6858 3.57032 20.2241 4.56464L20.0011 5.04516L16.3331 5.08454C12.1552 5.12936 11.9324 5.16143 10.3068 5.9522C8.16759 6.99275 6.63873 8.81949 5.89503 11.2234C5.64225 12.0403 5.64028 12.0688 5.63672 14.8596C5.63362 17.3309 5.65491 17.7578 5.81271 18.3756C6.71543 21.912 9.60231 24.4317 13.1809 24.8066L13.7903 24.8705L14.0188 25.35C14.5279 26.4182 15.8559 27.3644 17.1204 27.56C18.8069 27.8209 20.6222 26.9122 21.4256 25.4051L21.724 24.8451L27.5552 24.8467C33.8684 24.8485 34.1108 24.8649 35.1588 25.3607C36.2117 25.8587 37.1375 26.7222 37.7092 27.7393L37.8867 28.0551L37.6054 28.2539C35.3181 29.8711 34.9201 32.7554 36.7134 34.7175C36.9631 34.9907 37.3187 35.2958 37.5036 35.3954C37.6885 35.4949 37.8394 35.6196 37.839 35.6722C37.8368 35.9078 37.2397 36.7752 36.7264 37.2885C36.0515 37.9634 34.9272 38.5793 34.0186 38.7719C33.5545 38.8702 32.6627 38.9062 30.6672 38.9072L27.9481 38.9085L27.6332 38.2994C26.802 36.6919 24.8195 35.7847 23.0362 36.1958C21.9023 36.4572 20.6556 37.4338 20.2074 38.4119L19.9842 38.8991L17.9955 38.9276C15.8181 38.9587 15.7667 38.9715 15.3016 39.5943C15.0446 39.9386 15.0446 40.6925 15.3016 41.0367C15.7667 41.6596 15.8181 41.6723 17.9955 41.7035L19.9842 41.732L20.2074 42.2192C20.4964 42.8497 21.42 43.7609 22.1034 44.0896C24.1341 45.0666 26.6292 44.2733 27.6332 42.3317L27.9481 41.7226L30.6672 41.7204C33.6905 41.718 34.2961 41.6591 35.534 41.2475C37.737 40.515 39.7062 38.6699 40.5684 36.5303C40.6905 36.2276 40.8543 35.9612 40.9324 35.9385C41.0106 35.9158 41.3412 35.7722 41.667 35.6194C43.2969 34.8551 44.2584 32.998 43.9513 31.2072C43.8039 30.348 43.3024 29.3881 42.7123 28.8361C42.3266 28.4754 41.4263 27.9592 40.9324 27.8157C40.8543 27.793 40.6905 27.5266 40.5684 27.2239C39.7971 25.3099 38.0617 23.5449 36.1521 22.7322C34.5775 22.0621 34.8962 22.0886 27.9938 22.0545L21.7576 22.0237L21.4439 21.4187C20.7305 20.0429 19.34 19.2233 17.7146 19.2206C16.0901 19.2179 14.7386 20.0629 13.9564 21.5703L13.7084 22.0483L13.2806 21.987C11.4038 21.7182 9.81215 20.5658 9.00515 18.8915C8.78144 18.4273 8.5536 17.7971 8.49875 17.4911C8.4439 17.1852 8.39908 16.021 8.39908 14.9042C8.39908 13.1891 8.42787 12.7613 8.58426 12.1496C9.06609 10.2656 10.4768 8.75638 12.337 8.13457C12.9117 7.94255 13.1472 7.92914 16.4625 7.90082L19.9785 7.87072L20.1968 8.34187C20.4685 8.92825 21.2298 9.77209 21.7758 10.0921C23.1075 10.8725 24.8191 10.8725 26.1508 10.0921C26.6961 9.77246 27.469 8.91653 27.7342 8.33831L27.947 7.87448L29.1195 7.87429C30.0506 7.87419 30.3583 7.84044 30.6136 7.71021C31.6228 7.19565 31.599 5.74574 30.5734 5.24919C30.2519 5.09354 29.9944 5.06167 29.0596 5.06167H27.9333L27.7063 4.5728C27.3907 3.89323 26.5806 3.09579 25.8385 2.73425C24.9115 2.28261 24.0756 2.16504 23.1195 2.35181ZM43.7467 2.86421C43.7467 2.89327 43.4459 3.33835 43.0784 3.85319C42.0862 5.24281 42.0933 5.53478 43.1514 6.86093C43.4273 7.20662 43.653 7.51275 43.653 7.54134C43.653 7.56985 42.0918 7.59319 40.1838 7.59319H36.7147V5.20231V2.81142H40.2307C42.1645 2.81142 43.7467 2.83523 43.7467 2.86421ZM24.4629 5.18956C24.8601 5.35551 25.2528 5.82731 25.3282 6.22908C25.4161 6.69778 25.2982 7.08745 24.9599 7.44618C24.4252 8.01296 23.5013 8.01296 22.9667 7.44618C22.4588 6.90771 22.4352 6.17591 22.9076 5.61457C23.3384 5.10264 23.8924 4.95122 24.4629 5.18956ZM18.4469 22.1964C18.7837 22.3946 19.0513 22.8072 19.1309 23.2512C19.1744 23.4941 19.1338 23.6884 18.9747 23.9991C18.2989 25.3182 16.3687 24.8718 16.3687 23.3964C16.3687 22.8753 16.7681 22.261 17.2126 22.0985C17.518 21.9868 18.1801 22.0393 18.4469 22.1964ZM5.5394 27.2299C2.89789 27.8481 0.905011 29.7501 0.178838 32.3459C-0.0948485 33.3245 -0.0488122 35.5096 0.278599 37.0808C0.793343 39.5507 1.85462 42.111 3.21273 44.1597C4.29548 45.793 5.79011 47.5362 6.35605 47.8258C7.10022 48.2067 7.67826 47.9826 8.59261 46.9585C11.2982 43.9286 12.9408 40.7558 13.7068 37.0808C14.0342 35.5096 14.0802 33.3245 13.8065 32.3459C13.1429 29.9737 11.3383 28.1038 9.00853 27.3746C8.16421 27.1102 6.37021 27.0355 5.5394 27.2299ZM8.07467 30.0537C9.51718 30.4293 10.7043 31.631 11.0799 33.096C11.4919 34.7025 10.8372 37.9363 9.56143 40.5968C9.03703 41.6906 7.93113 43.4293 7.32515 44.1128L6.99268 44.4879L6.66021 44.1128C6.05423 43.4293 4.94833 41.6906 4.42393 40.5968C3.51492 38.7012 2.93605 36.6253 2.80619 34.7962C2.70174 33.3253 3.0465 32.216 3.89531 31.2913C4.97308 30.1172 6.5386 29.6537 8.07467 30.0537ZM40.4647 30.6693C40.8766 30.9008 41.2152 31.4456 41.2152 31.8771C41.2152 32.5568 40.492 33.2835 39.8157 33.2835C39.3441 33.2835 38.8045 32.9541 38.5911 32.5359C38.2287 31.8254 38.4428 31.0688 39.1153 30.6832C39.5753 30.4195 40.0123 30.415 40.4647 30.6693ZM6.3568 32.8769C5.35684 33.3698 5.36575 34.8537 6.37161 35.3406C6.87051 35.5821 7.1126 35.5833 7.60212 35.3462C8.12568 35.0928 8.43856 34.5427 8.37583 33.9861C8.26444 32.9979 7.24621 32.4385 6.3568 32.8769ZM24.6221 39.0979C25.0403 39.3113 25.3697 39.8509 25.3697 40.3225C25.3697 41.0155 24.6562 41.7219 23.9564 41.7219C23.5203 41.7219 22.941 41.3573 22.7348 40.9529C22.3885 40.2742 22.6058 39.5332 23.2688 39.1318C23.7177 38.8601 24.1353 38.8496 24.6221 39.0979Z" fill="black"/>
</svg>
