<svg width="48" height="45" viewBox="0 0 48 45" fill="none" xmlns="http://www.w3.org/2000/svg">
<path fill-rule="evenodd" clip-rule="evenodd" d="M8.12247 0.0440163C5.68993 0.351122 3.85509 2.47562 3.81436 5.03211C3.80714 5.48671 3.76604 5.88033 3.72297 5.90688C3.68 5.93353 3.51861 6.20508 3.36445 6.51049C2.88395 7.4624 2.80719 8.00445 2.80747 10.4454C2.80776 13.0325 2.89521 13.5908 3.48305 14.7616C3.70327 15.2003 3.89402 15.5803 3.90697 15.6061C3.91983 15.6319 3.62426 15.7989 3.25016 15.9774C2.29422 16.4331 1.10371 17.6266 0.625273 18.6086C-0.0299416 19.9538 -0.203152 21.7898 0.263371 22.445C0.703433 23.0628 -1.12747 23.0186 24.01 23.0186C49.1554 23.0186 47.316 23.0632 47.7585 22.4428C47.9637 22.1551 47.9827 22.0403 47.9735 21.142C47.9559 19.4127 47.3653 18.1006 46.0613 16.8933C45.6877 16.5474 45.1437 16.1625 44.7752 15.9832C44.4239 15.8122 44.1246 15.6632 44.1102 15.652C44.0956 15.6407 44.2505 15.3196 44.4542 14.9385C45.1085 13.7145 45.1465 13.5001 45.1916 10.7738C45.2249 8.75959 45.2056 8.22148 45.0811 7.68712C44.6808 5.96853 43.3828 4.56746 41.7009 4.03826C41.1068 3.85135 40.8462 3.83071 39.1166 3.83343C37.0408 3.83671 36.7721 3.8795 35.7755 4.36545C34.6329 4.92251 33.7712 5.91505 33.3158 7.19873C33.0979 7.81276 33.0761 8.02444 33.0374 9.89184C32.9778 12.7735 33.1778 13.9906 33.8988 15.1341L34.2115 15.63L33.4973 15.9893C33.1045 16.1869 32.5597 16.5452 32.2867 16.7855L31.7902 17.2225L31.2545 16.7167C30.6594 16.1548 29.9814 15.6999 29.39 15.4655L28.9992 15.3107L29.3166 14.7781C30.0669 13.5185 30.2389 12.4748 30.1806 9.53529C30.1437 7.67755 30.1117 7.3148 29.9373 6.77931C29.4115 5.16516 28.0456 3.88691 26.3836 3.45408C25.6317 3.25825 22.3884 3.25825 21.6364 3.45408C19.9745 3.88691 18.6085 5.16516 18.0828 6.77931C17.9084 7.3148 17.8764 7.67755 17.8395 9.53529C17.7811 12.4748 17.9531 13.5185 18.7035 14.7781L19.0208 15.3107L18.6301 15.4655C18.0387 15.6999 17.3607 16.1548 16.7655 16.7167L16.2298 17.2225L15.7334 16.7855C15.4603 16.5452 14.9134 16.1859 14.518 15.9869L13.7992 15.6252L14.0444 15.2644C14.4346 14.6902 14.793 13.6522 14.9133 12.7483C14.9835 12.221 15.0086 11.1674 14.9813 9.88921C14.9326 7.59714 14.8406 7.17434 14.1541 6.08732C13.8208 5.55953 13.7826 5.43708 13.7826 4.89559C13.7826 3.61199 13.2585 2.40468 12.2818 1.43777C11.1637 0.330948 9.70932 -0.156404 8.12247 0.0440163ZM9.87212 3.11028C10.121 3.24305 10.4013 3.45942 10.4951 3.59107L10.6654 3.83043H8.80349H6.94153L7.24225 3.51751C7.9912 2.73797 8.90783 2.596 9.87212 3.11028ZM26.1524 6.3735C26.7236 6.65827 27.0691 7.07 27.255 7.68815C27.445 8.31953 27.4327 8.69626 27.2237 8.64184C27.1334 8.61829 25.6556 8.35247 23.9397 8.05108C22.2238 7.74961 20.8198 7.47469 20.8198 7.44006C20.8198 7.21628 21.4334 6.58997 21.8618 6.3765C22.3414 6.13752 22.4133 6.12926 24.01 6.12926C25.6017 6.12926 25.68 6.13817 26.1524 6.3735ZM10.8738 6.8236C11.5178 7.15998 12.0936 7.89354 12.0936 8.37743C12.0936 8.5664 12.0522 8.56884 8.85472 8.56884H5.6158L5.67557 8.31081C5.77362 7.88801 6.16255 7.28215 6.48195 7.0547C7.00148 6.68473 7.5213 6.59944 9.09107 6.62675C10.2837 6.64748 10.6046 6.68286 10.8738 6.8236ZM40.7118 6.69918C41.5136 6.88168 42.1615 7.52123 42.3445 8.31081L42.4043 8.56884H39.1653C36.0253 8.56884 35.9264 8.5633 35.9264 8.38728C35.9264 7.72033 36.7269 6.89107 37.5685 6.68614C37.9987 6.58143 40.2353 6.59062 40.7118 6.69918ZM23.9773 10.9147C25.7241 11.2244 27.2055 11.4973 27.2693 11.5211C27.3509 11.5517 27.3678 11.6974 27.3264 12.0136C27.1737 13.1806 26.5022 14.1623 25.5304 14.6396C25.0474 14.8767 24.8992 14.9024 24.01 14.9024C23.1209 14.9024 22.9726 14.8767 22.4897 14.6396C21.8119 14.3067 21.1736 13.6049 20.9111 12.904C20.6844 12.2987 20.5255 10.3516 20.7026 10.3516C20.7569 10.3516 22.2305 10.605 23.9773 10.9147ZM12.1487 12.0967C12.0194 13.5239 11.4549 14.4161 10.3313 14.9693C9.76928 15.246 9.62281 15.2774 8.90539 15.2748C8.2331 15.2724 8.01447 15.2302 7.5319 15.0095C6.39769 14.4911 5.73637 13.4823 5.64367 12.1292L5.59253 11.3837H8.90295H12.2134L12.1487 12.0967ZM42.3764 12.1292C42.2837 13.4823 41.6224 14.4911 40.4882 15.0095C40.0056 15.2302 39.787 15.2724 39.1147 15.2748C38.3972 15.2774 38.2508 15.246 37.6887 14.9693C36.5651 14.4161 36.0006 13.5239 35.8713 12.0967L35.8067 11.3837H39.1171H42.4275L42.3764 12.1292ZM28.1278 17.995C28.991 18.2995 29.8863 19.2002 30.0668 19.9457L30.1293 20.2037H24.01H17.8907L17.9532 19.9457C18.1295 19.2176 19.0204 18.3082 19.8593 18.0001C20.3898 17.8052 27.5773 17.8008 28.1278 17.995ZM13.1396 18.4349C13.7507 18.7213 14.3467 19.279 14.6251 19.8246L14.8185 20.2037H8.90829C3.31894 20.2037 3.00133 20.1948 3.05856 20.0395C3.35675 19.2313 4.27132 18.4505 5.18118 18.2274C5.34473 18.1873 7.08312 18.1617 9.04416 18.1705L12.6097 18.1864L13.1396 18.4349ZM43.3419 18.3982C44.1049 18.7783 44.7298 19.4116 44.9615 20.0395C45.0187 20.1948 44.7011 20.2037 39.1113 20.2037H33.2006L33.3576 19.8988C33.7605 19.1166 34.3472 18.6122 35.2039 18.3116C35.6486 18.1555 36.0123 18.1424 39.3043 18.1634C42.8426 18.1859 42.9255 18.1907 43.3419 18.3982ZM16.7382 26.7821C15.277 26.9926 13.4233 27.7262 12.218 28.5708C11.8993 28.7942 11.182 29.378 10.6239 29.8682L9.60911 30.7596H6.13637H2.66373L2.05383 31.0502C1.26144 31.4279 0.700243 31.986 0.332523 32.762L0.03649 33.3868V37.6561V41.9254L0.287954 42.4619C0.817249 43.5912 1.83493 44.3449 3.05969 44.5146C3.46016 44.5702 9.93207 44.5944 19.9351 44.5778L36.161 44.5508L36.9116 44.3385C38.3215 43.9395 39.5267 43.2395 40.4454 42.2857C40.6859 42.0359 42.3274 40.0793 44.093 37.9376C46.3213 35.2347 47.3864 33.8687 47.5752 33.4715C48.354 31.833 48.0482 30.0534 46.7705 28.7879C45.3399 27.3708 43.2905 27.1509 41.5906 28.232C41.2841 28.4269 40.2427 29.4791 38.7287 31.1235L36.3487 33.7086L36.2845 33.0283C36.1329 31.42 35.2603 30.1458 33.8153 29.4224C33.1139 29.0713 32.5615 29.0238 29.1831 29.0238C25.4084 29.0238 25.6174 29.0587 23.5409 28.0822C22.7926 27.7303 21.8532 27.3328 21.4534 27.1987C20.0934 26.7428 18.1825 26.5739 16.7382 26.7821ZM20.2358 29.7706C20.6112 29.877 21.5525 30.2601 22.3276 30.6219C23.1026 30.9837 24.0621 31.3947 24.4599 31.5353L25.1829 31.7908L28.8591 31.8382C32.3867 31.8837 32.5457 31.8934 32.7941 32.079C33.2168 32.3949 33.4167 32.7353 33.4614 33.2157C33.5105 33.7428 33.2745 34.1762 32.7435 34.534L32.4269 34.7474L26.3653 34.7476C20.7817 34.7477 20.278 34.7606 19.9772 34.9118C18.9728 35.4164 18.9728 36.8933 19.9772 37.3979C20.2805 37.5503 20.8762 37.562 28.3358 37.5621L36.3678 37.5623L36.6866 37.3476C36.862 37.2296 38.3479 35.6778 39.9887 33.8993C43.1338 30.4903 43.4011 30.2572 44.0303 30.3762C44.8356 30.5284 45.3526 31.2928 45.1371 32.0123C45.0642 32.2553 43.9681 33.6549 41.6703 36.4391C37.9771 40.9143 37.7738 41.1127 36.4622 41.525L35.7857 41.7377H19.4745H3.16318L2.98387 41.5162C2.81414 41.3066 2.80447 41.0986 2.80447 37.6415V33.9882L3.04974 33.7429L3.29511 33.4976L6.73848 33.5568C8.8975 33.5939 10.3021 33.5816 10.5043 33.5238C10.7035 33.467 11.3655 32.9616 12.2344 32.2033C13.0085 31.5276 13.9277 30.8049 14.2771 30.5974C14.9733 30.1837 16.1773 29.7359 16.9772 29.5932C17.758 29.454 19.4422 29.5456 20.2358 29.7706Z" fill="black"/>
</svg>
