<!DOCTYPE svg PUBLIC "-//W3C//DTD SVG 1.1//EN" "http://www.w3.org/Graphics/SVG/1.1/DTD/svg11.dtd">
<!-- Uploaded to: SVG Repo, www.svgrepo.com, Transformed by: SVG Repo Mixer Tools -->
<svg version="1.1" id="Layer_1" xmlns="http://www.w3.org/2000/svg" xmlns:xlink="http://www.w3.org/1999/xlink" viewBox="0 0 392.576 392.576" xml:space="preserve" width="110px" height="110px" fill="#000000">
<g id="SVGRepo_bgCarrier" stroke-width="0"/>
<g id="SVGRepo_tracerCarrier" stroke-linecap="round" stroke-linejoin="round"/>
<g id="SVGRepo_iconCarrier"> <path style="fill:#FFFFFF;" d="M311.326,275.696c0-41.051-22.109-79.192-57.729-99.685c-20.945-12.024-34.004-34.909-34.004-59.669 V99.469h-46.675v16.873c0,24.76-12.994,47.58-34.004,59.669c-35.62,20.493-57.729,58.699-57.729,99.685 c0,38.271,18.747,73.568,50.36,95.095h129.293C292.579,349.328,311.326,313.966,311.326,275.696z"/> <rect x="185.718" y="40.447" style="fill:#FFC10D;" width="21.204" height="37.236"/> <path style="fill:#194F82;" d="M264.458,157.069c-14.222-8.21-23.014-23.79-23.014-40.792V88.544 c0-6.012-4.848-10.925-10.925-10.925h-1.875V29.587c0-6.012-4.848-10.925-10.925-10.925h-42.99c-6.012,0-10.925,4.848-10.925,10.925 v48.162h-1.745c-6.012,0-10.925,4.848-10.925,10.925v27.733c0,17.002-8.792,32.582-23.014,40.792 c-42.279,24.307-68.59,69.818-68.59,118.562c0,46.739,23.596,89.859,62.966,115.135c1.745,1.164,3.814,1.681,5.883,1.681h135.822 c2.069,0,4.202-0.646,5.883-1.681c39.499-25.341,62.966-68.396,62.966-115.2C333.177,226.888,306.801,181.506,264.458,157.069z M131.674,370.791c-31.612-21.463-50.424-56.824-50.424-95.095c0-41.051,22.109-79.192,57.729-99.685 c20.945-12.024,34.004-34.909,34.004-59.669V99.469h46.675v16.873c0,24.76,12.994,47.58,34.004,59.669 c35.62,20.493,57.729,58.699,57.729,99.685c0,38.271-18.747,73.568-50.36,95.095H131.674z M185.718,40.447h21.204v37.236h-21.204 V40.447L185.718,40.447z"/> <path style="fill:#56ACE0;" d="M138.72,348.94c-22.497-17.648-35.62-44.412-35.62-73.244c0-33.228,17.907-64.194,46.739-80.808 c26.246-15.127,43.119-42.99,44.735-73.568h3.297c1.681,30.578,18.489,58.44,44.735,73.568 c28.832,16.614,46.739,47.58,46.739,80.808c0,28.897-13.188,55.661-35.62,73.244H138.72z"/> <path style="fill:#FFC10D;" d="M241.056,252.229c0-10.731-8.727-19.394-19.394-19.394c-6.594,0-12.606,3.297-16.226,8.792 c-4.59,6.206-13.77,6.594-18.23,0c-3.62-5.495-9.632-8.792-16.226-8.792c-10.731,0-19.394,8.727-19.394,19.394 c0,13.382,24.242,40.275,44.735,58.505C216.813,292.31,241.056,265.223,241.056,252.229z"/> <g> <path style="fill:#194F82;" d="M221.662,211.049c-9.374,0-18.23,3.168-25.341,8.727c-7.111-5.56-15.968-8.727-25.341-8.727 c-22.691,0-41.244,18.489-41.244,41.244c0,30.448,49.713,73.115,59.669,81.39c5.624,3.685,10.15,3.038,13.964-0.065 c9.956-8.339,59.604-51.588,59.604-81.261C262.906,229.538,244.353,211.049,221.662,211.049z M151.585,252.229 c0-10.731,8.727-19.394,19.394-19.394c6.594,0,12.606,3.297,16.226,8.792c4.59,6.594,13.705,6.206,18.23,0 c3.62-5.495,9.632-8.792,16.226-8.792c10.731,0,19.394,8.727,19.394,19.394c0,12.994-24.242,40.016-44.8,58.505 C175.763,292.504,151.585,265.611,151.585,252.229z"/> <path style="fill:#194F82;" d="M261.613,69.991h58.311c6.012,0,10.925-4.848,10.925-10.925c0-6.012-4.848-10.925-10.925-10.925 h-58.311c-6.012,0-10.925,4.848-10.925,10.925C250.623,65.077,255.601,69.991,261.613,69.991z"/> <path style="fill:#194F82;" d="M266.85,40.576l55.014-19.394c5.689-2.004,8.663-8.275,6.659-13.899 c-2.004-5.689-8.275-8.663-13.899-6.659l-55.014,19.394c-5.689,2.004-8.663,8.275-6.659,13.899 C254.955,39.671,261.161,42.645,266.85,40.576z"/> <path style="fill:#194F82;" d="M321.864,96.884L266.85,77.49c-5.689-2.004-11.895,1.034-13.899,6.659 c-2.004,5.689,1.034,11.895,6.659,13.899l55.014,19.394c5.689,2.004,11.895-1.034,13.899-6.659 C330.591,105.158,327.617,98.888,321.864,96.884z"/> </g> </g>
</svg>