<svg width="48" height="48" viewBox="0 0 48 48" fill="none" xmlns="http://www.w3.org/2000/svg">
<rect width="48" height="48" rx="24" fill="url(#paint0_linear_2_231)"/>
<path d="M32.25 26.2508C32.249 25.4554 31.9326 24.6928 31.3703 24.1303C30.8079 23.5678 30.0454 23.2512 29.25 23.2501H18.75C18.3524 23.2495 17.9712 23.0912 17.69 22.8101C17.4088 22.5289 17.2506 22.1477 17.25 21.7501V19.3928C17.7655 19.2585 18.2359 18.9891 18.6127 18.6124C18.9894 18.2358 19.259 17.7655 19.3935 17.2501H28.6065C28.7891 17.957 29.2232 18.5732 29.8275 18.983C30.4318 19.3928 31.1649 19.5682 31.8893 19.4761C32.6136 19.3841 33.2796 19.0311 33.7622 18.4832C34.2449 17.9354 34.5112 17.2302 34.5112 16.5001C34.5112 15.7699 34.2449 15.0648 33.7622 14.5169C33.2796 13.969 32.6136 13.616 31.8893 13.524C31.1649 13.432 30.4318 13.6073 29.8275 14.0171C29.2232 14.4269 28.7891 15.0431 28.6065 15.7501H19.3935C19.2624 15.2383 18.9981 14.7703 18.6276 14.3936C18.2571 14.017 17.7935 13.7451 17.2839 13.6056C16.7744 13.466 16.2369 13.4638 15.7262 13.5992C15.2155 13.7345 14.7497 14.0026 14.3761 14.3762C14.0026 14.7498 13.7345 15.2156 13.5991 15.7263C13.4638 16.237 13.466 16.7744 13.6055 17.284C13.7451 17.7936 14.0169 18.2571 14.3936 18.6276C14.7702 18.9982 15.2382 19.2624 15.75 19.3936V21.7493C15.751 22.5448 16.0675 23.3075 16.63 23.8701C17.1925 24.4326 17.9552 24.7491 18.7508 24.7501H29.25C29.6478 24.7507 30.0291 24.909 30.3103 25.1903C30.5915 25.4717 30.7496 25.853 30.75 26.2508V28.5001H28.5V30.7501H19.3935C19.211 30.0431 18.7768 29.4269 18.1725 29.0171C17.5682 28.6073 16.8351 28.432 16.1108 28.524C15.3864 28.616 14.7205 28.969 14.2378 29.5169C13.7551 30.0648 13.4888 30.7699 13.4888 31.5001C13.4888 32.2302 13.7551 32.9354 14.2378 33.4832C14.7205 34.0311 15.3864 34.3841 16.1108 34.4761C16.8351 34.5682 17.5682 34.3928 18.1725 33.983C18.7768 33.5732 19.211 32.9571 19.3935 32.2501H28.5V34.5001H34.5V28.5001H32.25V26.2508ZM31.5 15.0001C31.7967 15.0001 32.0867 15.088 32.3334 15.2529C32.58 15.4177 32.7723 15.6519 32.8858 15.926C32.9994 16.2001 33.0291 16.5017 32.9712 16.7927C32.9133 17.0837 32.7704 17.3509 32.5607 17.5607C32.3509 17.7705 32.0836 17.9134 31.7926 17.9712C31.5017 18.0291 31.2001 17.9994 30.926 17.8859C30.6519 17.7723 30.4176 17.5801 30.2528 17.3334C30.088 17.0867 30 16.7967 30 16.5001C30.0004 16.1024 30.1586 15.7211 30.4398 15.4398C30.721 15.1586 31.1023 15.0005 31.5 15.0001ZM15 16.5001C15 16.2034 15.088 15.9134 15.2528 15.6667C15.4176 15.42 15.6519 15.2278 15.926 15.1142C16.2001 15.0007 16.5017 14.971 16.7926 15.0289C17.0836 15.0868 17.3509 15.2296 17.5607 15.4394C17.7704 15.6492 17.9133 15.9164 17.9712 16.2074C18.0291 16.4984 17.9994 16.8 17.8858 17.0741C17.7723 17.3482 17.58 17.5824 17.3334 17.7473C17.0867 17.9121 16.7967 18.0001 16.5 18.0001C16.1023 17.9997 15.721 17.8415 15.4398 17.5603C15.1586 17.2791 15.0004 16.8978 15 16.5001ZM16.5 33.0001C16.2033 33.0001 15.9133 32.9121 15.6667 32.7473C15.42 32.5824 15.2277 32.3482 15.1142 32.0741C15.0007 31.8 14.971 31.4984 15.0288 31.2074C15.0867 30.9164 15.2296 30.6492 15.4393 30.4394C15.6491 30.2296 15.9164 30.0868 16.2074 30.0289C16.4983 29.971 16.7999 30.0007 17.074 30.1142C17.3481 30.2278 17.5824 30.42 17.7472 30.6667C17.912 30.9134 18 31.2034 18 31.5001C17.9996 31.8978 17.8414 32.2791 17.5602 32.5603C17.279 32.8415 16.8977 32.9997 16.5 33.0001ZM33 30.0001V33.0001H30V30.0001H33Z" fill="white"/>
<defs>
<linearGradient id="paint0_linear_2_231" x1="0" y1="0" x2="48" y2="48" gradientUnits="userSpaceOnUse">
<stop stop-color="#005AC4"/>
<stop offset="1" stop-color="#0086E8"/>
</linearGradient>
</defs>
</svg>
