<svg width="48" height="48" viewBox="0 0 48 48" fill="none" xmlns="http://www.w3.org/2000/svg">
<rect width="48" height="48" rx="24" fill="url(#paint0_linear_2_240)"/>
<path d="M33 29.25V31.9395L29.25 28.1895V23.25C29.2499 23.1108 29.2111 22.9743 29.1378 22.8559C29.0646 22.7374 28.9598 22.6417 28.8353 22.5795L24.75 20.5357V16.371L26.6895 18.3105L27.75 17.25L24 13.5L20.25 17.25L21.3105 18.3105L23.25 16.371V20.5365L19.1648 22.5787C19.0401 22.641 18.9352 22.7369 18.862 22.8554C18.7887 22.974 18.7499 23.1106 18.75 23.25V28.1895L15 31.9395V29.25H13.5V34.5H18.75V33H16.0605L19.6477 29.4127L23.6648 31.4212C23.7689 31.4732 23.8836 31.5003 24 31.5003C24.1164 31.5003 24.2311 31.4732 24.3353 31.4212L28.3522 29.4127L31.9395 33H29.25V34.5H34.5V29.25H33ZM23.25 29.5365L20.25 28.0365V24.4635L23.25 25.9635V29.5365ZM24 24.6615L21.177 23.25L24 21.8385L26.823 23.25L24 24.6615ZM27.75 28.0365L24.75 29.5365V25.9635L27.75 24.4635V28.0365Z" fill="white"/>
<defs>
<linearGradient id="paint0_linear_2_240" x1="0" y1="0" x2="48" y2="48" gradientUnits="userSpaceOnUse">
<stop stop-color="#005AC4"/>
<stop offset="1" stop-color="#0086E8"/>
</linearGradient>
</defs>
</svg>
