<svg width="48" height="48" viewBox="0 0 48 48" fill="none" xmlns="http://www.w3.org/2000/svg">
<rect width="48" height="48" rx="24" fill="url(#paint0_linear_2_249)"/>
<path d="M31.1895 18L33.4395 15.75L34.5 16.8082L32.25 19.059L31.1895 18ZM24 27.375L20.25 23.6542L21.4425 22.4767L24 25.0118L29.5575 19.5L30.75 20.6843L24 27.375Z" fill="white"/>
<path d="M15 33V31.0597L19.8105 26.25L18.75 25.1887L15 28.9387V13.5H13.5V33C13.5 33.3978 13.658 33.7794 13.9393 34.0607C14.2206 34.342 14.6022 34.5 15 34.5H34.5V33H15Z" fill="white"/>
<defs>
<linearGradient id="paint0_linear_2_249" x1="0" y1="0" x2="48" y2="48" gradientUnits="userSpaceOnUse">
<stop stop-color="#005AC4"/>
<stop offset="1" stop-color="#0086E8"/>
</linearGradient>
</defs>
</svg>
