<!DOCTYPE svg PUBLIC "-//W3C//DTD SVG 1.1//EN" "http://www.w3.org/Graphics/SVG/1.1/DTD/svg11.dtd">
<!-- Uploaded to: SVG Repo, www.svgrepo.com, Transformed by: SVG Repo Mixer Tools -->
<svg height="105px" width="105px" version="1.1" id="Layer_1" xmlns="http://www.w3.org/2000/svg" xmlns:xlink="http://www.w3.org/1999/xlink" viewBox="0 0 512 512" xml:space="preserve" fill="#000000">
<g id="SVGRepo_bgCarrier" stroke-width="0"/>
<g id="SVGRepo_tracerCarrier" stroke-linecap="round" stroke-linejoin="round"/>
<g id="SVGRepo_iconCarrier"> <circle style="fill:#324A5E;" cx="256" cy="256" r="256"/> <path style="fill:#2B3B4E;" d="M258.843,511.964c105.731-1.152,196.07-66.389,234.018-158.711L331.212,191.604l-9.895,9.168 l-73.375-73.375l-35.119,21.259l74.38,74.38l-16.948,7.34l52.09,52.091l-148.799,144.2L258.843,511.964z"/> <path style="fill:#F9B54C;" d="M260.755,312.148l-22.792,19.323c-7.794,6.606-19.547,5.249-25.629-2.96L109.116,189.192 c-3.894-5.254-3.041-12.629,1.946-16.86l12.136-10.288c4.953-4.198,12.304-3.872,16.863,0.75l121.842,123.459 C269.131,293.573,268.6,305.495,260.755,312.148z"/> <path style="fill:#F4A200;" d="M111.063,172.332c-4.989,4.229-5.841,11.604-1.946,16.86l103.217,139.319 c6.082,8.209,17.837,9.566,25.629,2.96l12.086-10.245l-132.184-154.66L111.063,172.332z"/> <g> <path style="fill:#FFD15D;" d="M375.467,256H136.533c0,39.852,19.518,88.095,49.511,120.06c-7.911,16.593-12.5,34.582-12.5,50.607 h164.909c0-16.027-4.587-34.014-12.498-50.607C355.949,344.095,375.467,295.852,375.467,256z"/> <path style="fill:#FFD15D;" d="M136.533,256c0,39.852,19.518,88.095,49.511,120.06c-7.911,16.593-12.5,34.582-12.5,50.607h81.88 V256H136.533z"/> </g> <path style="fill:#F9B54C;" d="M325.954,376.06c29.994-31.965,49.512-80.208,49.512-120.06H255.426v170.667h83.028 C338.454,410.639,333.867,392.652,325.954,376.06z"/> <g> <path style="fill:#7CBC39;" d="M290.102,194.282c-12.8,8.142-19.801,21.954-19.847,36.093c12.829,5.951,28.308,5.463,41.108-2.679 s19.801-21.954,19.847-36.093C318.381,185.653,302.902,186.14,290.102,194.282z"/> <path style="fill:#7CBC39;" d="M241.7,121.477c-12.005-9.287-27.374-11.183-40.688-6.416c-1.24,14.107,4.477,28.52,16.482,37.805 c12.005,9.287,27.374,11.183,40.688,6.416C259.422,145.175,253.705,130.762,241.7,121.477z"/> </g> <g> <path style="fill:#66B31B;" d="M270.257,230.376c12.829,5.951,28.308,5.463,41.108-2.679c12.8-8.142,19.801-21.954,19.847-36.093 L270.257,230.376z"/> <path style="fill:#66B31B;" d="M201.011,115.06c-1.24,14.107,4.477,28.52,16.482,37.805c12.005,9.287,27.374,11.183,40.688,6.416 L201.011,115.06z"/> </g> </g>
</svg>