<svg width="126" height="86" viewBox="0 0 126 86" fill="none" xmlns="http://www.w3.org/2000/svg">
<path fill-rule="evenodd" clip-rule="evenodd" d="M53.0689 9.23847C47.9632 14.3197 43.7859 18.5461 43.7859 18.6304C43.7859 18.7149 52.2105 27.1935 62.5069 37.4721C80.6039 55.5373 82.4106 57.2416 85.3565 59.0287C88.4639 60.914 92.7805 62.3548 96.5559 62.7672C98.8324 63.0159 125.441 63.0743 125.441 62.8308C125.441 62.5957 62.7925 0 62.5572 0C62.4442 0 58.1743 4.15742 53.0689 9.23847ZM0.134676 22.3627C-0.52287 22.4635 0.0242967 23.0244 30.9601 53.9571L62.455 85.4492L71.7903 76.1155C76.9245 70.9821 81.1254 66.6856 81.1254 66.5676C81.1254 66.1551 43.9299 29.2242 42.3384 28.0566C39.0573 25.6492 35.3787 23.9166 31.7839 23.0855C30.994 22.9029 30.1631 22.6934 29.9374 22.6202C29.4456 22.4604 1.09545 22.2156 0.134676 22.3627Z" fill="white"/>
</svg>
