<svg width="49" height="48" viewBox="0 0 49 48" fill="none" xmlns="http://www.w3.org/2000/svg">
<path fill-rule="evenodd" clip-rule="evenodd" d="M9.06475 0.124435C7.36356 0.601623 5.94531 2.18487 5.13119 4.51569C4.90984 5.14944 4.5625 6.65272 4.5625 6.97681C4.5625 6.99584 3.59219 7.0114 2.40625 7.0114H0.25V27.4958V47.9802H24.25H48.25V27.4958V7.0114H46.0938C44.9078 7.0114 43.9375 6.99584 43.9375 6.97681C43.9375 6.95778 43.875 6.58353 43.7985 6.14515C43.312 3.35515 41.7246 0.993873 39.8353 0.249873C39.4034 0.0797166 39.1114 0.0377166 38.3594 0.0375291C37.013 0.0371541 36.3173 0.348123 35.1897 1.45409C33.983 2.63759 33.2897 4.19928 32.8161 6.80047C32.7782 7.00878 32.7588 7.0114 31.2903 7.0114H29.8028L29.7384 6.49587C29.4895 4.5035 28.4972 2.4155 27.2508 1.26162C24.6477 -1.14841 21.1619 -0.00072062 19.5104 3.81012C19.1836 4.56425 18.7191 6.29159 18.7188 6.75359L18.7188 7.0114H17.2205C15.7407 7.0114 15.7218 7.00878 15.6839 6.80047C15.4814 5.68831 15.2134 4.65425 14.9696 4.04365C14.2301 2.192 12.9691 0.802529 11.5 0.220342C10.9188 -0.00990839 9.71303 -0.0574396 9.06475 0.124435ZM10.7084 2.96947C10.9175 3.06444 11.25 3.32722 11.4472 3.55334C11.8902 4.06109 12.4794 5.28181 12.6682 6.08281C12.911 7.11303 13.1915 7.0114 10.1052 7.0114H7.39788L7.52284 6.41553C7.87309 4.74434 8.69153 3.37137 9.57812 2.96759C10.0488 2.75319 10.2328 2.75347 10.7084 2.96947ZM24.761 2.92531C25.6428 3.29375 26.6062 4.96531 26.9135 6.65984L26.9773 7.0114H24.25H21.5227L21.5837 6.65984C21.6828 6.08909 22.1518 4.74884 22.4177 4.27644C22.73 3.72144 23.3329 3.09697 23.7182 2.92934C24.1022 2.76228 24.3684 2.76125 24.761 2.92531ZM38.9255 2.96872C39.7456 3.34128 40.4908 4.53078 40.8878 6.10118L41.1061 6.96453L38.4295 6.98947C36.9573 7.00315 35.7308 6.99228 35.7039 6.96528C35.5938 6.85512 35.9838 5.46069 36.3269 4.73806C36.7636 3.81819 37.2704 3.20628 37.7916 2.96947C38.2677 2.75328 38.4508 2.75309 38.9255 2.96872ZM12.7759 10.2813C12.6976 10.8727 12.3312 11.9456 11.9973 12.5619C11.6292 13.2415 10.9409 13.9074 10.4986 14.0118L10.1406 14.0964L10.1145 15.445C10.1001 16.1867 10.1252 16.8304 10.1703 16.8755C10.3001 17.0052 11.547 16.7047 12.0835 16.4143C13.5805 15.6043 14.861 13.6996 15.3885 11.498C15.5164 10.964 15.645 10.3689 15.6742 10.1755L15.7273 9.8239H21.3562H26.9852L26.9189 10.2223C26.6248 11.9871 25.6212 13.6639 24.6618 13.9934L24.2969 14.1188L24.2709 15.5425L24.245 16.9662L24.6459 16.9053C25.8632 16.7202 26.8948 16.1273 27.7368 15.1285C28.6673 14.0248 29.3406 12.5036 29.6752 10.7495L29.8428 9.87078L35.437 9.84659L41.0312 9.8224V10.0828C41.0312 10.5169 40.6719 11.6726 40.319 12.3732C39.9295 13.1468 39.2162 13.9037 38.7675 14.0199L38.4531 14.1012L38.4272 15.5337L38.4013 16.9662L38.8022 16.9041C39.8199 16.7465 40.5465 16.3828 41.3554 15.6261C42.6452 14.4196 43.4665 12.7173 43.8496 10.4567L43.9567 9.8239H44.6972H45.4375V14.7927V19.7614H24.25H3.0625V14.7927V9.8239H7.94959H12.8367L12.7759 10.2813ZM45.4375 33.8708V45.1677H24.25H3.0625V33.8708V22.5739H24.25H45.4375V33.8708ZM35.739 25.5012C35.7181 25.567 35.6215 26.1972 35.5245 26.9017L35.348 28.1826L35.5881 28.2293C35.7201 28.255 36.2394 28.3292 36.7422 28.3943C37.245 28.4593 37.6562 28.5472 37.6562 28.5895C37.6562 28.6317 36.5277 29.9994 35.1484 31.6286L32.6406 34.5909L28.4542 30.3402C25.774 27.6189 24.2367 26.1233 24.1813 26.1833C23.9689 26.4134 18.25 33.6328 18.25 33.6707C18.25 33.789 20.4281 35.4317 20.4903 35.3604C20.5303 35.3145 21.4453 34.1644 22.5237 32.8046L24.4844 30.3322L28.6094 34.518C30.8781 36.8202 32.7635 38.7027 32.7992 38.7014C32.8349 38.7 34.3488 36.9443 36.1635 34.7997C38.3814 32.1786 39.4868 30.9395 39.536 31.0191C39.5762 31.0842 39.6374 31.4183 39.6719 31.7614C39.7064 32.1045 39.7694 32.4417 39.812 32.5107C39.8764 32.6148 40.0945 32.6084 41.0932 32.4732C41.7553 32.3836 42.3632 32.2918 42.4442 32.2692C42.574 32.2331 42.5423 31.8822 42.1758 29.2995C41.9473 27.6887 41.7333 26.3421 41.7004 26.3071C41.6675 26.2721 40.4172 26.0709 38.9219 25.86C37.4266 25.6491 36.1073 25.4552 35.9901 25.4292C35.864 25.4011 35.7616 25.4306 35.739 25.5012ZM5.875 29.6042V31.0114H10.1432H14.4112L14.3853 29.6286L14.3594 28.2458L10.1172 28.2214L5.875 28.197V29.6042ZM5.91653 33.9447C5.89066 34.0121 5.88128 34.6559 5.89563 35.3753L5.92188 36.6833H10.1406H14.3594V35.277V33.8708L10.1615 33.8464C6.77228 33.8267 5.9545 33.8456 5.91653 33.9447ZM5.875 40.9498V42.357L10.1172 42.3327L14.3594 42.3083L14.3853 40.9255L14.4112 39.5427H10.1432H5.875V40.9498Z" fill="black"/>
</svg>
