<svg width="42" height="48" viewBox="0 0 42 48" fill="none" xmlns="http://www.w3.org/2000/svg">
<path fill-rule="evenodd" clip-rule="evenodd" d="M19.5655 0.141031C17.415 0.780744 16.0625 2.88852 16.4247 5.03616C16.6562 6.40854 17.6022 7.70846 18.7673 8.25512L19.2384 8.47619L19.2423 11.5544L19.2461 14.6327H17.7892H16.3323V13.1758V11.7189H14.8755H13.4186V13.1758V14.6327H11.9617H10.5048L10.5052 12.3064L10.5055 9.98006L11.1084 9.66829C12.4793 8.95949 13.4144 7.40937 13.4175 5.84064C13.4208 4.14332 12.48 2.65467 10.9151 1.8813C10.1912 1.52357 10.1769 1.52075 9.05282 1.52075C7.93958 1.52075 7.90743 1.52676 7.18877 1.86993C6.22121 2.3319 5.53638 3.01438 5.08352 3.96803C4.79083 4.58434 4.7382 4.80108 4.699 5.55086C4.64825 6.52143 4.79328 7.19883 5.22104 7.98921C5.53666 8.57243 6.51212 9.48397 7.11809 9.762L7.59105 9.97894V12.3048V14.6305L3.8698 14.6552L0.148453 14.6797L7.53381 23.703L14.9192 32.7262L14.9208 40.3631C14.9217 44.5634 14.9439 48 14.97 48C14.9962 48 17.6185 46.2657 20.7976 44.1459L26.5775 40.2919L26.5792 36.509L26.5808 32.7262L33.9662 23.703L41.3515 14.6797L37.6302 14.6552L33.9089 14.6305L33.9102 12.3053L33.9114 9.98006L34.4673 9.71322C35.092 9.41329 36.0233 8.51106 36.3312 7.90753C36.7146 7.15587 36.8496 6.47903 36.801 5.55086C36.7618 4.80108 36.7092 4.58434 36.4165 3.96803C35.9636 3.01438 35.2788 2.3319 34.3112 1.86993C33.5931 1.52704 33.5597 1.52075 32.452 1.52075C31.3411 1.52075 31.3134 1.52601 30.6086 1.87059C27.867 3.21082 27.2327 6.65395 29.3206 8.86165C29.5835 9.13968 30.053 9.49328 30.3915 9.66829L30.9945 9.98006L30.9948 12.3064L30.9952 14.6327H29.5383H28.0814V13.1758V11.7189H26.6245H25.1676V13.1758V14.6327H23.7108H22.2539L22.2577 11.5544L22.2616 8.47619L22.7327 8.25512C22.9917 8.13358 23.4484 7.80752 23.7475 7.53062C25.7146 5.70952 25.5508 2.52957 23.4057 0.895697C22.6389 0.311628 21.9336 0.0584119 20.938 0.00962986C20.347 -0.0193198 19.9897 0.0148934 19.5655 0.141031ZM21.3699 3.0626C22.7439 3.68661 22.2654 5.7974 20.75 5.7974C19.2369 5.7974 18.761 3.75203 20.1178 3.08036C20.604 2.83974 20.8709 2.83598 21.3699 3.0626ZM9.7636 4.59279C10.4645 4.98672 10.7081 6.01227 10.2474 6.62942C9.9059 7.08679 9.58445 7.25428 9.04794 7.25428C8.48004 7.25428 8.15821 7.07109 7.79417 6.54069C7.61596 6.28109 7.58156 6.12966 7.61267 5.74176C7.70178 4.63096 8.79369 4.04764 9.7636 4.59279ZM33.1212 4.54007C33.839 4.88069 34.1395 5.90888 33.7058 6.54069C33.3418 7.07109 33.02 7.25428 32.452 7.25428C31.3608 7.25428 30.6955 6.19377 31.1708 5.21183C31.5225 4.48564 32.3822 4.18947 33.1212 4.54007ZM34.0305 19.0033L32.8364 20.4602H20.75H8.6636L7.46952 19.0033L6.27554 17.5465H20.75H35.2245L34.0305 19.0033ZM30.2265 23.6483C30.1065 23.7992 28.7605 25.4483 27.2355 27.3129L24.4627 30.7031H20.75H17.0373L14.2645 27.3129C12.7395 25.4483 11.3935 23.7992 11.2735 23.6483L11.0551 23.374H20.75H30.4448L30.2265 23.6483ZM23.6614 36.1805L23.659 38.7417L20.8315 40.6216C19.2764 41.6555 17.9662 42.5155 17.9202 42.5327C17.8717 42.5509 17.8362 40.6751 17.8362 38.0916V33.6192H20.75H23.6638L23.6614 36.1805Z" fill="black"/>
</svg>
