<svg width="14" height="14" viewBox="0 0 14 14" fill="none" xmlns="http://www.w3.org/2000/svg">
<path d="M1.15669 11.6567C0.690939 12.1224 0.690939 12.8776 1.15669 13.3433C1.62244 13.8091 2.37756 13.8091 2.84331 13.3433L1.15669 11.6567ZM13.6426 2.05007C13.6425 1.39141 13.1086 0.85745 12.4499 0.85745H1.71631C1.05765 0.85745 0.52369 1.39141 0.52369 2.05007C0.523691 2.70874 1.05765 3.2427 1.71631 3.2427H11.2573V12.7837C11.2573 13.4424 11.7913 13.9763 12.4499 13.9763C13.1086 13.9763 13.6426 13.4424 13.6426 12.7837V2.05007ZM2.84331 13.3433L13.2932 2.89339L11.6066 1.20676L1.15669 11.6567L2.84331 13.3433Z" fill="#151515"/>
</svg>
