<svg viewBox="0 0 2000 1000" xmlns="http://www.w3.org/2000/svg"><path fill="#f2efea" d="M0 0h2000v1000H0z"/><rect x="1870" y="917" width="8" height="12" fill="#fbeede" rx="0" transform="matrix(-.42262 .88416 -.9063 -.47012 3502.509 -201.785)"/><rect x="774" y="568" width="7" height="8" fill="#fcf4ec" rx="0" transform="matrix(-.56437 .89893 -.83717 -.43844 1626.59 110.296)"/><rect x="143" y="33" width="5" height="12" fill="#fbf2e6" rx="0" transform="matrix(.11256 1.0536 -.95898 -.09218 155.583 -60.604)"/><rect x="1555" y="495" width="5" height="12" fill="#fbf2e6" rx="0" transform="matrix(.83122 .42677 -.56061 .91521 538.816 -841.112)"/><rect x="512" y="411" width="5" height="9" fill="#fbeede" rx="0" transform="matrix(.98303 .32636 -.20915 .94783 119.292 -110.259)"/><rect x="1968" y="693" width="8" height="20" fill="#e9e2d9" rx="0" transform="matrix(-.939 .2598 -.34462 -.96962 4159.504 699.771)"/><rect x="1216" y="488" width="8" height="19" fill="#fbf2e6" rx="0" transform="matrix(.98837 .1576 -.10448 .9951 20.906 -40.051)"/><rect x="1883" y="102" width="9" height="12" fill="#e9e2d9" rx="0" transform="matrix(.47671 .95106 -.89657 .30902 1103.575 -1720.493)"/><rect x="1341" y="774" width="7" height="12" fill="#e9e2d9" rx="0" transform="matrix(.06993 1 -1.02005 -.28675 2127.625 44.69)"/><rect x="943" y="896" width="6" height="8" fill="#fcf4ec" rx="0" transform="matrix(.90461 .75374 -.48315 .70288 624.44 -209.766)"/><rect x="1068" y="985" width="9" height="24" fill="#e9e2d9" rx="0" transform="matrix(1.0901 .3962 .17406 .9806 45.27 -36.291)"/><rect x="1602" y="247" width="5" height="14" fill="#fbf2e6" rx="0" transform="matrix(-.8195 .6165 -.57312 -.7891 3029.438 -450.667)"/><rect x="1874" y="310" width="5" height="14" fill="#fcf4ec" rx="0" transform="matrix(-.34187 .93415 -.93926 -.35859 2809.094 -1256.73)"/><rect x="389" y="928" width="8" height="10" fill="#fcf4ec" rx="0" transform="matrix(.27331 1.0224 -.95418 .08945 1140.088 538.473)"/><rect x="1657" y="421" width="9" height="10" fill="#fbf2e6" rx="0" transform="matrix(.99433 .3639 -.1577 .94798 101.702 -289.487)"/><rect x="608" y="608" width="7" height="19" fill="#fbf2e6" rx="0" transform="matrix(-.18867 .95529 -.9628 -.42532 1265.15 482.932)"/><rect x="1302" y="920" width="8" height="14" fill="#fcf4ec" rx="0" transform="matrix(-.9682 .40773 -.27798 -.91578 2769.728 1152.105)"/><rect x="641" y="420" width="6" height="6" fill="#fcf4ec" rx="0" transform="matrix(-.15888 .94913 -.99889 -.32681 1210.788 6.344)"/><rect x="72" y="679" width="7" height="7" fill="#fcf4ec" rx="0" transform="matrix(-.95091 .30906 -.30897 -.9512 370.06 1307.043)"/><rect x="186" y="70" width="5" height="11" fill="#fcf4ec" rx="0" transform="matrix(.10482 .98496 -.99679 .17367 240.216 -126.567)"/><rect x="1126" y="735" width="6" height="9" fill="#fbeede" rx="0" transform="matrix(-.79664 .53652 -.58896 -.85862 2593.384 589.896)"/><rect x="1120" y="723" width="9" height="11" fill="#fbeede" rx="0" transform="matrix(.9721 .42767 -.15487 .96056 86.859 -86.808)"/><rect x="742" y="256" width="7" height="13" fill="#e9e2d9" rx="0" transform="matrix(-.3396 .92402 -.93807 -.39222 1272.648 -388.622)"/><rect x="845" y="262" width="5" height="11" fill="#fcf4ec" rx="0" transform="matrix(-.12287 .97163 -.99857 -.24225 1240.557 -446.736)"/><rect x="1590" y="678" width="6" height="12" fill="#fbf2e6" rx="0" transform="matrix(-.63455 .84921 -.78105 -.53065 3002.747 -222.347)"/><rect x="1401" y="368" width="6" height="8" fill="#fcf4ec" rx="0" transform="matrix(-.27472 .91091 -.95782 -.46413 2134.314 -435.834)"/><rect x="1376" y="750" width="8" height="20" fill="#e9e2d9" rx="0" transform="matrix(.86176 .4073 -.51967 .9148 438.956 -424.991)"/><rect x="1333" y="832" width="7" height="20" fill="#e9e2d9" rx="0" transform="matrix(-.05234 1.00229 -.99863 .0175 2247.293 -605.748)"/><rect x="1357" y="255" width="5" height="13" fill="#e9e2d9" rx="0" transform="matrix(-.82195 .31378 -.65719 -.96573 2746.228 327.165)"/><rect x="1346" y="961" width="9" height="16" fill="#fbf2e6" rx="0" transform="matrix(.63597 .7546 -.75256 .67945 1323.564 -946.62)"/><rect x="396" y="397" width="9" height="20" fill="#e9e2d9" rx="0" transform="matrix(.15833 1.0124 -1.01001 -.14228 791.22 144.575)"/><rect x="1404" y="11" width="9" height="24" fill="#fbeede" rx="0" transform="matrix(-1.00624 -.18258 -.22977 -1.03549 2873.128 761.636)"/><rect x="1727" y="84" width="6" height="9" fill="#fbeede" rx="0" transform="matrix(-.65066 .64524 -.77438 -.76897 2945.151 -808.361)"/><rect x="234" y="405" width="9" height="11" fill="#e9e2d9" rx="0" transform="matrix(.84911 .89658 -.62512 .51764 367.738 48.082)"/><rect x="1703" y="842" width="9" height="10" fill="#e9e2d9" rx="0" transform="matrix(-.0948 .86113 -1.10202 -.5381 3175.83 133.464)"/><rect x="1676" y="283" width="9" height="10" fill="#fcf4ec" rx="0" transform="matrix(.62941 .63279 -.80305 .78143 840.38 -1177.077)"/><rect x="1419" y="903" width="9" height="25" fill="#fbeede" rx="0" transform="matrix(.97192 .6508 -.37828 .7756 587.468 -495.51)"/><rect x="1749" y="709" width="8" height="12" fill="#fbeede" rx="0" transform="matrix(.0871 .9922 -1.02322 -.17495 2462.635 -684)"/><rect x="583" y="159" width="8" height="12" fill="#fbf2e6" rx="0" transform="matrix(-1.00959 .27568 -.10655 -.9614 1172.698 151.562)"/><rect x="880" y="486" width="8" height="21" fill="#fcf4ec" rx="0" transform="matrix(.6497 .94522 -.80856 .36284 811.92 -379.208)"/><rect x="1374" y="109" width="7" height="19" fill="#fcf4ec" rx="0" transform="matrix(.57358 .85926 -.81915 .5163 684.468 -1029.988)"/><rect x="842" y="661" width="7" height="17" fill="#e9e2d9" rx="0" transform="matrix(1.01378 .63018 -.33493 .77821 444.518 -340.023)"/><rect x="337" y="80" width="8" height="13" fill="#e9e2d9" rx="0" transform="matrix(-.9226 .1256 -.44786 -1.02293 709.35 217.175)"/><rect x="201" y="861" width="5" height="11" fill="#fbeede" rx="0" transform="matrix(-.70056 .46593 -.7713 -.91444 1142.781 1611.03)"/><rect x="660" y="777" width="8" height="8" fill="#e9e2d9" rx="0" transform="matrix(-.60256 .52468 -.9031 -.87321 2013.277 1243.66)"/><rect x="780" y="830" width="6" height="15" fill="#fbf2e6" rx="0" transform="matrix(-.245 .9939 -.97605 -.12204 1637.371 202.51)"/><rect x="144" y="510" width="7" height="17" fill="#e9e2d9" rx="0" transform="matrix(.7999 .89099 -.67896 .49388 478.037 159.671)"/><rect x="672" y="583" width="8" height="14" fill="#e9e2d9" rx="0" transform="matrix(-.67106 .54472 -.80246 -.8388 1790.956 704.86)"/><rect x="1791" y="777" width="9" height="22" fill="#fbeede" rx="0" transform="matrix(.06206 1.03777 -.96795 -.07257 2263.705 -503.273)"/><rect x="1760" y="833" width="7" height="10" fill="#fbf2e6" rx="0" transform="matrix(-.49443 .84455 -.85056 -.56966 3203.212 168.792)"/><rect x="420" y="363" width="5" height="9" fill="#fcf4ec" rx="0" transform="matrix(1.02595 .17431 .08157 .98857 72.872 -106.41)"/><rect x="1202" y="406" width="9" height="24" fill="#e9e2d9" rx="0" transform="matrix(.98858 -.03503 .23533 1.0032 4.998 -64.63)"/><rect x="1699" y="494" width="6" height="10" fill="#fcf4ec" rx="0" transform="matrix(.24989 1.02158 -1.04583 -.27373 1989.88 -517.096)"/><rect x="462" y="10" width="8" height="18" fill="#fbf2e6" rx="0" transform="matrix(.65084 .78298 -.75013 .63405 170.294 -300.699)"/><rect x="172" y="32" width="6" height="11" fill="#fbeede" rx="0" transform="matrix(.7816 .42914 -.6541 .92029 62.166 -102.967)"/><rect x="924" y="149" width="9" height="9" fill="#e9e2d9" rx="0" transform="matrix(-.9299 .2105 -.37565 -.99034 1854.827 257.125)"/><rect x="1539" y="626" width="8" height="13" fill="#fcf4ec" rx="0" transform="matrix(-.95462 .08781 -.47685 -1.00368 3537.825 1321.29)"/><rect x="491" y="201" width="6" height="7" fill="#fbf2e6" rx="0" transform="matrix(.07397 1.00751 -.99255 0 688.395 -353.865)"/><rect x="62" y="451" width="9" height="10" fill="#fbf2e6" rx="0" transform="matrix(1.05018 .5201 -.17492 .8656 192.448 36.05)"/><rect x="1039" y="31" width="9" height="22" fill="#fcf4ec" rx="0" transform="matrix(.75237 .60411 -.6569 .80169 264.884 -530.77)"/><rect x="1176" y="804" width="7" height="20" fill="#fbf2e6" rx="0" transform="matrix(-.99077 .29277 -.17496 -.95762 2437.93 1186.36)"/><rect x="1586" y="432" width="7" height="9" fill="#fcf4ec" rx="0" transform="matrix(-.94449 .2255 -.34356 -.97675 3269.427 615.567)"/><rect x="1134" y="837" width="9" height="12" fill="#fbeede" rx="0" transform="matrix(.87863 .39097 -.48782 .92107 425.34 -338.82)"/><rect x="464" y="876" width="7" height="13" fill="#fcf4ec" rx="0" transform="matrix(.94623 .86635 -.4917 .60663 624.335 103.106)"/><rect x="355" y="362" width="8" height="19" fill="#fcf4ec" rx="0" transform="matrix(.3925 .97758 -.92507 .24374 576.266 -25.921)"/><rect x="1931" y="205" width="7" height="20" fill="#fbf2e6" rx="0" transform="matrix(.72249 .98083 -.82596 .26281 884.448 -1397.81)"/><rect x="1798" y="61" width="9" height="12" fill="#fbeede" rx="0" transform="matrix(-.26046 .98616 -.9681 -.17389 2314.159 -1604.437)"/><rect x="1149" y="786" width="6" height="12" fill="#e9e2d9" rx="0" transform="matrix(.65249 1.02119 -.85242 .1985 1293.61 -211.287)"/><rect x="586" y="25" width="9" height="16" fill="#e9e2d9" rx="0" transform="matrix(-.77923 .80463 -.65561 -.60633 1076.422 -494.631)"/><rect x="220" y="248" width="8" height="13" fill="#e9e2d9" rx="0" transform="matrix(.29716 1.01185 -.97791 .03533 436.793 54.331)"/><rect x="1280" y="928" width="7" height="11" fill="#fbf2e6" rx="0" transform="matrix(.93475 .4068 -.35873 .91368 482.325 -463.954)"/><rect x="1804" y="929" width="7" height="17" fill="#fbeede" rx="0" transform="matrix(1.07132 .26674 .24929 .9955 9.334 -27.254)"/><rect x="656" y="364" width="6" height="12" fill="#e9e2d9" rx="0" transform="matrix(-.2902 .94913 -.95367 -.32681 1241.45 -192.212)"/><rect x="1068" y="493" width="5" height="9" fill="#fcf4ec" rx="0" transform="matrix(-.32464 .95338 -.94342 -.30977 1909.53 -443.837)"/><rect x="1714" y="588" width="7" height="16" fill="#fbf2e6" rx="0" transform="matrix(.31696 .99146 -.95841 .15703 1855.477 -1350.687)"/><rect x="1643" y="447" width="8" height="12" fill="#e9e2d9" rx="0" transform="matrix(.2859 1.03634 -.93992 .09067 1537.206 -822.656)"/><rect x="1210" y="147" width="8" height="18" fill="#fbeede" rx="0" transform="matrix(-1.09356 -.28982 -.3633 -1.01073 2777.11 1059.97)"/><rect x="1353" y="659" width="5" height="9" fill="#fbf2e6" rx="0" transform="matrix(1.00168 .1908 -.08764 .98163 125.603 -246.451)"/><rect x="1799" y="299" width="5" height="9" fill="#fbeede" rx="0" transform="matrix(-.4363 .92558 -.89521 -.39288 2865.177 -1434.029)"/><rect x="1617" y="626" width="6" height="6" fill="#fcf4ec" rx="0" transform="matrix(-.98818 -.17896 -.01656 -1.01496 3177.146 1961.24)"/><rect x="1508" y="48" width="6" height="13" fill="#fbf2e6" rx="0" transform="matrix(.51798 1 -.95468 .08749 844.653 -1329.073)"/><rect x="1876" y="465" width="5" height="11" fill="#fbeede" rx="0" transform="matrix(-.58779 .67332 -.80902 -.77456 3363.297 3.793)"/><rect x="85" y="45" width="6" height="7" fill="#fbeede" rx="0" transform="matrix(.31056 1 -.95635 .14054 109.18 -33.949)"/><rect x="1498" y="638" width="8" height="10" fill="#fbeede" rx="0" transform="matrix(-.8603 .32736 -.55623 -.95073 3264.384 920.487)"/><rect x="798" y="924" width="9" height="26" fill="#fbeede" rx="0" transform="matrix(.30573 1 -1.04842 -.15838 1864.853 410.01)"/><rect x="712" y="318" width="9" height="13" fill="#fbeede" rx="0" transform="matrix(.25453 1 -.95512 .17633 804.621 -322.88)"/><rect x="305" y="946" width="6" height="12" fill="#e9e2d9" rx="0" transform="matrix(-1.01806 -.08781 -.24824 -1.00368 1068.275 1972.363)"/><rect x="229" y="882" width="8" height="21" fill="#e9e2d9" rx="0" transform="matrix(-.99848 .01748 -.01728 -1.00122 433.659 1794.228)"/><rect x="1644" y="340" width="7" height="8" fill="#fbeede" rx="0" transform="matrix(-.38973 .8851 -.92259 -.47062 2643.192 -1067.52)"/><rect x="1068" y="273" width="5" height="5" fill="#fcf4ec" rx="0" transform="matrix(.2556 .96157 -.96182 .29398 1007.34 -722.341)"/><rect x="1043" y="934" width="8" height="12" fill="#fbeede" rx="0" transform="matrix(-.984 .03516 -.26226 -1.0069 2436.078 1978.224)"/><rect x="1062" y="474" width="7" height="7" fill="#fbeede" rx="0" transform="matrix(-.9938 -.2018 -.1573 -1.03819 2214.23 1555.138)"/><rect x="1636" y="810" width="8" height="14" fill="#fbf2e6" rx="0" transform="matrix(.48516 .90374 -.86988 .44079 1657.13 -1197.635)"/><rect x="1639" y="518" width="9" height="26" fill="#fcf4ec" rx="0" transform="matrix(-.1775 .92955 -1.00045 -.39457 2533.113 -556.221)"/><rect x="1980" y="16" width="8" height="11" fill="#fbf2e6" rx="0" transform="matrix(-.99864 .0872 -.05217 -.9968 3960.084 -60.808)"/><rect x="420" y="892" width="9" height="21" fill="#e9e2d9" rx="0" transform="matrix(1.0413 .56952 -.15238 .877 265.072 -.965)"/><rect x="1299" y="29" width="6" height="9" fill="#fbeede" rx="0" transform="matrix(-.67252 .63405 -.74668 -.78298 2209.383 -605.933)"/><rect x="1526" y="439" width="7" height="19" fill="#fbf2e6" rx="0" transform="matrix(.9532 .24196 -.30985 .97044 168.973 -330.122)"/><rect x="967" y="133" width="8" height="17" fill="#fbf2e6" rx="0" transform="matrix(1.0079 -.05262 -.2294 1.00413 17.825 -51.543)"/><rect x="1808" y="505" width="6" height="9" fill="#fcf4ec" rx="0" transform="matrix(.65334 .85442 -.7297 .57631 898.573 -879.948)"/><rect x="665" y="42" width="9" height="9" fill="#e9e2d9" rx="0" transform="matrix(-.83854 .54472 -.54456 -.8388 1256.832 -290.873)"/><rect x="1245" y="754" width="6" height="6" fill="#e9e2d9" rx="0" transform="matrix(-.9205 .43897 -.39073 -.90003 2692.574 825.078)"/><rect x="690" y="153" width="9" height="12" fill="#fbf2e6" rx="0" transform="matrix(-.49337 .88322 -.85875 -.48957 1181.225 -474.156)"/><rect x="1231" y="587" width="8" height="17" fill="#fbf2e6" rx="0" transform="matrix(1.01028 .1051 .09782 1 71.43 -259.607)"/><rect x="1372" y="85" width="6" height="6" fill="#e9e2d9" rx="0" transform="matrix(-.7507 .5332 -.62607 -.8874 2414.335 -198.637)"/><rect x="1879" y="313" width="8" height="11" fill="#fbeede" rx="0" transform="matrix(1.13178 .72265 -.2118 .74833 114.908 -740.656)"/><rect x="462" y="55" width="5" height="7" fill="#e9e2d9" rx="0" transform="matrix(-.80775 .28675 -.67046 -1 905.862 117)"/><rect x="693" y="356" width="5" height="9" fill="#fcf4ec" rx="0" transform="matrix(-.66756 .60264 -.77348 -.79973 1525.457 193.217)"/><rect x="1110" y="348" width="5" height="7" fill="#e9e2d9" rx="0" transform="matrix(.91284 .94505 -.61293 .46093 477.012 -500.41)"/><rect x="1151" y="530" width="5" height="8" fill="#fcf4ec" rx="0" transform="matrix(-1.05733 -.1769 -.34342 -1.00324 2802.874 1498)"/><rect x="1691" y="578" width="8" height="8" fill="#fcf4ec" rx="0" transform="matrix(-.02652 .92402 -1.07097 -.39222 2586.522 -607.648)"/><rect x="994" y="592" width="5" height="8" fill="#fcf4ec" rx="0" transform="matrix(.50514 .94328 -.87627 .34333 1075.151 -461.42)"/><rect x="676" y="327" width="6" height="12" fill="#fcf4ec" rx="0" transform="matrix(.21117 1.01 -1.00487 -.07063 924.33 -221.728)"/><rect x="346" y="966" width="6" height="13" fill="#e9e2d9" rx="0" transform="matrix(-.8439 .25298 -.56821 -1.01463 1252.67 1977.64)"/><rect x="1720" y="179" width="7" height="7" fill="#fbeede" rx="0" transform="matrix(.62742 1.0252 -.88724 .14408 952.818 -1148.918)"/><rect x="20" y="105" width="7" height="17" fill="#fbeede" rx="0" transform="matrix(.99075 .44166 -.23284 .90554 64.732 -2.544)"/><rect x="1927" y="329" width="5" height="7" fill="#fbeede" rx="0" transform="matrix(.5217 .91562 -.8377 .44658 1139.497 -1207.612)"/><rect x="111" y="454" width="5" height="8" fill="#e9e2d9" rx="0" transform="matrix(.92064 .51764 -.33726 .89658 120.742 19.029)"/><rect x="955" y="536" width="7" height="12" fill="#fbf2e6" rx="0" transform="matrix(-.10374 1.0148 -.98903 .03544 1607.01 -618.91)"/><rect x="1547" y="682" width="7" height="7" fill="#fbf2e6" rx="0" transform="matrix(-.3355 .81965 -.98512 -.57393 2951.12 -246.088)"/><rect x="1600" y="48" width="7" height="11" fill="#fcf4ec" rx="0" transform="matrix(.71135 .9106 -.68749 .52573 479.575 -913.754)"/><rect x="1037" y="878" width="5" height="11" fill="#fcf4ec" rx="0" transform="matrix(.76253 .83756 -.63994 .60852 791.96 -246.234)"/><rect x="41" y="230" width="9" height="17" fill="#fbf2e6" rx="0" transform="matrix(-.3675 .76412 -.98924 -.66424 350.38 369.36)"/><rect x="1387" y="366" width="9" height="13" fill="#fbeede" rx="0" transform="matrix(.05205 1.00536 -.99558 -.01755 1671.814 -873.662)"/><rect x="1412" y="729" width="7" height="9" fill="#fbf2e6" rx="0" transform="matrix(.41175 1.03134 -1.00564 -.09023 1827.209 -280.891)"/><rect x="1595" y="609" width="8" height="14" fill="#fbeede" rx="0" transform="matrix(-.2985 .89976 -.95931 -.45845 2786.85 -765.04)"/><rect x="717" y="74" width="9" height="14" fill="#fcf4ec" rx="0" transform="matrix(.86913 .68712 -.52332 .73685 151.647 -385.853)"/><rect x="1418" y="447" width="8" height="15" fill="#fcf4ec" rx="0" transform="matrix(.62024 .9205 -.82308 .39073 1027.432 -1032.045)"/><rect x="181" y="705" width="5" height="12" fill="#fbf2e6" rx="0" transform="matrix(.9921 .5568 -.26825 .8574 271.004 38.214)"/><rect x="786" y="144" width="6" height="7" fill="#fcf4ec" rx="0" transform="matrix(-.12203 .87971 -1.06341 -.52859 1112.203 -286.473)"/><rect x="1542" y="433" width="7" height="10" fill="#e9e2d9" rx="0" transform="matrix(-.94944 -.01846 -.2165 -1.05746 3022.812 1461.853)"/><rect x="1081" y="946" width="6" height="6" fill="#fcf4ec" rx="0" transform="matrix(-.03867 .9604 -1.02866 -.31205 2256.907 356.408)"/><rect x="801" y="744" width="7" height="15" fill="#e9e2d9" rx="0" transform="matrix(-.0186 .97624 -1.0172 -.37474 1636.162 493.696)"/><rect x="1844" y="957" width="9" height="17" fill="#e9e2d9" rx="0" transform="matrix(.27568 .9563 -.9614 .29237 2250.293 -1084.514)"/><rect x="202" y="924" width="5" height="13" fill="#fbf2e6" rx="0" transform="matrix(.28988 .93073 -.95731 .37604 868.772 408.155)"/><rect x="1423" y="752" width="5" height="9" fill="#fbf2e6" rx="0" transform="matrix(-.48086 .76936 -.86682 -.69273 2726.952 565.793)"/><rect x="1988" y="672" width="9" height="11" fill="#fbeede" rx="0" transform="matrix(.99215 .74136 -.39076 .71592 508.63 -787.915)"/><rect x="1368" y="167" width="5" height="14" fill="#e9e2d9" rx="0" transform="matrix(.845 .811 -.61914 .58922 387.447 -944.155)"/><rect x="504" y="397" width="9" height="17" fill="#fbeede" rx="0" transform="matrix(.5352 .99386 -.90214 .19319 696.641 -97.679)"/><rect x="497" y="681" width="5" height="14" fill="#fbeede" rx="0" transform="matrix(.34896 .85769 -.95624 .51535 876.882 -112.421)"/><rect x="615" y="724" width="6" height="11" fill="#fbf2e6" rx="0" transform="matrix(.97603 .19186 -.1909 .98703 70.573 -44.157)"/><rect x="1008" y="827" width="8" height="12" fill="#fbeede" rx="0" transform="matrix(-.32397 .95469 -.9422 -.3102 2176.767 36.71)"/><rect x="1543" y="166" width="9" height="22" fill="#fcf4ec" rx="0" transform="matrix(-.5211 .82308 -.82227 -.62024 2410.292 -601.106)"/><rect x="960" y="548" width="5" height="13" fill="#fcf4ec" rx="0" transform="matrix(-.96102 .13951 -.3298 -.99269 2146.7 1037.968)"/><rect x="54" y="344" width="8" height="17" fill="#fcf4ec" rx="0" transform="matrix(-.0543 1.01463 -.97204 -.25298 364.881 400.558)"/><rect x="1604" y="491" width="9" height="18" fill="#fcf4ec" rx="0" transform="matrix(1.11892 .48015 .11333 .94235 34.426 -189.643)"/><rect x="515" y="642" width="6" height="7" fill="#fcf4ec" rx="0" transform="matrix(.40648 .88416 -.91489 .47012 815.416 -88.807)"/><rect x="616" y="18" width="6" height="6" fill="#e9e2d9" rx="0" transform="matrix(.68513 .57577 -.75835 .82228 215.492 -406.823)"/><rect x="617" y="657" width="9" height="23" fill="#fbeede" rx="0" transform="matrix(1.02437 .64761 -.32333 .7718 414.57 -173.629)"/><rect x="911" y="428" width="6" height="11" fill="#fcf4ec" rx="0" transform="matrix(1.05281 .29457 .04879 .96349 56.568 -141.18)"/><rect x="1666" y="545" width="6" height="14" fill="#fbf2e6" rx="0" transform="matrix(-.15646 .9848 -.98784 -.17365 2485.051 -995.79)"/><rect x="54" y="533" width="7" height="14" fill="#fbeede" rx="0" transform="matrix(.4679 1.00552 -.85146 .30742 431.666 334.86)"/><rect x="585" y="219" width="6" height="17" fill="#fbeede" rx="0" transform="matrix(.15635 .97496 -.98958 .22509 695.13 -376.453)"/><rect x="1130" y="576" width="9" height="14" fill="#fbeede" rx="0" transform="matrix(-.24838 .88223 -.99008 -.50936 2063.807 99.585)"/><rect x="1164" y="788" width="9" height="25" fill="#fbeede" rx="0" transform="matrix(1.00372 .69731 -.3947 .72209 604.93 -490.11)"/><rect x="1891" y="292" width="8" height="10" fill="#fbeede" rx="0" transform="matrix(.77646 .9806 -.70606 .3962 749.888 -1026.422)"/><rect x="1965" y="873" width="9" height="14" fill="#fbf2e6" rx="0" transform="matrix(-.70646 .60578 -.67841 -.83378 3813.766 911.699)"/><rect x="525" y="126" width="9" height="26" fill="#fbeede" rx="0" transform="matrix(1.01472 .32557 -.1246 .94552 39.07 -164.815)"/><rect x="728" y="378" width="9" height="9" fill="#e9e2d9" rx="0" transform="matrix(.67682 1.01955 -.86149 .17977 710.552 -236.81)"/><rect x="1568" y="494" width="8" height="11" fill="#fbf2e6" rx="0" transform="matrix(-.8716 .2118 -.62078 -.99646 3438.11 969.84)"/><rect x="1370" y="616" width="8" height="15" fill="#fcf4ec" rx="0" transform="matrix(-1.07968 -.23184 -.36323 -1.0042 3416.593 1910.74)"/><rect x="1192" y="483" width="6" height="12" fill="#fbf2e6" rx="0" transform="matrix(.96126 .10614 -.27564 1.00986 181.079 -342.373)"/><rect x="415" y="486" width="5" height="10" fill="#fcf4ec" rx="0" transform="matrix(.07348 .99589 -1.01185 -.10467 991.945 104.731)"/><rect x="1474" y="914" width="8" height="11" fill="#fbeede" rx="0" transform="matrix(.39356 1.0346 -1.00792 -.10874 2108.632 -85.843)"/><rect x="1179" y="450" width="6" height="7" fill="#fbeede" rx="0" transform="matrix(-.3908 .93486 -.91966 -.35886 2015.904 -426.818)"/><rect x="187" y="93" width="5" height="13" fill="#fbf2e6" rx="0" transform="matrix(-.64987 .69988 -.75586 -.72474 404.063 15.718)"/><rect x="1570" y="947" width="8" height="8" fill="#fbeede" rx="0" transform="matrix(-.87248 .21428 -.56215 -1.0081 3646.848 1964.867)"/><rect x="1686" y="685" width="7" height="12" fill="#fcf4ec" rx="0" transform="matrix(-.94376 .20906 -.34336 -.98354 3551.57 1194.995)"/><rect x="1878" y="160" width="5" height="12" fill="#fbeede" rx="0" transform="matrix(-.25378 .86721 -1.0066 -.50069 2585.903 -1283.129)"/><rect x="828" y="129" width="6" height="6" fill="#fbf2e6" rx="0" transform="matrix(-.95468 .08749 -.51798 -1 1763.2 264)"/><rect x="715" y="519" width="5" height="10" fill="#e9e2d9" rx="0" transform="matrix(.28894 .96848 -.9497 .2777 943.49 -228.306)"/><rect x="1456" y="925" width="5" height="14" fill="#e9e2d9" rx="0" transform="matrix(-.53369 .73044 -.85367 -.70537 3074.027 781.24)"/><rect x="51" y="319" width="6" height="15" fill="#fbf2e6" rx="0" transform="matrix(.627 .99386 -.8843 .19319 404.94 218.308)"/><rect x="652" y="34" width="7" height="12" fill="#fbeede" rx="0" transform="matrix(-.03568 1.00598 -.99093 -.08801 706.964 -523.778)"/><rect x="612" y="347" width="9" height="13" fill="#fbf2e6" rx="0" transform="matrix(-.92038 .17407 -.525 -.98721 1483.229 638.274)"/><rect x="1195" y="133" width="7" height="8" fill="#fbeede" rx="0" transform="matrix(.8383 .53024 -.54438 .84857 270.047 -656.601)"/><rect x="1220" y="296" width="8" height="9" fill="#e9e2d9" rx="0" transform="matrix(.00094 1.0069 -.99312 .03516 1534.428 -1092.795)"/><rect x="652" y="314" width="6" height="6" fill="#fbf2e6" rx="0" transform="matrix(1.00911 .73826 -.38005 .71293 222.603 -241.342)"/><rect x="374" y="243" width="6" height="11" fill="#fcf4ec" rx="0" transform="matrix(.86235 .70288 -.49797 .75374 169.66 -109.793)"/><rect x="189" y="967" width="7" height="14" fill="#e9e2d9" rx="0" transform="matrix(.47066 .95481 -.88527 .32877 981.623 497.033)"/><rect x="1684" y="962" width="6" height="10" fill="#e9e2d9" rx="0" transform="matrix(.62932 .6887 -.77715 .73854 1376.837 -1146.1)"/><rect x="1341" y="450" width="9" height="10" fill="#fcf4ec" rx="0" transform="matrix(.51787 .97675 -.90424 .2255 1186.9 -867.732)"/><rect x="248" y="848" width="6" height="11" fill="#fcf4ec" rx="0" transform="matrix(.79577 .50008 -.62139 .86616 477.36 -15.666)"/><rect x="1748" y="837" width="7" height="11" fill="#fbeede" rx="0" transform="matrix(-.85997 .6846 -.5385 -.73415 3638.97 108.7)"/><rect x="1348" y="531" width="9" height="25" fill="#fbeede" rx="0" transform="matrix(-.15585 .984 -.9745 -.26366 2022.37 -381.166)"/><rect x="1892" y="848" width="8" height="23" fill="#fbf2e6" rx="0" transform="matrix(-.57159 .74264 -.81354 -.69252 3839.535 -287.634)"/><rect x="1378" y="904" width="6" height="7" fill="#fbeede" rx="0" transform="matrix(.4369 .8636 -.89542 .5189 1616.016 -925.61)"/><rect x="950" y="307" width="5" height="8" fill="#fbf2e6" rx="0" transform="matrix(.98872 -.01767 -.0506 1.01231 40.491 -137.86)"/><rect x="1837" y="299" width="6" height="11" fill="#fbeede" rx="0" transform="matrix(-.24864 .9761 -.9532 -.27989 2583.867 -1730.722)"/><rect x="287" y="207" width="5" height="11" fill="#fcf4ec" rx="0" transform="matrix(-1.01466 -.1409 -.12283 -1.00261 636.499 512.2)"/><rect x="1467" y="962" width="5" height="14" fill="#fbeede" rx="0" transform="matrix(-.25997 .89763 -.96995 -.49756 2814.239 471.337)"/><rect x="872" y="274" width="6" height="14" fill="#e9e2d9" rx="0" transform="matrix(.95957 .10531 -.36577 1.002 113.766 -200.145)"/><rect x="471" y="544" width="5" height="10" fill="#fbf2e6" rx="0" transform="matrix(.00214 .99695 -1.00328 -.10478 1114.254 101.36)"/><rect x="804" y="779" width="9" height="12" fill="#fcf4ec" rx="0" transform="matrix(-.30067 1.01404 -1.00192 .05314 1724.818 -219.125)"/><rect x="1212" y="261" width="6" height="12" fill="#e9e2d9" rx="0" transform="matrix(.925 .39169 -.37393 .92275 172.529 -370.311)"/><rect x="1302" y="169" width="9" height="19" fill="#e9e2d9" rx="0" transform="matrix(-.42754 .95689 -.91434 -.29255 1988.777 -973.83)"/><rect x="1579" y="417" width="8" height="8" fill="#fbeede" rx="0" transform="matrix(-.43095 .85828 -.87444 -.57892 2529.562 -269.773)"/><rect x="1146" y="708" width="9" height="20" fill="#fbeede" rx="0" transform="matrix(-.09205 1.02158 -.9542 -.27373 1765.058 135.357)"/><rect x="96" y="332" width="6" height="16" fill="#fbeede" rx="0" transform="matrix(1.0938 .6997 -.2144 .7771 162.822 36.782)"/><rect x="583" y="418" width="6" height="11" fill="#fcf4ec" rx="0" transform="matrix(-.08972 .95645 -1.0181 -.29242 1154.052 -2.913)"/></svg>