<svg width="623" height="581" viewBox="0 0 623 581" fill="none" xmlns="http://www.w3.org/2000/svg">
<path d="M619.904 0.000530695C621.205 0.000530738 622.258 1.09299 622.258 2.44302L622.258 257.816C622.258 301.395 614.031 343.672 597.805 383.471C582.136 421.912 559.703 456.435 531.129 486.078C502.559 515.726 469.285 539 432.236 555.258C393.877 572.094 353.13 580.629 311.129 580.629C309.828 580.629 308.775 579.537 308.775 578.187C308.775 576.837 309.828 575.744 311.129 575.744C352.497 575.744 392.623 567.338 430.4 550.76C466.888 534.75 499.661 511.822 527.803 482.628C555.941 453.429 578.04 419.425 593.47 381.566C609.447 342.375 617.55 300.738 617.55 257.816L617.55 2.44302C617.55 1.09299 618.603 0.000530653 619.904 0.000530695Z" fill="#BFD4BF"/>
<path d="M589.027 0.000467872C590.328 0.000467914 591.381 1.09293 591.381 2.44296L591.381 257.816C591.381 297.069 583.972 335.15 569.355 371.001C555.239 405.627 535.033 436.722 509.296 463.425C483.559 490.128 453.59 511.094 420.217 525.74C385.664 540.901 348.961 548.592 311.129 548.592C309.828 548.592 308.775 547.5 308.775 546.15C308.775 544.8 309.828 543.708 311.129 543.708C348.328 543.708 384.414 536.149 418.381 521.241C451.193 506.844 480.662 486.229 505.966 459.97C531.27 433.716 551.139 403.14 565.019 369.096C579.388 333.853 586.673 296.412 586.673 257.816L586.673 2.44296C586.673 1.09293 587.726 0.000467829 589.027 0.000467872Z" fill="#BFD4BF"/>
<path d="M558.15 0.000370382C559.451 0.000370425 560.504 1.09283 560.504 2.44286L560.504 257.816C560.504 292.744 553.908 326.628 540.905 358.531C528.347 389.342 510.366 417.013 487.463 440.772C464.56 464.535 437.895 483.187 408.199 496.221C377.454 509.712 344.797 516.556 311.129 516.556C309.828 516.556 308.775 515.463 308.775 514.113C308.775 512.763 309.828 511.671 311.129 511.671C344.159 511.671 376.2 504.961 406.363 491.722C435.498 478.937 461.662 460.632 484.133 437.317C506.604 414.002 524.247 386.855 536.569 356.626C549.328 325.331 555.796 292.087 555.796 257.816L555.796 2.44286C555.796 1.09283 556.849 0.000370339 558.15 0.000370382Z" fill="#BFD4BF"/>
<path d="M527.272 0.00033623C528.573 0.000336273 529.626 1.0928 529.626 2.44283L529.626 257.816C529.626 288.418 523.848 318.11 512.454 346.061C501.45 373.057 485.694 397.3 465.629 418.119C445.564 438.938 422.198 455.285 396.179 466.702C369.24 478.524 340.627 484.519 311.128 484.519C309.827 484.519 308.774 483.427 308.774 482.077C308.774 480.727 309.827 479.634 311.128 479.634C339.989 479.634 367.99 473.768 394.343 462.204C419.801 451.031 442.666 435.039 462.299 414.664C481.932 394.294 497.349 370.57 508.118 344.156C519.264 316.809 524.918 287.761 524.918 257.816L524.918 2.44283C524.918 1.0928 525.971 0.000336187 527.272 0.00033623Z" fill="#BFD4BF"/>
<path d="M496.395 5.9459e-05C497.696 5.95017e-05 498.749 1.09252 498.749 2.44255L498.749 257.816C498.749 284.093 493.788 309.588 484.004 333.586C474.553 356.768 461.028 377.587 443.796 395.461C426.568 413.336 406.503 427.374 384.161 437.179C361.031 447.331 336.458 452.478 311.133 452.478C309.831 452.478 308.779 451.386 308.779 450.036C308.779 448.685 309.831 447.593 311.133 447.593C335.825 447.593 359.781 442.575 382.329 432.681C404.11 423.124 423.671 409.437 440.47 392.006C457.27 374.576 470.457 354.281 479.672 331.681C489.209 308.287 494.045 283.431 494.045 257.812L494.045 2.4381C494.041 1.09251 495.094 5.94163e-05 496.395 5.9459e-05Z" fill="#BFD4BF"/>
<path d="M465.518 0.000699041C466.819 0.000699083 467.872 1.09316 467.872 2.44319L467.872 257.817C467.872 279.768 463.729 301.066 455.554 321.117C447.661 340.484 436.357 357.874 421.963 372.809C407.569 387.744 390.808 399.468 372.142 407.661C352.817 416.143 332.29 420.442 311.133 420.442C309.832 420.442 308.779 419.349 308.779 417.999C308.779 416.649 309.832 415.557 311.133 415.557C351.743 415.557 389.922 399.148 418.637 369.354C447.349 339.564 463.164 299.952 463.164 257.817L463.164 2.44319C463.164 1.09316 464.217 0.000698998 465.518 0.000699041Z" fill="#BFD4BF"/>
<path d="M434.641 0.000566112C435.942 0.000566154 436.995 1.09303 436.995 2.44306L436.995 257.816C436.995 259.166 435.942 260.259 434.641 260.259C433.34 260.259 432.287 259.166 432.287 257.816L432.287 2.44306C432.287 1.09303 433.34 0.000566069 434.641 0.000566112Z" fill="#BFD4BF"/>
<path d="M2.35471 0.000521315C3.65588 0.000521355 4.70879 1.09298 4.70879 2.44301L4.70874 257.816C4.70873 300.738 12.811 342.375 28.7888 381.566C44.2231 419.425 66.3172 453.424 94.4593 482.623C122.601 511.822 155.37 534.746 191.858 550.76C229.635 567.338 269.762 575.744 311.129 575.744C312.43 575.744 313.483 576.837 313.483 578.187C313.483 579.537 312.43 580.629 311.129 580.629C269.128 580.629 228.381 572.094 190.022 555.258C152.973 539 119.699 515.726 91.1293 486.078C62.555 456.431 40.1227 421.912 24.4531 383.471C8.22701 343.672 0.000553643 301.395 0.000563568 257.816L0.000621734 2.44301C0.000622042 1.09298 1.05782 0.000521276 2.35471 0.000521315Z" fill="#BFD4BF"/>
<path d="M33.2357 0.000459011C34.5368 0.000459053 35.5898 1.09292 35.5898 2.44295L35.5897 257.816C35.5897 296.412 42.8745 333.853 57.243 369.096C71.1193 403.14 90.9877 433.716 116.296 459.97C141.601 486.225 171.069 506.839 203.881 521.241C237.848 536.149 273.934 543.708 311.133 543.708C312.434 543.708 313.487 544.8 313.487 546.15C313.487 547.5 312.434 548.592 311.133 548.592C273.301 548.592 236.599 540.905 202.045 525.74C168.673 511.094 138.703 490.128 112.966 463.425C87.2297 436.722 67.0232 405.627 52.9072 371.001C38.2948 335.15 30.8815 297.069 30.8815 257.816L30.8816 2.44295C30.8816 1.09292 31.9345 0.00045897 33.2357 0.000459011Z" fill="#BFD4BF"/>
<path d="M64.1127 0.000362506C65.4138 0.000362548 66.4668 1.09282 66.4668 2.44285L66.4667 257.816C66.4667 292.087 72.934 325.331 85.6932 356.626C98.0157 386.855 115.659 414.002 138.129 437.317C160.6 460.632 186.765 478.937 215.9 491.722C246.062 504.961 278.103 511.671 311.133 511.671C312.434 511.671 313.487 512.763 313.487 514.113C313.487 515.463 312.434 516.556 311.133 516.556C277.47 516.556 244.812 509.712 214.064 496.221C184.368 483.191 157.698 464.535 134.799 440.772C111.896 417.013 93.9196 389.342 81.3574 358.531C68.3543 326.632 61.7585 292.748 61.7585 257.816L61.7586 2.44285C61.7586 1.09282 62.8115 0.000362465 64.1127 0.000362506Z" fill="#BFD4BF"/>
<path d="M94.9898 -6.35451e-06C96.291 -6.31301e-06 97.3439 1.09245 97.3439 2.44248L97.3438 257.816C97.3438 287.761 102.998 316.813 114.143 344.156C124.912 370.57 140.325 394.293 159.962 414.664C179.596 435.034 202.46 451.03 227.918 462.203C254.276 473.768 282.272 479.634 311.133 479.634C312.434 479.634 313.487 480.726 313.487 482.076C313.487 483.426 312.434 484.519 311.133 484.519C281.639 484.519 253.022 478.524 226.082 466.702C200.063 455.285 176.698 438.938 156.632 418.119C136.567 397.3 120.812 373.057 109.808 346.061C98.4138 318.11 92.6356 288.423 92.6356 257.816L92.6357 2.44248C92.6357 1.09245 93.6886 -6.396e-06 94.9898 -6.35451e-06Z" fill="#BFD4BF"/>
<path d="M125.867 0.000277818C127.168 0.000277859 128.221 1.09274 128.221 2.44277L128.221 257.816C128.221 283.436 133.057 308.291 142.594 331.686C151.804 354.286 164.996 374.581 181.795 392.011C198.595 409.442 218.155 423.124 239.937 432.685C262.485 442.58 286.441 447.598 311.133 447.598C312.434 447.598 313.487 448.69 313.487 450.04C313.487 451.39 312.434 452.483 311.133 452.483C285.808 452.483 261.235 447.336 238.105 437.184C215.763 427.378 195.697 413.345 178.47 395.466C161.242 377.587 147.713 356.773 138.262 333.591C128.478 309.593 123.517 284.097 123.517 257.821L123.517 2.44721C123.513 1.09274 124.566 0.000277776 125.867 0.000277818Z" fill="#BFD4BF"/>
<path d="M156.744 5.03769e-05C158.045 5.04184e-05 159.098 1.09251 159.098 2.44254L159.098 257.816C159.098 299.951 174.913 339.564 203.629 369.358C232.34 399.152 270.519 415.561 311.129 415.561C312.43 415.561 313.483 416.653 313.483 418.003C313.483 419.354 312.43 420.446 311.129 420.446C289.973 420.446 269.445 416.147 250.12 407.665C231.454 399.476 214.693 387.748 200.299 372.813C185.905 357.878 174.605 340.488 166.708 321.121C158.533 301.07 154.39 279.772 154.39 257.82L154.39 2.44699C154.39 1.09251 155.443 5.03354e-05 156.744 5.03769e-05Z" fill="#BFD4BF"/>
<path d="M187.622 0.000207532C188.923 0.000207574 189.976 1.09267 189.976 2.4427L189.976 257.816C189.976 259.166 188.923 260.259 187.622 260.259C186.32 260.259 185.267 259.166 185.267 257.816L185.267 2.4427C185.267 1.09267 186.32 0.000207491 187.622 0.000207532Z" fill="#BFD4BF"/>
<path d="M218.499 1.79218e-05C219.8 1.79373e-05 220.853 1.09248 220.853 2.44251L220.853 171.01C220.853 172.36 219.8 173.452 218.498 173.452C217.197 173.452 216.144 172.36 216.144 171.01L216.144 2.44251C216.144 1.09248 217.197 1.79063e-05 218.499 1.79218e-05Z" fill="#BFD4BF"/>
<path d="M249.375 0.000600692C250.677 0.000600707 251.73 1.09306 251.73 2.44309L251.729 145.293C251.729 146.643 250.677 147.736 249.375 147.736C248.074 147.736 247.021 146.643 247.021 145.293L247.021 2.44309C247.021 1.09306 248.074 0.000600676 249.375 0.000600692Z" fill="#BFD4BF"/>
<path d="M280.252 0.00075649C281.554 0.000756505 282.606 1.09322 282.606 2.44325L282.606 132.437C282.606 133.787 281.554 134.879 280.252 134.879C278.951 134.879 277.898 133.787 277.898 132.437L277.898 2.44325C277.898 1.09322 278.951 0.000756474 280.252 0.00075649Z" fill="#BFD4BF"/>
<path d="M311.129 0.000520976C312.431 0.000520991 313.483 1.09298 313.483 2.44301L313.483 128.342C313.483 129.692 312.43 130.785 311.129 130.785C309.828 130.785 308.775 129.692 308.775 128.342L308.775 2.44301C308.775 1.09298 309.832 0.000520961 311.129 0.000520976Z" fill="#BFD4BF"/>
<path d="M342.006 0.000709178C343.307 0.000709193 344.36 1.09317 344.36 2.4432L344.36 133.694C344.36 135.044 343.307 136.136 342.006 136.136C340.705 136.136 339.652 135.044 339.652 133.694L339.652 2.4432C339.652 1.09317 340.709 0.000709162 342.006 0.000709178Z" fill="#BFD4BF"/>
<path d="M372.883 0.000235363C374.184 0.000235379 375.237 1.09269 375.237 2.44273L375.237 146.945C375.237 148.295 374.184 149.387 372.883 149.387C371.582 149.387 370.529 148.295 370.529 146.945L370.529 2.44273C370.529 1.09269 371.586 0.000235348 372.883 0.000235363Z" fill="#BFD4BF"/>
<path d="M403.765 0.000698868C405.066 0.000698883 406.119 1.09316 406.119 2.44319L406.119 170.331C406.119 171.681 405.066 172.774 403.765 172.774C402.464 172.774 401.411 171.681 401.411 170.331L401.411 2.44763C401.411 1.09316 402.464 0.000698852 403.765 0.000698868Z" fill="#BFD4BF"/>
<path d="M311.129 127.227C344.75 127.227 376.354 140.812 400.126 165.476C423.898 190.141 436.991 222.937 436.991 257.816C436.991 292.695 423.898 325.491 400.126 350.155C376.354 374.82 344.745 388.405 311.129 388.405C277.508 388.405 245.904 374.82 222.132 350.155C198.36 325.491 185.267 292.695 185.267 257.816C185.267 222.937 198.36 190.141 222.132 165.476C245.904 140.812 277.513 127.227 311.129 127.227ZM311.129 383.524C343.491 383.524 373.915 370.45 396.801 346.705C419.682 322.964 432.287 291.393 432.287 257.816C432.287 224.238 419.687 192.672 396.801 168.927C373.919 145.186 343.491 132.108 311.129 132.108C278.767 132.108 248.343 145.182 225.457 168.927C202.576 192.668 189.971 224.238 189.971 257.816C189.971 291.393 202.571 322.959 225.457 346.705C248.343 370.446 278.767 383.524 311.129 383.524Z" fill="#BFD4BF"/>
<path d="M311.129 127.227C321.77 127.227 332.337 128.609 342.55 131.331C343.59 131.606 344.317 132.583 344.317 133.698C344.317 134.812 343.59 135.785 342.55 136.065C316.997 142.877 293.893 158.554 277.491 180.198C260.58 202.518 251.643 229.359 251.643 257.821C251.643 286.278 260.58 313.119 277.491 335.443C293.893 357.092 316.997 372.764 342.55 379.577C343.59 379.852 344.317 380.829 344.317 381.944C344.317 383.058 343.59 384.031 342.55 384.311C332.342 387.033 321.77 388.414 311.129 388.414C309.828 388.414 308.775 387.322 308.775 385.972C308.775 384.621 309.828 383.529 311.129 383.529C318.324 383.529 325.485 382.872 332.517 381.575C309.515 373.488 288.911 358.42 273.789 338.463C265.259 327.205 258.62 314.677 254.053 301.23C249.328 287.317 246.931 272.711 246.931 257.825C246.931 242.939 249.328 228.333 254.053 214.42C258.62 200.973 265.259 188.445 273.789 177.188C288.907 157.23 309.516 142.162 332.517 134.075C325.485 132.779 318.324 132.121 311.129 132.121C309.828 132.121 308.775 131.029 308.775 129.679C308.775 128.32 309.832 127.227 311.129 127.227Z" fill="#BFD4BF"/>
</svg>
