<svg width="512" height="512" viewBox="0 0 512 512" fill="none" xmlns="http://www.w3.org/2000/svg">
<path d="M509.844 258.152C508.654 258.152 507.692 257.19 507.692 256C507.692 222.02 501.036 189.056 487.912 158.03C475.234 128.061 457.085 101.143 433.972 78.0251C410.858 54.9072 383.94 36.7587 353.967 24.0845C322.941 10.9603 289.978 4.3043 255.998 4.3043C222.018 4.3043 189.059 10.9603 158.029 24.0845C128.06 36.7626 101.138 54.9111 78.0246 78.0251C54.9068 101.139 36.7584 128.057 24.0843 158.03C10.9602 189.06 4.30426 222.02 4.30426 256C4.30426 257.19 3.34167 258.152 2.15213 258.152C0.96259 258.152 0 257.19 0 256C0 221.44 6.76943 187.914 20.1205 156.352C33.0137 125.865 51.4712 98.4901 74.9803 74.9808C98.4894 51.4715 125.868 33.014 156.35 20.1206C187.912 6.76948 221.439 0 255.998 0C290.557 0 324.084 6.76948 355.646 20.1206C386.132 33.014 413.507 51.4716 437.016 74.9847C460.525 98.494 478.982 125.873 491.88 156.355C505.231 187.918 512 221.444 512 256.004C511.996 257.19 511.034 258.152 509.844 258.152Z" fill="#BFD4BF"/>
<path d="M255.998 512C221.439 512 187.912 505.231 156.35 491.879C125.864 478.986 98.4893 460.528 74.9803 437.015C51.4712 413.506 33.0137 386.127 20.1205 355.645C6.76943 324.086 0 290.56 0 256C0 254.81 0.96259 253.848 2.15213 253.848C3.34167 253.848 4.30426 254.81 4.30426 256C4.30426 289.981 10.9602 322.944 24.0843 353.97C36.7623 383.939 54.9106 410.857 78.0245 433.975C101.142 457.093 128.06 475.241 158.029 487.916C189.059 501.04 222.022 507.696 255.998 507.696C289.974 507.696 322.941 501.04 353.967 487.916C383.936 475.237 410.854 457.089 433.971 433.975C457.089 410.861 475.238 383.939 487.912 353.97C501.036 322.94 507.692 289.977 507.692 256C507.692 254.81 508.654 253.848 509.844 253.848C511.033 253.848 511.996 254.81 511.996 256C511.996 290.56 505.227 324.086 491.875 355.648C478.982 386.135 460.525 413.51 437.012 437.019C413.503 460.528 386.124 478.986 355.642 491.883C324.084 505.231 290.557 512 255.998 512Z" fill="#BFD4BF"/>
<path d="M484.461 258.152C483.271 258.152 482.309 257.19 482.309 256C482.309 225.447 476.326 195.81 464.524 167.911C453.126 140.962 436.809 116.76 416.023 95.9741C395.237 75.1883 371.036 58.8711 344.087 47.4725C316.188 35.6709 286.551 29.688 255.998 29.688C225.446 29.688 195.809 35.6709 167.91 47.4725C140.961 58.8711 116.759 75.1883 95.9737 95.9741C75.188 116.76 58.871 140.962 47.4725 167.911C35.671 195.81 29.6881 225.447 29.6881 256C29.6881 257.19 28.7255 258.152 27.5359 258.152C26.3464 258.152 25.3838 257.19 25.3838 256C25.3838 224.868 31.4802 194.668 43.5087 166.232C55.1223 138.771 71.7524 114.107 92.9294 92.9298C114.106 71.7527 138.77 55.1224 166.231 43.5087C194.663 31.484 224.867 25.3837 255.998 25.3837C287.13 25.3837 317.33 31.4801 345.766 43.5087C373.227 55.1224 397.89 71.7527 419.067 92.9298C440.244 114.107 456.874 138.771 468.488 166.232C480.513 194.664 486.613 224.868 486.613 256C486.613 257.19 485.65 258.152 484.461 258.152Z" fill="#BFD4BF"/>
<path d="M255.998 486.616C224.867 486.616 194.667 480.52 166.231 468.491C138.77 456.877 114.106 440.247 92.9294 419.07C71.7524 397.893 55.1223 373.229 43.5087 345.768C31.4841 317.336 25.3838 287.132 25.3838 256C25.3838 254.81 26.3464 253.848 27.5359 253.848C28.7255 253.848 29.6881 254.81 29.6881 256C29.6881 286.552 35.671 316.19 47.4725 344.089C58.871 371.038 75.188 395.24 95.9737 416.026C116.759 436.812 140.961 453.129 167.91 464.527C195.809 476.329 225.446 482.312 255.998 482.312C286.551 482.312 316.188 476.329 344.087 464.527C371.036 453.129 395.237 436.812 416.023 416.026C436.809 395.24 453.126 371.038 464.524 344.089C476.326 316.19 482.309 286.552 482.309 256C482.309 254.81 483.271 253.848 484.461 253.848C485.65 253.848 486.613 254.81 486.613 256C486.613 287.132 480.517 317.332 468.488 345.768C456.874 373.229 440.244 397.893 419.067 419.07C397.89 440.247 373.227 456.877 345.766 468.491C317.334 480.52 287.13 486.616 255.998 486.616Z" fill="#BFD4BF"/>
<path d="M459.078 258.152C457.888 258.152 456.926 257.19 456.926 256C456.926 228.875 451.612 202.56 441.137 177.791C431.018 153.867 416.528 132.377 398.075 113.923C379.621 95.4694 358.135 80.9835 334.207 70.8606C309.438 60.3855 283.123 55.0716 255.999 55.0716C228.874 55.0716 202.559 60.3855 177.79 70.8606C153.866 80.9796 132.376 95.4694 113.923 113.923C95.4692 132.377 80.9834 153.863 70.8605 177.791C60.3855 202.56 55.0717 228.875 55.0717 256C55.0717 257.19 54.1091 258.152 52.9196 258.152C51.73 258.152 50.7675 257.19 50.7675 256C50.7675 228.296 56.1947 201.418 66.8967 176.112C77.2348 151.672 92.0297 129.724 110.878 110.879C129.727 92.0299 151.675 77.2348 176.112 66.8967C201.417 56.1947 228.291 50.7673 255.999 50.7673C283.706 50.7673 310.581 56.1947 335.882 66.8967C360.322 77.2348 382.27 92.0299 401.115 110.879C419.964 129.728 434.759 151.676 445.097 176.112C455.799 201.418 461.226 228.292 461.226 256C461.23 257.19 460.263 258.152 459.078 258.152Z" fill="#BFD4BF"/>
<path d="M433.69 258.152C432.5 258.152 431.538 257.19 431.538 256C431.538 232.303 426.897 209.314 417.745 187.671C408.905 166.768 396.247 147.993 380.125 131.872C364.004 115.75 345.229 103.092 324.326 94.2524C302.688 85.0999 279.699 80.4591 255.998 80.4591C232.301 80.4591 209.313 85.0999 187.67 94.2524C166.767 103.092 147.992 115.75 131.871 131.872C115.75 147.993 103.091 166.768 94.2518 187.671C85.0993 209.31 80.4586 232.299 80.4586 256C80.4586 257.19 79.496 258.152 78.3064 258.152C77.1169 258.152 76.1543 257.19 76.1543 256C76.1543 231.724 80.9086 208.168 90.2879 185.996C99.3465 164.581 112.314 145.348 128.831 128.832C145.347 112.315 164.58 99.3471 185.995 90.2885C208.17 80.9091 231.722 76.1548 255.998 76.1548C280.274 76.1548 303.83 80.9091 326.001 90.2885C347.417 99.3471 366.649 112.315 383.166 128.832C399.682 145.348 412.65 164.581 421.708 185.996C431.088 208.171 435.842 231.724 435.842 256C435.842 257.19 434.879 258.152 433.69 258.152Z" fill="#BFD4BF"/>
<path d="M408.306 258.152C407.116 258.152 406.154 257.19 406.154 256C406.154 235.727 402.182 216.064 394.356 197.552C386.792 179.673 375.965 163.614 362.176 149.821C348.387 136.032 332.328 125.204 314.446 117.64C295.933 109.811 276.271 105.843 255.998 105.843C235.725 105.843 216.062 109.814 197.55 117.64C179.671 125.204 163.613 136.032 149.819 149.821C136.03 163.61 125.203 179.669 117.639 197.552C109.809 216.064 105.841 235.727 105.841 256C105.841 257.19 104.879 258.152 103.689 258.152C102.5 258.152 101.537 257.19 101.537 256C101.537 235.148 105.622 214.921 113.675 195.877C121.454 177.482 132.591 160.965 146.775 146.78C160.96 132.596 177.476 121.46 195.871 113.68C214.915 105.628 235.142 101.542 255.994 101.542C276.846 101.542 297.072 105.628 316.116 113.68C334.511 121.46 351.028 132.596 365.212 146.78C379.397 160.965 390.533 177.482 398.312 195.877C406.369 214.921 410.45 235.152 410.45 256C410.458 257.19 409.495 258.152 408.306 258.152Z" fill="#BFD4BF"/>
<path d="M382.922 258.152C381.732 258.152 380.77 257.19 380.77 256C380.77 222.673 367.79 191.338 344.227 167.774C320.659 144.206 289.328 131.23 256.001 131.23C222.674 131.23 191.339 144.21 167.775 167.774C144.207 191.342 131.232 222.673 131.232 256C131.232 257.19 130.269 258.152 129.08 258.152C127.89 258.152 126.928 257.19 126.928 256C126.928 221.523 140.353 189.107 164.735 164.729C189.113 140.351 221.528 126.922 256.005 126.922C290.482 126.922 322.897 140.347 347.275 164.729C371.652 189.107 385.082 221.523 385.082 256C385.074 257.19 384.107 258.152 382.922 258.152Z" fill="#BFD4BF"/>
<path d="M357.535 258.152C356.345 258.152 355.383 257.19 355.383 256C355.383 229.454 345.045 204.493 326.274 185.723C307.504 166.952 282.543 156.614 255.997 156.614C229.452 156.614 204.491 166.952 185.72 185.723C166.95 204.493 156.612 229.454 156.612 256C156.612 257.19 155.649 258.152 154.46 258.152C153.27 258.152 152.308 257.19 152.308 256C152.308 228.304 163.092 202.263 182.676 182.678C202.261 163.094 228.301 152.31 255.997 152.31C283.693 152.31 309.734 163.094 329.318 182.678C348.903 202.263 359.687 228.304 359.687 256C359.687 257.19 358.724 258.152 357.535 258.152Z" fill="#BFD4BF"/>
<path d="M420.969 299.571C409.649 299.571 399.021 294.606 391.043 285.59C383.894 277.51 374.413 273.061 364.341 273.061C354.273 273.061 344.788 277.51 337.639 285.59C329.66 294.606 319.036 299.571 307.712 299.571C296.392 299.571 285.764 294.606 277.786 285.59C270.637 277.51 261.156 273.061 251.084 273.061C241.012 273.061 231.531 277.51 224.382 285.59C216.403 294.606 205.776 299.571 194.455 299.571C183.135 299.571 172.508 294.606 164.529 285.59C157.38 277.51 147.899 273.061 137.827 273.061C127.755 273.061 118.274 277.51 111.125 285.59C103.146 294.606 92.5187 299.571 81.1985 299.571C69.8783 299.571 59.2507 294.606 51.2722 285.59C44.9293 278.421 36.5399 274.023 27.6457 273.202C26.464 273.092 25.5914 272.043 25.7009 270.862C25.8105 269.68 26.8592 268.807 28.0409 268.917C38.0268 269.836 47.4218 274.747 54.4965 282.737C61.6454 290.818 71.1266 295.267 81.1985 295.267C91.2666 295.267 100.752 290.818 107.901 282.737C115.879 273.722 126.507 268.756 137.827 268.756C149.147 268.756 159.775 273.722 167.753 282.737C174.902 290.818 184.383 295.267 194.455 295.267C204.523 295.267 214.009 290.818 221.158 282.737C229.136 273.722 239.76 268.756 251.084 268.756C262.404 268.756 273.032 273.722 281.01 282.737C288.159 290.818 297.64 295.267 307.712 295.267C317.784 295.267 327.265 290.818 334.414 282.737C342.393 273.722 353.021 268.756 364.341 268.756C375.661 268.756 386.289 273.722 394.267 282.737C401.416 290.818 410.897 295.267 420.969 295.267C431.037 295.267 440.522 290.818 447.671 282.737C457.195 271.973 470.863 266.968 484.222 269.343C485.392 269.551 486.171 270.67 485.964 271.84C485.756 273.01 484.637 273.788 483.467 273.581C471.591 271.472 459.414 275.96 450.892 285.59C442.917 294.606 432.289 299.571 420.969 299.571Z" fill="#BFD4BF"/>
<path d="M420.969 299.571C409.649 299.571 399.021 294.606 391.043 285.59C383.894 277.51 374.413 273.061 364.341 273.061C354.273 273.061 344.788 277.51 337.639 285.59C329.66 294.606 319.036 299.571 307.712 299.571C296.392 299.571 285.764 294.606 277.786 285.59C270.637 277.51 261.156 273.061 251.084 273.061C241.012 273.061 231.531 277.51 224.382 285.59C216.403 294.606 205.776 299.571 194.455 299.571C183.135 299.571 172.508 294.606 164.529 285.59C157.38 277.51 147.899 273.061 137.827 273.061C127.755 273.061 118.274 277.51 111.125 285.59C103.146 294.606 92.5187 299.571 81.1985 299.571C69.8783 299.571 59.2507 294.606 51.2722 285.59C44.9293 278.421 36.5399 274.023 27.6457 273.202C26.464 273.092 25.5914 272.043 25.7009 270.862C25.8105 269.68 26.8592 268.807 28.0409 268.917C38.0268 269.836 47.4218 274.747 54.4965 282.737C61.6454 290.818 71.1266 295.267 81.1985 295.267C91.2666 295.267 100.752 290.818 107.901 282.737C115.879 273.722 126.507 268.756 137.827 268.756C149.147 268.756 159.775 273.722 167.753 282.737C174.902 290.818 184.383 295.267 194.455 295.267C204.523 295.267 214.009 290.818 221.158 282.737C229.136 273.722 239.76 268.756 251.084 268.756C262.404 268.756 273.032 273.722 281.01 282.737C288.159 290.818 297.64 295.267 307.712 295.267C317.784 295.267 327.265 290.818 334.414 282.737C342.393 273.722 353.021 268.756 364.341 268.756C375.661 268.756 386.289 273.722 394.267 282.737C401.416 290.818 410.897 295.267 420.969 295.267C431.037 295.267 440.522 290.818 447.671 282.737C457.195 271.973 470.863 266.968 484.222 269.343C485.392 269.551 486.171 270.67 485.964 271.84C485.756 273.01 484.637 273.788 483.467 273.581C471.591 271.472 459.414 275.96 450.892 285.59C442.917 294.606 432.289 299.571 420.969 299.571Z" fill="#BFD4BF"/>
<path d="M420.968 357.061C409.648 357.061 399.02 352.095 391.042 343.08C383.893 334.999 374.412 330.55 364.34 330.55C354.268 330.55 344.787 334.999 337.638 343.08C329.659 352.095 319.035 357.061 307.711 357.061C296.391 357.061 285.764 352.095 277.785 343.08C270.636 334.999 261.155 330.55 251.083 330.55C241.011 330.55 231.53 334.999 224.381 343.08C216.402 352.095 205.775 357.061 194.454 357.061C183.134 357.061 172.507 352.095 164.528 343.08C157.379 334.999 147.898 330.55 137.826 330.55C127.758 330.55 118.273 334.999 111.124 343.08C103.145 352.095 92.5177 357.061 81.1975 357.061C69.8773 357.061 59.2497 352.095 51.2712 343.08C47.8317 339.194 43.8483 336.138 39.4344 333.998C38.3662 333.477 37.9162 332.19 38.4366 331.122C38.9531 330.053 40.2444 329.603 41.3127 330.124C46.243 332.515 50.6803 335.915 54.4955 340.227C61.6444 348.308 71.1256 352.757 81.1975 352.757C91.2695 352.757 100.751 348.308 107.9 340.227C115.878 331.212 126.506 326.246 137.826 326.246C149.146 326.246 159.774 331.212 167.752 340.227C174.901 348.308 184.382 352.757 194.454 352.757C204.526 352.757 214.008 348.308 221.157 340.227C229.135 331.212 239.759 326.246 251.083 326.246C262.403 326.246 273.031 331.212 281.009 340.227C288.158 348.308 297.639 352.757 307.711 352.757C317.783 352.757 327.264 348.308 334.413 340.227C342.392 331.212 353.02 326.246 364.34 326.246C375.66 326.246 386.288 331.212 394.266 340.227C401.415 348.308 410.896 352.757 420.968 352.757C431.036 352.757 440.521 348.308 447.67 340.227C454.217 332.828 462.528 328.152 471.704 326.708C472.878 326.524 473.981 327.326 474.165 328.5C474.349 329.674 473.547 330.777 472.373 330.961C464.195 332.249 456.768 336.439 450.895 343.08C442.916 352.095 432.288 357.061 420.968 357.061Z" fill="#BFD4BF"/>
<path d="M307.719 414.551C296.399 414.551 285.772 409.585 277.793 400.57C270.644 392.489 261.163 388.04 251.091 388.04C241.019 388.04 231.538 392.489 224.389 400.57C216.41 409.585 205.783 414.551 194.463 414.551C183.142 414.551 172.515 409.585 164.536 400.57C157.387 392.489 147.906 388.04 137.834 388.04C127.766 388.04 118.281 392.489 111.132 400.57C105.196 407.276 97.7144 411.796 89.4894 413.635C88.3311 413.893 87.1807 413.165 86.9186 412.003C86.6603 410.845 87.3881 409.695 88.5503 409.432C95.8871 407.793 102.578 403.739 107.912 397.717C115.89 388.701 126.518 383.736 137.838 383.736C149.158 383.736 159.786 388.701 167.764 397.717C174.913 405.797 184.394 410.246 194.466 410.246C204.538 410.246 214.02 405.797 221.169 397.717C229.147 388.701 239.771 383.736 251.095 383.736C262.415 383.736 273.043 388.701 281.021 397.717C288.17 405.797 297.651 410.246 307.723 410.246C317.795 410.246 327.276 405.797 334.425 397.717C342.404 388.701 353.032 383.736 364.352 383.736C375.672 383.736 386.3 388.701 394.278 397.717C401.865 406.294 412.344 410.829 423.027 410.184C424.224 410.098 425.234 411.013 425.308 412.199C425.382 413.385 424.478 414.406 423.293 414.48C411.284 415.216 399.529 410.145 391.058 400.57C383.909 392.489 374.428 388.04 364.356 388.04C354.288 388.04 344.803 392.489 337.654 400.57C329.667 409.585 319.04 414.551 307.719 414.551Z" fill="#BFD4BF"/>
<path d="M317.529 468.817C306.725 468.817 295.921 464.731 287.7 456.557C272.925 441.875 248.884 441.875 234.108 456.557C217.662 472.902 190.897 472.902 174.447 456.557C163.655 445.832 147.538 442.584 133.389 448.285C132.285 448.731 131.033 448.195 130.587 447.091C130.141 445.988 130.677 444.736 131.78 444.29C147.526 437.943 165.467 441.558 177.48 453.501C192.255 468.183 216.296 468.183 231.072 453.501C247.522 437.156 274.283 437.156 290.733 453.501C305.508 468.183 329.549 468.183 344.325 453.501C354.992 442.901 370.671 438.761 385.239 442.689C386.385 442.998 387.066 444.18 386.757 445.327C386.448 446.473 385.262 447.15 384.12 446.845C371.027 443.315 356.94 447.033 347.361 456.553C339.136 464.727 328.333 468.817 317.529 468.817Z" fill="#BFD4BF"/>
</svg>
