<svg width="48" height="48" viewBox="0 0 48 48" fill="none" xmlns="http://www.w3.org/2000/svg">
<rect width="48" height="48" rx="24" fill="url(#paint0_linear_2017_44)"/>
<path fill-rule="evenodd" clip-rule="evenodd" d="M23.7378 8.42315C23.3606 8.62172 23.3394 8.69503 23.3229 9.85683C23.3066 11.005 23.3358 11.1418 23.6454 11.369C23.8545 11.5223 24.3536 11.5223 24.5627 11.369C24.8612 11.15 24.8967 10.9957 24.8967 9.9192C24.8967 8.84815 24.8605 8.68785 24.5705 8.47526C24.3704 8.32864 23.9655 8.30327 23.7378 8.42315ZM16.9497 11.2352C16.7141 11.3905 16.5994 11.6048 16.5991 11.8907C16.5989 12.0302 16.6324 12.2086 16.6736 12.2871C16.7148 12.3656 17.0537 12.7309 17.4268 13.0989C17.9793 13.644 18.1418 13.775 18.3033 13.8052C18.9266 13.9217 19.3855 13.4627 19.269 12.8394C19.2388 12.678 19.1079 12.5154 18.5628 11.9629C18.1948 11.5899 17.8294 11.2509 17.7509 11.2098C17.5454 11.1019 17.132 11.115 16.9497 11.2352ZM30.4202 11.2344C30.333 11.2889 29.9724 11.6278 29.619 11.9874C29.0985 12.5169 28.9692 12.6789 28.9392 12.8394C28.8225 13.4626 29.2816 13.9217 29.9049 13.8052C30.0663 13.775 30.2289 13.644 30.7814 13.0989C31.1544 12.7309 31.4934 12.3656 31.5345 12.2871C31.5757 12.2086 31.6094 12.0211 31.6094 11.8705C31.6094 11.6176 31.5917 11.5789 31.3786 11.3657C31.163 11.1502 31.1287 11.1349 30.8632 11.1351C30.6769 11.1352 30.5241 11.1695 30.4202 11.2344ZM21.8206 13.1925C21.6548 13.2456 21.4167 13.349 21.2914 13.4225C21.0079 13.5885 20.5561 14.0607 20.4167 14.3364C20.359 14.4506 19.5655 16.4824 18.6534 18.8517L16.9951 23.1593L16.9687 26.3125L16.9423 29.4657L14.6384 31.8094C13.3712 33.0984 12.3069 34.205 12.2731 34.2685C12.1041 34.5866 12.2615 35.0867 12.5945 35.2897C12.7626 35.3922 12.869 35.3948 16.9741 35.395L21.1814 35.3952L21.3566 35.2763C21.6463 35.0796 22.4807 33.7789 23.0605 32.6203C23.3477 32.0464 23.8728 30.7709 24.0016 30.3343C24.0381 30.2108 24.0842 30.1097 24.1041 30.1097C24.1239 30.1097 24.17 30.2108 24.2065 30.3343C24.3353 30.7709 24.8604 32.0464 25.1476 32.6203C25.7274 33.7789 26.5619 35.0796 26.8516 35.2763L27.0267 35.3952H31.2395H35.4522L35.6318 35.2752C35.9461 35.0652 36.0953 34.5701 35.935 34.2685C35.9012 34.205 34.8369 33.0984 33.5698 31.8094L31.2659 29.4657L31.2395 26.3125L31.213 23.1593L29.5547 18.8517C28.6426 16.4824 27.8491 14.4506 27.7914 14.3364C27.6522 14.061 27.2003 13.5886 26.9174 13.4228C26.1382 12.9662 25.1051 12.9911 24.3723 13.4842L24.1041 13.6648L23.8358 13.4842C23.2773 13.1083 22.4558 12.9894 21.8206 13.1925ZM22.9334 14.8209C23.0068 14.8757 23.1159 14.9862 23.1758 15.0664C23.2825 15.2092 23.2851 15.2765 23.2993 18.2013L23.3138 21.1903L23.1936 21.1528C23.1275 21.1322 22.881 21.1027 22.6458 21.0872C21.9548 21.0419 21.4004 21.2432 20.8919 21.7241C20.5555 22.0423 20.3767 22.3288 20.2395 22.7695C20.1486 23.0618 20.14 23.284 20.1401 25.3443C20.1401 27.3865 20.1488 27.6162 20.2326 27.7803C20.4954 28.2958 21.2419 28.3466 21.5897 27.8728C21.6954 27.7289 21.7001 27.6446 21.7256 25.4585C21.7511 23.2747 21.7559 23.1881 21.861 23.0474C22.0564 22.7859 22.2413 22.6836 22.5184 22.6836C22.7959 22.6836 22.981 22.7862 23.1758 23.0479C23.2794 23.1871 23.2847 23.2609 23.2815 24.5247C23.2797 25.2563 23.249 26.1046 23.2134 26.4099C22.9146 28.9623 22.1461 31.2022 20.8641 33.2564L20.5354 33.7831L17.7351 33.7968L14.9349 33.8105L15.4362 33.2947C15.7118 33.011 16.5013 32.208 17.1905 31.5104C17.8797 30.8127 18.4685 30.1749 18.499 30.0931C18.5352 29.9955 18.5543 28.8568 18.5543 26.7856V23.6269L20.1932 19.3527C21.1755 16.7911 21.8796 15.0269 21.9507 14.9499C22.2104 14.6679 22.651 14.6101 22.9334 14.8209ZM25.9689 14.7486C26.0624 14.7884 26.1923 14.879 26.2575 14.9498C26.3285 15.0269 27.0332 16.7923 28.0149 19.3527L29.6538 23.6269V26.7856C29.6538 28.7992 29.6733 29.9955 29.7076 30.0857C29.7372 30.1635 30.5479 31.0272 31.5092 32.0051L33.257 33.7831L30.4908 33.7974L27.7246 33.8118L27.6264 33.692C27.4762 33.5089 26.8832 32.4944 26.6224 31.9744C25.4184 29.5734 24.8463 26.9319 24.9057 24.0483C24.9215 23.2829 24.9348 23.1778 25.0323 23.0473C25.2278 22.7858 25.4126 22.6836 25.6897 22.6836C25.9669 22.6836 26.1517 22.7859 26.3471 23.0474C26.4522 23.1881 26.4571 23.2747 26.4825 25.4585C26.5081 27.6446 26.5128 27.7289 26.6184 27.8728C26.8646 28.2081 27.4175 28.3028 27.7417 28.0652C28.0673 27.8266 28.068 27.8206 28.0681 25.3443C28.0682 23.284 28.0596 23.0618 27.9686 22.7695C27.8314 22.3288 27.6526 22.0423 27.3162 21.7241C26.8077 21.2432 26.2533 21.0419 25.5624 21.0872C25.3272 21.1027 25.0812 21.1321 25.0158 21.1525L24.8969 21.1896V18.2799C24.8969 16.3471 24.9158 15.3202 24.9533 15.2213C25.0644 14.928 25.3912 14.6831 25.6782 14.6782C25.7445 14.6771 25.8753 14.7087 25.9689 14.7486ZM14.224 17.9929C13.9348 18.1403 13.8238 18.3345 13.8238 18.6931C13.8238 19.0517 13.9348 19.2459 14.224 19.3933C14.3772 19.4714 14.5564 19.4857 15.383 19.4857C16.4596 19.4857 16.6138 19.4502 16.8328 19.1517C16.9861 18.9427 16.9861 18.4435 16.8328 18.2345C16.6138 17.9359 16.4596 17.9004 15.383 17.9004C14.5564 17.9004 14.3772 17.9147 14.224 17.9929ZM31.666 17.9929C31.3769 18.1403 31.2659 18.3345 31.2659 18.6931C31.2659 19.0517 31.3769 19.2459 31.666 19.3933C31.8193 19.4714 31.9985 19.4857 32.8251 19.4857C33.6517 19.4857 33.8309 19.4714 33.9841 19.3933C34.2733 19.2459 34.3843 19.0517 34.3843 18.6931C34.3843 18.3345 34.2733 18.1403 33.9841 17.9929C33.7156 17.8559 31.9345 17.8559 31.666 17.9929Z" fill="white"/>
<defs>
<linearGradient id="paint0_linear_2017_44" x1="24" y1="0" x2="24" y2="48" gradientUnits="userSpaceOnUse">
<stop stop-color="#2D96D0"/>
<stop offset="1" stop-color="#61C0AF"/>
</linearGradient>
</defs>
</svg>
