<svg width="33" height="33" viewBox="0 0 33 33" fill="none" xmlns="http://www.w3.org/2000/svg">
<g clip-path="url(#clip0_8_80)">
<path d="M16.0679 2.09451C13.1515 2.09782 10.3555 3.25781 8.29335 5.31999C6.23117 7.38218 5.07118 10.1781 5.06787 13.0945C5.06787 22.507 15.0679 29.6158 15.4941 29.9133C15.6623 30.031 15.8626 30.0942 16.0679 30.0942C16.2732 30.0942 16.4735 30.031 16.6416 29.9133C17.0679 29.6158 27.0679 22.507 27.0679 13.0945C27.0646 10.1781 25.9046 7.38218 23.8424 5.31999C21.7802 3.25781 18.9842 2.09782 16.0679 2.09451ZM16.0679 9.09451C16.859 9.09451 17.6324 9.32911 18.2902 9.76863C18.9479 10.2082 19.4606 10.8329 19.7634 11.5638C20.0661 12.2947 20.1454 13.099 19.991 13.8749C19.8367 14.6508 19.4557 15.3635 18.8963 15.9229C18.3369 16.4824 17.6242 16.8633 16.8482 17.0177C16.0723 17.172 15.268 17.0928 14.5371 16.79C13.8062 16.4873 13.1815 15.9746 12.742 15.3168C12.3025 14.659 12.0679 13.8856 12.0679 13.0945C12.0679 12.0336 12.4893 11.0162 13.2394 10.2661C13.9896 9.51594 15.007 9.09451 16.0679 9.09451Z" fill="#377BFA"/>
</g>
<defs>
<clipPath id="clip0_8_80">
<rect width="32" height="32" fill="white" transform="translate(0.0678711 0.0945129)"/>
</clipPath>
</defs>
</svg>
