<svg width="48" height="48" viewBox="0 0 48 48" fill="none" xmlns="http://www.w3.org/2000/svg">
<rect width="48" height="48" rx="24" fill="url(#paint0_linear_2017_47)"/>
<path fill-rule="evenodd" clip-rule="evenodd" d="M21.0448 9.83049C18.9909 10.2643 17.376 11.9921 17.0444 14.1105C16.9657 14.6135 17.0072 15.6397 17.1296 16.2157C17.7322 19.0518 19.9526 21.6805 24.6647 25.1362C25.2161 25.5406 25.6947 25.8712 25.7283 25.8707C25.7963 25.8698 27.0239 24.9845 27.9465 24.2711C30.2074 22.5228 31.9864 20.7617 32.9817 19.2868C33.6319 18.3232 34.1473 17.1236 34.3431 16.1181C34.4854 15.3875 34.4734 14.2706 34.3165 13.6353C33.9258 12.0544 32.744 10.691 31.2459 10.0928C30.5115 9.79952 30.2345 9.75074 29.3132 9.75213C28.5878 9.75324 28.3835 9.77327 28.0091 9.87988C27.2414 10.0984 26.6987 10.3965 25.8347 11.0742C25.7048 11.1761 25.7024 11.1754 25.4782 10.9728C24.8787 10.4312 23.9317 9.96772 23.1034 9.81062C22.5029 9.69669 21.6387 9.70502 21.0448 9.83049ZM23.1956 11.5851C24.0664 11.8774 24.5687 12.3086 25.2446 13.344C25.4987 13.7331 25.7166 14.0515 25.7287 14.0515C25.7409 14.0515 25.9467 13.7457 26.1863 13.3719C26.9809 12.1319 27.6892 11.6226 28.875 11.4387C30.5558 11.1779 32.2468 12.34 32.6768 14.0515C32.7982 14.5348 32.7568 15.6186 32.593 16.2435C32.4227 16.8934 31.8378 18.0218 31.2987 18.7406C30.2763 20.1039 27.9517 22.246 25.9739 23.6473L25.7145 23.8311L24.8641 23.1921C23.1173 21.8797 21.4184 20.329 20.5585 19.262C18.4029 16.5872 18.0882 14.0119 19.7195 12.3961C20.6299 11.4944 21.9841 11.1785 23.1956 11.5851ZM19.5187 27.6703C18.0828 27.9517 16.8946 28.8477 16.2468 30.1375L16.097 30.4358L15.8921 30.2356L15.6871 30.0355L13.5936 32.1296L11.5 34.2237V36.1796V38.1354H16.0945H20.689L21.4819 37.3358L22.2747 36.5361L25.6969 36.5112C29.4773 36.4837 29.5693 36.4758 30.5374 36.099C31.5329 35.7115 31.7241 35.5575 33.9469 33.3511L36.0001 31.313L34.9775 30.2882C34.3444 29.6538 33.8508 29.2068 33.6817 29.1148C32.9532 28.7182 32.059 28.7137 31.2832 29.1026C31.1611 29.1638 30.6305 29.6408 30.104 30.1626L29.1467 31.1114V29.6299V28.1484L25.7755 28.1334L22.4044 28.1184L22.068 27.9681C21.883 27.8854 21.5833 27.7782 21.4021 27.7299C20.9398 27.6065 19.9961 27.5767 19.5187 27.6703ZM21.104 29.4001C21.2699 29.4485 21.5594 29.5734 21.7474 29.6775L22.0894 29.867H24.7857H27.482V30.3211C27.482 30.8976 27.3499 31.2061 27.0343 31.3671C26.8336 31.4696 26.6998 31.4763 24.8483 31.4763H22.876V32.3364V33.1965L25.5813 33.1948C27.0693 33.1939 28.4739 33.1692 28.7028 33.1399C28.9905 33.1032 29.2464 33.0241 29.5316 32.8838C29.8896 32.7078 30.0883 32.5393 31.0329 31.6114C32.2053 30.4598 32.3065 30.3944 32.7105 30.5278C32.8128 30.5615 33.0574 30.7515 33.2542 30.95L33.6119 31.311L32.3365 32.5928C31.0355 33.9005 30.6391 34.2232 30.0068 34.4891C29.2649 34.8011 29.1844 34.8058 24.6399 34.8058H20.4613L18.9676 33.3114L17.4739 31.8168L17.5432 31.5069C17.7078 30.7717 18.3105 29.9658 18.9372 29.6433C19.582 29.3114 20.4622 29.2127 21.104 29.4001ZM17.7152 34.4451L19.7401 36.4706H16.4802H13.2203V35.6803V34.89L14.4546 33.6548C15.1334 32.9755 15.6891 32.4196 15.6895 32.4196C15.6899 32.4196 16.6015 33.3311 17.7152 34.4451Z" fill="white"/>
<defs>
<linearGradient id="paint0_linear_2017_47" x1="24" y1="0" x2="24" y2="48" gradientUnits="userSpaceOnUse">
<stop stop-color="#2D96D0"/>
<stop offset="1" stop-color="#61C0AF"/>
</linearGradient>
</defs>
</svg>
