<svg width="33" height="33" viewBox="0 0 33 33" fill="none" xmlns="http://www.w3.org/2000/svg">
<g clip-path="url(#clip0_8_77)">
<path d="M19.1016 4.83575C19.1356 4.70884 19.1942 4.58987 19.2741 4.48562C19.3541 4.38137 19.4538 4.2939 19.5675 4.22819C19.6813 4.16249 19.8069 4.11985 19.9371 4.1027C20.0674 4.08555 20.1997 4.09423 20.3266 4.12825C22.1805 4.61194 23.8718 5.58106 25.2266 6.9358C26.5813 8.29054 27.5504 9.98192 28.0341 11.8358C28.0682 11.9626 28.0768 12.095 28.0597 12.2252C28.0425 12.3555 27.9999 12.4811 27.9342 12.5948C27.8685 12.7086 27.781 12.8083 27.6768 12.8882C27.5725 12.9682 27.4535 13.0268 27.3266 13.0608C27.2422 13.0829 27.1552 13.0943 27.0679 13.0945C26.8477 13.0946 26.6336 13.022 26.4589 12.8879C26.2842 12.7539 26.1586 12.566 26.1016 12.3533C25.7073 10.8397 24.9165 9.45865 23.8106 8.35256C22.7048 7.24647 21.3239 6.45535 19.8104 6.06075C19.6834 6.02694 19.5642 5.96842 19.4599 5.88854C19.3555 5.80865 19.2679 5.70897 19.202 5.59519C19.1362 5.48142 19.0935 5.35578 19.0762 5.22547C19.059 5.09516 19.0676 4.96273 19.1016 4.83575ZM18.8104 10.0608C20.5341 10.5208 21.6416 11.6295 22.1016 13.3533C22.1586 13.566 22.2842 13.7539 22.4589 13.8879C22.6336 14.022 22.8477 14.0946 23.0679 14.0945C23.1552 14.0943 23.2422 14.0829 23.3266 14.0608C23.4535 14.0268 23.5725 13.9682 23.6768 13.8882C23.781 13.8083 23.8685 13.7086 23.9342 13.5948C23.9999 13.4811 24.0425 13.3555 24.0597 13.2252C24.0768 13.095 24.0682 12.9626 24.0341 12.8358C23.3941 10.4408 21.7216 8.76825 19.3266 8.12825C19.1997 8.09436 19.0674 8.08578 18.9372 8.10302C18.807 8.12027 18.6815 8.16298 18.5678 8.22874C18.4541 8.2945 18.3545 8.382 18.2746 8.48626C18.1947 8.59052 18.1362 8.70949 18.1023 8.83638C18.0684 8.96327 18.0598 9.09559 18.077 9.2258C18.0943 9.356 18.137 9.48153 18.2027 9.59522C18.2685 9.70892 18.356 9.80855 18.4603 9.88842C18.5645 9.9683 18.6835 10.0269 18.8104 10.0608ZM27.8641 19.902L21.9754 17.2633L21.9591 17.2558C21.6534 17.125 21.3199 17.0725 20.9888 17.1031C20.6577 17.1336 20.3395 17.2463 20.0629 17.4308C20.0303 17.4523 19.999 17.4756 19.9691 17.5008L16.9266 20.0945C14.9991 19.1583 13.0091 17.1833 12.0729 15.2808L14.6704 12.192C14.6954 12.1608 14.7191 12.1295 14.7416 12.0958C14.9222 11.8199 15.0317 11.5037 15.0605 11.1752C15.0893 10.8468 15.0364 10.5163 14.9066 10.2133V10.1983L12.2604 4.2995C12.0888 3.90358 11.7938 3.57377 11.4194 3.3593C11.0449 3.14483 10.6112 3.05721 10.1829 3.1095C8.48909 3.33239 6.93436 4.16421 5.80905 5.44962C4.68374 6.73503 4.06482 8.38612 4.06788 10.0945C4.06788 20.0195 12.1429 28.0945 22.0679 28.0945C23.7763 28.0976 25.4274 27.4786 26.7128 26.3533C27.9982 25.228 28.83 23.6733 29.0529 21.9795C29.1053 21.5513 29.0178 21.1177 28.8036 20.7433C28.5894 20.3689 28.2598 20.0738 27.8641 19.902Z" fill="#377BFA"/>
</g>
<defs>
<clipPath id="clip0_8_77">
<rect width="32" height="32" fill="white" transform="translate(0.0678711 0.0945129)"/>
</clipPath>
</defs>
</svg>
