<svg width="48" height="48" viewBox="0 0 48 48" fill="none" xmlns="http://www.w3.org/2000/svg">
<rect width="48" height="48" rx="24" fill="url(#paint0_linear_2017_40)"/>
<path fill-rule="evenodd" clip-rule="evenodd" d="M14.906 12.0295C14.8464 12.0413 14.734 12.1041 14.6564 12.1688C14.5787 12.2337 13.5792 13.9382 12.4319 15.9625L10.3486 19.6385L10.3494 19.9619C10.3503 20.3348 10.4595 20.8502 10.6269 21.2719C10.9739 22.1461 11.5526 22.7946 12.4149 23.2755L12.6948 23.4316L12.6951 29.404C12.6953 35.1532 12.6991 35.3826 12.7955 35.5407C12.8506 35.631 12.9801 35.745 13.0833 35.794C13.2567 35.8763 14.0882 35.883 23.9999 35.883C35.8956 35.883 34.9663 35.9117 35.1974 35.5378C35.3035 35.3661 35.3049 35.2864 35.3049 29.388V23.4121L35.4151 23.3771C35.5657 23.3293 36.1982 22.8969 36.4167 22.6923C37.1441 22.0113 37.6482 20.8955 37.6504 19.9615L37.6512 19.6377L36.2591 17.1886C33.1956 11.7992 33.4367 12.2007 33.199 12.0927C32.9948 12 32.5845 11.9959 23.9999 12.0017C19.058 12.0051 14.9658 12.0176 14.906 12.0295ZM34.1035 16.1527L35.665 18.8989L29.8324 18.9125C26.6245 18.9199 21.3752 18.9199 18.1673 18.9125L12.3346 18.8989L13.7427 16.4193C14.5171 15.0555 15.2224 13.8136 15.3099 13.6596L15.469 13.3794L24.0055 13.3929L32.542 13.4064L34.1035 16.1527ZM16.7205 20.545C16.4852 21.3268 15.9646 21.8859 15.1746 22.2055C14.8515 22.3362 14.7295 22.3565 14.268 22.3569C13.8147 22.3572 13.6793 22.3356 13.3642 22.2129C12.5957 21.9136 12.0509 21.3268 11.8156 20.545L11.7455 20.312H14.268H16.7905L16.7205 20.545ZM23.2238 20.4854C23.1502 20.8211 22.9085 21.2413 22.5977 21.5736C21.468 22.7812 19.5088 22.5964 18.6042 21.197C18.492 21.0233 18.375 20.7876 18.3442 20.6733C18.3134 20.5589 18.275 20.4309 18.2588 20.3887C18.2335 20.3227 18.5795 20.312 20.7456 20.312H23.2618L23.2238 20.4854ZM29.7288 20.4587C29.6522 20.8069 29.3561 21.3095 29.0432 21.6225C28.0285 22.6372 26.4025 22.6247 25.42 21.5946C25.1336 21.2943 24.8537 20.8051 24.7703 20.4587L24.7349 20.312H27.248H29.7611L29.7288 20.4587ZM36.2019 20.512C36.0293 21.1489 35.4556 21.8383 34.8677 22.1155C34.0934 22.4805 33.3735 22.4793 32.5936 22.112C31.9946 21.8299 31.3842 21.0879 31.2774 20.512L31.2403 20.312H33.7482H36.2562L36.2019 20.512ZM17.9863 22.565C18.7999 23.3737 19.6309 23.7288 20.7204 23.7332C21.9667 23.7383 23.0533 23.2252 23.8216 22.2689L23.9846 22.066L24.4855 22.5643C25.307 23.3814 26.1371 23.7315 27.2528 23.7315C28.368 23.7315 29.1901 23.3835 30.0172 22.5614L30.5171 22.0644L30.599 22.1881C30.7671 22.4418 31.3724 22.9816 31.7215 23.189C32.3029 23.5344 33.1825 23.7745 33.8784 23.7778C33.9667 23.7782 33.9717 24.0691 33.9717 29.1374V34.4966H28.4539H22.9361L22.9214 30.6172L22.9067 26.7377L22.7143 26.3378C22.5053 25.9034 22.1516 25.5143 21.7673 25.296C21.3074 25.0347 21.0914 25.0047 19.6765 25.0047C18.5012 25.0047 18.3206 25.0164 18.0068 25.1134C17.3538 25.315 16.8058 25.8419 16.5247 26.5384L16.4012 26.8444L16.3852 30.6705L16.3692 34.4966H15.1986H14.0281V29.1374C14.0281 24.0691 14.0331 23.7782 14.1214 23.7778C14.4612 23.7762 15.1866 23.652 15.5211 23.5382C16.2128 23.303 17.011 22.7428 17.3374 22.2635C17.409 22.1585 17.4726 22.0724 17.4789 22.0722C17.4851 22.0719 17.7134 22.2937 17.9863 22.565ZM25.3821 25.1296C24.9813 25.2945 24.7329 25.4933 24.5159 25.8227C24.1914 26.3155 24.1866 26.3517 24.1866 28.2842C24.1866 30.0204 24.1883 30.0482 24.3152 30.3635C24.4892 30.7955 24.928 31.2344 25.3601 31.4084L25.6797 31.537H27.8927C30.089 31.537 30.108 31.5361 30.4148 31.4123C30.7877 31.2618 31.2327 30.8455 31.406 30.485C31.5954 30.0909 31.637 29.5862 31.6113 27.9909C31.5855 26.3899 31.5665 26.2685 31.2707 25.8227C31.0519 25.4928 30.8033 25.2942 30.4032 25.1296C30.1093 25.0087 30.0786 25.0072 27.8927 25.0072C25.7067 25.0072 25.676 25.0087 25.3821 25.1296ZM21.131 26.4871C21.2395 26.5546 21.3835 26.6986 21.451 26.8071L21.5736 27.0044L21.5883 30.7505L21.603 34.4966H19.6819H17.7609L17.762 30.8038C17.7631 27.3348 17.7691 27.0981 17.8612 26.8977C18.0945 26.3896 18.2857 26.3346 19.7606 26.3512C20.8801 26.3639 20.9427 26.3701 21.131 26.4871ZM29.9127 26.3969C30.2229 26.5051 30.239 26.5966 30.239 28.2575C30.239 29.8983 30.2226 29.9982 29.9326 30.1183C29.8233 30.1636 29.2284 30.1768 27.7984 30.1658C25.8163 30.1506 25.8158 30.1505 25.6944 30.0292C25.5744 29.9092 25.5729 29.8897 25.5573 28.3528C25.5401 26.6428 25.5555 26.5354 25.8354 26.4135C26.05 26.3201 29.6503 26.3054 29.9127 26.3969Z" fill="white"/>
<defs>
<linearGradient id="paint0_linear_2017_40" x1="24" y1="0" x2="24" y2="48" gradientUnits="userSpaceOnUse">
<stop stop-color="#2D96D0"/>
<stop offset="1" stop-color="#61C0AF"/>
</linearGradient>
</defs>
</svg>
