<!DOCTYPE svg PUBLIC "-//W3C//DTD SVG 1.1//EN" "http://www.w3.org/Graphics/SVG/1.1/DTD/svg11.dtd">
<!-- Uploaded to: SVG Repo, www.svgrepo.com, Transformed by: SVG Repo Mixer Tools -->
<svg height="64px" width="64px" version="1.1" id="Layer_1" xmlns="http://www.w3.org/2000/svg" xmlns:xlink="http://www.w3.org/1999/xlink" viewBox="0 0 512 512" xml:space="preserve" fill="#000000">
<g id="SVGRepo_bgCarrier" stroke-width="0"/>
<g id="SVGRepo_tracerCarrier" stroke-linecap="round" stroke-linejoin="round"/>
<g id="SVGRepo_iconCarrier"> <ellipse style="fill:#EAEAED;" cx="256" cy="256" rx="256" ry="256"/> <path style="fill:#D9D9DD;" d="M500.762,331.22c-24.304,79.173-85.965,141.986-164.417,167.9L90.508,253.284l192.71-47.658 l137.309,45.359L500.762,331.22z"/> <path style="fill:#FA7876;" d="M117.451,255.754c0,0,28.114,74.725,72.686,86.875c44.573,12.15,53.487-1.823,71.659,0 c18.173-1.823,27.087,12.15,71.659,0c44.572-12.15,72.687-86.875,72.687-86.875s-23.314-3.341-54.515-15.492 c-19.117-7.445-48.53-3.258-68.447,1.102l33.176-1.108l4.413,10.328c-5.616,0.304-22.465-0.911-40.518,16.403 c-13.009,12.477-23.899,12.477-36.908,0c-18.053-17.314-34.902-16.099-40.518-16.403l4.413-10.328l33.176,1.108 c-19.916-4.36-49.329-8.547-68.447-1.102C140.765,252.412,117.451,255.754,117.451,255.754z"/> <g> <path style="fill:#ED6A68;" d="M117.45,255.754c0,0,28.114,74.725,72.687,86.875c44.574,12.15,53.487-1.822,71.659,0 c18.173-1.822,27.086,12.15,71.659,0c44.573-12.15,72.687-86.875,72.687-86.875c-2.976,7.178-25.906,42.365-31.797,50.432 c-10.058,13.773-23.149,27.221-38.53,32.058c-13.07,4.111-27.063,7.036-40.651,5.498c-8.219-0.93-15.457-3.841-23.416-5.235 c-3.327-0.583-6.602-0.763-9.952-0.409c-3.35-0.354-6.622-0.174-9.951,0.409c-7.957,1.394-15.197,4.305-23.416,5.235 c-13.588,1.539-27.581-1.386-40.651-5.498c-15.381-4.838-28.472-18.285-38.53-32.058 C143.363,298.127,121.033,259.714,117.45,255.754z"/> <path style="fill:#ED6A68;" d="M320.724,250.48l0.045,0.104c-5.616,0.304-22.465-0.911-40.518,16.403 c-13.008,12.477-23.9,12.477-36.909,0c-18.052-17.314-34.901-16.099-40.517-16.403l0.045-0.104h-8.263 c-0.856,1.514-1.383,2.534-1.383,2.534s26.742,0.607,42.515,18.529c15.772,17.922,26.057,13.669,26.057,13.669 s10.286,4.253,26.059-13.669c15.772-17.922,42.515-18.529,42.515-18.529s-0.525-1.019-1.384-2.534H320.724z"/> </g> <path style="fill:#FF8C8A;" d="M207.998,166.755c-27.076,8.029-71.317,66.219-83.66,72.598 c-12.342,6.379-24.686,13.669-31.201,11.846c-6.515-1.822-2.057,7.898,13.029,11.24c15.086,3.341,29.144-3.037,42.516-3.037 c13.371,0,26.743,8.809,49.029,1.822c22.286-6.986,16.801-17.618,33.258-10.936c16.458,6.683,10.629,6.379,25.029,8.201 c14.401-1.822,8.572-1.519,25.029-8.201c16.458-6.683,10.972,3.949,33.258,10.936c22.286,6.987,35.658-1.822,49.03-1.822 c13.372,0,27.43,6.379,42.515,3.037c15.086-3.341,19.544-13.061,13.029-11.24c-6.514,1.823-18.858-5.467-31.201-11.846 c-12.343-6.379-56.584-64.57-83.66-72.598c-21.157-6.274-32.321,1.529-48.001,3.341C240.319,168.284,229.155,160.48,207.998,166.755 z"/> <path style="fill:#FA7876;" d="M217.827,249.692c2.08-1.363,4.184-1.955,7.747-1.172c-5.184-4.789-10.99-11.234-15.207-18.997 c-9.6-17.668-8.915-18.425-8.915-18.425S210.475,237.488,217.827,249.692z M286.425,248.519c3.563-0.782,5.667-0.191,7.746,1.173 c7.351-12.204,16.374-38.594,16.374-38.594s0.686,0.757-8.915,18.425C297.415,237.285,291.609,243.73,286.425,248.519z"/> <g> <path style="fill:#FFABAA;" d="M230.535,177.84c2.331,0.546,3.852,3.257,3.398,6.054c-0.455,2.797-2.715,4.623-5.046,4.077 c-0.066-0.015-23.167-5.859-45.463,24.501c-1.57,2.14-4.289,2.347-6.073,0.464c-1.783-1.883-1.957-5.146-0.386-7.286 C202.569,170.787,230.454,177.821,230.535,177.84z"/> <path style="fill:#FF8C8A;" d="M223.241,335.073c2.331-0.546,3.852-3.257,3.398-6.054c-0.455-2.797-2.715-4.623-5.046-4.077 c-0.066,0.016-23.167,5.86-45.463-24.501c-1.57-2.14-4.289-2.348-6.073-0.464c-1.783,1.883-1.957,5.146-0.387,7.286 C195.275,342.127,223.16,335.092,223.241,335.073z"/> </g> </g>
</svg>