<!DOCTYPE svg PUBLIC "-//W3C//DTD SVG 1.1//EN" "http://www.w3.org/Graphics/SVG/1.1/DTD/svg11.dtd">
<!-- Uploaded to: SVG Repo, www.svgrepo.com, Transformed by: SVG Repo Mixer Tools -->
<svg height="64px" width="64px" version="1.1" id="Layer_1" xmlns="http://www.w3.org/2000/svg" xmlns:xlink="http://www.w3.org/1999/xlink" viewBox="0 0 512 512" xml:space="preserve" fill="#000000">
<g id="SVGRepo_bgCarrier" stroke-width="0"/>
<g id="SVGRepo_tracerCarrier" stroke-linecap="round" stroke-linejoin="round"/>
<g id="SVGRepo_iconCarrier"> <circle style="fill:#EAEAED;" cx="256" cy="256" r="256"/> <path style="fill:#D9D9DD;" d="M510.211,286.299c-10.861,92.074-70.571,169.178-152.51,204.694L250.529,383.81l118.552-238.64 L510.211,286.299z"/> <path style="fill:#FA7876;" d="M250.529,185.96c0-36.324-53.43-56.95-68.124-56.039l-20.903,7.145 c-35.389,12.108-42.488,44.369-42.488,64.719c0,87.607,131.515,182.024,131.515,182.024l10.942-3.324 c1.477-0.45-1.904-3.37-0.658-4.328c51.168-39.394,121.23-112.1,121.23-174.372c0-36.313-25.89-78.235-61.844-73.168l-30.518,4.294 C264.16,136.513,250.529,161.248,250.529,185.96z"/> <path style="fill:#FF8C8A;" d="M261.471,182.625c0-36.313-29.433-54.238-65.757-54.238c-36.313,0-65.757,33.75-65.757,70.074 c0,87.596,131.515,182.024,131.515,182.024s131.515-94.429,131.515-182.024c0-36.324-29.433-70.074-65.757-70.074 C290.916,128.387,261.471,146.312,261.471,182.625z"/> <path style="fill:#FA7876;" d="M156.031,143.288c-8.553,7.156-15.467,16.436-20.026,26.825c1.593,0.473,3.29,0.727,5.044,0.727 c9.857,0,17.845-7.999,17.845-17.856C158.893,149.417,157.843,146.081,156.031,143.288z M138.74,240.002 c4.063,10.123,9.326,20.118,15.398,29.837c2.955-3.186,4.755-7.445,4.755-12.131c0-9.857-7.987-17.856-17.845-17.856 C140.264,239.852,139.502,239.91,138.74,240.002z M169.778,292.22c6.845,8.876,14.128,17.383,21.504,25.359 c1.35-2.516,2.124-5.402,2.124-8.461c0-9.857-7.987-17.856-17.845-17.856C173.529,291.262,171.59,291.608,169.778,292.22z M267.231,376.18c5.794-4.444,15.513-12.143,27.055-22.288c-3.024-5.552-8.911-9.315-15.675-9.315 c-9.857,0-17.845,7.999-17.845,17.856C260.767,367.962,263.272,372.902,267.231,376.18z M390.481,220.057 c1.616-7.214,2.505-14.428,2.505-21.596c0-2.839-0.173-5.667-0.531-8.461c-2.955-2.17-6.602-3.451-10.55-3.451 c-9.857,0-17.845,7.987-17.845,17.845c0,9.857,7.987,17.845,17.845,17.845C385.01,222.238,387.93,221.453,390.481,220.057z M287.499,137.505c-10.711,5.91-18.86,14.705-22.993,26.421c3.267,4.201,8.368,6.914,14.105,6.914 c9.857,0,17.845-7.999,17.845-17.856C296.456,146.37,292.855,140.587,287.499,137.505z M313.124,291.262 c9.857,0,17.845,7.999,17.845,17.856s-7.987,17.845-17.845,17.845c-9.857,0-17.845-7.987-17.845-17.845 S303.266,291.262,313.124,291.262z M244.342,291.262c9.857,0,17.845,7.999,17.845,17.856s-7.987,17.845-17.845,17.845 s-17.856-7.987-17.856-17.845S234.485,291.262,244.342,291.262z M347.393,239.852c9.857,0,17.856,7.999,17.856,17.856 c0,9.857-7.999,17.845-17.856,17.845c-9.857,0-17.845-7.987-17.845-17.845C329.548,247.851,337.536,239.852,347.393,239.852z M278.612,239.852c9.857,0,17.845,7.999,17.845,17.856c0,9.857-7.987,17.845-17.845,17.845c-9.857,0-17.845-7.987-17.845-17.845 C260.767,247.851,268.754,239.852,278.612,239.852z M209.83,239.852c9.857,0,17.845,7.999,17.845,17.856 c0,9.857-7.987,17.845-17.845,17.845c-9.857,0-17.856-7.987-17.856-17.845C191.974,247.851,199.973,239.852,209.83,239.852z M313.124,186.549c9.857,0,17.845,7.987,17.845,17.845c0,9.857-7.987,17.845-17.845,17.845c-9.857,0-17.845-7.987-17.845-17.845 C295.279,194.536,303.266,186.549,313.124,186.549z M244.342,186.549c9.857,0,17.845,7.987,17.845,17.845 c0,9.857-7.987,17.845-17.845,17.845s-17.856-7.987-17.856-17.845C226.486,194.536,234.485,186.549,244.342,186.549z M175.561,186.549c9.857,0,17.845,7.987,17.845,17.845c0,9.857-7.987,17.845-17.845,17.845c-9.857,0-17.856-7.987-17.856-17.845 C157.704,194.536,165.703,186.549,175.561,186.549z M347.393,135.139c9.857,0,17.856,7.987,17.856,17.845 s-7.999,17.856-17.856,17.856c-9.857,0-17.845-7.999-17.845-17.856S337.536,135.139,347.393,135.139z M209.83,135.139 c9.857,0,17.845,7.987,17.845,17.845s-7.987,17.856-17.845,17.856c-9.857,0-17.856-7.999-17.856-17.856 S199.973,135.139,209.83,135.139z"/> <g> <path style="fill:#9EA7DB;" d="M307.399,341.98c8.461-7.941,17.394-16.84,26.19-26.478V128.733 c-2.089-0.231-4.213-0.346-6.36-0.346c-6.902,0-13.562,0.646-19.83,1.951V341.98z"/> <path style="fill:#9EA7DB;" d="M142.33,248.267h238.294c4.028-8.634,7.226-17.394,9.372-26.178H132.957l-9.326,15.155l9.569,21.631 l2.147,0.704L142.33,248.267z"/> </g> <path style="fill:#8C95C9;" d="M142.33,248.267h0.219c-3.417-8.357-6.66-17.014-9.592-26.178l-9.326,15.155l9.569,21.631 l2.147,0.704L142.33,248.267z"/> <path style="fill:#F8F8F8;" d="M304.074,241.48l-18.445,32.33l15.005-5.494l6.648,10.769l12.731-36.855L304.074,241.48z M338.228,241.48l18.445,32.33l-15.005-5.494l-6.648,10.769l-12.743-36.855L338.228,241.48z"/> <path style="fill:#CCCCCC;" d="M304.074,241.48l-9.73,17.037l22.508-7.11l3.163-9.176L304.074,241.48z M325.428,251.348 l21.492,5.367l-8.691-15.236l-15.952,0.75L325.428,251.348z"/> <path style="fill:#D9D9DD;" d="M321.146,231.992l-0.219-0.127l-0.012-0.289l-0.658-0.081c-5.575-3.07-35.551-19.08-47.186-14.497 c-5.887,2.332-5.887,35.608,0,37.928c11.635,4.582,41.611-11.415,47.186-14.486l0.658-0.081l0.012-0.289l0.219-0.127l0.115-3.982 L321.146,231.992z M321.146,239.944l-0.104-3.982l0.104-3.971l0.231-0.127l0.012-0.289l0.658-0.081 c5.575-3.07,35.539-19.08,47.186-14.497c5.887,2.332,5.887,35.608,0,37.928c-11.646,4.582-41.611-11.415-47.186-14.486l-0.658-0.081 l-0.012-0.289L321.146,239.944z"/> <path style="fill:#F8F8F8;" d="M321.146,231.992l-0.219-0.127l-0.012-0.289l-0.658-0.081c-5.575-3.07-35.551-19.08-47.186-14.486 c-2.943,1.154-4.421,10.053-4.421,18.953h52.391L321.146,231.992l0.231-0.127l0.012-0.289l0.658-0.081 c5.575-3.07,35.539-19.08,47.186-14.486c2.943,1.154,4.421,10.053,4.421,18.953h-52.391L321.146,231.992z"/> <path style="fill:#FA7876;" d="M313.401,225.17h14.52c1.928,0,3.509,1.581,3.509,3.509v14.405c0,1.928-1.581,3.509-3.509,3.509 h-14.52c-1.928,0-3.509-1.581-3.509-3.509v-14.405C309.892,226.751,311.473,225.17,313.401,225.17z"/> <path style="fill:#FF8C8A;" d="M313.401,225.17h14.52c1.939,0,3.509,1.581,3.509,3.509v7.283h-21.538v-7.283 C309.892,226.751,311.473,225.17,313.401,225.17z"/> </g>
</svg>